<?xml version="1.0" encoding="utf-8"?>
<!-- Generator: Adobe Illustrator 25.2.1, SVG Export Plug-In . SVG Version: 6.00 Build 0)  -->
<svg version="1.1" xmlns="http://www.w3.org/2000/svg" xmlns:xlink="http://www.w3.org/1999/xlink" x="0px" y="0px"
	 viewBox="0 0 653.8 371.4" style="enable-background:new 0 0 653.8 371.4;" xml:space="preserve">
<style type="text/css">
	.st0{fill:#1D2430;}
	.st1{opacity:0.4;}
	.st2{display:none;}
	.st3{display:inline;}
	.st4{fill:#407BFF;}
	.st5{opacity:0.9;fill:#FFFFFF;}
	.st6{fill:#F5F5F5;}
	.st7{opacity:0.3;}
	.st8{opacity:0.2;}
	.st9{fill:#263238;}
	.st10{opacity:0.6;}
	.st11{opacity:0.7;fill:#FFFFFF;}
	.st12{fill:#FFFFFF;}
	.st13{opacity:0.1;fill:#407BFF;}
	.st14{opacity:0.4;fill:#FFFFFF;}
	.st15{fill:#B65B52;}
	.st16{fill:#B55B52;}
	.st17{opacity:0.5;fill:#FFFFFF;}
	.st18{fill:#FAFAFA;}
	.st19{opacity:0.6;fill:#407BFF;}
	.st20{fill:#A02724;}
	.st21{opacity:0.3;fill:#FAFAFA;}
	.st22{opacity:0.5;}
	.st23{fill:#E7E7E7;}
	.st24{fill:#3C4354;}
	.st25{fill:#4675CD;}
	.st26{fill:#4069A5;}
</style>
<g id="Background_Complete">
	<g>
		<rect x="92.8" y="337.5" class="st0" width="500" height="0.2"/>
		<rect x="509.6" y="353.6" class="st0" width="33.1" height="0.2"/>
		<rect x="415.4" y="356.3" class="st0" width="8.7" height="0.2"/>
		<rect x="489.4" y="344.3" class="st0" width="19.2" height="0.2"/>
		<rect x="145.3" y="346" class="st0" width="43.2" height="0.2"/>
		<rect x="197.4" y="346" class="st0" width="6.3" height="0.2"/>
		<rect x="224.3" y="350.2" class="st0" width="93.7" height="0.2"/>
		<path class="st0" d="M329.9,292.9H136.8c-3.1,0-5.7-2.6-5.7-5.7V15.8c0-3.1,2.6-5.7,5.7-5.7h193.1c3.1,0,5.7,2.6,5.7,5.7v271.4
			C335.6,290.4,333,292.9,329.9,292.9z M136.8,10.3c-3,0-5.5,2.4-5.5,5.5v271.4c0,3,2.4,5.5,5.5,5.5h193.1c3,0,5.5-2.4,5.5-5.5V15.8
			c0-3-2.4-5.5-5.5-5.5H136.8z"/>
		<path class="st0" d="M546.2,292.9H353.1c-3.1,0-5.7-2.6-5.7-5.7V15.8c0-3.1,2.6-5.7,5.7-5.7h193.1c3.1,0,5.7,2.6,5.7,5.7v271.4
			C551.9,290.4,549.3,292.9,546.2,292.9z M353.1,10.3c-3,0-5.5,2.4-5.5,5.5v271.4c0,3,2.4,5.5,5.5,5.5h193.1c3,0,5.5-2.4,5.5-5.5
			V15.8c0-3-2.4-5.5-5.5-5.5H353.1z"/>
	</g>
	<g>
		<g>
			<g>
				<g>
					<g>
						
							<rect x="272" y="43.7" transform="matrix(-1 -1.224647e-16 1.224647e-16 -1 775.6372 241.5205)" class="st0" width="231.7" height="154.1"/>
						
							<rect x="268.4" y="43.7" transform="matrix(-1 -1.224647e-16 1.224647e-16 -1 768.4653 241.5205)" class="st0" width="231.7" height="154.1"/>
						
							<rect x="314.4" y="11.3" transform="matrix(-1.836970e-16 1 -1 -1.836970e-16 504.993 -263.4724)" class="st0" width="139.6" height="218.8"/>
						
							<rect x="206.4" y="119.4" transform="matrix(-1.836970e-16 1 -1 -1.836970e-16 396.938 -155.4173)" class="st0" width="139.6" height="2.7"/>
						
							<rect x="271" y="147.2" transform="matrix(-1 -1.224647e-16 1.224647e-16 -1 768.4653 304.0486)" class="st0" width="226.4" height="9.7"/>
					</g>
				</g>
			</g>
			<g class="st1">
				<rect x="261.2" y="36.1" class="st0" width="21.9" height="130.3"/>
				
					<rect x="283.1" y="36.1" transform="matrix(-1 -1.224647e-16 1.224647e-16 -1 576.9963 192.111)" class="st0" width="10.8" height="119.9"/>
				<rect x="293.9" y="36.1" class="st0" width="21.9" height="130.3"/>
				
					<rect x="315.8" y="36.1" transform="matrix(-1 -1.224647e-16 1.224647e-16 -1 642.4333 192.111)" class="st0" width="10.8" height="119.9"/>
				<rect x="326.6" y="36.1" class="st0" width="21.9" height="130.3"/>
				
					<rect x="348.5" y="36.1" transform="matrix(-1 -1.224647e-16 1.224647e-16 -1 707.8702 192.111)" class="st0" width="10.8" height="119.9"/>
				<rect x="359.4" y="36.1" class="st0" width="21.9" height="130.3"/>
				
					<rect x="381.2" y="36.1" transform="matrix(-1 -1.224647e-16 1.224647e-16 -1 773.3071 192.111)" class="st0" width="10.8" height="119.9"/>
				<rect x="392.1" y="36.1" class="st0" width="21.9" height="130.3"/>
				
					<rect x="414" y="36.1" transform="matrix(-1 -1.224647e-16 1.224647e-16 -1 838.7441 192.111)" class="st0" width="10.8" height="119.9"/>
				<rect x="424.8" y="36.1" class="st0" width="21.9" height="130.3"/>
				
					<rect x="446.7" y="36.1" transform="matrix(-1 -1.224647e-16 1.224647e-16 -1 904.1811 192.111)" class="st0" width="10.8" height="119.9"/>
				<rect x="457.5" y="36.1" class="st0" width="21.9" height="130.3"/>
				
					<rect x="479.4" y="36.1" transform="matrix(-1 -1.224647e-16 1.224647e-16 -1 969.6181 192.111)" class="st0" width="10.8" height="119.9"/>
				<rect x="490.2" y="36.1" class="st0" width="21.9" height="130.3"/>
			</g>
		</g>
		<g>
			
				<rect x="175.6" y="232.1" transform="matrix(-1 -1.224647e-16 1.224647e-16 -1 402.5543 569.6236)" class="st0" width="51.3" height="105.4"/>
			<polygon class="st0" points="185.4,337.5 175.6,337.5 175.6,316 195.6,316 			"/>
			
				<rect x="468.3" y="232.1" transform="matrix(-1 -1.224647e-16 1.224647e-16 -1 987.8253 569.6236)" class="st0" width="51.3" height="105.4"/>
			
				<rect x="175.6" y="232.1" transform="matrix(-1 -1.224647e-16 1.224647e-16 -1 652.4033 556.4525)" class="st0" width="301.1" height="92.2"/>
			<g>
				<path class="st0" d="M466.8,298.3h-89.3c-0.5,0-0.8-0.4-0.8-0.8v-58.4c0-0.5,0.4-0.8,0.8-0.8H394c0.2,0,0.3,0.1,0.5,0.2
					c2.4,1.7,5.1,3.1,8,4.1c3.4,1.1,7,1.7,10.8,1.7H431c7.1,0,13.7-2.1,18.8-5.8c0.1-0.1,0.3-0.2,0.5-0.2h16.5
					c0.5,0,0.8,0.4,0.8,0.8v58.4C467.6,298,467.2,298.3,466.8,298.3z M378.3,296.7h87.6V240h-15.4c-5.3,3.9-12.3,6-19.6,6h-17.7
					c-3.9,0-7.7-0.6-11.3-1.8c-3-1-5.8-2.4-8.3-4.2h-15.4V296.7z"/>
			</g>
			<g>
				<path class="st0" d="M370.8,298.3h-89.3c-0.5,0-0.8-0.4-0.8-0.8v-58.4c0-0.5,0.4-0.8,0.8-0.8h15.6c0.2,0,0.3,0.1,0.5,0.2
					c2.4,1.8,5.1,3.1,8,4.1c3.4,1.1,7,1.7,10.8,1.7h17.7c7,0,13.7-2.1,18.8-5.8c0.1-0.1,0.3-0.2,0.5-0.2h17.4c0.5,0,0.8,0.4,0.8,0.8
					v58.4C371.7,298,371.3,298.3,370.8,298.3z M282.4,296.7H370V240h-16.3c-5.3,3.9-12.3,6-19.6,6h-17.7c-3.9,0-7.7-0.6-11.3-1.8
					c-3-1-5.8-2.4-8.3-4.2h-14.5V296.7z"/>
			</g>
			<g>
				<path class="st0" d="M274.9,298.3h-89.3c-0.5,0-0.8-0.4-0.8-0.8v-58.4c0-0.5,0.4-0.8,0.8-0.8h15.6c0.2,0,0.3,0.1,0.5,0.2
					c2.4,1.7,5.1,3.1,8.1,4.1c3.4,1.1,7,1.7,10.8,1.7h17.7c7.1,0,13.7-2.1,18.8-5.8c0.1-0.1,0.3-0.2,0.5-0.2h17.4
					c0.5,0,0.8,0.4,0.8,0.8v58.4C275.7,298,275.4,298.3,274.9,298.3z M186.5,296.7h87.6V240h-16.3c-5.3,3.9-12.3,6-19.6,6h-17.7
					c-3.9,0-7.7-0.6-11.3-1.8c-3-1-5.8-2.4-8.3-4.2h-14.5V296.7z"/>
			</g>
			<polygon class="st0" points="467,337.5 476.8,337.5 476.8,316 456.8,316 			"/>
		</g>
		<g>
			<path class="st0" d="M236.8,214.5l-8.1,0c0.1-5.6,0-19.8-0.6-52.4c-1-59-2.9-62.6-2.9-62.6l9.6,29.1c2.3,6.9,3.6,14,3.9,21.2
				C239.8,172.5,235.9,190.6,236.8,214.5z"/>
			<path class="st0" d="M242.9,119.8c10.8-16.3,32.3-24.9,54.3-32.9c8.6-3.1-15.6,35.9-33.3,53.6c-13.7,13.8-26.9,13.5-30.9,27.1
				C232.3,151.8,233.6,133.8,242.9,119.8z"/>
			<path class="st0" d="M230.6,109.3c-8.5-19.1-29.8-43.9-53.9-61.3c-9.4-6.9,13.8,52,30.3,76.1c12.8,18.8,24.7,30.2,26.6,43.6
				C241.6,150.9,239,128.4,230.6,109.3z"/>
			<g>
				<path class="st0" d="M231.4,232.1L231.4,232.1c9.5,0,17.3-7.4,17.9-16.9l1.6-16.2h-38.9l1.6,16.2
					C214,224.7,221.9,232.1,231.4,232.1z"/>
				<polygon class="st0" points="209.4,199.1 253.4,199.1 254.6,193.4 208.1,193.4 				"/>
				<polygon class="st0" points="211.5,209 251.2,209 252.3,203.2 210.4,203.2 				"/>
			</g>
		</g>
	</g>
</g>
<g id="Background_Simple" class="st2">
	<g class="st3">
		<path class="st4" d="M409.9,70.6C377,51.6,323,49.3,292.3,71.7c-33.9,24.8-28.7,71.8-63.3,94.2c-35.2,22.7-77.6,13.1-72.9,71.6
			c3.6,45.1,42,57.1,79,69.1c66.4,21.5,194.8,45.4,241.6-26.2C529.8,198.9,483.5,113.4,409.9,70.6z"/>
		<path class="st5" d="M409.9,70.6C377,51.6,323,49.3,292.3,71.7c-33.9,24.8-28.7,71.8-63.3,94.2c-35.2,22.7-77.6,13.1-72.9,71.6
			c3.6,45.1,42,57.1,79,69.1c66.4,21.5,194.8,45.4,241.6-26.2C529.8,198.9,483.5,113.4,409.9,70.6z"/>
	</g>
</g>
<g id="Shadow_1_">
	<ellipse id="_x3C_Path_x3E__93_" class="st6" cx="342.8" cy="371.4" rx="193.9" ry="11.3"/>
</g>
<g id="Table">
	<g>
		<g>
			<rect x="187.6" y="273.4" class="st4" width="310.6" height="35.2"/>
			<rect x="431.5" y="273.4" class="st7" width="66.6" height="35.2"/>
		</g>
		<g>
			<rect x="187.6" y="308.6" class="st4" width="34.3" height="62.7"/>
			<polygon class="st7" points="187.6,308.6 187.6,312.1 211.8,319.4 211.8,371.4 221.8,371.4 221.8,308.6 			"/>
		</g>
		<g>
			<g>
				<rect x="463.8" y="308.6" class="st4" width="34.3" height="62.7"/>
				<rect x="463.8" y="308.6" class="st8" width="34.3" height="62.7"/>
			</g>
			<polygon class="st7" points="463.8,308.6 463.8,312.1 488.1,319.4 488.1,371.4 498.1,371.4 498.1,308.6 			"/>
		</g>
		<g>
			<rect x="397.2" y="308.6" class="st4" width="34.3" height="62.7"/>
			<polygon class="st7" points="397.2,308.6 397.2,312.1 421.5,319.4 421.5,371.4 431.5,371.4 431.5,308.6 			"/>
		</g>
		<g>
			<g>
				<rect x="254.2" y="308.6" class="st4" width="34.3" height="62.7"/>
				<rect x="254.2" y="308.6" class="st8" width="34.3" height="62.7"/>
			</g>
			<polygon class="st7" points="254.2,308.6 254.2,312.1 278.5,319.4 278.5,371.4 288.5,371.4 288.5,308.6 			"/>
		</g>
	</g>
</g>
<g id="Character">
	<g>
		<g>
			<g>
				<g>
					<path class="st9" d="M455.3,266.5H265.4c-2.5,0-4.5-2.1-4.3-4.6l7.8-124.1c0.2-2.5,2.4-4.6,4.9-4.6h189.9
						c2.5,0,4.5,2.1,4.3,4.6l-7.8,124.1C460,264.5,457.8,266.5,455.3,266.5z"/>
					<path class="st10" d="M455.3,266.5H265.4c-2.5,0-4.5-2.1-4.3-4.6l7.8-124.1c0.2-2.5,2.4-4.6,4.9-4.6h189.9
						c2.5,0,4.5,2.1,4.3,4.6l-7.8,124.1C460,264.5,457.8,266.5,455.3,266.5z"/>
				</g>
				<g>
					<path class="st9" d="M453.9,266.5H264c-2.5,0-4.5-2.1-4.3-4.6l7.8-124.1c0.2-2.5,2.4-4.6,4.9-4.6h189.9c2.5,0,4.5,2.1,4.3,4.6
						l-7.8,124.1C458.6,264.5,456.4,266.5,453.9,266.5z"/>
				</g>
				<g>
					<g>
						<path class="st9" d="M453.7,268.1H227.7c-2.2,0-4.1,1.3-5,3.1c-0.5,1,0.3,2.3,1.4,2.3h232.9c1.2,0,2-1.2,1.4-2.3
							C457.7,269.4,455.8,268.1,453.7,268.1z"/>
					</g>
					<path class="st10" d="M453.7,268.1h-32.1c-2.2,0-4.1,1.3-5,3.1c-0.5,1,0.3,2.3,1.4,2.3h39.1c1.2,0,2-1.2,1.4-2.3
						C457.7,269.4,455.8,268.1,453.7,268.1z"/>
					<path class="st4" d="M433.7,272h-8.3c-0.4,0-0.7-0.3-0.7-0.7l0,0c0-0.4,0.3-0.7,0.7-0.7h8.3c0.4,0,0.7,0.3,0.7,0.7l0,0
						C434.5,271.7,434.1,272,433.7,272z"/>
					<path class="st11" d="M327,272h-8.3c-0.4,0-0.7-0.3-0.7-0.7l0,0c0-0.4,0.3-0.7,0.7-0.7h8.3c0.4,0,0.7,0.3,0.7,0.7l0,0
						C327.7,271.7,327.4,272,327,272z"/>
					<path class="st4" d="M442.3,272h-5.4c-0.3,0-0.6-0.3-0.6-0.6v-0.3c0-0.3,0.3-0.6,0.6-0.6h5.4c0.3,0,0.6,0.3,0.6,0.6v0.3
						C442.9,271.7,442.7,272,442.3,272z"/>
				</g>
				<path class="st12" d="M264,257.4l7.3-115.1c0.1-1,0.9-1.8,1.9-1.8h187.5c1,0,1.7,0.8,1.7,1.8l-7.3,115.1c-0.1,1-0.9,1.8-1.9,1.8
					H265.7C264.7,259.2,263.9,258.4,264,257.4z"/>
				<path class="st13" d="M370.7,137l-62.4,118.7h-46.1c-1,0-1.7-0.8-1.7-1.8l7.3-115.1c0.1-1,0.9-1.8,1.9-1.8H370.7z"/>
				<polygon class="st13" points="425.4,137 362.9,255.7 348.3,255.7 410.8,137 				"/>
				<path class="st13" d="M458.8,138.8l-7.3,115.1c-0.1,1-0.9,1.8-1.9,1.8h-71L441.1,137h16C458.1,137,458.8,137.8,458.8,138.8z"/>
				<path class="st14" d="M368.5,137.1c0,0.7-0.7,1.3-1.4,1.3c-0.7,0-1.3-0.6-1.3-1.3c0-0.7,0.7-1.3,1.4-1.3
					C368,135.7,368.5,136.3,368.5,137.1z"/>
			</g>
		</g>
		<g>
			<g>
				<path class="st9" d="M337.5,109.5c-5.5,6.3-8.6,25.4-4.6,34.9c4.1,9.4-42.9,18.9-4.2,34.2c38.8,15.3,69.8-2.4,58.6-18.3
					s1.2-42.3-11.8-49C363.8,105.2,348.5,97,337.5,109.5z"/>
				<path class="st15" d="M325.9,186.8c-2.1,7-4.2,14-6.5,21c-2.3,7-4.6,13.9-7.1,20.9l-0.9,2.6l-0.5,1.3l-0.1,0.4l-0.2,0.6
					c-0.1,0.4-0.4,0.8-0.6,1.2c-0.9,1.6-2.4,3.3-4.2,4.3c-1.8,1-3.7,1.3-5.2,1.4c-3.1,0-5.4-0.7-7.5-1.5c-2.1-0.8-3.9-1.8-5.6-2.8
					c-6.9-4.1-12.5-9-17.9-14.5l4.3-5.1c1.5,0.9,3,1.9,4.5,2.8c1.5,0.9,3.1,1.8,4.6,2.7c3.1,1.8,6.2,3.4,9.2,4.7
					c1.5,0.7,3,1.2,4.4,1.6c1.4,0.4,2.7,0.5,3.3,0.4c0.3-0.1,0.2-0.2,0-0.1c-0.2,0.1-0.5,0.3-0.5,0.3c0,0,0,0,0-0.1c0,0,0,0,0-0.1
					l0.1-0.3l0.4-1.3l0.8-2.6l6.1-21c2.1-7,4.2-14,6.4-21L325.9,186.8z"/>
				<path class="st16" d="M273.5,216.4l-11.6-4.3l4.6,12.3c0,0,8.2,1.2,11.4-3.1l-2.6-3.5C274.8,217.2,274.2,216.7,273.5,216.4z"/>
				<polygon class="st16" points="251.6,215.7 256,225.8 266.5,224.4 261.9,212.1 				"/>
				<g>
					<path class="st4" d="M317.4,168.7c-5.3,1.4-9,23.2-9,23.2l14.6,10c0,0,14-22.1,10-27.9C328.7,167.9,325.2,166.7,317.4,168.7z"
						/>
					<path class="st17" d="M317.4,168.7c-5.3,1.4-9,23.2-9,23.2l14.6,10c0,0,14-22.1,10-27.9C328.7,167.9,325.2,166.7,317.4,168.7z"
						/>
				</g>
				<path class="st8" d="M316.9,176.6l11.4,2.6l1.1,11.1c-3,6.1-6.4,11.5-6.4,11.5l-8.9-6C314.5,190.7,315.5,180.1,316.9,176.6z"/>
				<g>
					<path class="st4" d="M317.4,168.7c0,0-6.1,2.2,6.2,77.8c20.8,0,42.3,0,52.4,0c-0.9-21.3-0.9-34.5,9.3-78.2c0,0-11-2.4-22.2-2.9
						c-8.8-0.4-16-0.7-23.8,0C329,166.3,317.4,168.7,317.4,168.7z"/>
					<path class="st17" d="M317.4,168.7c0,0-6.1,2.2,6.2,77.8c20.8,0,42.3,0,52.4,0c-0.9-21.3-0.9-34.5,9.3-78.2
						c0,0-11-2.4-22.2-2.9c-8.8-0.4-16-0.7-23.8,0C329,166.3,317.4,168.7,317.4,168.7z"/>
				</g>
				<path class="st8" d="M372.9,188.6l6.8,5.8c-1.4,7.6-2.4,14-3,19.7C375.4,208.4,372.2,192.9,372.9,188.6z"/>
				<path class="st16" d="M360.6,138.6c-1.5,7.7-3,21.7,2.4,26.8c0,0-5,11.5-18.3,11.5c-13.3,0-5.5-11.5-5.5-11.5
					c8.5-2,8.3-8.4,6.8-14.3L360.6,138.6z"/>
				<path class="st18" d="M361.3,162.5c-1.3,2.6-5.3,8.4-16.7,10.5c-0.3,0.1-0.6,0-0.9-0.2c-2.1-1.5-3.4-4.6-2.5-8.2
					c0.3-1-0.7-1.9-1.7-1.5c-1.1,0.5-2.1,1-2.5,1.3c-0.2,0.1-0.3,0.3-0.4,0.5c-0.8,1.6-4.2,9.2,6,13.9c0.2,0.1,0.3,0.1,0.5,0.1
					c6,0.1,16.5-1.1,23.1-13c0.2-0.4,0.2-1-0.1-1.4c-0.7-0.9-2.1-1.9-3.1-2.5C362.4,161.6,361.6,161.8,361.3,162.5z"/>
				<path class="st18" d="M364.1,194l-13.5-0.4c-0.6,0-1-0.5-1-1.1l0.1-1.7c0-0.6,0.6-1.1,1.2-1l13.5,0.4c0.6,0,1,0.5,1,1.1
					l-0.1,1.7C365.2,193.5,364.7,194,364.1,194z"/>
				<path class="st8" d="M354.7,143.7L346,151c0.4,1.4,0.6,2.8,0.7,4.2c3.3-0.5,7.7-4,8.1-7.5C355,146.1,355,144.5,354.7,143.7z"/>
				<path class="st16" d="M370.7,124.1c-2.4,12.6-3.2,17.9-10.4,23.6c-10.9,8.5-25.8,2.8-27.2-10.2c-1.2-11.7,2.9-30.3,16-33.7
					C361.9,100.4,373.1,111.6,370.7,124.1z"/>
				<path class="st9" d="M363.6,114.8c-1.6,7.9-1.9,18.3,5.3,18.3s12.9-12.3,6.6-21.9C369.3,101.6,364.5,110.2,363.6,114.8z"/>
				<path class="st9" d="M376,115.8c0,8.6-10.8,4.3-15.6,0.6c-4.8-3.7-5-3.3-13.8-3.3c-8.8,0-10.6-0.6-13.2-4.8
					c-2.6-4.2-2.4-7,3.5-6.1c5.9,0.9,0.9-5.1,5.3-8.4c4.4-3.3,9.6-2.5,15.6,5.1C363.8,106.4,376,100.9,376,115.8z"/>
				<g>
					
						<ellipse transform="matrix(0.2813 -0.9596 0.9596 0.2813 136.1471 449.7077)" class="st12" cx="368.3" cy="134" rx="7.3" ry="4.7"/>
					<path class="st12" d="M352.8,145c-2.3,0-4.6-0.5-6.7-1.4c-0.2-0.1-0.3-0.3-0.2-0.5c0.1-0.2,0.3-0.3,0.5-0.2
						c4.1,1.7,8.6,1.8,12.7,0.1c4-1.7,7.1-4.8,8.8-8.8c3-8.6,6.1-19.3,2.5-26c-1.4-2.6-3.7-4.3-6.9-5.1c-0.2-0.1-0.3-0.3-0.3-0.5
						c0.1-0.2,0.2-0.3,0.5-0.3c3.4,0.9,5.9,2.7,7.4,5.5c3.7,6.9,0.6,17.8-2.5,26.6c-1.7,4.2-5,7.4-9.2,9.2
						C357.2,144.5,355,145,352.8,145z"/>
					<path class="st19" d="M372.5,135.3c-0.9,3-2.9,5.1-4.6,4.6c-1.6-0.5-2.2-3.3-1.3-6.4c0.9-3,2.9-5.1,4.6-4.6
						C372.8,129.4,373.4,132.3,372.5,135.3z"/>
					<path class="st12" d="M346.6,144.6l-3.9-0.8c-0.7-0.1-1.1-0.8-1-1.5l0-0.2c0.1-0.7,0.8-1.1,1.5-1l3.9,0.8
						c0.7,0.1,1.1,0.8,1,1.5l0,0.2C348,144.3,347.3,144.8,346.6,144.6z"/>
				</g>
				<path class="st20" d="M342,125.2c0,0-2.3,4.2-4.5,6.1c1.2,1.4,3.6,1.2,3.6,1.2L342,125.2z"/>
				<path class="st9" d="M344.2,137.8C344.2,137.8,344.3,137.8,344.2,137.8c3.6,0.5,6.3-1.8,6.4-1.9c0.1-0.1,0.1-0.2,0-0.3
					c-0.1-0.1-0.2-0.1-0.3,0c0,0-2.7,2.2-6,1.8c-0.1,0-0.2,0.1-0.2,0.2C344.1,137.7,344.2,137.8,344.2,137.8z"/>
				<path class="st9" d="M355.7,120.2c0.1,0.1,0.3,0,0.4,0c0.2-0.1,0.2-0.4,0.1-0.5c-1.7-2.8-4.4-2.8-4.6-2.8
					c-0.2,0-0.4,0.2-0.4,0.4c0,0.2,0.2,0.4,0.4,0.4c0.1,0,2.4,0.1,3.9,2.5C355.5,120.1,355.6,120.2,355.7,120.2z"/>
				<path class="st9" d="M349.9,125.3c-0.2,1-0.9,1.8-1.5,1.7c-0.7-0.1-1.1-1-0.9-2.1s0.9-1.8,1.5-1.7
					C349.7,123.4,350.1,124.3,349.9,125.3z"/>
				<path class="st9" d="M338.3,123.3c-0.2,1-0.9,1.8-1.5,1.7c-0.7-0.1-1.1-1-0.9-2.1c0.2-1,0.9-1.8,1.5-1.7
					C338,121.4,338.4,122.3,338.3,123.3z"/>
				<path class="st9" d="M337.7,121.4l-2.4-1.1C335.3,120.2,336.2,122.4,337.7,121.4z"/>
				<path class="st9" d="M349.3,123.4l-2.4-1.1C347,122.2,347.9,124.4,349.3,123.4z"/>
				<path class="st9" d="M334.3,116.4c0.1,0.1,0.3,0,0.4,0c2.2-1.7,4.4-1,4.5-1c0.2,0.1,0.4,0,0.5-0.2c0.1-0.2,0-0.4-0.2-0.5
					c-0.1,0-2.7-0.9-5.3,1.1c-0.2,0.1-0.2,0.4-0.1,0.5C334.2,116.3,334.3,116.4,334.3,116.4z"/>
				<g>
					<path class="st4" d="M321.6,259.2c0,0-0.1-7.2,2-12.8c4.6,0,52.4,0,52.4,0s4.7,7.6,5.9,12.8C376,259.2,321.6,259.2,321.6,259.2
						z"/>
					<path class="st4" d="M376.7,243.4l0.4,4.7c0.2,0.4-0.2,0.7-0.9,0.7h-53c-0.5,0-0.9-0.2-0.9-0.5l-0.5-4.7c0-0.3,0.4-0.6,0.9-0.6
						h53C376.3,243,376.6,243.2,376.7,243.4z"/>
					<path class="st21" d="M376.7,243.4l0.4,4.7c0.2,0.4-0.2,0.7-0.9,0.7h-53c-0.5,0-0.9-0.2-0.9-0.5l-0.5-4.7
						c0-0.3,0.4-0.6,0.9-0.6h53C376.3,243,376.6,243.2,376.7,243.4z"/>
				</g>
				<path class="st4" d="M369.6,249.3h1.4c0.3,0,0.5-0.1,0.5-0.3l-0.7-6.1c0-0.2-0.3-0.3-0.5-0.3h-1.4c-0.3,0-0.5,0.1-0.5,0.3
					l0.7,6.1C369.1,249.2,369.3,249.3,369.6,249.3z"/>
				<path class="st4" d="M327.3,249.3h1.4c0.3,0,0.5-0.1,0.5-0.3l-0.7-6.1c0-0.2-0.3-0.3-0.5-0.3h-1.4c-0.3,0-0.5,0.1-0.5,0.3
					l0.7,6.1C326.8,249.2,327,249.3,327.3,249.3z"/>
				<path class="st4" d="M348.5,249.3h1.4c0.3,0,0.5-0.1,0.5-0.3l-0.7-6.1c0-0.2-0.3-0.3-0.5-0.3h-1.4c-0.3,0-0.5,0.1-0.5,0.3
					l0.7,6.1C347.9,249.2,348.2,249.3,348.5,249.3z"/>
			</g>
			<g>
				<path class="st15" d="M389.7,183.1c2.3,7.5,4.5,15,6.6,22.5l3.2,11.3l1.6,5.6l0.4,1.4l0.2,0.7l0,0.2l0,0c0,0,0,0,0,0l-0.2-0.2
					c-0.1-0.2-0.3-0.5-0.9-0.9c-0.5-0.4-1.6-0.9-2.7-0.9c-1,0-1.8,0.2-2.1,0.4c-0.7,0.4-0.6,0.5-0.6,0.4c0.1-0.1,0.3-0.2,0.5-0.5
					c0.4-0.5,0.9-1.2,1.3-1.9c0.9-1.4,1.8-3.1,2.6-4.7c1.7-3.3,3.2-6.8,4.8-10.4c1.5-3.5,3-7.1,4.5-10.7c1.5-3.6,2.9-7.2,4.4-10.8
					l6.4,1.9c-1.7,7.8-3.6,15.5-6,23.1c-1.2,3.8-2.5,7.6-4,11.5c-0.8,1.9-1.6,3.8-2.6,5.8c-0.5,1-1.1,2-1.8,3.1
					c-0.4,0.6-0.8,1.1-1.4,1.8c-0.6,0.6-1.3,1.4-2.9,2.2c-0.8,0.4-2,0.8-3.5,0.7c-1.5,0-3.1-0.7-4-1.5c-1-0.7-1.5-1.4-1.9-2
					c-0.4-0.6-0.6-1.1-0.8-1.5c-0.1-0.2-0.2-0.5-0.3-0.6l-0.2-0.5l-0.3-0.7l-0.5-1.4c-0.7-1.9-1.4-3.7-2-5.6
					c-1.3-3.7-2.6-7.5-3.8-11.2c-2.4-7.5-4.7-15-6.9-22.6L389.7,183.1z"/>
				<g>
					<path class="st4" d="M385.2,168.3c5.2,1.6,13.3,22.2,13.3,22.2L378.1,205c0,0-9.2-17.6-6.9-24.4
						C373.5,173.6,379.2,166.5,385.2,168.3z"/>
					<path class="st17" d="M385.2,168.3c5.2,1.6,13.3,22.2,13.3,22.2L378.1,205c0,0-9.2-17.6-6.9-24.4
						C373.5,173.6,379.2,166.5,385.2,168.3z"/>
				</g>
				<path class="st16" d="M413.5,187.2l-2.8-12.3l11.6,6.1c0,0,0.1,8.3-4.5,10.9L413.5,187.2z"/>
				<polygon class="st16" points="415.6,165.1 423,170.3 422.3,181 410.8,174.9 				"/>
			</g>
		</g>
	</g>
</g>
<g id="Chat">
	<g>
		<g>
			<path class="st4" d="M207.8,103.2h81c6.6,0,11.7,5.4,11.3,12l-2.2,36.7c-0.4,6.6-6.1,12-12.7,12h-9.4l3.8,12.6l-18.3-12.6h-57.1
				c-6.6,0-11.7-5.4-11.3-12l2.2-36.7C195.5,108.6,201.2,103.2,207.8,103.2z"/>
			<g>
				<path class="st12" d="M281.4,122.4h-68.5c-1.2,0-2.2-1-2.1-2.3l0,0c0.1-1.2,1.2-2.3,2.4-2.3h68.5c1.2,0,2.2,1,2.1,2.3l0,0
					C283.7,121.4,282.7,122.4,281.4,122.4z"/>
				<path class="st12" d="M240.9,135.8h-28.8c-1.2,0-2.2-1-2.1-2.3l0,0c0.1-1.2,1.2-2.3,2.4-2.3h28.8c1.2,0,2.2,1,2.1,2.3l0,0
					C243.2,134.8,242.1,135.8,240.9,135.8z"/>
				<path class="st12" d="M265.5,149.2h-54.2c-1.2,0-2.2-1-2.1-2.3l0,0c0.1-1.2,1.2-2.3,2.4-2.3h54.2c1.2,0,2.2,1,2.1,2.3l0,0
					C267.8,148.2,266.7,149.2,265.5,149.2z"/>
				<path class="st12" d="M261.9,135.8h-11.3c-1.2,0-2.2-1-2.1-2.3l0,0c0.1-1.2,1.2-2.3,2.4-2.3h11.3c1.2,0,2.2,1,2.1,2.3l0,0
					C264.3,134.8,263.2,135.8,261.9,135.8z"/>
			</g>
		</g>
		<g>
			<g>
				<g>
					<path class="st4" d="M320.6,37.3h-44.2c-5.1,0-9.6,4.2-9.9,9.3l-1.7,28.5c-0.3,5.1,3.6,9.3,8.8,9.3h7.3l-4.2,9.8l15.5-9.8h25.6
						c5.1,0,9.6-4.2,9.9-9.3l1.7-28.5C329.7,41.5,325.8,37.3,320.6,37.3z"/>
				</g>
				<g class="st22">
					<path class="st18" d="M320.6,37.3h-44.2c-5.1,0-9.6,4.2-9.9,9.3l-1.7,28.5c-0.3,5.1,3.6,9.3,8.8,9.3h7.3l-4.2,9.8l15.5-9.8
						h25.6c5.1,0,9.6-4.2,9.9-9.3l1.7-28.5C329.7,41.5,325.8,37.3,320.6,37.3z"/>
				</g>
			</g>
			<g>
				<path class="st12" d="M299.3,65.6c-0.3,1.3-1.5,2.2-2.8,2.2h-2.6c0-0.7,0.1-1.2,0.1-1.4c0.1-1.7,0.5-3,1.1-4.1
					c0.6-1.1,1.8-2.3,3.5-3.6c1.7-1.3,2.8-2.2,3.1-2.7c0.5-0.7,0.8-1.4,0.9-2.2c0.1-1.1-0.3-2.1-1.2-2.8c-0.8-0.8-2-1.2-3.5-1.2
					c-1.4,0-2.7,0.4-3.7,1.2c-0.6,0.5-1.1,1.1-1.5,1.9c-0.6,1.1-1.7,1.8-2.9,1.6l0,0c-1.8-0.2-2.8-2.2-1.8-3.9
					c0.6-1,1.3-1.9,2.3-2.7c2-1.7,4.6-2.5,7.7-2.5c3.3,0,5.8,0.9,7.6,2.6c1.8,1.7,2.7,3.7,2.5,6c-0.1,1.3-0.5,2.4-1.3,3.6
					c-0.8,1.1-2.4,2.6-4.8,4.6c-1.3,1-2.1,1.8-2.4,2.4C299.5,64.8,299.4,65.1,299.3,65.6z M293.6,72.8l0-0.3
					c0.1-1.5,1.4-2.7,2.9-2.7h0.3c1.5,0,2.6,1.2,2.5,2.7l0,0.3c-0.1,1.5-1.4,2.7-2.9,2.7h-0.3C294.7,75.4,293.5,74.2,293.6,72.8z"/>
			</g>
		</g>
	</g>
	<rect x="-191.6" y="49.5" class="st23" width="63" height="85"/>
	<rect x="-110.6" y="146.2" class="st24" width="65.5" height="119.7"/>
	<rect x="-343.1" y="-42.9" class="st25" width="183" height="53"/>
	<rect x="-303.1" y="183.5" class="st26" width="127.6" height="45"/>
	<rect x="-376.3" y="123.7" class="st0" width="85" height="49.8"/>
</g>
</svg>
