<?xml version="1.0" encoding="utf-8"?>
<!-- Generator: Adobe Illustrator 25.2.1, SVG Export Plug-In . SVG Version: 6.00 Build 0)  -->
<svg version="1.1" id="Layer_1" xmlns="http://www.w3.org/2000/svg" xmlns:xlink="http://www.w3.org/1999/xlink" x="0px" y="0px"
	 viewBox="0 0 451.4 380" style="enable-background:new 0 0 451.4 380;" xml:space="preserve">
<style type="text/css">
	.st0{fill:#3C4354;}
	.st1{fill:#27DEBF;}
	.st2{fill:#1976D2;}
	.st3{fill:#FAFAFA;}
	.st4{fill:#E0E0E0;}
	.st5{fill:#1D2430;}
	.st6{fill:#37474F;}
	.st7{fill:#263238;}
	.st8{fill:#455A64;}
	.st9{fill:#F5F5F5;}
	.st10{fill:#FFFFFF;}
	.st11{font-family:'CopperplateGothic-Bold';}
	.st12{font-size:19.8301px;}
	.st13{fill:#F28F8F;}
	.st14{fill:#FFA8A7;}
</style>
<g id="Floor">
	<g id="XMLID_15997_">
		<g id="XMLID_15998_">
			<path class="st0" d="M377.4,335.3c-83.8,43.8-219.6,43.8-303.4,0s-83.8-114.7,0-158.5s219.6-43.8,303.4,0
				S461.2,291.5,377.4,335.3z"/>
		</g>
	</g>
</g>
<g id="Plants">
	<g id="XMLID_15937_">
		<g id="XMLID_15913_">
			<g id="XMLID_15915_">
				<path class="st1" d="M56.2,249.6c0,0-1.1-5.3-9.6-9.4c-8.3-4-13.1-3.1-18.8-5.4c-5.8-2.3-1.6-13,14-8.3
					c14.3,4.4,15.7,16.7,15.7,16.7L56.2,249.6z"/>
				<path class="st2" d="M56.2,249.6c0,0-1.1-5.3-9.6-9.4c-8.3-4-13.1-3.1-18.8-5.4c-5.8-2.3-1.6-13,14-8.3
					c14.3,4.4,15.7,16.7,15.7,16.7L56.2,249.6z"/>
			</g>
			<g id="XMLID_15914_">
				<path class="st3" d="M57.7,247.6c0.1,0,0.1,0,0.2,0c0.3-0.1,0.4-0.4,0.3-0.7c-2-5.7-7-11-13.5-14.2c-8.4-4.1-14.3-2.8-14.6-2.7
					c-0.3,0.1-0.5,0.4-0.4,0.7s0.4,0.5,0.7,0.4c0.1,0,5.9-1.3,13.8,2.6c6.2,3.1,11.1,8.1,13,13.6C57.2,247.5,57.5,247.6,57.7,247.6z
					"/>
			</g>
		</g>
		<g id="XMLID_15910_">
			<g id="XMLID_15912_">
				<path class="st2" d="M57.4,243c0,0-1-3-4.8-8.9c-6.6-10.2-17.5-14.6-22.2-20.4c-5.1-6.3,3.7-10.2,11.6-8
					c4.5,1.3,8.7,5.4,10.9,8.2c7.6,9.8,7.6,21,7.6,21L57.4,243z"/>
			</g>
			<g id="XMLID_15911_">
				<path class="st2" d="M58.9,243.2L58.9,243.2c0.3,0,0.6-0.3,0.5-0.6c0-0.1-0.3-9.5-5.5-18.8C47.9,213,39,209.2,38.6,209
					c-0.3-0.1-0.6,0-0.7,0.3s0,0.6,0.3,0.7c0.1,0,8.9,3.9,14.8,14.3c5.1,9.1,5.4,18.3,5.4,18.3C58.4,243,58.6,243.2,58.9,243.2z"/>
			</g>
		</g>
	</g>
	<g id="XMLID_15855_">
		<g id="XMLID_15856_">
			<path class="st1" d="M349.7,252c7.2-4.8,7.5-17.8,6.5-26c-1.7-13,5-16,8.4-10.3c1.6,2.8,3.7,8.9,3.5,15.9
				c-0.4,11.1-5.2,24.3-16.8,29.1L349.7,252z"/>
			<path class="st2" d="M349.7,252c7.2-4.8,7.5-17.8,6.5-26c-1.7-13,5-16,8.4-10.3c1.6,2.8,3.7,8.9,3.5,15.9
				c-0.4,11.1-5.2,24.3-16.8,29.1L349.7,252z"/>
		</g>
		<g id="XMLID_15857_">
			<path class="st3" d="M351.2,260c0.1,0,0.2,0,0.3-0.1c12.2-10.4,14.1-29,10.7-41.9c-0.1-0.3-0.3-0.4-0.6-0.4
				c-0.3,0.1-0.4,0.3-0.4,0.6c3.3,12.6,1.5,30.7-10.4,40.9c-0.2,0.2-0.2,0.5-0.1,0.7C350.9,259.9,351,260,351.2,260z"/>
		</g>
	</g>
	<g id="XMLID_15848_">
		<g id="XMLID_15851_">
			<path class="st2" d="M338.9,276c6.3,4.5,20.6,8.4,25.3,0.7c4.4-7.2,1.4-10.3,10.3-9.1c8.8,1.2,10.9-5.6,8.8-11.4
				c-2.1-5.8,6.6-14.2,0.3-20.7c-6.3-6.5-10,7.1-13.7,8.5c-3.6,1.5-5.9-1.7-10.2,0.6c-4.2,2.3-4.6,11.8-8.8,11.9
				c-6.8,0.3-18.1,0.3-19,6.3C331.1,268.9,338.9,276,338.9,276z"/>
		</g>
		<g id="XMLID_15852_">
			<path class="st3" d="M336.3,273.4L336.3,273.4c32.8-3.4,45.5-32,46.3-36.2c0.1-0.3-0.1-0.5-0.4-0.6s-0.5,0.1-0.6,0.4
				c-0.8,4.1-13.2,32-45.3,35.3c-0.3,0-0.5,0.3-0.4,0.5C335.8,273.2,336,273.4,336.3,273.4z"/>
		</g>
		<g id="XMLID_15853_">
			<path class="st3" d="M372.1,260.6c3.3,0,6-0.5,6.2-0.5c0.3,0,0.5-0.3,0.4-0.6c0-0.3-0.3-0.5-0.6-0.4c-0.1,0-6.2,1.1-11.3,0
				c-0.3-0.1-0.5,0.1-0.6,0.4s0.1,0.5,0.4,0.6C368.4,260.4,370.4,260.6,372.1,260.6z"/>
		</g>
		<g id="XMLID_15854_">
			<path class="st3" d="M362.3,263.6L362.3,263.6c0.4-0.1,0.5-0.3,0.5-0.6c-1.7-7.4-0.7-13.5-0.7-13.6c0-0.3-0.1-0.5-0.4-0.6
				c-0.3,0-0.5,0.1-0.6,0.4c0,0.3-1,6.4,0.7,14C361.9,263.4,362.1,263.6,362.3,263.6z"/>
		</g>
	</g>
</g>
<g id="Icons">
	<g>
		<g id="XMLID_15872_">
			<g id="XMLID_15903_">
				<path class="st2" d="M423.6,224l-15.7-8.7c-1.3-0.7-3.5-0.7-4.9,0l-2,1.1c-1.3,0.7-2.4,2.5-2.4,4v17.3c0,1.5,1.1,3.3,2.4,4
					l15.7,8.7c1.3,0.7,3.5,0.7,4.9,0l2-1.1c1.3-0.7,2.4-2.5,2.4-4V228C426.1,226.5,425,224.7,423.6,224z"/>
				<path class="st2" d="M423.6,224l-15.7-8.7c-1.3-0.7-3.5-0.7-4.9,0l-2,1.1c-1.3,0.7-2.4,2.5-2.4,4v17.3c0,1.5,1.1,3.3,2.4,4
					l15.7,8.7c1.3,0.7,3.5,0.7,4.9,0l2-1.1c1.3-0.7,2.4-2.5,2.4-4V228C426.1,226.5,425,224.7,423.6,224z"/>
			</g>
			<g id="XMLID_15902_">
				<path class="st2" d="M398.6,220.5c0-1.5,1.1-2.1,2.4-1.3l15.7,8.7c1.3,0.7,2.4,2.5,2.4,4v17.3c0,1.5-1.1,2.1-2.4,1.3l-15.7-8.7
					c-1.3-0.7-2.4-2.5-2.4-4V220.5z"/>
			</g>
			<g id="XMLID_15901_">
				<path class="st2" d="M426.1,245.3c0,1.5-1.1,3.3-2.4,4l-2,1.1c-1.2,0.7-3.1,0.7-4.5,0.2c1.1,0.4,2-0.2,2-1.5v-17.3
					c0-0.7-0.3-1.6-0.7-2.3l6.9-3.8c0.4,0.7,0.7,1.6,0.7,2.3V245.3z"/>
				<path class="st2" d="M426.1,245.3c0,1.5-1.1,3.3-2.4,4l-2,1.1c-1.2,0.7-3.1,0.7-4.5,0.2c1.1,0.4,2-0.2,2-1.5v-17.3
					c0-0.7-0.3-1.6-0.7-2.3l6.9-3.8c0.4,0.7,0.7,1.6,0.7,2.3V245.3z"/>
			</g>
		</g>
		<g id="XMLID_15569_">
			<path class="st3" d="M415.6,233.8l-13.3-7.7c-0.4-0.2-0.6,0-0.6,0.4v9.1c0,0.4,0.3,0.9,0.6,1.1l13.3,7.7c0.4,0.2,0.6,0,0.6-0.4
				v-9C416.2,234.6,415.9,234.1,415.6,233.8z"/>
		</g>
		<g id="XMLID_15846_">
			<polygon class="st4" points="416.2,234.2 408.2,236.8 401.6,225.7 408,237.7 			"/>
		</g>
	</g>
	<g>
		<g id="XMLID_15866_">
			<g id="XMLID_15871_">
				<path class="st2" d="M423.6,178.7l-15.7-9.1c-1.3-0.8-3.5-0.8-4.9,0l-2,1.1c-1.3,0.8-2.4,2.7-2.4,4.2V193c0,1.6,1.1,3.4,2.4,4.2
					l15.7,9.1c1.3,0.8,3.5,0.8,4.9,0l2-1.1c1.3-0.8,2.4-2.7,2.4-4.2v-18.1C426.1,181.4,425,179.5,423.6,178.7z"/>
				<path class="st2" d="M423.6,178.7l-15.7-9.1c-1.3-0.8-3.5-0.8-4.9,0l-2,1.1c-1.3,0.8-2.4,2.7-2.4,4.2V193c0,1.6,1.1,3.4,2.4,4.2
					l15.7,9.1c1.3,0.8,3.5,0.8,4.9,0l2-1.1c1.3-0.8,2.4-2.7,2.4-4.2v-18.1C426.1,181.4,425,179.5,423.6,178.7z"/>
			</g>
			<g id="XMLID_15870_">
				<path class="st2" d="M398.6,175c0-1.6,1.1-2.2,2.4-1.4l15.7,9.1c1.3,0.8,2.4,2.7,2.4,4.2V205c0,1.6-1.1,2.2-2.4,1.4l-15.7-9.1
					c-1.3-0.8-2.4-2.7-2.4-4.2V175z"/>
			</g>
			<g id="XMLID_15869_">
				<path class="st2" d="M426.1,201c0,1.6-1.1,3.4-2.4,4.2l-2,1.1c-1.2,0.7-3.1,0.8-4.5,0.2c1.1,0.4,2-0.2,2-1.6v-18.1
					c0-0.8-0.3-1.6-0.7-2.4l6.9-4c0.4,0.8,0.7,1.6,0.7,2.4C426.1,182.8,426.1,201,426.1,201z"/>
				<path class="st2" d="M426.1,201c0,1.6-1.1,3.4-2.4,4.2l-2,1.1c-1.2,0.7-3.1,0.8-4.5,0.2c1.1,0.4,2-0.2,2-1.6v-18.1
					c0-0.8-0.3-1.6-0.7-2.4l6.9-4c0.4,0.8,0.7,1.6,0.7,2.4C426.1,182.8,426.1,201,426.1,201z"/>
			</g>
		</g>
		<g id="XMLID_15847_">
			<g id="XMLID_15864_">
				<path class="st3" d="M409.1,196.9l1.7-0.1c2.2-0.2,4.8-1,4.8-4.2c0-2.1-1.5-4.7-3.3-5.8c-1.4-0.8-2.7-0.5-3.1,0.7
					c-0.5-1.7-1.7-3.5-3.1-4.3c-1.8-1.1-3.3-0.2-3.3,1.9c0,3.1,2.6,7,4.8,9.7L409.1,196.9z"/>
			</g>
		</g>
	</g>
	<g>
		<g id="XMLID_15904_">
			<g id="XMLID_15909_">
				<path class="st2" d="M423.6,133l-15.7-9.1c-1.3-0.8-3.5-0.8-4.9,0l-2,1.1c-1.3,0.8-2.4,2.7-2.4,4.2v18.1c0,1.6,1.1,3.4,2.4,4.2
					l15.7,9.1c1.3,0.8,3.5,0.8,4.9,0l2-1.1c1.3-0.8,2.4-2.7,2.4-4.2v-18.1C426.1,135.6,425,133.7,423.6,133z"/>
				<path class="st2" d="M423.6,133l-15.7-9.1c-1.3-0.8-3.5-0.8-4.9,0l-2,1.1c-1.3,0.8-2.4,2.7-2.4,4.2v18.1c0,1.6,1.1,3.4,2.4,4.2
					l15.7,9.1c1.3,0.8,3.5,0.8,4.9,0l2-1.1c1.3-0.8,2.4-2.7,2.4-4.2v-18.1C426.1,135.6,425,133.7,423.6,133z"/>
			</g>
			<g id="XMLID_15908_">
				<path class="st2" d="M416.8,160.7c1.3,0.8,2.4,0.1,2.4-1.4v-18.1c0-1.6-1.1-3.4-2.4-4.2l-15.7-9.1c-1.3-0.8-2.4-0.1-2.4,1.4
					v18.1c0,1.6,1.1,3.4,2.4,4.2"/>
			</g>
			<g id="XMLID_15907_">
				<path class="st2" d="M426.1,155.3c0,1.6-1.1,3.4-2.4,4.2l-2,1.1c-1.2,0.7-3.1,0.8-4.5,0.2c1.1,0.4,2-0.2,2-1.6v-18.1
					c0-0.8-0.3-1.6-0.7-2.4l6.9-4c0.4,0.8,0.7,1.6,0.7,2.4C426.1,137.1,426.1,155.3,426.1,155.3z"/>
				<path class="st2" d="M426.1,155.3c0,1.6-1.1,3.4-2.4,4.2l-2,1.1c-1.2,0.7-3.1,0.8-4.5,0.2c1.1,0.4,2-0.2,2-1.6v-18.1
					c0-0.8-0.3-1.6-0.7-2.4l6.9-4c0.4,0.8,0.7,1.6,0.7,2.4C426.1,137.1,426.1,155.3,426.1,155.3z"/>
			</g>
		</g>
		<g id="XMLID_15867_">
			<g id="XMLID_15873_">
				<path class="st3" d="M411.8,144c0,0-1.8-4.2-2-4.8s0-2.7,0-3.1c0-0.4-1.7-1.5-2.2-0.4c-0.5,1.2-0.6,2.4-0.3,3.9l-4.1-2.4
					c-0.9-0.5-1.2,0.2-1.2,0.8c0,0.8,0.4,1.5,0.7,1.8c0,0-0.8-0.2-0.8,0.8c0,0.6,0.4,1.5,1,2c0,0-0.3,0.2-0.3,1c0,0.5,0.6,1.7,1.1,2
					c0,0-0.2,0.4-0.2,1c0,0.7,0.6,1.8,1.5,2.3s6.7,3.9,6.7,3.9L411.8,144z"/>
			</g>
			<g id="XMLID_15868_">
				<polygon class="st3" points="415.6,156.3 412.7,154.5 412.8,144.3 415.7,146.1 				"/>
			</g>
		</g>
	</g>
	<g id="XMLID_15863_">
		<g id="XMLID_15880_">
			<g id="XMLID_15883_">
				<path class="st1" d="M432.2,79.5l-24.1-13.9c-5.5-2.9-14,2-14.2,8.2c1.1,5.4-3.1,31.5,3.7,34.2l24.1,13.9c5.5,2.9,14-2,14.2-8.2
					C434.9,108.3,439.1,82.2,432.2,79.5z"/>
				<path class="st2" d="M432.2,79.5l-24.1-13.9c-5.5-2.9-14,2-14.2,8.2c1.1,5.4-3.1,31.5,3.7,34.2l24.1,13.9c5.5,2.9,14-2,14.2-8.2
					C434.9,108.3,439.1,82.2,432.2,79.5z"/>
			</g>
			<g id="XMLID_15875_">
				<path class="st1" d="M393.9,73.6c0-1.4,0.7-4.8,4.2-2.7c6.3,4.7,24.2,11.6,27.3,17.7l-1.9,1.9L393.9,73.6z"/>
				<path class="st2" d="M393.9,73.6c0-1.4,0.7-4.8,4.2-2.7c6.3,4.7,24.2,11.6,27.3,17.7l-1.9,1.9L393.9,73.6z"/>
			</g>
			<g id="XMLID_15882_">
				<path class="st1" d="M421.7,121.9c2.1,1.2,3.7,0.2,3.7-2.2c-1.1-5.4,3.1-31.5-3.7-34.2l-24.1-13.9c-2.1-1.2-3.7-0.2-3.7,2.2
					c1.1,5.4-3.1,31.5,3.7,34.2"/>
				<path class="st2" d="M421.7,121.9c2.1,1.2,3.7,0.2,3.7-2.2c-1.1-5.4,3.1-31.5-3.7-34.2l-24.1-13.9c-2.1-1.2-3.7-0.2-3.7,2.2
					c1.1,5.4-3.1,31.5,3.7,34.2"/>
			</g>
			<g id="XMLID_15881_">
				<path class="st1" d="M436,113.7c-0.3,6-8.1,10.7-13.6,8.5c1.8,0.7,3.1-0.3,3.1-2.5c-0.4-2.5,1-30.1-1.1-31.5l10.5-6.1
					C437,83.5,435.6,111.3,436,113.7z"/>
				<path class="st2" d="M436,113.7c-0.3,6-8.1,10.7-13.6,8.5c1.8,0.7,3.1-0.3,3.1-2.5c-0.4-2.5,1-30.1-1.1-31.5l10.5-6.1
					C437,83.5,435.6,111.3,436,113.7z"/>
			</g>
		</g>
		<g id="XMLID_15862_">
			<path class="st3" d="M409,82.3l-3.1,5.5l-7-2.9c-0.7-0.3-0.9,0.5-0.4,1.3l5.1,8.6l-1.2,7.3c-0.1,0.7,0.6,1.7,1.2,1.7l6.2-0.2
				l6.2,7.4c0.6,0.7,1.3,0.5,1.2-0.3L416,102l5.1-2.8c0.5-0.3,0.2-1.4-0.4-1.8l-7-5.2l-3.1-9.1C410.1,82.2,409.3,81.8,409,82.3z"/>
		</g>
	</g>
</g>
<g id="Shadow">
	<g id="XMLID_15961_">
		<path class="st5" d="M70.7,209.2c12,5.7,31.4,5.7,43.4,0s12-15,0-20.7s-31.4-5.7-43.4,0C58.8,194.2,58.8,203.5,70.7,209.2z"/>
	</g>
</g>
<g id="Device">
	<g id="XMLID_15860_">
		<g id="XMLID_15587_">
			<path class="st6" d="M343.5,275.5c0,2.6-1.9,5.8-4.3,7.2l-121.3,70c-2.4,1.4-6.3,1.4-8.7,0l-166-95.8c-2.4-1.4-4.3-4.6-4.3-7.2
				c0-2.6,1.9-5.8,4.3-7.2l121.3-70c2.4-1.4,6.3-1.4,8.7,0l166,95.8C341.6,269.7,343.5,272.9,343.5,275.5z"/>
		</g>
		<g id="XMLID_15874_">
			<path class="st7" d="M293.4,241.9l45.7,26.4c2.4,1.4,4.3,4.6,4.3,7.2s-1.9,5.8-4.3,7.2l-121.3,70c-1.2,0.7-2.8,1-4.3,1V241.9
				H293.4z"/>
		</g>
		<g id="XMLID_15585_">
			<path class="st8" d="M347.6,268.4c2.2-1.3,4.1-4.6,4.1-7.3V116.3c0-2.8-1.9-6.1-4.3-7.5L181.4,13c-2.4-1.4-6.1-1.4-8.4-0.2
				c-2.2,1.3-4.1,4.6-4.1,7.3v144.8c0,2.8,1.9,6.1,4.3,7.5l166,95.8C341.6,269.7,345.3,269.7,347.6,268.4z"/>
		</g>
		<g id="XMLID_15592_">
			<path class="st7" d="M331.3,123l19-11c0.8,1.4,1.3,2.9,1.3,4.3v144.8c0,2.8-1.8,6-4.1,7.3c-2.2,1.3-6,1.2-8.4-0.2l-18.9-10.9
				L331.3,123z"/>
		</g>
		<g id="XMLID_15584_">
			<path class="st6" d="M343.5,121v144.8c0,2.8-1.9,3.9-4.3,2.5l-166-95.8c-2.4-1.4-4.3-4.7-4.3-7.5V20.1c0-2.8,1.9-3.9,4.3-2.5
				l166,95.8C341.6,114.9,343.5,118.2,343.5,121z"/>
		</g>
		<g id="XMLID_15586_">
			<path class="st8" d="M339.2,273.3l-121.3,70c-2.4,1.4-6.3,1.4-8.7,0l-166-95.8c-2.4-1.4-2.4-3.6,0-5l121.3-70
				c2.4-1.4,6.3-1.4,8.7,0l166,95.8C341.6,269.7,341.6,271.9,339.2,273.3z"/>
		</g>
		<g id="XMLID_15588_">
			<path class="st3" d="M336.8,121.5L175.5,28.3c-1.4-0.8-2.6-0.2-2.6,1.5v125.3c0,1.7,1.2,3.7,2.6,4.5l161.3,93.2
				c1.4,0.8,2.6,0.2,2.6-1.5V126C339.4,124.4,338.3,122.4,336.8,121.5z"/>
		</g>
		<g id="XMLID_15589_">
			<path class="st7" d="M325.1,269.5l-154.1-89c-1.2-0.7-3.1-0.7-4.3,0l-7.9,4.6c-1.2,0.7-1.2,1.8,0,2.5l154.1,88.9
				c1.2,0.7,3.1,0.7,4.3,0l7.9-4.5C326.3,271.3,326.3,270.2,325.1,269.5z"/>
		</g>
		<g id="XMLID_15590_">
			<path class="st7" d="M304.8,281.3l-154.1-89c-1.2-0.7-3.1-0.7-4.3,0l-48.5,28c-1.2,0.7-1.2,1.8,0,2.5l153.9,88.8
				c1.2,0.7,3.1,0.7,4.3,0l48.6-27.9C306,283.1,306,281.9,304.8,281.3z"/>
		</g>
		<g id="XMLID_15605_">
			<path class="st4" d="M166.6,232.3l-4.8-2.8c-0.2-0.1-0.2-0.3,0-0.4l5.6-3.2c0.2-0.1,0.6-0.1,0.8,0l4.8,2.8c0.2,0.1,0.2,0.3,0,0.4
				l-5.6,3.2C167.2,232.4,166.9,232.4,166.6,232.3z M176.2,221.2l4.8,2.8c0.2,0.1,0.2,0.3,0,0.4l-5.6,3.2c-0.2,0.1-0.6,0.1-0.8,0
				l-4.8-2.8c-0.2-0.1-0.2-0.3,0-0.4l5.6-3.2C175.6,221.1,176,221.1,176.2,221.2z M191.8,230.2l8.2,4.7c0.2,0.1,0.2,0.3,0,0.4
				l-5.6,3.2c-0.2,0.1-0.6,0.1-0.8,0l-8.2-4.7c-0.2-0.1-0.2-0.3,0-0.4l5.6-3.2C191.2,230.1,191.6,230.1,191.8,230.2z M183.2,225.3
				l4.8,2.8c0.2,0.1,0.2,0.3,0,0.4l-5.6,3.2c-0.2,0.1-0.6,0.1-0.8,0l-4.8-2.8c-0.2-0.1-0.2-0.3,0-0.4l5.6-3.2
				C182.7,225.2,183,225.2,183.2,225.3z M202.1,236.2l4.8,2.8c0.2,0.1,0.2,0.3,0,0.4l-5.6,3.2c-0.2,0.1-0.6,0.1-0.8,0l-4.8-2.8
				c-0.2-0.1-0.2-0.3,0-0.4l5.6-3.2C201.6,236.1,201.9,236.1,202.1,236.2z M209.2,240.3l4.8,2.8c0.2,0.1,0.2,0.3,0,0.4l-5.6,3.2
				c-0.2,0.1-0.6,0.1-0.8,0l-4.8-2.8c-0.2-0.1-0.2-0.3,0-0.4l5.6-3.2C208.6,240.2,209,240.2,209.2,240.3z M187.3,253.4l-4.8-2.8
				c-0.2-0.1-0.2-0.3,0-0.4l5.6-3.2c0.2-0.1,0.6-0.1,0.8,0l4.8,2.8c0.2,0.1,0.2,0.3,0,0.4l-5.6,3.2
				C187.8,253.5,187.5,253.5,187.3,253.4z M194.3,257.5l-4.8-2.8c-0.2-0.1-0.2-0.3,0-0.4l5.6-3.2c0.2-0.1,0.6-0.1,0.8,0l4.8,2.8
				c0.2,0.1,0.2,0.3,0,0.4l-5.6,3.2C194.9,257.6,194.5,257.6,194.3,257.5z M201.4,261.6l-4.8-2.8c-0.2-0.1-0.2-0.3,0-0.4l5.6-3.2
				c0.2-0.1,0.6-0.1,0.8,0l4.8,2.8c0.2,0.1,0.2,0.3,0,0.4l-5.6,3.2C201.9,261.7,201.6,261.7,201.4,261.6z M208.4,265.6l-4.8-2.8
				c-0.2-0.1-0.2-0.3,0-0.4l5.6-3.2c0.2-0.1,0.6-0.1,0.8,0l4.8,2.8c0.2,0.1,0.2,0.3,0,0.4l-5.6,3.2
				C209,265.7,208.6,265.7,208.4,265.6z M173.7,236.4l-4.8-2.8c-0.2-0.1-0.2-0.3,0-0.4l5.6-3.2c0.2-0.1,0.6-0.1,0.8,0l4.8,2.8
				c0.2,0.1,0.2,0.3,0,0.4l-5.6,3.2C174.2,236.5,173.9,236.5,173.7,236.4z M180.2,249.3l-10.8-6.2c-0.2-0.1-0.2-0.3,0-0.4l13.5-7.8
				c0.2-0.1,0.6-0.1,0.8,0l5.6,3.2c0.2,0.1,0.2,0.3,0,0.4l-7.2,4.1c-0.2,0.1-0.2,0.3,0,0.4l4.5,2.6c0.2,0.1,0.2,0.3,0,0.4l-5.6,3.2
				C180.8,249.5,180.4,249.5,180.2,249.3z M216.2,244.4l4.8,2.8c0.2,0.1,0.2,0.3,0,0.4l-5.6,3.2c-0.2,0.1-0.6,0.1-0.8,0l-4.8-2.8
				c-0.2-0.1-0.2-0.3,0-0.4l5.6-3.2C215.7,244.3,216,244.3,216.2,244.4z M223.3,248.5l4.8,2.8c0.2,0.1,0.2,0.3,0,0.4l-5.6,3.2
				c-0.2,0.1-0.6,0.1-0.8,0l-4.8-2.8c-0.2-0.1-0.2-0.3,0-0.4l5.6-3.2C222.8,248.3,223.1,248.3,223.3,248.5z M258.5,294.1
				c-0.2,0.1-0.6,0.1-0.8,0l-4.8-2.8c-0.2-0.1-0.2-0.3,0-0.4l5.6-3.2c0.2-0.1,0.6-0.1,0.8,0l4.8,2.8c0.2,0.1,0.2,0.3,0,0.4
				L258.5,294.1z M279.7,281l4.8,2.8c0.2,0.1,0.2,0.3,0,0.4l-5.6,3.2c-0.2,0.1-0.6,0.1-0.8,0l-4.8-2.8c-0.2-0.1-0.2-0.3,0-0.4
				l5.6-3.2C279.2,280.9,279.5,280.9,279.7,281z M268.4,290.6c-0.2,0.1-0.6,0.1-0.8,0l-4.8-2.8c-0.2-0.1-0.2-0.3,0-0.4l5.6-3.2
				c0.2-0.1,0.6-0.1,0.8,0l4.8,2.8c0.2,0.1,0.2,0.3,0,0.4L268.4,290.6z M246.1,296.6l-4.8-2.8c-0.2-0.1-0.2-0.3,0-0.4l5.6-3.2
				c0.2-0.1,0.6-0.1,0.8,0l4.8,2.8c0.2,0.1,0.2,0.3,0,0.4l-5.6,3.2C246.6,296.7,246.3,296.7,246.1,296.6z M253.9,300.6
				c-0.2,0.1-0.6,0.1-0.8,0l-4.8-2.8c-0.2-0.1-0.2-0.3,0-0.4l5.6-3.2c0.2-0.1,0.6-0.1,0.8,0l4.8,2.8c0.2,0.1,0.2,0.3,0,0.4
				L253.9,300.6z M272.7,277l4.8,2.8c0.2,0.1,0.2,0.3,0,0.4l-5.6,3.2c-0.2,0.1-0.6,0.1-0.8,0l-4.8-2.8c-0.2-0.1-0.2-0.3,0-0.4
				l5.6-3.2C272.1,276.8,272.5,276.8,272.7,277z M237.4,256.6l4.8,2.8c0.2,0.1,0.2,0.3,0,0.4l-5.6,3.2c-0.2,0.1-0.6,0.1-0.8,0
				l-4.8-2.8c-0.2-0.1-0.2-0.3,0-0.4l5.6-3.2C236.9,256.5,237.2,256.5,237.4,256.6z M265.6,272.9l4.8,2.8c0.2,0.1,0.2,0.3,0,0.4
				l-5.6,3.2c-0.2,0.1-0.6,0.1-0.8,0l-4.8-2.8c-0.2-0.1-0.2-0.3,0-0.4l5.6-3.2C265.1,272.8,265.4,272.8,265.6,272.9z M230.4,252.5
				l4.8,2.8c0.2,0.1,0.2,0.3,0,0.4l-5.6,3.2c-0.2,0.1-0.6,0.1-0.8,0l-4.8-2.8c-0.2-0.1-0.2-0.3,0-0.4l5.6-3.2
				C229.8,252.4,230.1,252.4,230.4,252.5z M244.5,260.7l4.8,2.8c0.2,0.1,0.2,0.3,0,0.4l-5.6,3.2c-0.2,0.1-0.6,0.1-0.8,0l-4.8-2.8
				c-0.2-0.1-0.2-0.3,0-0.4l5.6-3.2C243.9,260.6,244.3,260.6,244.5,260.7z M251.5,264.7l4.8,2.8c0.2,0.1,0.2,0.3,0,0.4l-5.6,3.2
				c-0.2,0.1-0.6,0.1-0.8,0l-4.8-2.8c-0.2-0.1-0.2-0.3,0-0.4l5.6-3.2C251,264.6,251.3,264.6,251.5,264.7z M258.6,268.8l4.8,2.8
				c0.2,0.1,0.2,0.3,0,0.4l-5.6,3.2c-0.2,0.1-0.6,0.1-0.8,0l-4.8-2.8c-0.2-0.1-0.2-0.3,0-0.4l5.6-3.2
				C258,268.7,258.4,268.7,258.6,268.8z M222.5,273.8l-4.8-2.8c-0.2-0.1-0.2-0.3,0-0.4l5.6-3.2c0.2-0.1,0.6-0.1,0.8,0l4.8,2.8
				c0.2,0.1,0.2,0.3,0,0.4l-5.6,3.2C223.1,273.9,222.7,273.9,222.5,273.8z M160.6,212.2l4.8,2.8c0.2,0.1,0.2,0.3,0,0.4l-5.6,3.2
				c-0.2,0.1-0.6,0.1-0.8,0l-4.8-2.8c-0.2-0.1-0.2-0.3,0-0.4l5.6-3.2C160,212.1,160.4,212.1,160.6,212.2z M169.1,217.2l4.8,2.8
				c0.2,0.1,0.2,0.3,0,0.4l-5.6,3.2c-0.2,0.1-0.6,0.1-0.8,0l-4.8-2.8c-0.2-0.1-0.2-0.3,0-0.4l5.6-3.2
				C168.6,217.1,168.9,217.1,169.1,217.2z M153.5,208.2l4.8,2.8c0.2,0.1,0.2,0.3,0,0.4l-5.6,3.2c-0.2,0.1-0.6,0.1-0.8,0l-4.8-2.8
				c-0.2-0.1-0.2-0.3,0-0.4l5.6-3.2C153,208.1,153.3,208.1,153.5,208.2z M190,245.8l-4.8-2.8c-0.2-0.1-0.2-0.3,0-0.4l5.6-3.2
				c0.2-0.1,0.6-0.1,0.8,0l4.8,2.8c0.2,0.1,0.2,0.3,0,0.4l-5.6,3.2C190.6,245.9,190.2,245.9,190,245.8z M145.7,204.1
				c0.2-0.1,0.6-0.1,0.8,0l4.8,2.8c0.2,0.1,0.2,0.3,0,0.4l-5.6,3.2c-0.2,0.1-0.6,0.1-0.8,0l-4.8-2.8c-0.2-0.1-0.2-0.3,0-0.4
				L145.7,204.1z M215.5,269.7l-4.8-2.8c-0.2-0.1-0.2-0.3,0-0.4l5.6-3.2c0.2-0.1,0.6-0.1,0.8,0l4.8,2.8c0.2,0.1,0.2,0.3,0,0.4
				l-5.6,3.2C216,269.8,215.7,269.8,215.5,269.7z M129,219.8l-4.8-2.8c-0.2-0.1-0.2-0.3,0-0.4l5.6-3.2c0.2-0.1,0.6-0.1,0.8,0
				l4.8,2.8c0.2,0.1,0.2,0.3,0,0.4l-5.6,3.2C129.5,219.9,129.2,219.9,129,219.8z M144,219.2l-4.8-2.8c-0.2-0.1-0.2-0.3,0-0.4
				l5.6-3.2c0.2-0.1,0.6-0.1,0.8,0l4.8,2.8c0.2,0.1,0.2,0.3,0,0.4l-5.6,3.2C144.6,219.4,144.2,219.4,144,219.2z M137.7,208.7
				c0.2-0.1,0.6-0.1,0.8,0l4.8,2.8c0.2,0.1,0.2,0.3,0,0.4l-5.6,3.2c-0.2,0.1-0.6,0.1-0.8,0l-4.8-2.8c-0.2-0.1-0.2-0.3,0-0.4
				L137.7,208.7z M136.3,207.9l-13.5,7.8c-0.2,0.1-0.6,0.1-0.8,0l-4.8-2.8c-0.2-0.1-0.2-0.3,0-0.4l13.5-7.8c0.2-0.1,0.6-0.1,0.8,0
				l4.8,2.8C136.5,207.5,136.5,207.7,136.3,207.9z M152.6,216.9l4.8,2.8c0.2,0.1,0.2,0.3,0,0.4l-5.6,3.2c-0.2,0.1-0.6,0.1-0.8,0
				l-4.8-2.8c-0.2-0.1-0.2-0.3,0-0.4l5.6-3.2C152.1,216.7,152.4,216.7,152.6,216.9z M205.7,247.5l4.8,2.8c0.2,0.1,0.2,0.3,0,0.4
				l-5.6,3.2c-0.2,0.1-0.6,0.1-0.8,0l-4.8-2.8c-0.2-0.1-0.2-0.3,0-0.4l5.6-3.2C205.1,247.4,205.5,247.4,205.7,247.5z M136.8,223.8
				c-0.2,0.1-0.6,0.1-0.8,0l-4.8-2.8c-0.2-0.1-0.2-0.3,0-0.4l5.6-3.2c0.2-0.1,0.6-0.1,0.8,0l4.8,2.8c0.2,0.1,0.2,0.3,0,0.4
				L136.8,223.8z M198.6,243.4l4.8,2.8c0.2,0.1,0.2,0.3,0,0.4l-5.6,3.2c-0.2,0.1-0.6,0.1-0.8,0l-4.8-2.8c-0.2-0.1-0.2-0.3,0-0.4
				l5.6-3.2C198.1,243.3,198.4,243.3,198.6,243.4z M251.5,290c-0.2,0.1-0.6,0.1-0.8,0l-4.8-2.8c-0.2-0.1-0.2-0.3,0-0.4l5.6-3.2
				c0.2-0.1,0.6-0.1,0.8,0l4.8,2.8c0.2,0.1,0.2,0.3,0,0.4L251.5,290z M262.1,280.1l4.8,2.8c0.2,0.1,0.2,0.3,0,0.4l-5.6,3.2
				c-0.2,0.1-0.6,0.1-0.8,0l-4.8-2.8c-0.2-0.1-0.2-0.3,0-0.4l5.6-3.2C261.5,279.9,261.9,279.9,262.1,280.1z M243.7,286l-4.8-2.8
				c-0.2-0.1-0.2-0.3,0-0.4l5.6-3.2c0.2-0.1,0.6-0.1,0.8,0l4.8,2.8c0.2,0.1,0.2,0.3,0,0.4l-5.6,3.2
				C244.2,286.1,243.9,286.1,243.7,286z M236.6,281.9l-4.8-2.8c-0.2-0.1-0.2-0.3,0-0.4l5.6-3.2c0.2-0.1,0.6-0.1,0.8,0l4.8,2.8
				c0.2,0.1,0.2,0.3,0,0.4l-5.6,3.2C237.2,282,236.8,282,236.6,281.9z M229.6,277.8l-4.8-2.8c-0.2-0.1-0.2-0.3,0-0.4l5.6-3.2
				c0.2-0.1,0.6-0.1,0.8,0l4.8,2.8c0.2,0.1,0.2,0.3,0,0.4l-5.6,3.2C230.1,278,229.8,278,229.6,277.8z M255,276l4.8,2.8
				c0.2,0.1,0.2,0.3,0,0.4l-5.6,3.2c-0.2,0.1-0.6,0.1-0.8,0l-4.8-2.8c-0.2-0.1-0.2-0.3,0-0.4l5.6-3.2
				C254.5,275.9,254.8,275.9,255,276z M248,271.9l4.8,2.8c0.2,0.1,0.2,0.3,0,0.4l-5.6,3.2c-0.2,0.1-0.6,0.1-0.8,0l-4.8-2.8
				c-0.2-0.1-0.2-0.3,0-0.4l5.6-3.2C247.4,271.8,247.8,271.8,248,271.9z M219.8,255.6l4.8,2.8c0.2,0.1,0.2,0.3,0,0.4L219,262
				c-0.2,0.1-0.6,0.1-0.8,0l-4.8-2.8c-0.2-0.1-0.2-0.3,0-0.4l5.6-3.2C219.2,255.5,219.6,255.5,219.8,255.6z M226.8,259.7l4.8,2.8
				c0.2,0.1,0.2,0.3,0,0.4l-5.6,3.2c-0.2,0.1-0.6,0.1-0.8,0l-4.8-2.8c-0.2-0.1-0.2-0.3,0-0.4l5.6-3.2
				C226.3,259.6,226.6,259.6,226.8,259.7z M212.7,251.6l4.8,2.8c0.2,0.1,0.2,0.3,0,0.4l-5.6,3.2c-0.2,0.1-0.6,0.1-0.8,0l-4.8-2.8
				c-0.2-0.1-0.2-0.3,0-0.4l5.6-3.2C212.2,251.5,212.5,251.4,212.7,251.6z M240.9,267.8l4.8,2.8c0.2,0.1,0.2,0.3,0,0.4l-5.6,3.2
				c-0.2,0.1-0.6,0.1-0.8,0l-4.8-2.8c-0.2-0.1-0.2-0.3,0-0.4l5.6-3.2C240.4,267.7,240.7,267.7,240.9,267.8z M233.9,263.8l4.8,2.8
				c0.2,0.1,0.2,0.3,0,0.4l-5.6,3.2c-0.2,0.1-0.6,0.1-0.8,0l-4.8-2.8c-0.2-0.1-0.2-0.3,0-0.4l5.6-3.2
				C233.3,263.7,233.7,263.7,233.9,263.8z M239,292.5l-4.8-2.8c-0.2-0.1-0.2-0.3,0-0.4l5.6-3.2c0.2-0.1,0.6-0.1,0.8,0l4.8,2.8
				c0.2,0.1,0.2,0.3,0,0.4l-5.6,3.2C239.6,292.6,239.2,292.6,239,292.5z M280.4,288.3l5.6-3.2c0.2-0.1,0.6-0.1,0.8,0l4.8,2.8
				c0.2,0.1,0.2,0.3,0,0.4l-5.6,3.2c-0.2,0.1-0.6,0.1-0.8,0l-4.8-2.8C280.2,288.7,280.2,288.5,280.4,288.3z M269.8,291.4l5.6-3.2
				c0.2-0.1,0.6-0.1,0.8,0l7.4,4.3c0.2,0.1,0.2,0.3,0,0.4l-5.6,3.2c-0.2,0.1-0.6,0.1-0.8,0l-7.4-4.3
				C269.6,291.8,269.6,291.6,269.8,291.4z M289,282.1l5.6-3.2c0.2-0.1,0.6-0.1,0.8,0l5.9,3.4c0.2,0.1,0.2,0.3,0,0.4l-5.6,3.2
				c-0.2,0.1-0.6,0.1-0.8,0l-5.9-3.4C288.7,282.4,288.8,282.2,289,282.1z M284.4,279.5c-0.2,0.1-0.6,0.1-0.8,0l-4.8-2.8
				c-0.2-0.1-0.2-0.3,0-0.4l5.6-3.2c0.2-0.1,0.6-0.1,0.8,0l4.8,2.8c0.2,0.1,0.2,0.3,0,0.4L284.4,279.5z M260,295l5.6-3.2
				c0.2-0.1,0.6-0.1,0.8,0l9.3,5.4c0.2,0.1,0.2,0.3,0,0.4l-5.6,3.2c-0.2,0.1-0.6,0.1-0.8,0l-9.3-5.4
				C259.8,295.3,259.8,295.1,260,295z M255.4,301.5l5.6-3.2c0.2-0.1,0.6-0.1,0.8,0l5.9,3.4c0.2,0.1,0.2,0.3,0,0.4l-5.6,3.2
				c-0.2,0.1-0.6,0.1-0.8,0l-5.9-3.4C255.2,301.8,255.2,301.6,255.4,301.5z M232,249.2c-0.2,0.1-0.6,0.1-0.8,0l-4.8-2.8
				c-0.2-0.1-0.2-0.3,0-0.4l5.6-3.2c0.2-0.1,0.6-0.1,0.8,0l4.8,2.8c0.2,0.1,0.2,0.3,0,0.4L232,249.2z M246.1,257.4
				c-0.2,0.1-0.6,0.1-0.8,0l-4.8-2.8c-0.2-0.1-0.2-0.3,0-0.4l5.6-3.2c0.2-0.1,0.6-0.1,0.8,0l4.8,2.8c0.2,0.1,0.2,0.3,0,0.4
				L246.1,257.4z M277.4,275.4c-0.2,0.1-0.6,0.1-0.8,0l-4.8-2.8c-0.2-0.1-0.2-0.3,0-0.4l5.6-3.2c0.2-0.1,0.6-0.1,0.8,0l4.8,2.8
				c0.2,0.1,0.2,0.3,0,0.4L277.4,275.4z M239,253.3c-0.2,0.1-0.6,0.1-0.8,0l-4.8-2.8c-0.2-0.1-0.2-0.3,0-0.4l5.6-3.2
				c0.2-0.1,0.6-0.1,0.8,0l4.8,2.8c0.2,0.1,0.2,0.3,0,0.4L239,253.3z M253.1,261.4c-0.2,0.1-0.6,0.1-0.8,0l-4.8-2.8
				c-0.2-0.1-0.2-0.3,0-0.4l5.6-3.2c0.2-0.1,0.6-0.1,0.8,0l4.8,2.8c0.2,0.1,0.2,0.3,0,0.4L253.1,261.4z M251.5,302
				c0.2-0.1,0.6-0.1,0.8,0l7.4,4.3c0.2,0.1,0.2,0.3,0,0.4l-5.6,3.2c-0.2,0.1-0.6,0.1-0.8,0l-7.4-4.3c-0.2-0.1-0.2-0.3,0-0.4
				L251.5,302z M263.3,267.3c-0.2,0.1-0.6,0.1-0.8,0l-4.8-2.8c-0.2-0.1-0.2-0.3,0-0.4l5.6-3.2c0.2-0.1,0.6-0.1,0.8,0l4.8,2.8
				c0.2,0.1,0.2,0.3,0,0.4L263.3,267.3z M270.3,271.3c-0.2,0.1-0.6,0.1-0.8,0l-4.8-2.8c-0.2-0.1-0.2-0.3,0-0.4l5.6-3.2
				c0.2-0.1,0.6-0.1,0.8,0l4.8,2.8c0.2,0.1,0.2,0.3,0,0.4L270.3,271.3z M120.9,226.6c0.2-0.1,0.6-0.1,0.8,0l11.9,6.9
				c0.2,0.1,0.2,0.3,0,0.4l-5.6,3.2c-0.2,0.1-0.6,0.1-0.8,0l-11.9-6.9c-0.2-0.1-0.2-0.3,0-0.4L120.9,226.6z M136.5,235.6
				c0.2-0.1,0.6-0.1,0.8,0l4.8,2.8c0.2,0.1,0.2,0.3,0,0.4l-5.6,3.2c-0.2,0.1-0.6,0.1-0.8,0l-4.8-2.8c-0.2-0.1-0.2-0.3,0-0.4
				L136.5,235.6z M232,288.4l-4.8-2.8c-0.2-0.1-0.2-0.3,0-0.4l5.6-3.2c0.2-0.1,0.6-0.1,0.8,0l4.8,2.8c0.2,0.1,0.2,0.3,0,0.4
				l-5.6,3.2C232.5,288.6,232.2,288.6,232,288.4z M150.6,243.7c0.2-0.1,0.6-0.1,0.8,0l4.8,2.8c0.2,0.1,0.2,0.3,0,0.4l-5.6,3.2
				c-0.2,0.1-0.6,0.1-0.8,0l-4.8-2.8c-0.2-0.1-0.2-0.3,0-0.4L150.6,243.7z M113.8,222.5c0.2-0.1,0.6-0.1,0.8,0l4.8,2.8
				c0.2,0.1,0.2,0.3,0,0.4l-5.6,3.2c-0.2,0.1-0.6,0.1-0.8,0l-4.8-2.8c-0.2-0.1-0.2-0.3,0-0.4L113.8,222.5z M101.2,221.7l13.5-7.8
				c0.2-0.1,0.6-0.1,0.8,0l4.8,2.8c0.2,0.1,0.2,0.3,0,0.4l-13.5,7.8c-0.2,0.1-0.6,0.1-0.8,0l-4.8-2.8C101,222,101,221.8,101.2,221.7
				z M176.9,259c0.2-0.1,0.6-0.1,0.8,0l5.9,3.4c0.2,0.1,0.2,0.3,0,0.4L178,266c-0.2,0.1-0.6,0.1-0.8,0l-5.9-3.4
				c-0.2-0.1-0.2-0.3,0-0.4L176.9,259z M159.1,248.7c0.2-0.1,0.6-0.1,0.8,0l7.4,4.3c0.2,0.1,0.2,0.3,0,0.4l-5.6,3.2
				c-0.2,0.1-0.6,0.1-0.8,0l-7.4-4.3c-0.2-0.1-0.2-0.3,0-0.4L159.1,248.7z M193.3,268.4c0.2-0.1,0.6-0.1,0.8,0l39.6,22.9
				c0.2,0.1,0.2,0.3,0,0.4l-5.6,3.2c-0.2,0.1-0.6,0.1-0.8,0L187.6,272c-0.2-0.1-0.2-0.3,0-0.4L193.3,268.4z M235.2,292.6
				c0.2-0.1,0.6-0.1,0.8,0l5.9,3.4c0.2,0.1,0.2,0.3,0,0.4l-5.6,3.2c-0.2,0.1-0.6,0.1-0.8,0l-5.9-3.4c-0.2-0.1-0.2-0.3,0-0.4
				L235.2,292.6z M185.1,263.7c0.2-0.1,0.6-0.1,0.8,0l5.9,3.4c0.2,0.1,0.2,0.3,0,0.4l-5.6,3.2c-0.2,0.1-0.6,0.1-0.8,0l-5.9-3.4
				c-0.2-0.1-0.2-0.3,0-0.4L185.1,263.7z M243.4,297.3c0.2-0.1,0.6-0.1,0.8,0l5.9,3.4c0.2,0.1,0.2,0.3,0,0.4l-5.6,3.2
				c-0.2,0.1-0.6,0.1-0.8,0l-5.9-3.4c-0.2-0.1-0.2-0.3,0-0.4L243.4,297.3z M168.8,254.2c0.2-0.1,0.6-0.1,0.8,0l5.9,3.4
				c0.2,0.1,0.2,0.3,0,0.4l-5.6,3.2c-0.2,0.1-0.6,0.1-0.8,0l-5.9-3.4c-0.2-0.1-0.2-0.3,0-0.4L168.8,254.2z M143.5,239.7
				c0.2-0.1,0.6-0.1,0.8,0l4.8,2.8c0.2,0.1,0.2,0.3,0,0.4l-5.6,3.2c-0.2,0.1-0.6,0.1-0.8,0l-4.8-2.8c-0.2-0.1-0.2-0.3,0-0.4
				L143.5,239.7z M128.1,228.4l-4.8-2.8c-0.2-0.1-0.2-0.3,0-0.4l5.6-3.2c0.2-0.1,0.6-0.1,0.8,0l4.8,2.8c0.2,0.1,0.2,0.3,0,0.4
				l-5.6,3.2C128.6,228.6,128.3,228.6,128.1,228.4z M159.6,228.2l-4.8-2.8c-0.2-0.1-0.2-0.3,0-0.4l5.6-3.2c0.2-0.1,0.6-0.1,0.8,0
				l4.8,2.8c0.2,0.1,0.2,0.3,0,0.4l-5.6,3.2C160.1,228.4,159.8,228.4,159.6,228.2z M175.6,255.9l-14.1-8.1c-0.2-0.1-0.2-0.3,0-0.4
				l5.6-3.2c0.2-0.1,0.6-0.1,0.8,0l14.1,8.1c0.2,0.1,0.2,0.3,0,0.4l-5.6,3.2C176.1,256,175.8,256,175.6,255.9z M135.9,232.5
				c-0.2,0.1-0.6,0.1-0.8,0l-4.8-2.8c-0.2-0.1-0.2-0.3,0-0.4l5.6-3.2c0.2-0.1,0.6-0.1,0.8,0l4.8,2.8c0.2,0.1,0.2,0.3,0,0.4
				L135.9,232.5z M143.1,227.9l-4.8-2.8c-0.2-0.1-0.2-0.3,0-0.4l5.6-3.2c0.2-0.1,0.6-0.1,0.8,0l4.8,2.8c0.2,0.1,0.2,0.3,0,0.4
				l-5.6,3.2C143.6,228,143.3,228,143.1,227.9z M182.6,259.9l-4.8-2.8c-0.2-0.1-0.2-0.3,0-0.4l5.6-3.2c0.2-0.1,0.6-0.1,0.8,0
				l4.8,2.8c0.2,0.1,0.2,0.3,0,0.4l-5.6,3.2C183.2,260.1,182.8,260.1,182.6,259.9z M151.5,241.5c-0.2,0.1-0.6,0.1-0.8,0l-4.8-2.8
				c-0.2-0.1-0.2-0.3,0-0.4l5.6-3.2c0.2-0.1,0.6-0.1,0.8,0l4.8,2.8c0.2,0.1,0.2,0.3,0,0.4L151.5,241.5z M217.9,280.3l-4.8-2.8
				c-0.2-0.1-0.2-0.3,0-0.4l5.6-3.2c0.2-0.1,0.6-0.1,0.8,0l4.8,2.8c0.2,0.1,0.2,0.3,0,0.4l-5.6,3.2
				C218.4,280.4,218.1,280.4,217.9,280.3z M210.8,276.2l-4.8-2.8c-0.2-0.1-0.2-0.3,0-0.4l5.6-3.2c0.2-0.1,0.6-0.1,0.8,0l4.8,2.8
				c0.2,0.1,0.2,0.3,0,0.4l-5.6,3.2C211.4,276.3,211,276.3,210.8,276.2z M224.9,284.4l-4.8-2.8c-0.2-0.1-0.2-0.3,0-0.4l5.6-3.2
				c0.2-0.1,0.6-0.1,0.8,0l4.8,2.8c0.2,0.1,0.2,0.3,0,0.4l-5.6,3.2C225.5,284.5,225.1,284.5,224.9,284.4z M196.7,268.1l-4.8-2.8
				c-0.2-0.1-0.2-0.3,0-0.4l5.6-3.2c0.2-0.1,0.6-0.1,0.8,0l4.8,2.8c0.2,0.1,0.2,0.3,0,0.4l-5.6,3.2
				C197.3,268.2,196.9,268.2,196.7,268.1z M203.8,272.2l-4.8-2.8c-0.2-0.1-0.2-0.3,0-0.4l5.6-3.2c0.2-0.1,0.6-0.1,0.8,0l4.8,2.8
				c0.2,0.1,0.2,0.3,0,0.4l-5.6,3.2C204.3,272.3,204,272.3,203.8,272.2z M189.7,264l-4.8-2.8c-0.2-0.1-0.2-0.3,0-0.4l5.6-3.2
				c0.2-0.1,0.6-0.1,0.8,0l4.8,2.8c0.2,0.1,0.2,0.3,0,0.4l-5.6,3.2C190.2,264.1,189.9,264.1,189.7,264z M157.4,203.8
				c-0.2,0.1-0.6,0.1-0.8,0l-4.8-2.8c-0.2-0.1-0.2-0.3,0-0.4l1.5-0.9c0.2-0.1,0.6-0.1,0.8,0l4.8,2.8c0.2,0.1,0.2,0.3,0,0.4
				L157.4,203.8z M192.1,226.2c-0.2,0.1-0.6,0.1-0.8,0l-4.8-2.8c-0.2-0.1-0.2-0.3,0-0.4l5.6-3.2c0.2-0.1,0.6-0.1,0.8,0l4.8,2.8
				c0.2,0.1,0.2,0.3,0,0.4L192.1,226.2z M178,218c-0.2,0.1-0.6,0.1-0.8,0l-4.8-2.8c-0.2-0.1-0.2-0.3,0-0.4l5.6-3.2
				c0.2-0.1,0.6-0.1,0.8,0l4.8,2.8c0.2,0.1,0.2,0.3,0,0.4L178,218z M200.7,231.2c-0.2,0.1-0.6,0.1-0.8,0l-4.8-2.8
				c-0.2-0.1-0.2-0.3,0-0.4l5.6-3.2c0.2-0.1,0.6-0.1,0.8,0l4.8,2.8c0.2,0.1,0.2,0.3,0,0.4L200.7,231.2z M185.1,222.1
				c-0.2,0.1-0.6,0.1-0.8,0l-4.8-2.8c-0.2-0.1-0.2-0.3,0-0.4l5.6-3.2c0.2-0.1,0.6-0.1,0.8,0l4.8,2.8c0.2,0.1,0.2,0.3,0,0.4
				L185.1,222.1z M214.8,239.3c-0.2,0.1-0.6,0.1-0.8,0l-4.8-2.8c-0.2-0.1-0.2-0.3,0-0.4l5.6-3.2c0.2-0.1,0.6-0.1,0.8,0l4.8,2.8
				c0.2,0.1,0.2,0.3,0,0.4L214.8,239.3z M207.8,235.2c-0.2,0.1-0.6,0.1-0.8,0l-4.8-2.8c-0.2-0.1-0.2-0.3,0-0.4l5.6-3.2
				c0.2-0.1,0.6-0.1,0.8,0l4.8,2.8c0.2,0.1,0.2,0.3,0,0.4L207.8,235.2z M171.5,211.9c-0.2,0.1-0.6,0.1-0.8,0l-4.8-2.8
				c-0.2-0.1-0.2-0.3,0-0.4l1.5-0.9c0.2-0.1,0.6-0.1,0.8,0l4.8,2.8c0.2,0.1,0.2,0.3,0,0.4L171.5,211.9z M150.4,199.7
				c-0.2,0.1-0.6,0.1-0.8,0l-4.8-2.8c-0.2-0.1-0.2-0.3,0-0.4l1.5-0.9c0.2-0.1,0.6-0.1,0.8,0l4.8,2.8c0.2,0.1,0.2,0.3,0,0.4
				L150.4,199.7z M138.6,206.5c-0.2,0.1-0.6,0.1-0.8,0l-4.8-2.8c-0.2-0.1-0.2-0.3,0-0.4l5.6-3.2c0.2-0.1,0.6-0.1,0.8,0l4.8,2.8
				c0.2,0.1,0.2,0.3,0,0.4L138.6,206.5z M121,224.4l-4.8-2.8c-0.2-0.1-0.2-0.3,0-0.4l5.6-3.2c0.2-0.1,0.6-0.1,0.8,0l4.8,2.8
				c0.2,0.1,0.2,0.3,0,0.4l-5.6,3.2C121.6,224.5,121.2,224.5,121,224.4z M164.5,207.9c-0.2,0.1-0.6,0.1-0.8,0l-4.8-2.8
				c-0.2-0.1-0.2-0.3,0-0.4l1.5-0.9c0.2-0.1,0.6-0.1,0.8,0l4.8,2.8c0.2,0.1,0.2,0.3,0,0.4L164.5,207.9z M221.9,243.4
				c-0.2,0.1-0.6,0.1-0.8,0l-4.8-2.8c-0.2-0.1-0.2-0.3,0-0.4l5.6-3.2c0.2-0.1,0.6-0.1,0.8,0l4.8,2.8c0.2,0.1,0.2,0.3,0,0.4
				L221.9,243.4z"/>
		</g>
		<g id="XMLID_15859_">
			<polygon class="st7" points="193.2,287.2 140.4,256.7 107.9,275.5 160.7,306 			"/>
		</g>
	</g>
</g>
<g id="XMLID_695_">
	<g id="XMLID_14642_">
		<g id="XMLID_15894_">
			<path class="st2" d="M323.2,167.2l-36.3-21c-1.2-0.7-2.2-0.1-2.2,1.2v25.5c0,1.4,1,3.1,2.2,3.8l36.3,21c1.2,0.7,2.2,0.1,2.2-1.2
				V171C325.4,169.6,324.4,167.9,323.2,167.2z"/>
		</g>
		<g id="XMLID_15898_">
			<path class="st2" d="M284.7,147.5c0-1.4,1-1.9,2.2-1.2l36.3,21c1.2,0.7,2.2,2.4,2.2,3.8v2.2l-40.6-23.5v-2.3H284.7z"/>
		</g>
	</g>
	<g id="XMLID_14633_">
		<polygon class="st2" points="321.3,175.5 305,166.1 305,182.5 321.3,191.9 		"/>
	</g>
	<g id="XMLID_14640_">
		<path class="st2" d="M321.3,189.5l-6.1-10.8c-0.3-0.5-0.8-0.5-1.2-0.1l-2.1,2.3l-3.7-8.5c-0.2-0.5-0.7-0.6-1-0.1l-2.2,3.2v7
			l16.2,9.4v-2.4L321.3,189.5L321.3,189.5z"/>
	</g>
	<g id="XMLID_703_">
		<path id="XMLID_34_" class="st2" d="M301,165.2c0,0.8-0.6,1.1-1.3,0.7l-9.6-5.5c-0.7-0.4-1.3-1.4-1.3-2.2s0.6-1.1,1.3-0.7l9.6,5.5
			C300.4,163.4,301,164.4,301,165.2z"/>
		<path class="st2" d="M301,171.9c0,0.8-0.6,1.1-1.3,0.7l-9.6-5.5c-0.7-0.4-1.3-1.4-1.3-2.2s0.6-1.1,1.3-0.7l9.6,5.5
			C300.4,170.2,301,171.2,301,171.9z"/>
		<path id="XMLID_31_" class="st2" d="M301,178.7c0,0.8-0.6,1.1-1.3,0.7l-9.6-5.5c-0.7-0.4-1.3-1.4-1.3-2.2s0.6-1.1,1.3-0.7l9.6,5.5
			C300.4,177,301,177.9,301,178.7z"/>
	</g>
</g>
<g id="XMLID_704_">
	<g id="XMLID_15510_">
		<g id="XMLID_15512_">
			<path class="st2" d="M323.2,206.8l-36.3-21c-1.2-0.7-2.2-0.1-2.2,1.2v25.5c0,1.4,1,3.1,2.2,3.8l36.3,21c1.2,0.7,2.2,0.1,2.2-1.2
				v-25.5C325.4,209.1,324.4,207.5,323.2,206.8z"/>
		</g>
		<g id="XMLID_15511_">
			<path class="st2" d="M284.7,187.1c0-1.4,1-1.9,2.2-1.2l36.3,21c1.2,0.7,2.2,2.4,2.2,3.8v2.2l-40.6-23.5v-2.3H284.7z"/>
		</g>
	</g>
	<g id="XMLID_15500_">
		<polygon class="st2" points="321.3,215 305,205.7 305,222.1 321.3,231.4 		"/>
	</g>
	<g id="XMLID_15488_">
		<path class="st2" d="M321.3,229.1l-6.1-10.8c-0.3-0.5-0.8-0.5-1.2-0.1l-2.1,2.3l-3.7-8.5c-0.2-0.5-0.7-0.6-1-0.1l-2.2,3.2v7
			l16.2,9.4v-2.4L321.3,229.1L321.3,229.1z"/>
	</g>
	<g id="XMLID_705_">
		<path id="XMLID_36_" class="st2" d="M301,204.7c0,0.8-0.6,1.1-1.3,0.7l-9.6-5.5c-0.7-0.4-1.3-1.4-1.3-2.2s0.6-1.1,1.3-0.7l9.6,5.5
			C300.4,203,301,203.9,301,204.7z"/>
		<path class="st2" d="M301,211.5c0,0.8-0.6,1.1-1.3,0.7l-9.6-5.5c-0.7-0.4-1.3-1.4-1.3-2.2s0.6-1.1,1.3-0.7l9.6,5.5
			C300.4,209.7,301,210.7,301,211.5z"/>
		<path id="XMLID_35_" class="st2" d="M301,218.2c0,0.8-0.6,1.1-1.3,0.7l-9.6-5.5c-0.7-0.4-1.3-1.4-1.3-2.2s0.6-1.1,1.3-0.7l9.6,5.5
			C300.4,216.5,301,217.4,301,218.2z"/>
	</g>
</g>
<g>
	<g id="XMLID_15884_">
		<g id="XMLID_15861_">
			<path class="st9" d="M335.3,119.4L177.9,28.6c-3.1-1.8-5.6-0.3-5.6,3.2v121.9c0,1.6,1.2,3.7,2.6,4.5l161.3,93.2
				c1.4,0.8,2.6,0.2,2.6-1.5V125.6C338.9,123.3,337.3,120.5,335.3,119.4z"/>
		</g>
		<g id="XMLID_15865_">
			<path class="st7" d="M172.3,34.7v-2.9c0-3.6,2.5-5,5.6-3.2l157.4,90.8c2,1.1,3.6,3.9,3.6,6.2v5.2L172.3,34.7z"/>
		</g>
		<g id="XMLID_15878_">
			<path class="st4" d="M195.8,41.3c1.1,0.6,1.9,2.1,1.9,3.3s-0.9,1.7-1.9,1.1c-1.1-0.6-1.9-2.1-1.9-3.3
				C193.9,41.2,194.7,40.7,195.8,41.3z"/>
		</g>
		<g id="XMLID_15877_">
			<path class="st4" d="M188.2,36.9c1.1,0.6,1.9,2.1,1.9,3.3s-0.9,1.7-1.9,1.1c-1.1-0.6-1.9-2.1-1.9-3.3S187.1,36.3,188.2,36.9z"/>
		</g>
		<g id="XMLID_15876_">
			<path class="st4" d="M180.5,32.5c1.1,0.6,1.9,2.1,1.9,3.3s-0.9,1.7-1.9,1.1c-1.1-0.6-1.9-2.1-1.9-3.3S179.4,31.9,180.5,32.5z"/>
		</g>
		<g id="XMLID_15892_">
			<polygon class="st1" points="338.9,130.8 338.9,154.3 172.3,58.1 172.3,34.7 			"/>
			<polygon class="st2" points="338.9,130.8 338.9,154.3 172.3,58.1 172.3,34.7 			"/>
		</g>
		<g id="XMLID_14969_">
			<path class="st2" d="M305.4,144.3v82.4c0,0.6-0.3,0.8-0.6,0.6c-0.4-0.2-0.6-0.8-0.6-1.4v-82.4c0-0.6,0.3-0.8,0.6-0.6
				C305.2,143.1,305.4,143.7,305.4,144.3z"/>
		</g>
	</g>
	<text transform="matrix(0.5658 0.2171 -0.7024 0.7118 173.7 55.3299)" class="st10 st11 st12">Daap</text>
</g>
<g id="XMLID_15501_">
	<g id="XMLID_15394_">
		<g id="XMLID_15595_">
			<g id="XMLID_15597_">
				<path class="st2" d="M290.7,183.5l-111.6-64.4c-1.2-0.7-2.2-0.1-2.2,1.2v32.5c0,1.4,1,3.1,2.2,3.8L290.7,221
					c1.2,0.7,2.2,0.1,2.2-1.2v-32.5C292.9,185.9,291.9,184.2,290.7,183.5z"/>
			</g>
			<g id="XMLID_15596_">
				<path class="st2" d="M177,120.3c0-1.4,1-1.9,2.2-1.2l111.6,64.4c1.2,0.7,2.2,2.4,2.2,3.8v2.2l-115.9-66.9v-2.3
					C177.1,120.3,177,120.3,177,120.3z"/>
			</g>
		</g>
	</g>
	<g id="XMLID_15541_">
		<path class="st2" d="M311.1,157l22.5,13c1,0.6,1.7,1.9,1.7,3v22.3c0,1.1-0.8,1.6-1.7,1l-22.5-13c-1-0.6-1.7-1.9-1.7-3V158
			C309.4,156.9,310.2,156.5,311.1,157z"/>
	</g>
	<g id="XMLID_15557_">
		<path class="st2" d="M268.3,179l7.9,17v1.8c0,1.1-0.8,1.6-1.7,1l-22.5-13c-1-0.6-1.7-1.9-1.7-3V175l4.3-8c0.5-1,1.3-0.9,1.7,0.1
			l6.7,15.8l3.3-4.1C266.9,177.9,267.8,178,268.3,179z"/>
	</g>
	<g id="XMLID_15558_">
		<path class="st2" d="M256.4,180.8c-2.2-1.2-3.9-4.3-3.9-6.7c0-0.9,0.2-1.6,0.6-2l4.2,2.4c1,0.6,1.7,1.9,1.7,3v3.7
			C258.3,181.5,257.4,181.4,256.4,180.8z"/>
	</g>
	<g id="XMLID_708_">
		<path class="st2" d="M264.8,177.5l-69.7-40.2c-1-0.6-1.7-0.2-1.7,0.8s0.8,2.3,1.7,2.8l69.7,40.2c1,0.6,1.7,0.2,1.7-0.8
			C266.6,179.4,265.8,178.1,264.8,177.5z"/>
	</g>
	<g id="XMLID_15513_">
		<path class="st2" d="M264.8,186.9l-69.7-40.2c-1-0.6-1.7-0.2-1.7,0.8s0.8,2.3,1.7,2.8l69.7,40.2c1,0.6,1.7,0.2,1.7-0.8
			C266.6,188.7,265.8,187.5,264.8,186.9z"/>
	</g>
	<g id="Character">
		<g id="XMLID_15879_">
			<g id="XMLID_15849_">
				<path class="st13" d="M108.9,65.3l10.2-0.3c0.7-0.6,11.4-12.7,11.4-12.7s3.9,6.1,3.9,6.5c0.1,0.4-10.5,11.7-11.6,12.9
					c-0.6,0.6-1.1,1.1-2.5,1.2c-2.8,0.2-13.1,0.9-13.1,0.9L108.9,65.3z"/>
			</g>
			<g id="XMLID_15933_">
				<polygon class="st1" points="94.3,77.1 110.1,75.9 108.9,65.3 92.6,65.7 				"/>
				<polygon class="st2" points="94.3,77.1 110.1,75.9 108.9,65.3 92.6,65.7 				"/>
			</g>
			<g id="XMLID_15570_">
				<g id="XMLID_15601_">
					<g id="XMLID_15602_">
						<g id="XMLID_15604_">
							<path class="st2" d="M239.8,111.9L128.2,47.5c-1.2-0.7-2.2-0.1-2.2,1.2v32.5c0,1.4,1,3.1,2.2,3.8l111.6,64.4
								c1.2,0.7,2.2,0.1,2.2-1.2v-32.5C241.9,114.2,241,112.5,239.8,111.9z"/>
						</g>
						<g id="XMLID_15603_">
							<path class="st2" d="M126,48.7c0-1.4,1-1.9,2.2-1.2l111.6,64.4c1.2,0.7,2.2,2.4,2.2,3.8v2.2L126.1,51L126,48.7L126,48.7z"/>
						</g>
					</g>
				</g>
				<g id="XMLID_15600_">
					<path class="st2" d="M214.4,105.1l22.5,13c1,0.6,1.7,1.9,1.7,3v22.3c0,1.1-0.8,1.6-1.7,1l-22.5-13c-1-0.6-1.7-1.9-1.7-3v-22.3
						C212.7,105,213.5,104.6,214.4,105.1z"/>
				</g>
				<g id="XMLID_15599_">
					<path class="st2" d="M230.8,124.7l7.9,17v1.8c0,1.1-0.8,1.6-1.7,1l-22.5-13c-1-0.6-1.7-1.9-1.7-3v-7.7l4.3-8
						c0.5-1,1.3-0.9,1.7,0.1l6.7,15.8l3.3-4.1C229.3,123.6,230.3,123.7,230.8,124.7z"/>
				</g>
				<g id="XMLID_15598_">
					<path class="st2" d="M236.1,124.5c-2.2-1.2-3.9-4.3-3.9-6.7c0-0.9,0.2-1.6,0.6-2l4.2,2.4c1,0.6,1.7,1.9,1.7,3v3.7
						C238,125.1,237.1,125.1,236.1,124.5z"/>
				</g>
				<g id="XMLID_15594_">
					<path class="st2" d="M202.5,100.2L132.9,60c-1-0.6-1.7-0.2-1.7,0.8s0.8,2.3,1.7,2.8l69.7,40.2c1,0.6,1.7,0.2,1.7-0.8
						C204.2,102,203.5,100.8,202.5,100.2z"/>
				</g>
				<g id="XMLID_15593_">
					<path class="st2" d="M202.5,109.6l-69.7-40.2c-1-0.6-1.7-0.2-1.7,0.8s0.8,2.3,1.7,2.8l69.7,40.2c1,0.6,1.7,0.2,1.7-0.8
						C204.2,111.4,203.5,110.1,202.5,109.6z"/>
				</g>
				<g id="XMLID_15591_">
					<path class="st2" d="M202.5,119l-69.7-40.2c-1-0.6-1.7-0.2-1.7,0.8s0.8,2.3,1.7,2.8l69.7,40.2c1,0.6,1.7,0.2,1.7-0.8
						S203.5,119.5,202.5,119z"/>
				</g>
			</g>
			<g id="XMLID_15927_">
				<g id="XMLID_15928_">
					<g id="XMLID_15959_">
						<rect x="74.2" y="188.9" class="st14" width="5.9" height="8.6"/>
					</g>
					<g id="XMLID_15958_">
						
							<rect x="93.4" y="179.7" transform="matrix(3.432864e-02 -0.9994 0.9994 3.432864e-02 -88.1209 274.0311)" class="st14" width="8.6" height="5.9"/>
					</g>
					<g id="XMLID_15956_">
						<path class="st8" d="M74.6,105c0,5.6-0.7,42.1-0.7,42.1c-0.1,1.6-1.7,4.6-1.3,10.8c0.4,8.5,1.2,32,1.2,32s2.8,2.7,6.7,0
							c0,0,5.3-32,6.4-40.3c0.9-7.3,2.5-27.2,2.5-27.2l5.5,23.4c0,0-1,5.5-1.2,9.4s1,26.3,1,26.3s3,2.1,6.4,0.2
							c0,0,4.7-32.8,5.4-36.3c0.6-3.5-4.2-40.5-4.2-40.5H74.6V105L74.6,105z"/>
					</g>
					<g id="XMLID_15955_">
						<path class="st2" d="M83.5,65.9C83.4,65.9,83.4,65.9,83.5,65.9c-5.3,1.3-8.9,6.1-8.9,11.4v10.2V105c4.1,4.5,18.6,6.6,27.6,0
							c0,0,0-24.2,0-28.8c0-4.6-2.6-10.1-9.6-10.5L83.5,65.9z"/>
					</g>
					<g id="XMLID_15940_">
						<g id="XMLID_15948_">
							<g id="XMLID_15954_">
								<path class="st7" d="M81.5,42.4c0,0-1.5-0.3-2.6,0.9c-1.1,1.1-0.9,3.3,0,8.1l3.5,0.4L81.5,42.4z"/>
							</g>
							<g id="XMLID_15953_">
								<path class="st7" d="M101.6,41c0,0,1.4,0,2.2-0.4c1.1-0.6,1.3,0.6,0.8,1.6c-0.6,1-1.7,2.4-4,2.7c0-0.2-1-2.7-1-2.7L101.6,41
									z"/>
							</g>
							<g id="XMLID_15952_">
								<path class="st14" d="M83.1,51.8c-0.5,0.3-1.2-0.7-1.9-1.3c-0.6-0.7-2.7-1.6-3.7,0.6c-1,2.2,1.3,5.2,2.7,6.1
									c1.7,1.2,2.9,0.2,2.9,0.2l0.4,8.5c0,0,1.8,4.5,6.8,5.2s3.9-3.4,2.3-5.4v-3.1c0,0,2.6,0.5,3.8,0.2c0.6-0.2,2.2-2,3.2-4.1
									c1.1-2.3,3-6.5,1.3-13.6c-1.8-7.6-9.9-7.8-14.8-4.8C81.3,43.4,83.1,51.8,83.1,51.8z"/>
							</g>
							<g id="XMLID_15951_">
								<path class="st7" d="M83.1,52.7c-0.3,0-1.2-1.6-1.9-2.2c-0.9-0.8,0.3-8.1,0.3-8.1s-0.9-2.8,0.9-4.6c1.7-1.8,5.1-1.5,7.6-1.6
									c2.6-0.1,5.3-0.2,8.9-1.8c3.5-1.5,3.8-1.7,4.2-0.2c0.4,1.5,0.6,5.1-1.5,7.5l-1.7,0.6c0,0-0.9,0.8-4.2,1.2
									c-3.3,0.4-8.4-0.1-9.1-0.2c-1-0.1-1.2,0.8-1.7,3.3C84.3,48.9,84,52.7,83.1,52.7z"/>
							</g>
							<g id="XMLID_15950_">
								<path class="st7" d="M81.5,43l-3.1-1.7c0.4-0.9,1.5-1.2,2.3-0.8C81.6,41,81.9,42.1,81.5,43z"/>
							</g>
							<g id="XMLID_15949_">
								<path class="st13" d="M92.6,62.6c0,0-4.6-0.9-6.2-1.8c-1.1-0.6-2-1.6-2.2-2.2c0,0,0.3,1.4,1.3,2.6c1.2,1.5,7.2,2.6,7.2,2.6
									L92.6,62.6L92.6,62.6z"/>
							</g>
						</g>
						<g id="XMLID_15941_">
							<g id="XMLID_15947_">
								<path class="st7" d="M91.5,50.7c0,0.5-0.4,1-0.9,1s-0.9-0.4-0.9-1c0-0.5,0.4-1,0.9-1S91.5,50.2,91.5,50.7z"/>
							</g>
							<g id="XMLID_15946_">
								<path class="st7" d="M90.5,47.2l-2,1.1c-0.3-0.6-0.1-1.3,0.5-1.6C89.5,46.4,90.2,46.6,90.5,47.2z"/>
							</g>
							<g id="XMLID_15945_">
								<path class="st13" d="M91.4,56.9l2.1,0.8c-0.2,0.6-0.8,0.9-1.4,0.7S91.2,57.5,91.4,56.9z"/>
							</g>
							<g id="XMLID_15944_">
								<path class="st7" d="M99.7,48l-1.8-1.4c0.4-0.5,1.1-0.6,1.6-0.2C100,46.7,100.1,47.5,99.7,48z"/>
							</g>
							<g id="XMLID_15943_">
								<path class="st7" d="M99.1,50.4c0,0.5-0.4,1-0.9,1s-0.9-0.4-0.9-1c0-0.5,0.4-1,0.9-1C98.7,49.5,99.1,49.9,99.1,50.4z"/>
							</g>
							<g id="XMLID_15942_">
								<polygon class="st13" points="94.4,49.5 94.8,55.1 97.6,54.1 								"/>
							</g>
						</g>
					</g>
					<g id="XMLID_15930_">
						<path class="st7" d="M80.1,194.6v-0.8c0.6,0.2,1.9,5.3,4.2,7.4c1.9,1.7,4.4,3.7,5,5.6c0.7,2-3.5,3.1-5.3,2.7
							c-2-0.4-5.5-1.8-6.4-3.1s-1.3-3.3-2-4.2c-0.7-1-2.4-2-2.7-3.2c-0.2-0.6,0-2,0.3-3.1c0.3-1,0.6-2.2,0.9-2.1c0,0.1,0,0.6,0,0.6
							c0.4,0.5,1.6,0.9,3,1C78,195.4,80.1,195.3,80.1,194.6z"/>
					</g>
					<g id="XMLID_15929_">
						<path class="st7" d="M100.6,185.3c0.3,0,0.6,0.4,1.2,1.2c0.8,0.9,2.2,1.8,3.5,2.5c2.2,1.1,6.5,2.8,8.5,3.7
							c1.2,0.5,1.2,2-0.1,2.9c-1.3,0.8-4.3,1.4-7.9,0.6c-2-0.4-4.6-2.3-6.2-2.2s-4.7,0.1-5.9-0.8c-1.2-0.8-0.7-2.6-0.4-4.1
							c0.4-1.7,0.9-4.2,1.5-4.1v0.5c0.7,1.1,4.3,1.5,5.9,0.7L100.6,185.3z"/>
					</g>
				</g>
			</g>
			<g id="XMLID_15932_">
				<path class="st14" d="M81.7,69.8l18.2,18.9c0,0,16-2.9,21.5-4.4c1.7-0.5,2.9-3.1,3.3-5c0.4-2,1.4-2.6,1.4-2.6s0,1.4,0.4,3.7
					c0.1,1,1.7,1.1,3.1,1.4c5,1.1,6.7,0,8.8,1.4c1.6,1.1-0.4,4.1-4.1,5.1c-5.1,1.4-8,0.7-11.1,1.5c-2.4,0.6-19.7,6-23,6.8
					c-1.7,0.4-3.1,0.3-5-1.6S78.9,80.6,78.9,80.6L81.7,69.8z"/>
			</g>
			<g id="XMLID_15931_">
				<path class="st2" d="M80.9,69.1c2-0.5,14.2,14,14.2,14l-6.7,5.6c0,0-8.7-5.7-10.2-8C76.6,78.5,74.8,70.6,80.9,69.1z"/>
			</g>
			<g id="XMLID_15934_">
				<path class="st1" d="M87.9,89.1c0,0-9.2-8.2-9.6-9.1c-0.8-1.7-0.6-4.9-0.6-4.9s-1,2.8,0,4.9s8,8.3,9.1,9.3
					c1.1,1.1,1.1,1.1,1.1,1.1l1.1-1l-0.7-0.6L87.9,89.1z"/>
				<path class="st2" d="M87.9,89.1c0,0-9.2-8.2-9.6-9.1c-0.8-1.7-0.6-4.9-0.6-4.9s-1,2.8,0,4.9s8,8.3,9.1,9.3
					c1.1,1.1,1.1,1.1,1.1,1.1l1.1-1l-0.7-0.6L87.9,89.1z"/>
			</g>
			<g id="XMLID_15850_">
				<path class="st13" d="M134,48.4c-2-0.2-3.3-1.7-3.8-1.3s-0.3,1.1-0.1,1.4c0.6,0.6,3,1.7,3,1.7s0.3,1.3,0.5,3.1
					c0.2,1.5,0.1,4.6,1.4,5.6c3.9,3.1,4.9-1.8,4.8-5.2C139.7,49.7,136.1,48.7,134,48.4z"/>
			</g>
		</g>
	</g>
	<g id="XMLID_10_">
		<path class="st2" d="M310.1,195.7l22.5,13c1,0.6,1.7,1.9,1.7,3V234c0,1.1-0.8,1.6-1.7,1l-22.5-13c-1-0.6-1.7-1.9-1.7-3v-22.3
			C308.4,195.6,309.2,195.2,310.1,195.7z"/>
	</g>
</g>
</svg>
