<?xml version="1.0" encoding="utf-8"?>
<!-- Generator: Adobe Illustrator 25.2.1, SVG Export Plug-In . SVG Version: 6.00 Build 0)  -->
<svg version="1.1" id="Layer_1" xmlns="http://www.w3.org/2000/svg" xmlns:xlink="http://www.w3.org/1999/xlink" x="0px" y="0px"
	 viewBox="0 0 451.4 380" style="enable-background:new 0 0 451.4 380;" xml:space="preserve">
<style type="text/css">
	.st0{fill:#3C4354;}
	.st1{fill:#27DEBF;}
	.st2{fill:#1976D2;}
	.st3{fill:#FAFAFA;}
	.st4{fill:#E0E0E0;}
	.st5{fill:#1D2430;}
	.st6{fill:#37474F;}
	.st7{fill:#263238;}
	.st8{fill:#455A64;}
	.st9{fill:#F5F5F5;}
	.st10{fill:#E7E7E7;}
	.st11{fill:#F28F8F;}
	.st12{fill:#FFA8A7;}
	.st13{fill:#FFFFFF;}
	.st14{font-family:'CopperplateGothic-Bold';}
	.st15{font-size:16.056px;}
</style>
<g id="Floor">
	<g id="XMLID_15997_">
		<g id="XMLID_15998_">
			<path class="st0" d="M74.7,335.3c83.8,43.8,219.6,43.8,303.4,0s83.8-114.7,0-158.5s-219.6-43.8-303.4,0S-9.1,291.5,74.7,335.3z"
				/>
		</g>
	</g>
</g>
<g id="Plants">
	<g id="XMLID_15937_">
		<g id="XMLID_15913_">
			<g id="XMLID_15915_">
				<path class="st1" d="M395.9,249.6c0,0,1.1-5.3,9.6-9.4c8.3-4,13.1-3.1,18.8-5.4c5.8-2.3,1.6-13-14-8.3
					c-14.3,4.4-15.7,16.7-15.7,16.7L395.9,249.6z"/>
				<path class="st2" d="M395.9,249.6c0,0,1.1-5.3,9.6-9.4c8.3-4,13.1-3.1,18.8-5.4c5.8-2.3,1.6-13-14-8.3
					c-14.3,4.4-15.7,16.7-15.7,16.7L395.9,249.6z"/>
			</g>
			<g id="XMLID_15914_">
				<path class="st3" d="M394.4,247.6c-0.1,0-0.1,0-0.2,0c-0.3-0.1-0.4-0.4-0.3-0.7c2-5.7,7-11,13.5-14.2c8.4-4.1,14.3-2.8,14.6-2.7
					c0.3,0.1,0.5,0.4,0.4,0.7s-0.4,0.5-0.7,0.4c-0.1,0-5.9-1.3-13.8,2.6c-6.2,3.1-11.1,8.1-13,13.6
					C394.9,247.5,394.6,247.6,394.4,247.6z"/>
			</g>
		</g>
		<g id="XMLID_15910_">
			<g id="XMLID_15912_">
				<path class="st2" d="M394.7,243c0,0,1-3,4.8-8.9c6.6-10.2,17.5-14.6,22.2-20.4c5.1-6.3-3.7-10.2-11.6-8
					c-4.5,1.3-8.7,5.4-10.9,8.2c-7.6,9.8-7.6,21-7.6,21L394.7,243z"/>
			</g>
			<g id="XMLID_15911_">
				<path class="st2" d="M393.2,243.2L393.2,243.2c-0.3,0-0.6-0.3-0.5-0.6c0-0.1,0.3-9.5,5.5-18.8c6-10.8,14.9-14.6,15.3-14.8
					c0.3-0.1,0.6,0,0.7,0.3s0,0.6-0.3,0.7c-0.1,0-8.9,3.9-14.8,14.3c-5.1,9.1-5.4,18.3-5.4,18.3C393.7,243,393.5,243.2,393.2,243.2z
					"/>
			</g>
		</g>
	</g>
	<g id="XMLID_15855_">
		<g id="XMLID_15856_">
			<path class="st1" d="M102.4,252c-7.2-4.8-7.5-17.8-6.5-26c1.7-13-5-16-8.4-10.3c-1.6,2.8-3.7,8.9-3.5,15.9
				c0.4,11.1,5.2,24.3,16.8,29.1L102.4,252z"/>
			<path class="st2" d="M102.4,252c-7.2-4.8-7.5-17.8-6.5-26c1.7-13-5-16-8.4-10.3c-1.6,2.8-3.7,8.9-3.5,15.9
				c0.4,11.1,5.2,24.3,16.8,29.1L102.4,252z"/>
		</g>
		<g id="XMLID_15857_">
			<path class="st3" d="M100.9,260c-0.1,0-0.2,0-0.3-0.1c-12.2-10.4-14.1-29-10.7-41.9c0.1-0.3,0.3-0.4,0.6-0.4
				c0.3,0.1,0.4,0.3,0.4,0.6c-3.3,12.6-1.5,30.7,10.4,40.9c0.2,0.2,0.2,0.5,0.1,0.7C101.2,259.9,101.1,260,100.9,260z"/>
		</g>
	</g>
	<g id="XMLID_15848_">
		<g id="XMLID_15851_">
			<path class="st2" d="M113.2,276c-6.3,4.5-20.6,8.4-25.3,0.7c-4.4-7.2-1.4-10.3-10.3-9.1c-8.8,1.2-10.9-5.6-8.8-11.4
				c2.1-5.8-6.6-14.2-0.3-20.7s10,7.1,13.7,8.5c3.6,1.5,5.9-1.7,10.2,0.6c4.2,2.3,4.6,11.8,8.8,11.9c6.8,0.3,18.1,0.3,19,6.3
				C121,268.9,113.2,276,113.2,276z"/>
		</g>
		<g id="XMLID_15852_">
			<path class="st3" d="M115.8,273.4L115.8,273.4c-32.8-3.4-45.5-32-46.3-36.2c-0.1-0.3,0.1-0.5,0.4-0.6c0.3-0.1,0.5,0.1,0.6,0.4
				c0.8,4.1,13.2,32,45.3,35.3c0.3,0,0.5,0.3,0.4,0.5C116.3,273.2,116.1,273.4,115.8,273.4z"/>
		</g>
		<g id="XMLID_15853_">
			<path class="st3" d="M80,260.6c-3.3,0-6-0.5-6.2-0.5c-0.3,0-0.5-0.3-0.4-0.6c0-0.3,0.3-0.5,0.6-0.4c0.1,0,6.2,1.1,11.3,0
				c0.3-0.1,0.5,0.1,0.6,0.4s-0.1,0.5-0.4,0.6C83.7,260.4,81.7,260.6,80,260.6z"/>
		</g>
		<g id="XMLID_15854_">
			<path class="st3" d="M89.8,263.6h-0.1c-0.3-0.1-0.4-0.3-0.4-0.6c1.7-7.4,0.7-13.5,0.7-13.6c0-0.3,0.1-0.5,0.4-0.6
				c0.3,0,0.5,0.1,0.6,0.4c0,0.3,1,6.4-0.7,14C90.2,263.4,90,263.6,89.8,263.6z"/>
		</g>
	</g>
</g>
<g id="Icons">
	<g>
		<g id="XMLID_15872_">
			<g id="XMLID_15903_">
				<path class="st2" d="M28.5,224l15.7-8.7c1.3-0.7,3.5-0.7,4.9,0l2,1.1c1.3,0.7,2.4,2.5,2.4,4v17.3c0,1.5-1.1,3.3-2.4,4l-15.7,8.7
					c-1.3,0.7-3.5,0.7-4.9,0l-2-1.1c-1.3-0.7-2.4-2.5-2.4-4V228C26,226.5,27.1,224.7,28.5,224z"/>
				<path class="st2" d="M28.5,224l15.7-8.7c1.3-0.7,3.5-0.7,4.9,0l2,1.1c1.3,0.7,2.4,2.5,2.4,4v17.3c0,1.5-1.1,3.3-2.4,4l-15.7,8.7
					c-1.3,0.7-3.5,0.7-4.9,0l-2-1.1c-1.3-0.7-2.4-2.5-2.4-4V228C26,226.5,27.1,224.7,28.5,224z"/>
			</g>
			<g id="XMLID_15902_">
				<path class="st2" d="M53.5,220.5c0-1.5-1.1-2.1-2.4-1.3l-15.7,8.7c-1.3,0.7-2.4,2.5-2.4,4v17.3c0,1.5,1.1,2.1,2.4,1.3l15.7-8.7
					c1.3-0.7,2.4-2.5,2.4-4V220.5z"/>
			</g>
			<g id="XMLID_15901_">
				<path class="st2" d="M26,245.3c0,1.5,1.1,3.3,2.4,4l2,1.1c1.2,0.7,3.1,0.7,4.5,0.2c-1.1,0.4-2-0.2-2-1.5v-17.3
					c0-0.7,0.3-1.6,0.7-2.3l-6.9-3.8c-0.4,0.7-0.7,1.6-0.7,2.3V245.3z"/>
				<path class="st2" d="M26,245.3c0,1.5,1.1,3.3,2.4,4l2,1.1c1.2,0.7,3.1,0.7,4.5,0.2c-1.1,0.4-2-0.2-2-1.5v-17.3
					c0-0.7,0.3-1.6,0.7-2.3l-6.9-3.8c-0.4,0.7-0.7,1.6-0.7,2.3V245.3z"/>
			</g>
		</g>
		<g id="XMLID_15569_">
			<path class="st3" d="M36.5,233.8l13.3-7.7c0.4-0.2,0.6,0,0.6,0.4v9.1c0,0.4-0.3,0.9-0.6,1.1l-13.3,7.7c-0.4,0.2-0.6,0-0.6-0.4v-9
				C35.9,234.6,36.2,234.1,36.5,233.8z"/>
		</g>
		<g id="XMLID_15846_">
			<polygon class="st4" points="35.9,234.2 43.9,236.8 50.5,225.7 44.1,237.7 			"/>
		</g>
	</g>
	<g>
		<g id="XMLID_15866_">
			<g id="XMLID_15871_">
				<path class="st2" d="M28.5,178.7l15.7-9.1c1.3-0.8,3.5-0.8,4.9,0l2,1.1c1.3,0.8,2.4,2.7,2.4,4.2V193c0,1.6-1.1,3.4-2.4,4.2
					l-15.7,9.1c-1.3,0.8-3.5,0.8-4.9,0l-2-1.1c-1.3-0.8-2.4-2.7-2.4-4.2v-18.1C26,181.4,27.1,179.5,28.5,178.7z"/>
				<path class="st2" d="M28.5,178.7l15.7-9.1c1.3-0.8,3.5-0.8,4.9,0l2,1.1c1.3,0.8,2.4,2.7,2.4,4.2V193c0,1.6-1.1,3.4-2.4,4.2
					l-15.7,9.1c-1.3,0.8-3.5,0.8-4.9,0l-2-1.1c-1.3-0.8-2.4-2.7-2.4-4.2v-18.1C26,181.4,27.1,179.5,28.5,178.7z"/>
			</g>
			<g id="XMLID_15870_">
				<path class="st2" d="M53.5,175c0-1.6-1.1-2.2-2.4-1.4l-15.7,9.1c-1.3,0.8-2.4,2.7-2.4,4.2V205c0,1.6,1.1,2.2,2.4,1.4l15.7-9.1
					c1.3-0.8,2.4-2.7,2.4-4.2V175z"/>
			</g>
			<g id="XMLID_15869_">
				<path class="st2" d="M26,201c0,1.6,1.1,3.4,2.4,4.2l2,1.1c1.2,0.7,3.1,0.8,4.5,0.2c-1.1,0.4-2-0.2-2-1.6v-18.1
					c0-0.8,0.3-1.6,0.7-2.4l-6.9-4c-0.4,0.8-0.7,1.6-0.7,2.4V201z"/>
				<path class="st2" d="M26,201c0,1.6,1.1,3.4,2.4,4.2l2,1.1c1.2,0.7,3.1,0.8,4.5,0.2c-1.1,0.4-2-0.2-2-1.6v-18.1
					c0-0.8,0.3-1.6,0.7-2.4l-6.9-4c-0.4,0.8-0.7,1.6-0.7,2.4V201z"/>
			</g>
		</g>
		<g id="XMLID_15847_">
			<g id="XMLID_15864_">
				<path class="st3" d="M43,196.9l-1.7-0.1c-2.2-0.2-4.8-1-4.8-4.2c0-2.1,1.5-4.7,3.3-5.8c1.4-0.8,2.7-0.5,3.1,0.7
					c0.5-1.7,1.7-3.5,3.1-4.3c1.8-1.1,3.3-0.2,3.3,1.9c0,3.1-2.6,7-4.8,9.7L43,196.9z"/>
			</g>
		</g>
	</g>
	<g>
		<g id="XMLID_15904_">
			<g id="XMLID_15909_">
				<path class="st2" d="M28.5,133l15.7-9.1c1.3-0.8,3.5-0.8,4.9,0l2,1.1c1.3,0.8,2.4,2.7,2.4,4.2v18.1c0,1.6-1.1,3.4-2.4,4.2
					l-15.7,9.1c-1.3,0.8-3.5,0.8-4.9,0l-2-1.1c-1.3-0.8-2.4-2.7-2.4-4.2v-18.1C26,135.6,27.1,133.7,28.5,133z"/>
				<path class="st2" d="M28.5,133l15.7-9.1c1.3-0.8,3.5-0.8,4.9,0l2,1.1c1.3,0.8,2.4,2.7,2.4,4.2v18.1c0,1.6-1.1,3.4-2.4,4.2
					l-15.7,9.1c-1.3,0.8-3.5,0.8-4.9,0l-2-1.1c-1.3-0.8-2.4-2.7-2.4-4.2v-18.1C26,135.6,27.1,133.7,28.5,133z"/>
			</g>
			<g id="XMLID_15908_">
				<path class="st2" d="M35.3,160.7c-1.3,0.8-2.4,0.1-2.4-1.4v-18.1c0-1.6,1.1-3.4,2.4-4.2l15.7-9.1c1.3-0.8,2.4-0.1,2.4,1.4v18.1
					c0,1.6-1.1,3.4-2.4,4.2"/>
			</g>
			<g id="XMLID_15907_">
				<path class="st2" d="M26,155.3c0,1.6,1.1,3.4,2.4,4.2l2,1.1c1.2,0.7,3.1,0.8,4.5,0.2c-1.1,0.4-2-0.2-2-1.6v-18.1
					c0-0.8,0.3-1.6,0.7-2.4l-6.9-4c-0.4,0.8-0.7,1.6-0.7,2.4V155.3z"/>
				<path class="st2" d="M26,155.3c0,1.6,1.1,3.4,2.4,4.2l2,1.1c1.2,0.7,3.1,0.8,4.5,0.2c-1.1,0.4-2-0.2-2-1.6v-18.1
					c0-0.8,0.3-1.6,0.7-2.4l-6.9-4c-0.4,0.8-0.7,1.6-0.7,2.4V155.3z"/>
			</g>
		</g>
		<g id="XMLID_15867_">
			<g id="XMLID_15873_">
				<path class="st3" d="M40.3,144c0,0,1.8-4.2,2-4.8s0-2.7,0-3.1c0-0.4,1.7-1.5,2.2-0.4c0.5,1.2,0.6,2.4,0.3,3.9l4.1-2.4
					c0.9-0.5,1.2,0.2,1.2,0.8c0,0.8-0.4,1.5-0.7,1.8c0,0,0.8-0.2,0.8,0.8c0,0.6-0.4,1.5-1,2c0,0,0.3,0.2,0.3,1c0,0.5-0.6,1.7-1.1,2
					c0,0,0.2,0.4,0.2,1c0,0.7-0.6,1.8-1.5,2.3s-6.7,3.9-6.7,3.9L40.3,144z"/>
			</g>
			<g id="XMLID_15868_">
				<polygon class="st3" points="36.5,156.3 39.4,154.5 39.3,144.3 36.4,146.1 				"/>
			</g>
		</g>
	</g>
	<g id="XMLID_15863_">
		<g id="XMLID_15880_">
			<g id="XMLID_15883_">
				<path class="st1" d="M19.9,79.5L44,65.6c5.5-2.9,14,2,14.2,8.2c-1.1,5.4,3.1,31.5-3.7,34.2l-24.1,13.9c-5.5,2.9-14-2-14.2-8.2
					C17.2,108.3,13,82.2,19.9,79.5z"/>
				<path class="st2" d="M19.9,79.5L44,65.6c5.5-2.9,14,2,14.2,8.2c-1.1,5.4,3.1,31.5-3.7,34.2l-24.1,13.9c-5.5,2.9-14-2-14.2-8.2
					C17.2,108.3,13,82.2,19.9,79.5z"/>
			</g>
			<g id="XMLID_15875_">
				<path class="st1" d="M58.2,73.6c0-1.4-0.7-4.8-4.2-2.7c-6.3,4.7-24.2,11.6-27.3,17.7l1.9,1.9L58.2,73.6z"/>
				<path class="st2" d="M58.2,73.6c0-1.4-0.7-4.8-4.2-2.7c-6.3,4.7-24.2,11.6-27.3,17.7l1.9,1.9L58.2,73.6z"/>
			</g>
			<g id="XMLID_15882_">
				<path class="st1" d="M30.4,121.9c-2.1,1.2-3.7,0.2-3.7-2.2c1.1-5.4-3.1-31.5,3.7-34.2l24.1-13.9c2.1-1.2,3.7-0.2,3.7,2.2
					c-1.1,5.4,3.1,31.5-3.7,34.2"/>
				<path class="st2" d="M30.4,121.9c-2.1,1.2-3.7,0.2-3.7-2.2c1.1-5.4-3.1-31.5,3.7-34.2l24.1-13.9c2.1-1.2,3.7-0.2,3.7,2.2
					c-1.1,5.4,3.1,31.5-3.7,34.2"/>
			</g>
			<g id="XMLID_15881_">
				<path class="st1" d="M16.1,113.7c0.3,6,8.1,10.7,13.6,8.5c-1.8,0.7-3.1-0.3-3.1-2.5c0.4-2.5-1-30.1,1.1-31.5l-10.5-6.1
					C15.1,83.5,16.5,111.3,16.1,113.7z"/>
				<path class="st2" d="M16.1,113.7c0.3,6,8.1,10.7,13.6,8.5c-1.8,0.7-3.1-0.3-3.1-2.5c0.4-2.5-1-30.1,1.1-31.5l-10.5-6.1
					C15.1,83.5,16.5,111.3,16.1,113.7z"/>
			</g>
		</g>
		<g id="XMLID_15862_">
			<path class="st3" d="M43.1,82.3l3.1,5.5l7-2.9c0.7-0.3,0.9,0.5,0.4,1.3l-5.1,8.6l1.2,7.3c0.1,0.7-0.6,1.7-1.2,1.7l-6.2-0.2
				l-6.2,7.4c-0.6,0.7-1.3,0.5-1.2-0.3l1.2-8.7L31,99.2c-0.5-0.3-0.2-1.4,0.4-1.8l7-5.2l3.1-9.1C42,82.2,42.8,81.8,43.1,82.3z"/>
		</g>
	</g>
</g>
<g id="Shadow">
	<g id="XMLID_15961_">
		<path class="st5" d="M381.4,209.2c-12,5.7-31.4,5.7-43.4,0s-12-15,0-20.7s31.4-5.7,43.4,0C393.3,194.2,393.3,203.5,381.4,209.2z"
			/>
	</g>
</g>
<g id="Device">
	<g id="XMLID_15860_">
		<g id="XMLID_15587_">
			<path class="st6" d="M108.6,275.5c0,2.6,1.9,5.8,4.3,7.2l121.3,70c2.4,1.4,6.3,1.4,8.7,0l166-95.8c2.4-1.4,4.3-4.6,4.3-7.2
				c0-2.6-1.9-5.8-4.3-7.2l-121.3-70c-2.4-1.4-6.3-1.4-8.7,0l-166,95.8C110.5,269.7,108.6,272.9,108.6,275.5z"/>
		</g>
		<g id="XMLID_15874_">
			<path class="st7" d="M158.7,241.9L113,268.3c-2.4,1.4-4.3,4.6-4.3,7.2s1.9,5.8,4.3,7.2l121.3,70c1.2,0.7,2.8,1,4.3,1V241.9H158.7
				z"/>
		</g>
		<g id="XMLID_15585_">
			<path class="st8" d="M104.5,268.4c-2.2-1.3-4.1-4.6-4.1-7.3V116.3c0-2.8,1.9-6.1,4.3-7.5l166-95.8c2.4-1.4,6.1-1.4,8.4-0.2
				c2.2,1.3,4.1,4.6,4.1,7.3v144.8c0,2.8-1.9,6.1-4.3,7.5l-166,95.8C110.5,269.7,106.8,269.7,104.5,268.4z"/>
		</g>
		<g id="XMLID_15592_">
			<path class="st7" d="M120.8,123l-19-11c-0.8,1.4-1.3,2.9-1.3,4.3v144.8c0,2.8,1.8,6,4.1,7.3c2.2,1.3,6,1.2,8.4-0.2l18.9-10.9
				L120.8,123z"/>
		</g>
		<g id="XMLID_15584_">
			<path class="st6" d="M108.6,121v144.8c0,2.8,1.9,3.9,4.3,2.5l166-95.8c2.4-1.4,4.3-4.7,4.3-7.5V20.1c0-2.8-1.9-3.9-4.3-2.5
				l-166,95.8C110.5,114.9,108.6,118.2,108.6,121z"/>
		</g>
		<g id="XMLID_15586_">
			<path class="st8" d="M112.9,273.3l121.3,70c2.4,1.4,6.3,1.4,8.7,0l166-95.8c2.4-1.4,2.4-3.6,0-5l-121.3-70
				c-2.4-1.4-6.3-1.4-8.7,0l-166,95.8C110.5,269.7,110.5,271.9,112.9,273.3z"/>
		</g>
		<g id="XMLID_15588_">
			<path class="st3" d="M115.3,121.5l161.3-93.2c1.4-0.8,2.6-0.2,2.6,1.5v125.3c0,1.7-1.2,3.7-2.6,4.5l-161.3,93.2
				c-1.4,0.8-2.6,0.2-2.6-1.5V126C112.7,124.4,113.8,122.4,115.3,121.5z"/>
		</g>
		<g id="XMLID_15589_">
			<path class="st7" d="M127,269.5l154.1-89c1.2-0.7,3.1-0.7,4.3,0l7.9,4.6c1.2,0.7,1.2,1.8,0,2.5l-154.1,88.9
				c-1.2,0.7-3.1,0.7-4.3,0L127,272C125.8,271.3,125.8,270.2,127,269.5z"/>
		</g>
		<g id="XMLID_15590_">
			<path class="st7" d="M147.3,281.3l154.1-89c1.2-0.7,3.1-0.7,4.3,0l48.5,28c1.2,0.7,1.2,1.8,0,2.5l-153.9,88.8
				c-1.2,0.7-3.1,0.7-4.3,0l-48.6-27.9C146.1,283.1,146.1,281.9,147.3,281.3z"/>
		</g>
		<g id="XMLID_15605_">
			<path class="st4" d="M285.5,232.3l4.8-2.8c0.2-0.1,0.2-0.3,0-0.4l-5.6-3.2c-0.2-0.1-0.6-0.1-0.8,0l-4.8,2.8
				c-0.2,0.1-0.2,0.3,0,0.4l5.6,3.2C284.9,232.4,285.2,232.4,285.5,232.3z M275.9,221.2l-4.8,2.8c-0.2,0.1-0.2,0.3,0,0.4l5.6,3.2
				c0.2,0.1,0.6,0.1,0.8,0l4.8-2.8c0.2-0.1,0.2-0.3,0-0.4l-5.6-3.2C276.5,221.1,276.1,221.1,275.9,221.2z M260.3,230.2l-8.2,4.7
				c-0.2,0.1-0.2,0.3,0,0.4l5.6,3.2c0.2,0.1,0.6,0.1,0.8,0l8.2-4.7c0.2-0.1,0.2-0.3,0-0.4l-5.6-3.2
				C260.9,230.1,260.5,230.1,260.3,230.2z M268.9,225.3l-4.8,2.8c-0.2,0.1-0.2,0.3,0,0.4l5.6,3.2c0.2,0.1,0.6,0.1,0.8,0l4.8-2.8
				c0.2-0.1,0.2-0.3,0-0.4l-5.6-3.2C269.4,225.2,269.1,225.2,268.9,225.3z M250,236.2l-4.8,2.8c-0.2,0.1-0.2,0.3,0,0.4l5.6,3.2
				c0.2,0.1,0.6,0.1,0.8,0l4.8-2.8c0.2-0.1,0.2-0.3,0-0.4l-5.6-3.2C250.5,236.1,250.2,236.1,250,236.2z M242.9,240.3l-4.8,2.8
				c-0.2,0.1-0.2,0.3,0,0.4l5.6,3.2c0.2,0.1,0.6,0.1,0.8,0l4.8-2.8c0.2-0.1,0.2-0.3,0-0.4l-5.6-3.2
				C243.5,240.2,243.1,240.2,242.9,240.3z M264.8,253.4l4.8-2.8c0.2-0.1,0.2-0.3,0-0.4L264,247c-0.2-0.1-0.6-0.1-0.8,0l-4.8,2.8
				c-0.2,0.1-0.2,0.3,0,0.4l5.6,3.2C264.3,253.5,264.6,253.5,264.8,253.4z M257.8,257.5l4.8-2.8c0.2-0.1,0.2-0.3,0-0.4l-5.6-3.2
				c-0.2-0.1-0.6-0.1-0.8,0l-4.8,2.8c-0.2,0.1-0.2,0.3,0,0.4l5.6,3.2C257.2,257.6,257.6,257.6,257.8,257.5z M250.7,261.6l4.8-2.8
				c0.2-0.1,0.2-0.3,0-0.4l-5.6-3.2c-0.2-0.1-0.6-0.1-0.8,0l-4.8,2.8c-0.2,0.1-0.2,0.3,0,0.4l5.6,3.2
				C250.2,261.7,250.5,261.7,250.7,261.6z M243.7,265.6l4.8-2.8c0.2-0.1,0.2-0.3,0-0.4l-5.6-3.2c-0.2-0.1-0.6-0.1-0.8,0l-4.8,2.8
				c-0.2,0.1-0.2,0.3,0,0.4l5.6,3.2C243.1,265.7,243.5,265.7,243.7,265.6z M278.4,236.4l4.8-2.8c0.2-0.1,0.2-0.3,0-0.4l-5.6-3.2
				c-0.2-0.1-0.6-0.1-0.8,0l-4.8,2.8c-0.2,0.1-0.2,0.3,0,0.4l5.6,3.2C277.9,236.5,278.2,236.5,278.4,236.4z M271.9,249.3l10.8-6.2
				c0.2-0.1,0.2-0.3,0-0.4l-13.5-7.8c-0.2-0.1-0.6-0.1-0.8,0l-5.6,3.2c-0.2,0.1-0.2,0.3,0,0.4l7.2,4.1c0.2,0.1,0.2,0.3,0,0.4
				l-4.5,2.6c-0.2,0.1-0.2,0.3,0,0.4l5.6,3.2C271.3,249.5,271.7,249.5,271.9,249.3z M235.9,244.4l-4.8,2.8c-0.2,0.1-0.2,0.3,0,0.4
				l5.6,3.2c0.2,0.1,0.6,0.1,0.8,0l4.8-2.8c0.2-0.1,0.2-0.3,0-0.4l-5.6-3.2C236.4,244.3,236.1,244.3,235.9,244.4z M228.8,248.5
				l-4.8,2.8c-0.2,0.1-0.2,0.3,0,0.4l5.6,3.2c0.2,0.1,0.6,0.1,0.8,0l4.8-2.8c0.2-0.1,0.2-0.3,0-0.4l-5.6-3.2
				C229.3,248.3,229,248.3,228.8,248.5z M193.6,294.1c0.2,0.1,0.6,0.1,0.8,0l4.8-2.8c0.2-0.1,0.2-0.3,0-0.4l-5.6-3.2
				c-0.2-0.1-0.6-0.1-0.8,0l-4.8,2.8c-0.2,0.1-0.2,0.3,0,0.4L193.6,294.1z M172.4,281l-4.8,2.8c-0.2,0.1-0.2,0.3,0,0.4l5.6,3.2
				c0.2,0.1,0.6,0.1,0.8,0l4.8-2.8c0.2-0.1,0.2-0.3,0-0.4l-5.6-3.2C172.9,280.9,172.6,280.9,172.4,281z M183.7,290.6
				c0.2,0.1,0.6,0.1,0.8,0l4.8-2.8c0.2-0.1,0.2-0.3,0-0.4l-5.6-3.2c-0.2-0.1-0.6-0.1-0.8,0l-4.8,2.8c-0.2,0.1-0.2,0.3,0,0.4
				L183.7,290.6z M206,296.6l4.8-2.8c0.2-0.1,0.2-0.3,0-0.4l-5.6-3.2c-0.2-0.1-0.6-0.1-0.8,0l-4.8,2.8c-0.2,0.1-0.2,0.3,0,0.4
				l5.6,3.2C205.5,296.7,205.8,296.7,206,296.6z M198.2,300.6c0.2,0.1,0.6,0.1,0.8,0l4.8-2.8c0.2-0.1,0.2-0.3,0-0.4l-5.6-3.2
				c-0.2-0.1-0.6-0.1-0.8,0l-4.8,2.8c-0.2,0.1-0.2,0.3,0,0.4L198.2,300.6z M179.4,277l-4.8,2.8c-0.2,0.1-0.2,0.3,0,0.4l5.6,3.2
				c0.2,0.1,0.6,0.1,0.8,0l4.8-2.8c0.2-0.1,0.2-0.3,0-0.4l-5.6-3.2C180,276.8,179.6,276.8,179.4,277z M214.7,256.6l-4.8,2.8
				c-0.2,0.1-0.2,0.3,0,0.4l5.6,3.2c0.2,0.1,0.6,0.1,0.8,0l4.8-2.8c0.2-0.1,0.2-0.3,0-0.4l-5.6-3.2
				C215.2,256.5,214.9,256.5,214.7,256.6z M186.5,272.9l-4.8,2.8c-0.2,0.1-0.2,0.3,0,0.4l5.6,3.2c0.2,0.1,0.6,0.1,0.8,0l4.8-2.8
				c0.2-0.1,0.2-0.3,0-0.4l-5.6-3.2C187,272.8,186.7,272.8,186.5,272.9z M221.7,252.5l-4.8,2.8c-0.2,0.1-0.2,0.3,0,0.4l5.6,3.2
				c0.2,0.1,0.6,0.1,0.8,0l4.8-2.8c0.2-0.1,0.2-0.3,0-0.4l-5.6-3.2C222.3,252.4,222,252.4,221.7,252.5z M207.6,260.7l-4.8,2.8
				c-0.2,0.1-0.2,0.3,0,0.4l5.6,3.2c0.2,0.1,0.6,0.1,0.8,0l4.8-2.8c0.2-0.1,0.2-0.3,0-0.4l-5.6-3.2
				C208.2,260.6,207.8,260.6,207.6,260.7z M200.6,264.7l-4.8,2.8c-0.2,0.1-0.2,0.3,0,0.4l5.6,3.2c0.2,0.1,0.6,0.1,0.8,0l4.8-2.8
				c0.2-0.1,0.2-0.3,0-0.4l-5.6-3.2C201.1,264.6,200.8,264.6,200.6,264.7z M193.5,268.8l-4.8,2.8c-0.2,0.1-0.2,0.3,0,0.4l5.6,3.2
				c0.2,0.1,0.6,0.1,0.8,0l4.8-2.8c0.2-0.1,0.2-0.3,0-0.4l-5.6-3.2C194.1,268.7,193.7,268.7,193.5,268.8z M229.6,273.8l4.8-2.8
				c0.2-0.1,0.2-0.3,0-0.4l-5.6-3.2c-0.2-0.1-0.6-0.1-0.8,0l-4.8,2.8c-0.2,0.1-0.2,0.3,0,0.4l5.6,3.2
				C229,273.9,229.4,273.9,229.6,273.8z M291.5,212.2l-4.8,2.8c-0.2,0.1-0.2,0.3,0,0.4l5.6,3.2c0.2,0.1,0.6,0.1,0.8,0l4.8-2.8
				c0.2-0.1,0.2-0.3,0-0.4l-5.6-3.2C292.1,212.1,291.7,212.1,291.5,212.2z M283,217.2l-4.8,2.8c-0.2,0.1-0.2,0.3,0,0.4l5.6,3.2
				c0.2,0.1,0.6,0.1,0.8,0l4.8-2.8c0.2-0.1,0.2-0.3,0-0.4l-5.6-3.2C283.5,217.1,283.2,217.1,283,217.2z M298.6,208.2l-4.8,2.8
				c-0.2,0.1-0.2,0.3,0,0.4l5.6,3.2c0.2,0.1,0.6,0.1,0.8,0l4.8-2.8c0.2-0.1,0.2-0.3,0-0.4l-5.6-3.2
				C299.1,208.1,298.8,208.1,298.6,208.2z M262.1,245.8l4.8-2.8c0.2-0.1,0.2-0.3,0-0.4l-5.6-3.2c-0.2-0.1-0.6-0.1-0.8,0l-4.8,2.8
				c-0.2,0.1-0.2,0.3,0,0.4l5.6,3.2C261.5,245.9,261.9,245.9,262.1,245.8z M306.4,204.1c-0.2-0.1-0.6-0.1-0.8,0l-4.8,2.8
				c-0.2,0.1-0.2,0.3,0,0.4l5.6,3.2c0.2,0.1,0.6,0.1,0.8,0l4.8-2.8c0.2-0.1,0.2-0.3,0-0.4L306.4,204.1z M236.6,269.7l4.8-2.8
				c0.2-0.1,0.2-0.3,0-0.4l-5.6-3.2c-0.2-0.1-0.6-0.1-0.8,0l-4.8,2.8c-0.2,0.1-0.2,0.3,0,0.4l5.6,3.2
				C236.1,269.8,236.4,269.8,236.6,269.7z M323.1,219.8l4.8-2.8c0.2-0.1,0.2-0.3,0-0.4l-5.6-3.2c-0.2-0.1-0.6-0.1-0.8,0l-4.8,2.8
				c-0.2,0.1-0.2,0.3,0,0.4l5.6,3.2C322.6,219.9,322.9,219.9,323.1,219.8z M308.1,219.2l4.8-2.8c0.2-0.1,0.2-0.3,0-0.4l-5.6-3.2
				c-0.2-0.1-0.6-0.1-0.8,0l-4.8,2.8c-0.2,0.1-0.2,0.3,0,0.4l5.6,3.2C307.5,219.4,307.9,219.4,308.1,219.2z M314.4,208.7
				c-0.2-0.1-0.6-0.1-0.8,0l-4.8,2.8c-0.2,0.1-0.2,0.3,0,0.4l5.6,3.2c0.2,0.1,0.6,0.1,0.8,0l4.8-2.8c0.2-0.1,0.2-0.3,0-0.4
				L314.4,208.7z M315.8,207.9l13.5,7.8c0.2,0.1,0.6,0.1,0.8,0l4.8-2.8c0.2-0.1,0.2-0.3,0-0.4l-13.5-7.8c-0.2-0.1-0.6-0.1-0.8,0
				l-4.8,2.8C315.6,207.5,315.6,207.7,315.8,207.9z M299.5,216.9l-4.8,2.8c-0.2,0.1-0.2,0.3,0,0.4l5.6,3.2c0.2,0.1,0.6,0.1,0.8,0
				l4.8-2.8c0.2-0.1,0.2-0.3,0-0.4l-5.6-3.2C300,216.7,299.7,216.7,299.5,216.9z M246.4,247.5l-4.8,2.8c-0.2,0.1-0.2,0.3,0,0.4
				l5.6,3.2c0.2,0.1,0.6,0.1,0.8,0l4.8-2.8c0.2-0.1,0.2-0.3,0-0.4l-5.6-3.2C247,247.4,246.6,247.4,246.4,247.5z M315.3,223.8
				c0.2,0.1,0.6,0.1,0.8,0l4.8-2.8c0.2-0.1,0.2-0.3,0-0.4l-5.6-3.2c-0.2-0.1-0.6-0.1-0.8,0l-4.8,2.8c-0.2,0.1-0.2,0.3,0,0.4
				L315.3,223.8z M253.5,243.4l-4.8,2.8c-0.2,0.1-0.2,0.3,0,0.4l5.6,3.2c0.2,0.1,0.6,0.1,0.8,0l4.8-2.8c0.2-0.1,0.2-0.3,0-0.4
				l-5.6-3.2C254,243.3,253.7,243.3,253.5,243.4z M200.6,290c0.2,0.1,0.6,0.1,0.8,0l4.8-2.8c0.2-0.1,0.2-0.3,0-0.4l-5.6-3.2
				c-0.2-0.1-0.6-0.1-0.8,0l-4.8,2.8c-0.2,0.1-0.2,0.3,0,0.4L200.6,290z M190,280.1l-4.8,2.8c-0.2,0.1-0.2,0.3,0,0.4l5.6,3.2
				c0.2,0.1,0.6,0.1,0.8,0l4.8-2.8c0.2-0.1,0.2-0.3,0-0.4l-5.6-3.2C190.6,279.9,190.2,279.9,190,280.1z M208.4,286l4.8-2.8
				c0.2-0.1,0.2-0.3,0-0.4l-5.6-3.2c-0.2-0.1-0.6-0.1-0.8,0l-4.8,2.8c-0.2,0.1-0.2,0.3,0,0.4l5.6,3.2
				C207.9,286.1,208.2,286.1,208.4,286z M215.5,281.9l4.8-2.8c0.2-0.1,0.2-0.3,0-0.4l-5.6-3.2c-0.2-0.1-0.6-0.1-0.8,0l-4.8,2.8
				c-0.2,0.1-0.2,0.3,0,0.4l5.6,3.2C214.9,282,215.3,282,215.5,281.9z M222.5,277.8l4.8-2.8c0.2-0.1,0.2-0.3,0-0.4l-5.6-3.2
				c-0.2-0.1-0.6-0.1-0.8,0l-4.8,2.8c-0.2,0.1-0.2,0.3,0,0.4l5.6,3.2C222,278,222.3,278,222.5,277.8z M197.1,276l-4.8,2.8
				c-0.2,0.1-0.2,0.3,0,0.4l5.6,3.2c0.2,0.1,0.6,0.1,0.8,0l4.8-2.8c0.2-0.1,0.2-0.3,0-0.4l-5.6-3.2
				C197.6,275.9,197.3,275.9,197.1,276z M204.1,271.9l-4.8,2.8c-0.2,0.1-0.2,0.3,0,0.4l5.6,3.2c0.2,0.1,0.6,0.1,0.8,0l4.8-2.8
				c0.2-0.1,0.2-0.3,0-0.4l-5.6-3.2C204.7,271.8,204.3,271.8,204.1,271.9z M232.3,255.6l-4.8,2.8c-0.2,0.1-0.2,0.3,0,0.4l5.6,3.2
				c0.2,0.1,0.6,0.1,0.8,0l4.8-2.8c0.2-0.1,0.2-0.3,0-0.4l-5.6-3.2C232.9,255.5,232.5,255.5,232.3,255.6z M225.3,259.7l-4.8,2.8
				c-0.2,0.1-0.2,0.3,0,0.4l5.6,3.2c0.2,0.1,0.6,0.1,0.8,0l4.8-2.8c0.2-0.1,0.2-0.3,0-0.4l-5.6-3.2
				C225.8,259.6,225.5,259.6,225.3,259.7z M239.4,251.6l-4.8,2.8c-0.2,0.1-0.2,0.3,0,0.4l5.6,3.2c0.2,0.1,0.6,0.1,0.8,0l4.8-2.8
				c0.2-0.1,0.2-0.3,0-0.4l-5.6-3.2C239.9,251.5,239.6,251.4,239.4,251.6z M211.2,267.8l-4.8,2.8c-0.2,0.1-0.2,0.3,0,0.4l5.6,3.2
				c0.2,0.1,0.6,0.1,0.8,0l4.8-2.8c0.2-0.1,0.2-0.3,0-0.4l-5.6-3.2C211.7,267.7,211.4,267.7,211.2,267.8z M218.2,263.8l-4.8,2.8
				c-0.2,0.1-0.2,0.3,0,0.4l5.6,3.2c0.2,0.1,0.6,0.1,0.8,0l4.8-2.8c0.2-0.1,0.2-0.3,0-0.4l-5.6-3.2
				C218.8,263.7,218.4,263.7,218.2,263.8z M213.1,292.5l4.8-2.8c0.2-0.1,0.2-0.3,0-0.4l-5.6-3.2c-0.2-0.1-0.6-0.1-0.8,0l-4.8,2.8
				c-0.2,0.1-0.2,0.3,0,0.4l5.6,3.2C212.5,292.6,212.9,292.6,213.1,292.5z M171.7,288.3l-5.6-3.2c-0.2-0.1-0.6-0.1-0.8,0l-4.8,2.8
				c-0.2,0.1-0.2,0.3,0,0.4l5.6,3.2c0.2,0.1,0.6,0.1,0.8,0l4.8-2.8C171.9,288.7,171.9,288.5,171.7,288.3z M182.3,291.4l-5.6-3.2
				c-0.2-0.1-0.6-0.1-0.8,0l-7.4,4.3c-0.2,0.1-0.2,0.3,0,0.4l5.6,3.2c0.2,0.1,0.6,0.1,0.8,0l7.4-4.3
				C182.5,291.8,182.5,291.6,182.3,291.4z M163.1,282.1l-5.6-3.2c-0.2-0.1-0.6-0.1-0.8,0l-5.9,3.4c-0.2,0.1-0.2,0.3,0,0.4l5.6,3.2
				c0.2,0.1,0.6,0.1,0.8,0l5.9-3.4C163.4,282.4,163.3,282.2,163.1,282.1z M167.7,279.5c0.2,0.1,0.6,0.1,0.8,0l4.8-2.8
				c0.2-0.1,0.2-0.3,0-0.4l-5.6-3.2c-0.2-0.1-0.6-0.1-0.8,0l-4.8,2.8c-0.2,0.1-0.2,0.3,0,0.4L167.7,279.5z M192.1,295l-5.6-3.2
				c-0.2-0.1-0.6-0.1-0.8,0l-9.3,5.4c-0.2,0.1-0.2,0.3,0,0.4l5.6,3.2c0.2,0.1,0.6,0.1,0.8,0l9.3-5.4
				C192.3,295.3,192.3,295.1,192.1,295z M196.7,301.5l-5.6-3.2c-0.2-0.1-0.6-0.1-0.8,0l-5.9,3.4c-0.2,0.1-0.2,0.3,0,0.4l5.6,3.2
				c0.2,0.1,0.6,0.1,0.8,0l5.9-3.4C196.9,301.8,196.9,301.6,196.7,301.5z M220.1,249.2c0.2,0.1,0.6,0.1,0.8,0l4.8-2.8
				c0.2-0.1,0.2-0.3,0-0.4l-5.6-3.2c-0.2-0.1-0.6-0.1-0.8,0l-4.8,2.8c-0.2,0.1-0.2,0.3,0,0.4L220.1,249.2z M206,257.4
				c0.2,0.1,0.6,0.1,0.8,0l4.8-2.8c0.2-0.1,0.2-0.3,0-0.4L206,251c-0.2-0.1-0.6-0.1-0.8,0l-4.8,2.8c-0.2,0.1-0.2,0.3,0,0.4
				L206,257.4z M174.7,275.4c0.2,0.1,0.6,0.1,0.8,0l4.8-2.8c0.2-0.1,0.2-0.3,0-0.4l-5.6-3.2c-0.2-0.1-0.6-0.1-0.8,0l-4.8,2.8
				c-0.2,0.1-0.2,0.3,0,0.4L174.7,275.4z M213.1,253.3c0.2,0.1,0.6,0.1,0.8,0l4.8-2.8c0.2-0.1,0.2-0.3,0-0.4l-5.6-3.2
				c-0.2-0.1-0.6-0.1-0.8,0l-4.8,2.8c-0.2,0.1-0.2,0.3,0,0.4L213.1,253.3z M199,261.4c0.2,0.1,0.6,0.1,0.8,0l4.8-2.8
				c0.2-0.1,0.2-0.3,0-0.4L199,255c-0.2-0.1-0.6-0.1-0.8,0l-4.8,2.8c-0.2,0.1-0.2,0.3,0,0.4L199,261.4z M200.6,302
				c-0.2-0.1-0.6-0.1-0.8,0l-7.4,4.3c-0.2,0.1-0.2,0.3,0,0.4l5.6,3.2c0.2,0.1,0.6,0.1,0.8,0l7.4-4.3c0.2-0.1,0.2-0.3,0-0.4
				L200.6,302z M188.8,267.3c0.2,0.1,0.6,0.1,0.8,0l4.8-2.8c0.2-0.1,0.2-0.3,0-0.4l-5.6-3.2c-0.2-0.1-0.6-0.1-0.8,0l-4.8,2.8
				c-0.2,0.1-0.2,0.3,0,0.4L188.8,267.3z M181.8,271.3c0.2,0.1,0.6,0.1,0.8,0l4.8-2.8c0.2-0.1,0.2-0.3,0-0.4l-5.6-3.2
				c-0.2-0.1-0.6-0.1-0.8,0l-4.8,2.8c-0.2,0.1-0.2,0.3,0,0.4L181.8,271.3z M331.2,226.6c-0.2-0.1-0.6-0.1-0.8,0l-11.9,6.9
				c-0.2,0.1-0.2,0.3,0,0.4l5.6,3.2c0.2,0.1,0.6,0.1,0.8,0l11.9-6.9c0.2-0.1,0.2-0.3,0-0.4L331.2,226.6z M315.6,235.6
				c-0.2-0.1-0.6-0.1-0.8,0l-4.8,2.8c-0.2,0.1-0.2,0.3,0,0.4l5.6,3.2c0.2,0.1,0.6,0.1,0.8,0l4.8-2.8c0.2-0.1,0.2-0.3,0-0.4
				L315.6,235.6z M220.1,288.4l4.8-2.8c0.2-0.1,0.2-0.3,0-0.4l-5.6-3.2c-0.2-0.1-0.6-0.1-0.8,0l-4.8,2.8c-0.2,0.1-0.2,0.3,0,0.4
				l5.6,3.2C219.6,288.6,219.9,288.6,220.1,288.4z M301.5,243.7c-0.2-0.1-0.6-0.1-0.8,0l-4.8,2.8c-0.2,0.1-0.2,0.3,0,0.4l5.6,3.2
				c0.2,0.1,0.6,0.1,0.8,0l4.8-2.8c0.2-0.1,0.2-0.3,0-0.4L301.5,243.7z M338.3,222.5c-0.2-0.1-0.6-0.1-0.8,0l-4.8,2.8
				c-0.2,0.1-0.2,0.3,0,0.4l5.6,3.2c0.2,0.1,0.6,0.1,0.8,0l4.8-2.8c0.2-0.1,0.2-0.3,0-0.4L338.3,222.5z M350.9,221.7l-13.5-7.8
				c-0.2-0.1-0.6-0.1-0.8,0l-4.8,2.8c-0.2,0.1-0.2,0.3,0,0.4l13.5,7.8c0.2,0.1,0.6,0.1,0.8,0l4.8-2.8
				C351.1,222,351.1,221.8,350.9,221.7z M275.2,259c-0.2-0.1-0.6-0.1-0.8,0l-5.9,3.4c-0.2,0.1-0.2,0.3,0,0.4l5.6,3.2
				c0.2,0.1,0.6,0.1,0.8,0l5.9-3.4c0.2-0.1,0.2-0.3,0-0.4L275.2,259z M293,248.7c-0.2-0.1-0.6-0.1-0.8,0l-7.4,4.3
				c-0.2,0.1-0.2,0.3,0,0.4l5.6,3.2c0.2,0.1,0.6,0.1,0.8,0l7.4-4.3c0.2-0.1,0.2-0.3,0-0.4L293,248.7z M258.8,268.4
				c-0.2-0.1-0.6-0.1-0.8,0l-39.6,22.9c-0.2,0.1-0.2,0.3,0,0.4l5.6,3.2c0.2,0.1,0.6,0.1,0.8,0l39.7-22.9c0.2-0.1,0.2-0.3,0-0.4
				L258.8,268.4z M216.9,292.6c-0.2-0.1-0.6-0.1-0.8,0l-5.9,3.4c-0.2,0.1-0.2,0.3,0,0.4l5.6,3.2c0.2,0.1,0.6,0.1,0.8,0l5.9-3.4
				c0.2-0.1,0.2-0.3,0-0.4L216.9,292.6z M267,263.7c-0.2-0.1-0.6-0.1-0.8,0l-5.9,3.4c-0.2,0.1-0.2,0.3,0,0.4l5.6,3.2
				c0.2,0.1,0.6,0.1,0.8,0l5.9-3.4c0.2-0.1,0.2-0.3,0-0.4L267,263.7z M208.7,297.3c-0.2-0.1-0.6-0.1-0.8,0l-5.9,3.4
				c-0.2,0.1-0.2,0.3,0,0.4l5.6,3.2c0.2,0.1,0.6,0.1,0.8,0l5.9-3.4c0.2-0.1,0.2-0.3,0-0.4L208.7,297.3z M283.3,254.2
				c-0.2-0.1-0.6-0.1-0.8,0l-5.9,3.4c-0.2,0.1-0.2,0.3,0,0.4l5.6,3.2c0.2,0.1,0.6,0.1,0.8,0l5.9-3.4c0.2-0.1,0.2-0.3,0-0.4
				L283.3,254.2z M308.6,239.7c-0.2-0.1-0.6-0.1-0.8,0l-4.8,2.8c-0.2,0.1-0.2,0.3,0,0.4l5.6,3.2c0.2,0.1,0.6,0.1,0.8,0l4.8-2.8
				c0.2-0.1,0.2-0.3,0-0.4L308.6,239.7z M324,228.4l4.8-2.8c0.2-0.1,0.2-0.3,0-0.4l-5.6-3.2c-0.2-0.1-0.6-0.1-0.8,0l-4.8,2.8
				c-0.2,0.1-0.2,0.3,0,0.4l5.6,3.2C323.5,228.6,323.8,228.6,324,228.4z M292.5,228.2l4.8-2.8c0.2-0.1,0.2-0.3,0-0.4l-5.6-3.2
				c-0.2-0.1-0.6-0.1-0.8,0l-4.8,2.8c-0.2,0.1-0.2,0.3,0,0.4l5.6,3.2C292,228.4,292.3,228.4,292.5,228.2z M276.5,255.9l14.1-8.1
				c0.2-0.1,0.2-0.3,0-0.4l-5.6-3.2c-0.2-0.1-0.6-0.1-0.8,0l-14.1,8.1c-0.2,0.1-0.2,0.3,0,0.4l5.6,3.2
				C276,256,276.3,256,276.5,255.9z M316.2,232.5c0.2,0.1,0.6,0.1,0.8,0l4.8-2.8c0.2-0.1,0.2-0.3,0-0.4l-5.6-3.2
				c-0.2-0.1-0.6-0.1-0.8,0l-4.8,2.8c-0.2,0.1-0.2,0.3,0,0.4L316.2,232.5z M309,227.9l4.8-2.8c0.2-0.1,0.2-0.3,0-0.4l-5.6-3.2
				c-0.2-0.1-0.6-0.1-0.8,0l-4.8,2.8c-0.2,0.1-0.2,0.3,0,0.4l5.6,3.2C308.5,228,308.8,228,309,227.9z M269.5,259.9l4.8-2.8
				c0.2-0.1,0.2-0.3,0-0.4l-5.6-3.2c-0.2-0.1-0.6-0.1-0.8,0l-4.8,2.8c-0.2,0.1-0.2,0.3,0,0.4l5.6,3.2
				C268.9,260.1,269.3,260.1,269.5,259.9z M300.6,241.5c0.2,0.1,0.6,0.1,0.8,0l4.8-2.8c0.2-0.1,0.2-0.3,0-0.4l-5.6-3.2
				c-0.2-0.1-0.6-0.1-0.8,0l-4.8,2.8c-0.2,0.1-0.2,0.3,0,0.4L300.6,241.5z M234.2,280.3l4.8-2.8c0.2-0.1,0.2-0.3,0-0.4l-5.6-3.2
				c-0.2-0.1-0.6-0.1-0.8,0l-4.8,2.8c-0.2,0.1-0.2,0.3,0,0.4l5.6,3.2C233.7,280.4,234,280.4,234.2,280.3z M241.3,276.2l4.8-2.8
				c0.2-0.1,0.2-0.3,0-0.4l-5.6-3.2c-0.2-0.1-0.6-0.1-0.8,0l-4.8,2.8c-0.2,0.1-0.2,0.3,0,0.4l5.6,3.2
				C240.7,276.3,241.1,276.3,241.3,276.2z M227.2,284.4l4.8-2.8c0.2-0.1,0.2-0.3,0-0.4l-5.6-3.2c-0.2-0.1-0.6-0.1-0.8,0l-4.8,2.8
				c-0.2,0.1-0.2,0.3,0,0.4l5.6,3.2C226.6,284.5,227,284.5,227.2,284.4z M255.4,268.1l4.8-2.8c0.2-0.1,0.2-0.3,0-0.4l-5.6-3.2
				c-0.2-0.1-0.6-0.1-0.8,0l-4.8,2.8c-0.2,0.1-0.2,0.3,0,0.4l5.6,3.2C254.8,268.2,255.2,268.2,255.4,268.1z M248.3,272.2l4.8-2.8
				c0.2-0.1,0.2-0.3,0-0.4l-5.6-3.2c-0.2-0.1-0.6-0.1-0.8,0l-4.8,2.8c-0.2,0.1-0.2,0.3,0,0.4l5.6,3.2
				C247.8,272.3,248.1,272.3,248.3,272.2z M262.4,264l4.8-2.8c0.2-0.1,0.2-0.3,0-0.4l-5.6-3.2c-0.2-0.1-0.6-0.1-0.8,0l-4.8,2.8
				c-0.2,0.1-0.2,0.3,0,0.4l5.6,3.2C261.9,264.1,262.2,264.1,262.4,264z M294.7,203.8c0.2,0.1,0.6,0.1,0.8,0l4.8-2.8
				c0.2-0.1,0.2-0.3,0-0.4l-1.5-0.9c-0.2-0.1-0.6-0.1-0.8,0l-4.8,2.8c-0.2,0.1-0.2,0.3,0,0.4L294.7,203.8z M260,226.2
				c0.2,0.1,0.6,0.1,0.8,0l4.8-2.8c0.2-0.1,0.2-0.3,0-0.4l-5.6-3.2c-0.2-0.1-0.6-0.1-0.8,0l-4.8,2.8c-0.2,0.1-0.2,0.3,0,0.4
				L260,226.2z M274.1,218c0.2,0.1,0.6,0.1,0.8,0l4.8-2.8c0.2-0.1,0.2-0.3,0-0.4l-5.6-3.2c-0.2-0.1-0.6-0.1-0.8,0l-4.8,2.8
				c-0.2,0.1-0.2,0.3,0,0.4L274.1,218z M251.4,231.2c0.2,0.1,0.6,0.1,0.8,0l4.8-2.8c0.2-0.1,0.2-0.3,0-0.4l-5.6-3.2
				c-0.2-0.1-0.6-0.1-0.8,0l-4.8,2.8c-0.2,0.1-0.2,0.3,0,0.4L251.4,231.2z M267,222.1c0.2,0.1,0.6,0.1,0.8,0l4.8-2.8
				c0.2-0.1,0.2-0.3,0-0.4l-5.6-3.2c-0.2-0.1-0.6-0.1-0.8,0l-4.8,2.8c-0.2,0.1-0.2,0.3,0,0.4L267,222.1z M237.3,239.3
				c0.2,0.1,0.6,0.1,0.8,0l4.8-2.8c0.2-0.1,0.2-0.3,0-0.4l-5.6-3.2c-0.2-0.1-0.6-0.1-0.8,0l-4.8,2.8c-0.2,0.1-0.2,0.3,0,0.4
				L237.3,239.3z M244.3,235.2c0.2,0.1,0.6,0.1,0.8,0l4.8-2.8c0.2-0.1,0.2-0.3,0-0.4l-5.6-3.2c-0.2-0.1-0.6-0.1-0.8,0l-4.8,2.8
				c-0.2,0.1-0.2,0.3,0,0.4L244.3,235.2z M280.6,211.9c0.2,0.1,0.6,0.1,0.8,0l4.8-2.8c0.2-0.1,0.2-0.3,0-0.4l-1.5-0.9
				c-0.2-0.1-0.6-0.1-0.8,0l-4.8,2.8c-0.2,0.1-0.2,0.3,0,0.4L280.6,211.9z M301.7,199.7c0.2,0.1,0.6,0.1,0.8,0l4.8-2.8
				c0.2-0.1,0.2-0.3,0-0.4l-1.5-0.9c-0.2-0.1-0.6-0.1-0.8,0l-4.8,2.8c-0.2,0.1-0.2,0.3,0,0.4L301.7,199.7z M313.5,206.5
				c0.2,0.1,0.6,0.1,0.8,0l4.8-2.8c0.2-0.1,0.2-0.3,0-0.4l-5.6-3.2c-0.2-0.1-0.6-0.1-0.8,0l-4.8,2.8c-0.2,0.1-0.2,0.3,0,0.4
				L313.5,206.5z M331.1,224.4l4.8-2.8c0.2-0.1,0.2-0.3,0-0.4l-5.6-3.2c-0.2-0.1-0.6-0.1-0.8,0l-4.8,2.8c-0.2,0.1-0.2,0.3,0,0.4
				l5.6,3.2C330.5,224.5,330.9,224.5,331.1,224.4z M287.6,207.9c0.2,0.1,0.6,0.1,0.8,0l4.8-2.8c0.2-0.1,0.2-0.3,0-0.4l-1.5-0.9
				c-0.2-0.1-0.6-0.1-0.8,0l-4.8,2.8c-0.2,0.1-0.2,0.3,0,0.4L287.6,207.9z M230.2,243.4c0.2,0.1,0.6,0.1,0.8,0l4.8-2.8
				c0.2-0.1,0.2-0.3,0-0.4l-5.6-3.2c-0.2-0.1-0.6-0.1-0.8,0l-4.8,2.8c-0.2,0.1-0.2,0.3,0,0.4L230.2,243.4z"/>
		</g>
		<g id="XMLID_15859_">
			<polygon class="st7" points="258.9,287.2 311.7,256.7 344.2,275.5 291.4,306 			"/>
		</g>
	</g>
</g>
<g id="XMLID_15884_">
	<g id="XMLID_15861_">
		<path class="st9" d="M152.8,106.4l157.4-90.8c3.1-1.8,5.6-0.3,5.6,3.2v121.9c0,1.6-1.2,3.7-2.6,4.5l-161.3,93.2
			c-1.4,0.8-2.6,0.2-2.6-1.5V112.6C149.2,110.3,150.8,107.5,152.8,106.4z"/>
	</g>
	<g id="XMLID_15865_">
		<path class="st7" d="M315.8,21.7v-2.9c0-3.6-2.5-5-5.6-3.2l-157.4,90.8c-2,1.1-3.6,3.9-3.6,6.2v5.2L315.8,21.7z"/>
	</g>
	<g id="XMLID_15878_">
		<path class="st4" d="M292.3,28.3c-1.1,0.6-1.9,2.1-1.9,3.3c0,1.2,0.9,1.7,1.9,1.1c1.1-0.6,1.9-2.1,1.9-3.3
			C294.2,28.2,293.4,27.7,292.3,28.3z"/>
	</g>
	<g id="XMLID_15877_">
		<path class="st4" d="M299.9,23.9c-1.1,0.6-1.9,2.1-1.9,3.3c0,1.2,0.9,1.7,1.9,1.1c1.1-0.6,1.9-2.1,1.9-3.3S301,23.3,299.9,23.9z"
			/>
	</g>
	<g id="XMLID_15876_">
		<path class="st4" d="M307.6,19.5c-1.1,0.6-1.9,2.1-1.9,3.3c0,1.2,0.9,1.7,1.9,1.1c1.1-0.6,1.9-2.1,1.9-3.3
			C309.5,19.4,308.7,18.9,307.6,19.5z"/>
	</g>
	<g id="XMLID_15892_">
		<polygon class="st1" points="149.2,117.8 149.2,141.3 315.8,45.1 315.8,21.7 		"/>
		<polygon class="st2" points="149.2,117.8 149.2,141.3 315.8,45.1 315.8,21.7 		"/>
	</g>
	<g id="XMLID_15893_">
		<path class="st3" d="M-89.2,272.7c-0.7,0.2-1.3,0.2-1.7,0.1v-11.5c0-0.2,0-0.5,0.1-0.6c0.1-0.2,0.3-0.3,0.5-0.5l0.9-0.5
			c0.2-0.1,0.4-0.2,0.5-0.1s0.2,0.2,0.2,0.5v3.8c0.3-0.5,0.7-0.9,1.1-1.3c0.5-0.4,1-0.8,1.5-1.1c1.3-0.7,2.2-0.9,2.9-0.5
			c0.7,0.4,1,1.3,1,2.8c0,1.7-0.4,3.2-1.2,4.6c-0.8,1.4-2,2.5-3.5,3.4C-87.7,272.2-88.4,272.5-89.2,272.7z M-85,268
			c0.4-0.8,0.7-1.8,0.7-3c0-1-0.2-1.6-0.5-1.9c-0.4-0.3-0.9-0.1-1.8,0.3c-0.6,0.3-1.1,0.8-1.5,1.4c-0.4,0.6-0.7,1.2-0.7,1.8v3.9
			c0.2,0,0.4,0,0.8-0.1c0.3-0.1,0.6-0.2,1-0.4C-86.1,269.5-85.4,268.8-85,268z"/>
		<path class="st3" d="M-80.4,267.5c-0.1-0.1-0.1-0.2-0.1-0.4v-11.8c0-0.2,0-0.5,0.1-0.6c0.1-0.2,0.3-0.3,0.5-0.5l0.9-0.5
			c0.2-0.1,0.4-0.2,0.5-0.1c0.1,0.1,0.2,0.2,0.2,0.5v11.8c0,0.2,0,0.4-0.1,0.6c-0.1,0.2-0.3,0.3-0.5,0.5l-0.9,0.5
			C-80.1,267.5-80.3,267.6-80.4,267.5z"/>
		<path class="st3" d="M-75.6,263.9c-0.8-0.4-1.2-1.4-1.2-2.9s0.4-3,1.2-4.3c0.8-1.3,1.9-2.4,3.4-3.3c1.5-0.8,2.6-1,3.4-0.6
			c0.8,0.4,1.2,1.4,1.2,2.9c0,1.5-0.4,3-1.2,4.3c-0.8,1.3-1.9,2.4-3.4,3.3C-73.7,264.1-74.8,264.3-75.6,263.9z M-70.4,259.6
			c0.4-0.8,0.6-1.7,0.6-2.7s-0.2-1.7-0.6-1.9c-0.4-0.3-1-0.2-1.8,0.3s-1.4,1.1-1.8,1.8c-0.4,0.8-0.6,1.7-0.6,2.7s0.2,1.7,0.6,2
			c0.4,0.3,1,0.2,1.8-0.2C-71.4,261-70.8,260.3-70.4,259.6z"/>
		<path class="st3" d="M-63.6,261.1c-0.6,0.2-1.1,0.3-1.4,0.3c-0.2,0-0.2-0.1-0.1-0.3l0.5-1.2c0.1-0.2,0.1-0.3,0.2-0.3
			c0,0,0.1,0,0.2,0c0.6,0,1.4-0.3,2.4-0.8c0.8-0.4,1.3-1,1.6-1.6c0.3-0.6,0.5-1.4,0.5-2.4c-0.3,0.6-0.7,1.1-1.1,1.5
			s-0.9,0.8-1.5,1.2c-1.3,0.7-2.2,0.9-2.9,0.5c-0.7-0.4-1-1.3-1-2.7c0-1.6,0.4-3.1,1.3-4.5c0.8-1.4,2-2.5,3.6-3.4
			c0.7-0.4,1.4-0.7,2.1-0.9c0.7-0.2,1.3-0.2,1.7-0.1v6.6c0,1.6-0.3,3-1,4.3c-0.7,1.3-1.7,2.3-3.1,3.1
			C-62.4,260.6-63,260.9-63.6,261.1z M-60.3,253.7c0.4-0.6,0.6-1.2,0.6-1.9v-3.5c-0.2,0-0.5,0.1-0.8,0.2c-0.3,0.1-0.7,0.3-1,0.5
			c-1.8,1-2.7,2.6-2.7,4.7c0,1,0.2,1.6,0.6,1.8c0.4,0.2,1,0.1,1.8-0.3C-61.2,254.8-60.7,254.3-60.3,253.7z"/>
	</g>
	<g id="XMLID_14969_">
		<path class="st2" d="M177.7,135.3v82.4c0,0.6,0.3,0.8,0.6,0.6c0.4-0.2,0.6-0.8,0.6-1.4v-82.4c0-0.6-0.3-0.8-0.6-0.6
			C177.9,134.1,177.7,134.7,177.7,135.3z"/>
	</g>
</g>
<g id="XMLID_695_">
	<g id="XMLID_14642_">
		<g id="XMLID_15894_">
			<path class="st2" d="M128.9,167.2l36.3-21c1.2-0.7,2.2-0.1,2.2,1.2v25.5c0,1.4-1,3.1-2.2,3.8l-36.3,21c-1.2,0.7-2.2,0.1-2.2-1.2
				V171C126.7,169.6,127.7,167.9,128.9,167.2z"/>
		</g>
		<g id="XMLID_15898_">
			<path class="st2" d="M167.4,147.5c0-1.4-1-1.9-2.2-1.2l-36.3,21c-1.2,0.7-2.2,2.4-2.2,3.8v2.2l40.6-23.5v-2.3H167.4z"/>
		</g>
	</g>
	<g id="XMLID_14633_">
		<polygon class="st2" points="130.8,175.5 147.1,166.1 147.1,182.5 130.8,191.9 		"/>
	</g>
	<g id="XMLID_14640_">
		<path class="st2" d="M130.8,189.5l6.1-10.8c0.3-0.5,0.8-0.5,1.2-0.1l2.1,2.3l3.7-8.5c0.2-0.5,0.7-0.6,1-0.1l2.2,3.2v7l-16.2,9.4
			v-2.4H130.8z"/>
	</g>
	<g id="XMLID_703_">
		<path id="XMLID_34_" class="st2" d="M151.1,165.2c0,0.8,0.6,1.1,1.3,0.7l9.6-5.5c0.7-0.4,1.3-1.4,1.3-2.2s-0.6-1.1-1.3-0.7
			l-9.6,5.5C151.7,163.4,151.1,164.4,151.1,165.2z"/>
		<path class="st2" d="M151.1,171.9c0,0.8,0.6,1.1,1.3,0.7l9.6-5.5c0.7-0.4,1.3-1.4,1.3-2.2s-0.6-1.1-1.3-0.7l-9.6,5.5
			C151.7,170.2,151.1,171.2,151.1,171.9z"/>
		<path id="XMLID_31_" class="st2" d="M151.1,178.7c0,0.8,0.6,1.1,1.3,0.7l9.6-5.5c0.7-0.4,1.3-1.4,1.3-2.2s-0.6-1.1-1.3-0.7
			l-9.6,5.5C151.7,177,151.1,177.9,151.1,178.7z"/>
	</g>
</g>
<g id="XMLID_704_">
	<g id="XMLID_15510_">
		<g id="XMLID_15512_">
			<path class="st2" d="M128.9,206.8l36.3-21c1.2-0.7,2.2-0.1,2.2,1.2v25.5c0,1.4-1,3.1-2.2,3.8l-36.3,21c-1.2,0.7-2.2,0.1-2.2-1.2
				v-25.5C126.7,209.1,127.7,207.5,128.9,206.8z"/>
		</g>
		<g id="XMLID_15511_">
			<path class="st2" d="M167.4,187.1c0-1.4-1-1.9-2.2-1.2l-36.3,21c-1.2,0.7-2.2,2.4-2.2,3.8v2.2l40.6-23.5v-2.3H167.4z"/>
		</g>
	</g>
	<g id="XMLID_15500_">
		<polygon class="st2" points="130.8,215 147.1,205.7 147.1,222.1 130.8,231.4 		"/>
	</g>
	<g id="XMLID_15488_">
		<path class="st2" d="M130.8,229.1l6.1-10.8c0.3-0.5,0.8-0.5,1.2-0.1l2.1,2.3l3.7-8.5c0.2-0.5,0.7-0.6,1-0.1l2.2,3.2v7l-16.2,9.4
			v-2.4H130.8z"/>
	</g>
	<g id="XMLID_705_">
		<path id="XMLID_36_" class="st2" d="M151.1,204.7c0,0.8,0.6,1.1,1.3,0.7l9.6-5.5c0.7-0.4,1.3-1.4,1.3-2.2s-0.6-1.1-1.3-0.7
			l-9.6,5.5C151.7,203,151.1,203.9,151.1,204.7z"/>
		<path class="st2" d="M151.1,211.5c0,0.8,0.6,1.1,1.3,0.7l9.6-5.5c0.7-0.4,1.3-1.4,1.3-2.2s-0.6-1.1-1.3-0.7l-9.6,5.5
			C151.7,209.7,151.1,210.7,151.1,211.5z"/>
		<path id="XMLID_35_" class="st2" d="M151.1,218.2c0,0.8,0.6,1.1,1.3,0.7l9.6-5.5c0.7-0.4,1.3-1.4,1.3-2.2s-0.6-1.1-1.3-0.7
			l-9.6,5.5C151.7,216.5,151.1,217.4,151.1,218.2z"/>
	</g>
</g>
<g id="XMLID_15501_">
	<g id="XMLID_15394_">
		<g id="XMLID_15595_">
			<g id="XMLID_15597_">
				<path class="st2" d="M192,168.2l111.6-64.4c1.2-0.7,2.2-0.1,2.2,1.2v32.5c0,1.4-1,3.1-2.2,3.8L192,205.7
					c-1.2,0.7-2.2,0.1-2.2-1.2V172C189.8,170.6,190.8,168.9,192,168.2z"/>
			</g>
			<g id="XMLID_15596_">
				<path class="st2" d="M305.7,105c0-1.4-1-1.9-2.2-1.2l-111.6,64.4c-1.2,0.7-2.2,2.4-2.2,3.8v2.2l115.9-66.9V105H305.7z"/>
			</g>
		</g>
	</g>
	<g id="XMLID_15541_">
		<path class="st2" d="M217.4,161.4l-22.5,13c-1,0.6-1.7,1.9-1.7,3v22.3c0,1.1,0.8,1.6,1.7,1l22.5-13c1-0.6,1.7-1.9,1.7-3v-22.3
			C219.1,161.3,218.3,160.9,217.4,161.4z"/>
	</g>
	<g id="XMLID_15557_">
		<path class="st2" d="M201,181l-7.9,17v1.8c0,1.1,0.8,1.6,1.7,1l22.5-13c1-0.6,1.7-1.9,1.7-3V177l-4.3-8c-0.5-1-1.3-0.9-1.7,0.1
			l-6.7,15.8l-3.3-4.1C202.4,179.9,201.5,180,201,181z"/>
	</g>
	<g id="XMLID_15558_">
		<path class="st2" d="M195.7,180.8c2.2-1.2,3.9-4.3,3.9-6.7c0-0.9-0.2-1.6-0.6-2l-4.2,2.4c-1,0.6-1.7,1.9-1.7,3v3.7
			C193.8,181.5,194.7,181.4,195.7,180.8z"/>
	</g>
	<g id="XMLID_708_">
		<path class="st2" d="M229.3,156.5l69.7-40.2c1-0.6,1.7-0.2,1.7,0.8s-0.8,2.3-1.7,2.8l-69.7,40.2c-1,0.6-1.7,0.2-1.7-0.8
			C227.5,158.4,228.3,157.1,229.3,156.5z"/>
	</g>
	<g id="XMLID_15513_">
		<path class="st2" d="M229.3,165.9l69.7-40.2c1-0.6,1.7-0.2,1.7,0.8s-0.8,2.3-1.7,2.8l-69.7,40.2c-1,0.6-1.7,0.2-1.7-0.8
			C227.5,167.7,228.3,166.5,229.3,165.9z"/>
	</g>
	<g id="XMLID_15560_">
		<path class="st2" d="M229.3,175.3l69.7-40.2c1-0.6,1.7-0.2,1.7,0.8s-0.8,2.3-1.7,2.8L229.3,179c-1,0.6-1.7,0.2-1.7-0.8
			C227.5,177.1,228.3,175.8,229.3,175.3z"/>
	</g>
</g>
<g id="XMLID_1_">
	<g id="XMLID_9_">
		<path class="st9" d="M-298.8,158.5l157.4-90.8c3.1-1.8,5.6-0.3,5.6,3.2v121.9c0,1.6-1.2,3.7-2.6,4.5l-161.3,93.2
			c-1.4,0.8-2.6,0.2-2.6-1.5V164.7C-302.4,162.4-300.8,159.6-298.8,158.5z"/>
	</g>
	<g id="XMLID_8_">
		<path class="st7" d="M-135.8,73.8v-2.9c0-3.6-2.5-5-5.6-3.2l-157.4,90.8c-2,1.1-3.6,3.9-3.6,6.2v5.2L-135.8,73.8z"/>
	</g>
	<g id="XMLID_7_">
		<path class="st4" d="M-159.3,80.4c-1.1,0.6-1.9,2.1-1.9,3.3c0,1.2,0.9,1.7,1.9,1.1c1.1-0.6,1.9-2.1,1.9-3.3
			S-158.2,79.8-159.3,80.4z"/>
	</g>
	<g id="XMLID_6_">
		<path class="st4" d="M-151.7,76c-1.1,0.6-1.9,2.1-1.9,3.3c0,1.2,0.9,1.7,1.9,1.1c1.1-0.6,1.9-2.1,1.9-3.3S-150.6,75.4-151.7,76z"
			/>
	</g>
	<g id="XMLID_5_">
		<path class="st4" d="M-144,71.6c-1.1,0.6-1.9,2.1-1.9,3.3c0,1.2,0.9,1.7,1.9,1.1c1.1-0.6,1.9-2.1,1.9-3.3
			C-142.1,71.5-142.9,71-144,71.6z"/>
	</g>
	<g id="XMLID_4_">
		<polygon class="st1" points="-302.4,169.9 -302.4,193.4 -135.8,97.2 -135.8,73.8 		"/>
		<polygon class="st2" points="-302.4,169.9 -302.4,193.4 -135.8,97.2 -135.8,73.8 		"/>
	</g>
	<g id="XMLID_3_">
		<path class="st3" d="M-389.2,142.4c-0.7,0.2-1.3,0.2-1.7,0.1V131c0-0.2,0-0.5,0.1-0.6c0.1-0.2,0.3-0.3,0.5-0.5l0.9-0.5
			c0.2-0.1,0.4-0.2,0.5-0.1c0.1,0.1,0.2,0.2,0.2,0.5v3.8c0.3-0.5,0.7-0.9,1.1-1.3c0.5-0.4,1-0.8,1.5-1.1c1.3-0.7,2.2-0.9,2.9-0.5
			c0.7,0.4,1,1.3,1,2.8c0,1.7-0.4,3.2-1.2,4.6c-0.8,1.4-2,2.5-3.5,3.4C-387.7,141.9-388.4,142.2-389.2,142.4z M-385,137.7
			c0.4-0.8,0.7-1.8,0.7-3c0-1-0.2-1.6-0.5-1.9c-0.4-0.3-0.9-0.1-1.8,0.3c-0.6,0.3-1.1,0.8-1.5,1.4c-0.4,0.6-0.7,1.2-0.7,1.8v3.9
			c0.2,0,0.4,0,0.8-0.1c0.3-0.1,0.6-0.2,1-0.4C-386.1,139.2-385.4,138.5-385,137.7z"/>
		<path class="st3" d="M-380.4,137.2c-0.1-0.1-0.1-0.2-0.1-0.4V125c0-0.2,0-0.5,0.1-0.6c0.1-0.2,0.3-0.3,0.5-0.5l0.9-0.5
			c0.2-0.1,0.4-0.2,0.5-0.1s0.2,0.2,0.2,0.5v11.8c0,0.2,0,0.4-0.1,0.6s-0.3,0.3-0.5,0.5l-0.9,0.5
			C-380.1,137.2-380.3,137.3-380.4,137.2z"/>
		<path class="st3" d="M-375.6,133.6c-0.8-0.4-1.2-1.4-1.2-2.9s0.4-3,1.2-4.3c0.8-1.3,1.9-2.4,3.4-3.3c1.5-0.8,2.6-1,3.4-0.6
			s1.2,1.4,1.2,2.9s-0.4,3-1.2,4.3c-0.8,1.3-1.9,2.4-3.4,3.3C-373.7,133.8-374.8,134-375.6,133.6z M-370.4,129.3
			c0.4-0.8,0.6-1.7,0.6-2.7s-0.2-1.7-0.6-1.9c-0.4-0.3-1-0.2-1.8,0.3c-0.8,0.5-1.4,1.1-1.8,1.8c-0.4,0.8-0.6,1.7-0.6,2.7
			s0.2,1.7,0.6,2s1,0.2,1.8-0.2C-371.4,130.7-370.8,130-370.4,129.3z"/>
		<path class="st3" d="M-363.6,130.8c-0.6,0.2-1.1,0.3-1.4,0.3c-0.2,0-0.2-0.1-0.1-0.3l0.5-1.2c0.1-0.2,0.1-0.3,0.2-0.3
			c0,0,0.1,0,0.2,0c0.6,0,1.4-0.3,2.4-0.8c0.8-0.4,1.3-1,1.6-1.6c0.3-0.6,0.5-1.4,0.5-2.4c-0.3,0.6-0.7,1.1-1.1,1.5
			s-0.9,0.8-1.5,1.2c-1.3,0.7-2.2,0.9-2.9,0.5c-0.7-0.4-1-1.3-1-2.7c0-1.6,0.4-3.1,1.3-4.5c0.8-1.4,2-2.5,3.6-3.4
			c0.7-0.4,1.4-0.7,2.1-0.9c0.7-0.2,1.3-0.2,1.7-0.1v6.6c0,1.6-0.3,3-1,4.3c-0.7,1.3-1.7,2.3-3.1,3.1
			C-362.4,130.3-363,130.6-363.6,130.8z M-360.3,123.4c0.4-0.6,0.6-1.2,0.6-1.9V118c-0.2,0-0.5,0.1-0.8,0.2s-0.7,0.3-1,0.5
			c-1.8,1-2.7,2.6-2.7,4.7c0,1,0.2,1.6,0.6,1.8c0.4,0.2,1,0.1,1.8-0.3C-361.2,124.5-360.7,124-360.3,123.4z"/>
	</g>
	<g id="XMLID_2_">
		<path class="st1" d="M-273.9,187.4v82.4c0,0.6,0.3,0.8,0.6,0.6c0.4-0.2,0.6-0.8,0.6-1.4v-82.4c0-0.6-0.3-0.8-0.6-0.6
			C-273.7,186.2-273.9,186.8-273.9,187.4z"/>
	</g>
</g>
<rect x="-251.8" y="-64.8" class="st10" width="63" height="85"/>
<rect x="-170.9" y="31.8" class="st0" width="65.5" height="119.7"/>
<rect x="-331.6" y="310" class="st2" width="183" height="53"/>
<rect x="-415.8" y="2.7" class="st2" width="127.6" height="45"/>
<rect x="-42.5" y="-72.7" class="st5" width="85" height="49.8"/>
<g id="Character">
	<g id="XMLID_15879_">
		<g id="XMLID_15849_">
			<path class="st11" d="M343.2,65.3L333,65c-0.7-0.6-11.4-12.7-11.4-12.7s-3.9,6.1-3.9,6.5c-0.1,0.4,10.5,11.7,11.6,12.9
				c0.6,0.6,1.1,1.1,2.5,1.2c2.8,0.2,13.1,0.9,13.1,0.9L343.2,65.3z"/>
		</g>
		<g id="XMLID_15933_">
			<polygon class="st1" points="357.8,77.1 342,75.9 343.2,65.3 359.5,65.7 			"/>
			<polygon class="st2" points="357.8,77.1 342,75.9 343.2,65.3 359.5,65.7 			"/>
		</g>
		<g id="XMLID_15570_">
			<g id="XMLID_15601_">
				<g id="XMLID_15602_">
					<g id="XMLID_15604_">
						<path class="st2" d="M212.3,111.9l111.6-64.4c1.2-0.7,2.2-0.1,2.2,1.2v32.5c0,1.4-1,3.1-2.2,3.8l-111.6,64.4
							c-1.2,0.7-2.2,0.1-2.2-1.2v-32.5C210.2,114.2,211.1,112.5,212.3,111.9z"/>
					</g>
					<g id="XMLID_15603_">
						<path class="st2" d="M326.1,48.7c0-1.4-1-1.9-2.2-1.2l-111.6,64.4c-1.2,0.7-2.2,2.4-2.2,3.8v2.2L326,51v-2.3H326.1z"/>
					</g>
				</g>
			</g>
			<g id="XMLID_15600_">
				<path class="st2" d="M237.7,105.1l-22.5,13c-1,0.6-1.7,1.9-1.7,3v22.3c0,1.1,0.8,1.6,1.7,1l22.5-13c1-0.6,1.7-1.9,1.7-3v-22.3
					C239.4,105,238.6,104.6,237.7,105.1z"/>
			</g>
			<g id="XMLID_15599_">
				<path class="st2" d="M221.3,124.7l-7.9,17v1.8c0,1.1,0.8,1.6,1.7,1l22.5-13c1-0.6,1.7-1.9,1.7-3v-7.7l-4.3-8
					c-0.5-1-1.3-0.9-1.7,0.1l-6.7,15.8l-3.3-4.1C222.8,123.6,221.8,123.7,221.3,124.7z"/>
			</g>
			<g id="XMLID_15598_">
				<path class="st2" d="M216,124.5c2.2-1.2,3.9-4.3,3.9-6.7c0-0.9-0.2-1.6-0.6-2l-4.2,2.4c-1,0.6-1.7,1.9-1.7,3v3.7
					C214.1,125.1,215,125.1,216,124.5z"/>
			</g>
			<g id="XMLID_15594_">
				<path class="st2" d="M249.6,100.2L319.2,60c1-0.6,1.7-0.2,1.7,0.8s-0.8,2.3-1.7,2.8l-69.7,40.2c-1,0.6-1.7,0.2-1.7-0.8
					C247.9,102,248.6,100.8,249.6,100.2z"/>
			</g>
			<g id="XMLID_15593_">
				<path class="st2" d="M249.6,109.6l69.7-40.2c1-0.6,1.7-0.2,1.7,0.8s-0.8,2.3-1.7,2.8l-69.7,40.2c-1,0.6-1.7,0.2-1.7-0.8
					C247.9,111.4,248.6,110.1,249.6,109.6z"/>
			</g>
			<g id="XMLID_15591_">
				<path class="st2" d="M249.6,119l69.7-40.2c1-0.6,1.7-0.2,1.7,0.8s-0.8,2.3-1.7,2.8l-69.7,40.2c-1,0.6-1.7,0.2-1.7-0.8
					S248.6,119.5,249.6,119z"/>
			</g>
		</g>
		<g id="XMLID_15927_">
			<g id="XMLID_15928_">
				<g id="XMLID_15959_">
					<rect x="372" y="188.9" class="st12" width="5.9" height="8.6"/>
				</g>
				<g id="XMLID_15958_">
					
						<rect x="351.4" y="178.4" transform="matrix(0.9994 -3.432791e-02 3.432791e-02 0.9994 -6.0628 12.2716)" class="st12" width="5.9" height="8.6"/>
				</g>
				<g id="XMLID_15956_">
					<path class="st8" d="M377.5,105c0,5.6,0.7,42.1,0.7,42.1c0.1,1.6,1.7,4.6,1.3,10.8c-0.4,8.5-1.2,32-1.2,32s-2.8,2.7-6.7,0
						c0,0-5.3-32-6.4-40.3c-0.9-7.3-2.5-27.2-2.5-27.2l-5.5,23.4c0,0,1,5.5,1.2,9.4s-1,26.3-1,26.3s-3,2.1-6.4,0.2
						c0,0-4.7-32.8-5.4-36.3c-0.6-3.5,4.2-40.5,4.2-40.5h27.7V105z"/>
				</g>
				<g id="XMLID_15955_">
					<path class="st2" d="M368.6,65.9C368.7,65.9,368.7,65.9,368.6,65.9c5.3,1.3,8.9,6.1,8.9,11.4v10.2V105
						c-4.1,4.5-18.6,6.6-27.6,0c0,0,0-24.2,0-28.8c0-4.6,2.6-10.1,9.6-10.5L368.6,65.9z"/>
				</g>
				<g id="XMLID_15940_">
					<g id="XMLID_15948_">
						<g id="XMLID_15954_">
							<path class="st7" d="M370.6,42.4c0,0,1.5-0.3,2.6,0.9c1.1,1.1,0.9,3.3,0,8.1l-3.5,0.4L370.6,42.4z"/>
						</g>
						<g id="XMLID_15953_">
							<path class="st7" d="M350.5,41c0,0-1.4,0-2.2-0.4c-1.1-0.6-1.3,0.6-0.8,1.6c0.6,1,1.7,2.4,4,2.7c0-0.2,1-2.7,1-2.7L350.5,41z
								"/>
						</g>
						<g id="XMLID_15952_">
							<path class="st12" d="M369,51.8c0.5,0.3,1.2-0.7,1.9-1.3c0.6-0.7,2.7-1.6,3.7,0.6c1,2.2-1.3,5.2-2.7,6.1
								c-1.7,1.2-2.9,0.2-2.9,0.2l-0.4,8.5c0,0-1.8,4.5-6.8,5.2s-3.9-3.4-2.3-5.4v-3.1c0,0-2.6,0.5-3.8,0.2c-0.6-0.2-2.2-2-3.2-4.1
								c-1.1-2.3-3-6.5-1.3-13.6c1.8-7.6,9.9-7.8,14.8-4.8C370.8,43.4,369,51.8,369,51.8z"/>
						</g>
						<g id="XMLID_15951_">
							<path class="st7" d="M369,52.7c0.3,0,1.2-1.6,1.9-2.2c0.9-0.8-0.3-8.1-0.3-8.1s0.9-2.8-0.9-4.6c-1.7-1.8-5.1-1.5-7.6-1.6
								c-2.6-0.1-5.3-0.2-8.9-1.8c-3.5-1.5-3.8-1.7-4.2-0.2c-0.4,1.5-0.6,5.1,1.5,7.5l1.7,0.6c0,0,0.9,0.8,4.2,1.2
								c3.3,0.4,8.4-0.1,9.1-0.2c1-0.1,1.2,0.8,1.7,3.3C367.8,48.9,368.1,52.7,369,52.7z"/>
						</g>
						<g id="XMLID_15950_">
							<path class="st7" d="M370.6,43l3.1-1.7c-0.4-0.9-1.5-1.2-2.3-0.8C370.5,41,370.2,42.1,370.6,43z"/>
						</g>
						<g id="XMLID_15949_">
							<path class="st11" d="M359.5,62.6c0,0,4.6-0.9,6.2-1.8c1.1-0.6,2-1.6,2.2-2.2c0,0-0.3,1.4-1.3,2.6c-1.2,1.5-7.2,2.6-7.2,2.6
								L359.5,62.6L359.5,62.6z"/>
						</g>
					</g>
					<g id="XMLID_15941_">
						<g id="XMLID_15947_">
							<path class="st7" d="M360.6,50.7c0,0.5,0.4,1,0.9,1s0.9-0.4,0.9-1c0-0.5-0.4-1-0.9-1S360.6,50.2,360.6,50.7z"/>
						</g>
						<g id="XMLID_15946_">
							<path class="st7" d="M361.6,47.2l2,1.1c0.3-0.6,0.1-1.3-0.5-1.6C362.6,46.4,361.9,46.6,361.6,47.2z"/>
						</g>
						<g id="XMLID_15945_">
							<path class="st11" d="M360.7,56.9l-2.1,0.8c0.2,0.6,0.8,0.9,1.4,0.7C360.6,58.2,360.9,57.5,360.7,56.9z"/>
						</g>
						<g id="XMLID_15944_">
							<path class="st7" d="M352.4,48l1.8-1.4c-0.4-0.5-1.1-0.6-1.6-0.2C352.1,46.7,352,47.5,352.4,48z"/>
						</g>
						<g id="XMLID_15943_">
							<path class="st7" d="M353,50.4c0,0.5,0.4,1,0.9,1s0.9-0.4,0.9-1c0-0.5-0.4-1-0.9-1C353.4,49.5,353,49.9,353,50.4z"/>
						</g>
						<g id="XMLID_15942_">
							<polygon class="st11" points="357.7,49.5 357.3,55.1 354.5,54.1 							"/>
						</g>
					</g>
				</g>
				<g id="XMLID_15930_">
					<path class="st7" d="M372,194.6v-0.8c-0.6,0.2-1.9,5.3-4.2,7.4c-1.9,1.7-4.4,3.7-5,5.6c-0.7,2,3.5,3.1,5.3,2.7
						c2-0.4,5.5-1.8,6.4-3.1s1.3-3.3,2-4.2c0.7-1,2.4-2,2.7-3.2c0.2-0.6,0-2-0.3-3.1c-0.3-1-0.6-2.2-0.9-2.1c0,0.1,0,0.6,0,0.6
						c-0.4,0.5-1.6,0.9-3,1C374.1,195.4,372,195.3,372,194.6z"/>
				</g>
				<g id="XMLID_15929_">
					<path class="st7" d="M351.5,185.3c-0.3,0-0.6,0.4-1.2,1.2c-0.8,0.9-2.2,1.8-3.5,2.5c-2.2,1.1-6.5,2.8-8.5,3.7
						c-1.2,0.5-1.2,2,0.1,2.9c1.3,0.8,4.3,1.4,7.9,0.6c2-0.4,4.6-2.3,6.2-2.2s4.7,0.1,5.9-0.8c1.2-0.8,0.7-2.6,0.4-4.1
						c-0.4-1.7-0.9-4.2-1.5-4.1v0.5c-0.7,1.1-4.3,1.5-5.9,0.7L351.5,185.3z"/>
				</g>
			</g>
		</g>
		<g id="XMLID_15932_">
			<path class="st12" d="M370.4,69.8l-18.2,18.9c0,0-16-2.9-21.5-4.4c-1.7-0.5-2.9-3.1-3.3-5c-0.4-2-1.4-2.6-1.4-2.6s0,1.4-0.4,3.7
				c-0.1,1-1.7,1.1-3.1,1.4c-5,1.1-6.7,0-8.8,1.4c-1.6,1.1,0.4,4.1,4.1,5.1c5.1,1.4,8,0.7,11.1,1.5c2.4,0.6,19.7,6,23,6.8
				c1.7,0.4,3.1,0.3,5-1.6s16.3-14.4,16.3-14.4L370.4,69.8z"/>
		</g>
		<g id="XMLID_15931_">
			<path class="st2" d="M371.2,69.1c-2-0.5-14.2,14-14.2,14l6.7,5.6c0,0,8.7-5.7,10.2-8C375.5,78.5,377.3,70.6,371.2,69.1z"/>
		</g>
		<g id="XMLID_15934_">
			<path class="st1" d="M364.2,89.1c0,0,9.2-8.2,9.6-9.1c0.8-1.7,0.6-4.9,0.6-4.9s1,2.8,0,4.9s-8,8.3-9.1,9.3
				c-1.1,1.1-1.1,1.1-1.1,1.1l-1.1-1l0.7-0.6L364.2,89.1z"/>
			<path class="st2" d="M364.2,89.1c0,0,9.2-8.2,9.6-9.1c0.8-1.7,0.6-4.9,0.6-4.9s1,2.8,0,4.9s-8,8.3-9.1,9.3
				c-1.1,1.1-1.1,1.1-1.1,1.1l-1.1-1l0.7-0.6L364.2,89.1z"/>
		</g>
		<g id="XMLID_15850_">
			<path class="st11" d="M318.1,48.4c2-0.2,3.3-1.7,3.8-1.3s0.3,1.1,0.1,1.4c-0.6,0.6-3,1.7-3,1.7s-0.3,1.3-0.5,3.1
				c-0.2,1.5-0.1,4.6-1.4,5.6c-3.9,3.1-4.9-1.8-4.8-5.2C312.4,49.7,316,48.7,318.1,48.4z"/>
		</g>
	</g>
</g>
<rect x="-331.6" y="223" class="st2" width="136" height="49.8"/>
<text transform="matrix(0.6399 -0.3861 0.5166 0.8562 161.2552 126.161)" class="st13 st14 st15">Daap</text>
<rect x="163.2" y="-80.8" class="st2" width="198.9" height="32"/>
</svg>
