<?xml version="1.0" encoding="utf-8"?>
<!-- Generator: Adobe Illustrator 25.2.1, SVG Export Plug-In . SVG Version: 6.00 Build 0)  -->
<svg version="1.1" id="Layer_1" xmlns="http://www.w3.org/2000/svg" xmlns:xlink="http://www.w3.org/1999/xlink" x="0px" y="0px"
	 viewBox="0 0 286.6 220.3" style="enable-background:new 0 0 286.6 220.3;" xml:space="preserve">
<style type="text/css">
	.st0{fill:#2E72B8;stroke:#2E72B9;stroke-width:4;stroke-miterlimit:10;}
	.st1{fill:#2E72B8;}
</style>
<path class="st0" d="M179.5,167.3c-7.2,8.5-15,15.7-24.3,21.3c-10.8,6.5-22.4,11.2-35,12.7c-5.4,0.7-16.1,0.7-21.5,0.7l-81.9,0
	c-0.4,0-0.7-0.1-1.4-0.3c5.8-7.1,11.5-13.9,17.2-20.9c1.5,0,2.9,0,4.3,0c16.8-0.1,33.6,0,50.4-0.2c7.2-0.1,14.4-0.3,21.5-0.7
	c15.3-0.9,29.2-5.6,41.3-15c4.6-3.6,8.9-7.5,12.4-12.2c0.4-0.5,0.6-1.1,1.1-1.8c-36.2-25-40.9-28.2-77.4-52.7
	c-13.9,14.1-27.5,27.9-40.9,41.5c-7.4,0-14.4,0-21.6,0c0-33.6,0-90.4,0-124c1.1-0.1,2-0.3,3-0.3c28.6-0.1,57.2-0.2,85.7-0.1
	c18.4,0,35,6,49.6,17c19.6,14.7,31.4,34.3,36,58.2c0.8,4.3,1.2,8.7,1.5,13.1c1,14-1.5,27.4-6.8,40.3
	C192.8,143.9,188.3,157.9,179.5,167.3z M174.7,129.3c0.6-1.9,1.1-3,1.3-4.1c0.6-3.3,1.2-6.7,1.7-10c1.1-6.9,0.7-13.9-0.6-20.7
	c-1.8-9.1-5.4-17.6-10.4-25.4c-7.1-10.9-16.2-19.6-27.9-25.5c-10.5-5.3-21.7-7.2-33.3-7.5c-6.4-0.2-12.9,0.4-19.3,0.4
	c-12.9,0.1-25.8,0-38.7,0c-1.1,0-2.2,0.2-3.2,0.2c-0.8,4.7-0.6,68.9,0.3,72.2c3-3,5.9-5.7,8.7-8.5c2.8-2.8,5.5-5.5,8.3-8.3
	c2.9-2.9,5.7-5.7,8.6-8.6"/>
<polygon class="st1" points="274.8,203.8 233.5,203.8 66.2,84.9 87.2,63.2 "/>
</svg>
