<?xml version="1.0" encoding="utf-8"?>
<!-- Generator: Adobe Illustrator 25.2.1, SVG Export Plug-In . SVG Version: 6.00 Build 0)  -->
<svg version="1.1" xmlns="http://www.w3.org/2000/svg" xmlns:xlink="http://www.w3.org/1999/xlink" x="0px" y="0px"
	 viewBox="0 0 550.4 416.6" style="enable-background:new 0 0 550.4 416.6;" xml:space="preserve">
<style type="text/css">
	.st0{fill:#EBEBEB;}
	.st1{fill:#E0E0E0;}
	.st2{display:none;}
	.st3{display:inline;fill:#E0E0E0;}
	.st4{fill:#263238;}
	.st5{fill:#E7E7E7;}
	.st6{fill:#3C4354;}
	.st7{fill:#4675CD;}
	.st8{fill:#4069A5;}
	.st9{fill:#1D2430;}
	.st10{fill:#455A64;}
	.st11{opacity:0.5;}
	.st12{opacity:0.8;}
	.st13{fill:#FFFFFF;}
	.st14{fill:#FFBE9D;}
	.st15{fill:#E8505B;}
	.st16{opacity:0.3;}
	.st17{opacity:0.2;}
	.st18{fill:#EB996E;}
</style>
<g id="Background_Complete">
	<g>
		<g>
			
				<rect x="421.7" y="212.5" transform="matrix(0.3659 -0.9306 0.9306 0.3659 36.549 610.0211)" class="st0" width="88.6" height="131.4"/>
		</g>
		<g>
			<g>
				<g>
					<path class="st1" d="M543.3,262.2c0,0-0.5,0.3-1.6,0.6c-1.2,0.4-2.7,1-4.6,1.6c-4.1,1.4-9.9,3.4-16.9,5.8
						c-14.4,4.9-34.2,11.5-56.1,18.9l-0.5,0.2l-0.2-0.4c-0.2-0.3-0.4-0.7-0.6-1c-11.6-20.3-22.1-38.7-29.8-52.1
						c-3.7-6.6-6.7-12-8.9-15.9c-1-1.8-1.8-3.2-2.4-4.3c-0.5-1-0.8-1.5-0.8-1.6c0,0,0.4,0.5,1,1.4c0.6,1.1,1.5,2.5,2.6,4.2
						c2.2,3.8,5.4,9.1,9.2,15.7c7.8,13.4,18.4,31.7,30.1,51.9c0.2,0.4,0.4,0.7,0.6,1l-0.7-0.3c21.9-7.2,41.7-13.8,56.2-18.6
						c7.1-2.3,12.9-4.2,17-5.5c1.9-0.6,3.5-1.1,4.6-1.4C542.7,262.3,543.3,262.1,543.3,262.2z"/>
				</g>
			</g>
		</g>
		<g>
			<g>
				<path class="st1" d="M388.6,296.5c-0.2-0.3,13.5-8,30.5-17.2c17-9.2,30.9-16.4,31-16.1c0.2,0.3-13.5,8-30.5,17.2
					C402.7,289.6,388.8,296.8,388.6,296.5z"/>
			</g>
		</g>
		<g>
			<g>
				<path class="st1" d="M491.1,278.2c0.3-0.1,5,14.7,10.4,33c5.5,18.3,9.6,33.3,9.3,33.4c-0.3,0.1-5-14.7-10.4-33
					C495,293.2,490.8,278.3,491.1,278.2z"/>
			</g>
		</g>
	</g>
	<g>
		<g>
			
				<rect x="451.6" y="121" transform="matrix(0.9168 -0.3993 0.3993 0.9168 -18.0541 208.2965)" class="st0" width="78.6" height="53"/>
		</g>
		<g>
			<g>
				<g>
					<path class="st1" d="M516.9,108c0,0-0.1,0.3-0.4,0.9c-0.3,0.7-0.7,1.5-1.2,2.6c-1.1,2.3-2.7,5.6-4.7,9.6
						c-4,8.2-9.6,19.3-15.7,31.7l-0.1,0.3l-0.3-0.1c-0.2-0.1-0.4-0.1-0.7-0.2c-13.5-3.7-25.7-7-34.6-9.4c-4.4-1.2-7.9-2.2-10.5-2.9
						c-1.2-0.3-2.1-0.6-2.8-0.8c-0.6-0.2-1-0.3-1-0.3c0,0,0.4,0,1,0.2c0.7,0.2,1.7,0.4,2.9,0.7c2.6,0.7,6.1,1.6,10.5,2.7
						c8.9,2.4,21.2,5.6,34.7,9.2c0.2,0.1,0.5,0.1,0.7,0.2l-0.4,0.2c6.2-12.3,11.8-23.5,15.9-31.6c2-4,3.7-7.2,4.9-9.5
						c0.6-1.1,1-1.9,1.4-2.6C516.7,108.3,516.8,108,516.9,108z"/>
				</g>
			</g>
		</g>
		<g>
			<g>
				<path class="st1" d="M466,187.9c-0.2-0.1,2.3-9.1,5.6-20.1c3.3-11.1,6.1-20,6.3-19.9c0.2,0.1-2.3,9.1-5.6,20.1
					C469,179.1,466.2,188,466,187.9z"/>
			</g>
		</g>
		<g>
			<g>
				<path class="st1" d="M501.6,136.8c0.1-0.2,8.3,4.1,18.4,9.6c10.1,5.4,18.1,10,18,10.2c-0.1,0.2-8.3-4.1-18.4-9.6
					C509.6,141.6,501.5,137,501.6,136.8z"/>
			</g>
		</g>
	</g>
</g>
<g id="Background_Simple" class="st2">
	<path class="st3" d="M555.9,190c-14.9-20.3-39.4-33.7-64.6-33.6c-41.5,0.2-74.8,34-114.6,45.6c-25.6,7.4-53.8,5.2-77.9-6.2
		C232,164.3,209,73.8,141.9,43C95,21.5,35.4,37.6,1.4,76.3c-34.1,38.7-43.2,96-28.6,145.5c14.6,49.5,40.1,98.1,84.1,125l4,3.7
		c92.5,63,220.3,69.4,346.9,51.7c37.5-5.2,73.5-21.5,105.5-41.8c32-20.3,53.4-61.3,59.2-98.8C576.3,236.9,570.8,210.3,555.9,190z"/>
</g>
<g id="Floor">
	<g>
		<g>
			<g>
				<path class="st4" d="M586.9,470.3c0,0.1-124.5,0.3-278,0.3c-153.6,0-278-0.1-278-0.3s124.5-0.3,278-0.3
					C462.4,470.1,586.9,470.2,586.9,470.3z"/>
			</g>
		</g>
	</g>
	<rect x="-273.2" y="141" class="st5" width="33.3" height="85"/>
	<rect x="-230.4" y="237.6" class="st6" width="34.6" height="119.7"/>
	<rect x="-213.2" y="162.1" class="st7" width="96.6" height="53"/>
	<rect x="-332.1" y="275" class="st8" width="67.4" height="45"/>
	<rect x="-370.7" y="215.1" class="st9" width="44.9" height="49.8"/>
</g>
<g id="Device">
	<g>
		<g>
			<g>
				<g>
					<g>
						<path class="st4" d="M470.8,412.9H57.4c-8,0-14.6-6.5-14.6-14.6V134.8c0-8,6.5-14.6,14.6-14.6h413.5c8,0,14.6,6.5,14.6,14.6
							v263.5C485.4,406.4,478.9,412.9,470.8,412.9z"/>
					</g>
				</g>
			</g>
			<g>
				<g>
					<g>
						<path class="st4" d="M486,416.9H42.1c-9.8,0-17.8-8-17.8-17.8v-7.8h479.5v7.8C503.8,408.9,495.8,416.9,486,416.9z"/>
					</g>
				</g>
			</g>
			<g>
				<g>
					<g>
						<rect x="54.7" y="131.9" class="st10" width="417.6" height="247.2"/>
					</g>
				</g>
			</g>
			<g>
				<g>
					<g>
						<polygon class="st10" points="220.5,391.3 226.4,400.8 310.1,400.8 315.7,391.3 						"/>
					</g>
				</g>
			</g>
		</g>
		<g>
			<g>
				<g>
					<g>
						<g>
							<g>
								<g>
									<path class="st0" d="M461.3,378.3H66.6c-1.8,0-3.3-1.5-3.3-3.3V143.5c0-1.8,1.5-3.3,3.3-3.3h394.7c1.8,0,3.3,1.5,3.3,3.3
										V375C464.5,376.8,463.1,378.3,461.3,378.3z"/>
								</g>
							</g>
						</g>
					</g>
					<g>
						<g>
							<g>
								<g>
									<rect x="63.3" y="157.7" class="st0" width="401.2" height="220.6"/>
								</g>
							</g>
						</g>
					</g>
					<g>
						<g>
							<g>
								<g>
									<path class="st10" d="M96.2,149.4c0,1.8-1.4,3.2-3.2,3.2c-1.8,0-3.2-1.4-3.2-3.2c0-1.8,1.4-3.2,3.2-3.2
										C94.8,146.2,96.2,147.7,96.2,149.4z"/>
								</g>
							</g>
						</g>
					</g>
					<g>
						<g>
							<g>
								<g>
									<path class="st10" d="M76.8,149.4c0,1.8-1.4,3.2-3.2,3.2c-1.8,0-3.2-1.4-3.2-3.2c0-1.8,1.4-3.2,3.2-3.2
										C75.3,146.2,76.8,147.7,76.8,149.4z"/>
								</g>
							</g>
						</g>
					</g>
					<g>
						<g>
							<g>
								<g>
									<path class="st10" d="M86.1,149.4c0,1.8-1.4,3.2-3.2,3.2c-1.8,0-3.2-1.4-3.2-3.2c0-1.8,1.4-3.2,3.2-3.2
										C84.7,146.2,86.1,147.7,86.1,149.4z"/>
								</g>
							</g>
						</g>
					</g>
				</g>
			</g>
		</g>
		<g>
			<g>
				<g>
					<path class="st10" d="M481.6,391.3c0,0.2-98.2,0.3-219.4,0.3c-121.2,0-219.4-0.1-219.4-0.3c0-0.2,98.2-0.3,219.4-0.3
						C383.4,391,481.6,391.1,481.6,391.3z"/>
				</g>
			</g>
		</g>
	</g>
</g>
<g id="Paper_Plane">
	<g>
		<g>
			<g>
				<g>
					<path class="st4" d="M42.7,394.5c0,0-0.1-0.1-0.3-0.2c-0.2-0.1-0.6-0.4-1-0.7c-0.4-0.3-1-0.7-1.6-1.1c-0.6-0.4-1.4-0.9-2.2-1.6
						c-0.8-0.6-1.7-1.3-2.7-2.1c-1-0.8-2-1.7-3.1-2.7c-2.2-2-4.5-4.5-7-7.5c-4.8-6-9.8-14.2-13.2-24.7c-3.3-10.4-5.2-23-4.1-36.8
						c0.5-6.9,1.6-14.1,3.7-21.3c2.1-7.2,5-14.6,9.2-21.5c1-1.7,2.2-3.4,3.5-5.1c1.3-1.6,2.6-3.2,3.9-4.9c1.4-1.6,2.8-3.1,4.3-4.7
						c1.5-1.5,3.1-3,4.6-4.5c6.3-5.9,13.5-11.2,21.1-16.2c15.3-9.9,32.6-18.1,50.5-26.6c17.8-8.7,36.5-17.1,55.7-25.5
						c76.9-33.7,147.3-62.4,198.5-82.3c25.6-10,46.5-17.6,61-22.9c7.2-2.6,12.9-4.5,16.7-5.8c1.9-0.6,3.4-1.1,4.4-1.5
						c0.5-0.2,0.9-0.3,1.1-0.4c0.3-0.1,0.4-0.1,0.4-0.1s-0.1,0.1-0.4,0.2c-0.3,0.1-0.6,0.2-1.1,0.4c-1,0.4-2.4,0.9-4.3,1.6
						c-3.8,1.4-9.4,3.4-16.7,6c-14.4,5.3-35.3,13.1-60.9,23.2c-51.2,20.1-121.5,48.9-198.4,82.6c-19.2,8.4-37.9,16.8-55.7,25.5
						c-17.8,8.5-35.1,16.7-50.4,26.5c-7.6,4.9-14.7,10.2-21,16c-1.5,1.5-3.1,2.9-4.6,4.5c-1.4,1.6-2.9,3.1-4.3,4.6
						c-1.3,1.6-2.6,3.2-3.9,4.8c-1.2,1.6-2.4,3.3-3.4,5c-4.2,6.8-7.1,14.1-9.2,21.3c-2.1,7.2-3.2,14.3-3.8,21.1
						c-1.1,13.7,0.7,26.2,4,36.5c3.3,10.4,8.2,18.6,12.9,24.6c2.4,3,4.7,5.5,6.9,7.5c1.1,1,2.1,2,3,2.8c1,0.8,1.8,1.5,2.6,2.1
						c0.8,0.7,1.5,1.2,2.1,1.6c0.6,0.4,1.1,0.8,1.6,1.1c0.4,0.3,0.7,0.5,0.9,0.7C42.6,394.4,42.7,394.5,42.7,394.5z"/>
				</g>
			</g>
		</g>
		<g>
			<g>
				<g>
					<g>
						<polygon class="st7" points="429.4,41.1 447.9,56.5 446.2,74.1 461.4,65.6 477.5,77.1 537.8,38.4 						"/>
					</g>
				</g>
				<g class="st11">
					<g>
						<polygon class="st7" points="447.9,56.5 536.1,38.5 456.9,62.5 446.2,74.1 446.2,74.1 						"/>
					</g>
				</g>
			</g>
			<g class="st12">
				<g>
					<polygon class="st7" points="456.9,62.5 461.4,65.6 446.2,74.1 					"/>
				</g>
			</g>
		</g>
	</g>
</g>
<g id="Letters">
	<g>
		<g>
			<g>
				
					<rect x="86.1" y="276.7" transform="matrix(0.9955 -9.444214e-02 9.444214e-02 0.9955 -28.6075 14.0806)" class="st13" width="96.6" height="65.1"/>
			</g>
			<g>
				<g>
					<path class="st10" d="M185.6,337.1c0,0-0.1-0.4-0.2-1.2c-0.1-0.8-0.2-2-0.4-3.4c-0.3-3-0.8-7.4-1.3-13.1
						c-1.1-11.3-2.7-27.4-4.7-47.1l0.4,0.3c-26.6,2.5-60,5.7-96.2,9.2c-0.1,0.1,0.8-0.9,0.4-0.5l0,0l0,0l0,0.1l0,0.1l0,0.3l0.1,0.5
						l0.1,1.1l0.2,2.2c0.1,1.4,0.3,2.9,0.4,4.3c0.3,2.9,0.5,5.7,0.8,8.5c0.5,5.6,1.1,11.2,1.6,16.6c1,10.9,2,21.3,2.9,31.2l-0.4-0.4
						c28.3-2.6,52.3-4.8,69.3-6.4c8.5-0.8,15.2-1.4,19.8-1.8c2.3-0.2,4.1-0.3,5.3-0.5c0.6,0,1-0.1,1.4-0.1
						C185.5,337.1,185.6,337.1,185.6,337.1c0,0-0.1,0-0.4,0.1c-0.3,0-0.8,0.1-1.3,0.1c-1.2,0.1-3,0.3-5.2,0.5
						c-4.6,0.5-11.3,1.1-19.7,2c-17,1.7-41.1,4-69.5,6.8l-0.4,0l0-0.4c-0.9-9.9-1.9-20.3-3-31.2c-0.5-5.4-1-11-1.6-16.6
						c-0.3-2.8-0.5-5.6-0.8-8.5c-0.1-1.4-0.3-2.9-0.4-4.3l-0.2-2.2l-0.1-1.1l-0.1-0.5l0-0.3l0-0.1l0-0.1l0,0l0,0
						c-0.4,0.4,0.5-0.6,0.4-0.5c36.2-3.4,69.6-6.5,96.2-9l0.4,0l0,0.4c1.8,19.8,3.3,36,4.3,47.4c0.5,5.6,0.9,10,1.1,13
						c0.1,1.5,0.2,2.6,0.3,3.4C185.6,336.8,185.6,337.1,185.6,337.1z"/>
				</g>
			</g>
		</g>
		<g>
			<g>
				<path class="st10" d="M179.5,272.3c0,0-0.2,0.3-0.7,1c-0.6,0.7-1.3,1.5-2.3,2.6c-2.1,2.3-4.9,5.6-8.5,9.6
					c-7.3,8.2-17.3,19.4-28.5,31.8l-0.3,0.3l-0.3-0.2c-0.8-0.5-1.7-1.1-2.6-1.6c-14.7-9.4-27.9-17.9-37.7-24.2
					c-4.7-3.1-8.6-5.6-11.4-7.4c-1.3-0.9-2.3-1.5-3.1-2.1c-0.7-0.5-1.1-0.7-1-0.8c0,0,0.4,0.2,1.1,0.6c0.8,0.5,1.8,1.1,3.2,1.9
					c2.8,1.7,6.7,4.2,11.5,7.2c9.7,6.2,23.1,14.6,37.8,23.9c0.9,0.6,1.7,1.1,2.6,1.6l-0.6,0.1c11.2-12.4,21.3-23.5,28.7-31.6
					c3.6-3.9,6.6-7.1,8.7-9.4c1-1,1.8-1.9,2.4-2.5C179.2,272.6,179.5,272.3,179.5,272.3z"/>
			</g>
		</g>
	</g>
	<g>
		<g>
			<g>
				
					<rect x="386.6" y="175.8" transform="matrix(0.272 -0.9623 0.9623 0.272 95.5252 548.7982)" class="st13" width="47.8" height="70.9"/>
			</g>
			<g>
				<g>
					<path class="st10" d="M438.1,243.9c0,0,0.1-0.3,0.2-0.9c0.2-0.6,0.4-1.4,0.7-2.5c0.6-2.2,1.5-5.3,2.6-9.3
						c2.2-8,5.4-19.5,9.3-33.5l0.2,0.3c-18.8-5.3-42.6-12-68.2-19.2c-0.1,0,0.8-0.4,0.4-0.2l0,0l0,0l0,0l0,0.1l-0.1,0.2l-0.1,0.4
						l-0.2,0.8l-0.4,1.5c-0.3,1-0.6,2-0.9,3c-0.6,2-1.1,4-1.7,6c-1.1,4-2.2,7.9-3.3,11.8c-2.2,7.7-4.3,15.1-6.3,22.1l-0.2-0.4
						c20,5.7,37,10.6,49.1,14c6,1.7,10.8,3.1,14,4.1c1.6,0.5,2.9,0.8,3.7,1.1c0.4,0.1,0.7,0.2,1,0.3
						C438,243.9,438.1,243.9,438.1,243.9c0,0-0.1,0-0.3-0.1c-0.2-0.1-0.5-0.1-0.9-0.2c-0.9-0.2-2.1-0.6-3.7-1c-3.3-0.9-8-2.2-14-3.9
						c-12.1-3.4-29.2-8.2-49.3-13.8l-0.3-0.1l0.1-0.3c2-7,4.1-14.4,6.2-22.1c1.1-3.8,2.2-7.8,3.3-11.8c0.6-2,1.1-4,1.7-6
						c0.3-1,0.6-2,0.9-3l0.4-1.5l0.2-0.8l0.1-0.4l0.1-0.2l0-0.1l0,0l0,0l0,0c-0.4,0.2,0.5-0.3,0.4-0.2c25.7,7.3,49.4,14,68.2,19.3
						l0.3,0.1l-0.1,0.3c-4,14-7.3,25.5-9.6,33.5c-1.1,4-2,7.1-2.7,9.2c-0.3,1-0.5,1.8-0.7,2.4C438.2,243.6,438.1,243.9,438.1,243.9z
						"/>
				</g>
			</g>
		</g>
		<g>
			<g>
				<path class="st10" d="M451.1,197.9c0,0-0.3,0.2-0.8,0.5c-0.6,0.3-1.3,0.7-2.3,1.2c-2,1.1-4.9,2.5-8.4,4.3
					c-7.2,3.6-17,8.6-27.9,14.2l-0.2,0.1l-0.2-0.2c-0.4-0.6-0.9-1.2-1.3-1.8c-7.5-10.3-14.4-19.7-19.4-26.5
					c-2.4-3.4-4.4-6.1-5.8-8.1c-0.6-0.9-1.2-1.7-1.6-2.2c-0.3-0.5-0.5-0.8-0.5-0.8c0,0,0.2,0.2,0.6,0.7c0.4,0.5,1,1.3,1.7,2.1
					c1.5,1.9,3.5,4.6,6,8c5,6.8,11.9,16.1,19.5,26.4c0.5,0.6,0.9,1.2,1.3,1.8l-0.4-0.1c11-5.5,20.8-10.4,28-14
					c3.5-1.7,6.4-3.1,8.5-4.2c1-0.5,1.7-0.8,2.3-1.1C450.8,198,451.1,197.9,451.1,197.9z"/>
			</g>
		</g>
	</g>
</g>
<g id="Plant">
	<g>
		<g>
			<g>
				<g>
					<path class="st7" d="M91.2,167.7c0,0,4.7-3.8,12,7.6c7.3,11.4,10.3,18.1,10.3,18.1s1.9,2.4,3.4,0.5c1.6-1.8,3.5-6.7,6.5-6.2
						c3.1,0.6,4.5,3.9,4.4,8.9c-0.1,5.1,0.1,16.2,0.1,17.2c0,1,0.7,2.4,2,1.3c1.3-1.1,8.2-10.5,12.5-6.9c4.3,3.6,1.7,17.6,1.5,19.2
						c-0.3,1.5,0.1,2.2,0.9,2.5c0.7,0.3,2.8-3.1,4.9-5.7c2.1-2.6,5-5.3,7.3-3c2.3,2.3,4,12.5-4.2,30.1l-4.3,7.9l-9,0.4
						c-19.4-0.4-27.8-6.3-28.9-9.4c-1-3.1,2.6-4.5,5.9-5.2c3.3-0.7,7.2-1.1,7.3-1.9c0.1-0.8-0.3-1.4-1.8-1.8
						c-1.5-0.4-15.3-4.3-16.6-9.7c-1.3-5.4,10.2-7.5,11.7-8.2s0.6-1.9-0.3-2.4c-0.9-0.5-10.8-5.5-15.4-7.6s-7-4.8-6.1-7.8
						c0.8-3,6.1-2.5,8.4-3.2c2.3-0.6,1-3.3,1-3.3s-4.7-5.6-11.8-17.2c-7.1-11.6-1.4-14.2-1.4-14.2"/>
				</g>
			</g>
		</g>
		<g>
			<g>
				<g>
					<g>
						<path class="st4" d="M97.8,177.9c0,0,0,0.1,0.1,0.3c0.1,0.2,0.2,0.4,0.4,0.7c0.4,0.6,0.9,1.6,1.7,2.7
							c1.4,2.4,3.5,5.8,6.2,10.1c5.2,8.5,12.6,20.1,20.7,32.9c8.1,12.8,15.5,24.5,20.8,32.9c2.6,4.2,4.8,7.6,6.2,10
							c0.7,1.2,1.3,2.1,1.7,2.7c0.2,0.3,0.3,0.5,0.4,0.7c0.1,0.2,0.2,0.2,0.2,0.2s0-0.1-0.1-0.3c-0.1-0.2-0.2-0.4-0.4-0.7
							c-0.4-0.6-0.9-1.6-1.7-2.7c-1.4-2.4-3.5-5.8-6.2-10.1c-5.2-8.5-12.6-20.1-20.7-32.9c-8.1-12.8-15.5-24.4-20.8-32.9
							c-2.6-4.2-4.8-7.6-6.2-10c-0.7-1.2-1.3-2.1-1.7-2.7c-0.2-0.3-0.3-0.5-0.4-0.7C97.8,178,97.8,177.9,97.8,177.9z"/>
					</g>
				</g>
			</g>
		</g>
		<g>
			<g>
				<g>
					<g>
						<path class="st4" d="M121,194.8c0,0-0.1,0.2-0.2,0.6c-0.1,0.4-0.2,1-0.3,1.7c-0.3,1.5-0.6,3.5-0.9,5.8
							c-0.3,2.2-0.6,4.2-0.8,5.8c-0.1,0.7-0.2,1.3-0.2,1.8c-0.1,0.4-0.1,0.6-0.1,0.6c0,0,0.1-0.2,0.2-0.6c0.1-0.4,0.2-1,0.3-1.7
							c0.3-1.5,0.5-3.5,0.9-5.8c0.3-2.2,0.6-4.2,0.8-5.8c0.1-0.7,0.2-1.3,0.2-1.8C121,195,121.1,194.8,121,194.8z"/>
					</g>
				</g>
			</g>
		</g>
		<g>
			<g>
				<g>
					<g>
						<path class="st4" d="M117.7,211.3c0-0.1-4.2-0.9-9.3-1.9c-5.2-1-9.4-1.7-9.4-1.6c0,0.1,4.2,0.9,9.3,1.9
							C113.5,210.7,117.7,211.4,117.7,211.3z"/>
					</g>
				</g>
			</g>
		</g>
		<g>
			<g>
				<g>
					<g>
						<path class="st4" d="M131.1,230.5c0,0-0.2,0-0.7,0c-0.5,0-1.1,0.1-1.8,0.2c-1.5,0.1-3.6,0.3-5.9,0.5c-2.3,0.1-4.4,0.2-6,0.2
							c-0.7,0-1.3,0-1.8,0c-0.4,0-0.7,0-0.7,0c0,0,0.2,0,0.7,0.1c0.4,0,1,0,1.8,0.1c1.5,0,3.6,0,6-0.1c2.3-0.1,4.4-0.4,5.9-0.6
							c0.8-0.1,1.4-0.2,1.8-0.3C130.9,230.6,131.1,230.5,131.1,230.5z"/>
					</g>
				</g>
			</g>
		</g>
		<g>
			<g>
				<g>
					<g>
						<path class="st4" d="M137.4,216.1c0,0-0.1,0.2-0.3,0.5c-0.2,0.4-0.4,0.9-0.7,1.5c-0.6,1.3-1.4,3-2.3,5c-0.9,2-1.7,3.7-2.2,5
							c-0.3,0.6-0.5,1.2-0.6,1.5c-0.1,0.4-0.2,0.6-0.2,0.6c0,0,0.1-0.2,0.3-0.5c0.2-0.4,0.4-0.9,0.7-1.5c0.6-1.3,1.4-3,2.3-5
							c0.9-2,1.7-3.7,2.2-5c0.3-0.6,0.5-1.2,0.6-1.5C137.4,216.4,137.4,216.2,137.4,216.1z"/>
					</g>
				</g>
			</g>
		</g>
		<g>
			<g>
				<g>
					<g>
						<path class="st4" d="M151.4,231.5c0,0-0.2,0.2-0.4,0.7c-0.3,0.5-0.6,1.2-0.9,1.9c-0.8,1.6-1.9,3.9-3,6.4
							c-1.2,2.5-2.2,4.8-2.9,6.4c-0.3,0.8-0.6,1.4-0.9,2c-0.2,0.5-0.3,0.7-0.3,0.7c0,0,0.2-0.2,0.4-0.7c0.3-0.5,0.6-1.2,0.9-1.9
							c0.8-1.6,1.9-3.9,3-6.4c1.2-2.5,2.2-4.8,2.9-6.4c0.3-0.8,0.6-1.4,0.9-2C151.3,231.8,151.4,231.6,151.4,231.5z"/>
					</g>
				</g>
			</g>
		</g>
		<g>
			<g>
				<g>
					<g>
						<path class="st4" d="M143,249.2c0,0-0.3,0-0.8,0c-0.6,0-1.4,0.1-2.3,0.1c-1.9,0.1-4.6,0.3-7.6,0.4c-3,0.1-5.6,0.1-7.6,0.1
							c-0.9,0-1.7,0-2.3,0c-0.5,0-0.8,0-0.8,0c0,0,0.3,0,0.8,0.1c0.5,0,1.3,0.1,2.3,0.1c1.9,0.1,4.6,0.1,7.6,0
							c3-0.1,5.6-0.3,7.6-0.5c1-0.1,1.7-0.2,2.3-0.2C142.7,249.2,143,249.2,143,249.2z"/>
					</g>
				</g>
			</g>
		</g>
	</g>
	<g>
		<g>
			<path class="st7" d="M440.9,257.9c-3.4-1.5-7.4-1.3-10.8,0.1c-3.4,1.4-6.3,3.8-8.8,6.6c-4.8,5.3-7.4,13.1-8.7,20.2
				c7.9,1,15.6-4.1,19.4-6.9C437.9,273.4,445.9,261.7,440.9,257.9"/>
		</g>
		<g>
			<path class="st7" d="M398.3,287.5c3.8-1.7,6.2-5.7,6.5-9.8c0.3-4.1-1.4-8.2-4.2-11.3c-1.3-1.4-3-2.7-4.9-2.6
				c-1.8,0.1-3.3,1.4-4.1,3.1c-0.7,1.6-0.8,3.5-0.6,5.3C391.6,278.1,393.3,283.9,398.3,287.5"/>
		</g>
		<g>
			<g>
				<path class="st4" d="M388,307.4c0,0,0.4-0.4,1-1.1c0.6-0.8,1.4-1.9,2.4-3.3c2-2.8,4.7-6.8,6.5-11.9c1.8-5,2-10,1.2-13.4
					c-0.4-1.7-0.9-3-1.3-3.9c-0.4-0.9-0.7-1.3-0.8-1.3c-0.2,0.1,1,1.9,1.5,5.3c0.6,3.3,0.4,8.2-1.4,13.1c-1.8,4.9-4.4,8.9-6.2,11.8
					C389.1,305.5,387.9,307.3,388,307.4z"/>
			</g>
		</g>
		<g>
			<g>
				<path class="st4" d="M433.8,266c0,0-0.7,0.5-2,1.5c-1.3,1-3,2.4-5.2,4.3c-4.4,3.6-10.4,8.8-16.8,14.6
					c-6.5,5.8-12.2,11.3-16.2,15.3c-2,2-3.7,3.6-4.8,4.8c-1.1,1.1-1.7,1.8-1.7,1.8c0,0,0.7-0.5,1.9-1.6c1.3-1.2,2.9-2.7,4.9-4.6
					c4.2-3.9,9.9-9.2,16.4-15.1c6.5-5.8,12.4-11,16.6-14.8c2.1-1.8,3.8-3.3,5.1-4.5C433.2,266.7,433.8,266.1,433.8,266z"/>
			</g>
		</g>
		<g>
			<path class="st7" d="M402.9,298.3c7.2-4.9,16.9-6,25-2.8c2.1,0.8,4.3,2.3,4.3,4.5c0,2.2-2.2,3.8-4.2,4.6
				c-8.6,3.4-19.2,1-25.4-5.8"/>
		</g>
		<g>
			<g>
				<path class="st4" d="M422.5,299.5c0-0.1-0.4-0.3-1.3-0.6c-0.4-0.2-1-0.4-1.6-0.6c-0.6-0.2-1.3-0.4-2.2-0.6
					c-1.6-0.4-3.6-0.7-5.8-0.7c-2.2,0-4.6,0.1-7.1,0.7c-2.5,0.5-4.8,1.4-6.8,2.3c-2,1-3.7,2-5,3c-0.7,0.5-1.2,1-1.7,1.4
					c-0.5,0.4-0.9,0.8-1.2,1.2c-0.6,0.7-1,1.1-0.9,1.1c0.1,0.1,1.5-1.4,4.2-3.2c1.3-0.9,3-1.9,5-2.8c2-0.9,4.2-1.6,6.6-2.2
					c2.4-0.5,4.8-0.7,7-0.7c2.2,0,4.1,0.2,5.7,0.5C420.5,298.9,422.4,299.7,422.5,299.5z"/>
			</g>
		</g>
	</g>
</g>
<g id="Newletter">
	<g>
		<g>
			<g>
				<g>
					<g>
						<rect x="143.5" y="80.5" class="st5" width="252.7" height="277.1"/>
					</g>
				</g>
				<g>
					<g>
						<g>
							<path class="st5" d="M396.2,357.7c0-2-0.1-111.5-0.2-277.1l0.2,0.2c-74.1,0-160.7,0-252.7,0h0l0.3-0.3c0,102,0,197.2,0,277.1
								l-0.2-0.2C295.5,357.6,394.3,357.7,396.2,357.7c-1.9,0-100.8,0.1-252.7,0.2l-0.2,0l0-0.2c0-79.9,0-175.2,0-277.1v-0.3h0.3h0
								c92,0,178.6,0,252.7,0h0.2l0,0.2C396.3,246.1,396.2,355.7,396.2,357.7z"/>
						</g>
					</g>
				</g>
			</g>
			<g>
				<g>
					<g>
						<path class="st5" d="M327.9,332.3h-96.6c-8,0-14.5-6.5-14.5-14.5v-3c0-8,6.5-14.5,14.5-14.5h96.6c8,0,14.5,6.5,14.5,14.5v3
							C342.4,325.8,335.9,332.3,327.9,332.3z"/>
					</g>
				</g>
				<g class="st11">
					<g>
						<path class="st5" d="M327.9,332.3h-96.6c-8,0-14.5-6.5-14.5-14.5v-3c0-8,6.5-14.5,14.5-14.5h96.6c8,0,14.5,6.5,14.5,14.5v3
							C342.4,325.8,335.9,332.3,327.9,332.3z"/>
					</g>
				</g>
				<g>
					<g>
						<path class="st7" d="M317.3,332.3h-96.6c-8,0-14.5-6.5-14.5-14.5v-3c0-8,6.5-14.5,14.5-14.5h96.6c8,0,14.5,6.5,14.5,14.5v3
							C331.8,325.8,325.3,332.3,317.3,332.3z"/>
					</g>
				</g>
				<g>
					<g>
						<path class="st5" d="M240.9,318.4l0.4-1c0.5,0.4,1.4,0.7,2.2,0.7c1,0,1.5-0.4,1.5-0.9c0-1.4-3.9-0.5-3.9-3c0-1.1,0.9-2,2.7-2
							c0.8,0,1.6,0.2,2.2,0.6l-0.4,1c-0.6-0.4-1.2-0.5-1.8-0.5c-1,0-1.4,0.4-1.4,0.9c0,1.4,3.9,0.5,3.9,2.9c0,1.1-0.9,2-2.7,2
							C242.5,319.2,241.4,318.9,240.9,318.4z"/>
						<path class="st5" d="M243.5,319.2c-1,0-2.1-0.3-2.6-0.8l0,0l0,0l0.4-1l0,0c0.5,0.4,1.4,0.7,2.2,0.7c0.9,0,1.4-0.3,1.4-0.8
							c0-0.6-0.7-0.8-1.6-1c-1.1-0.3-2.4-0.6-2.4-2c0-1,0.7-2,2.7-2c0.8,0,1.7,0.2,2.2,0.6l0,0l0,0l-0.4,1l0,0
							c-0.6-0.3-1.2-0.5-1.8-0.5c-0.9,0-1.4,0.3-1.4,0.9c0,0.6,0.7,0.8,1.5,1c1.1,0.3,2.4,0.6,2.4,2c0,0.6-0.2,1.1-0.7,1.4
							C245.1,319,244.4,319.2,243.5,319.2z M240.9,318.4c0.6,0.5,1.6,0.8,2.6,0.8c1.6,0,2.7-0.8,2.7-1.9c0-1.4-1.2-1.7-2.3-1.9
							c-0.9-0.2-1.6-0.4-1.6-1c0-0.6,0.5-0.9,1.5-0.9c0.6,0,1.2,0.2,1.8,0.5l0.4-0.9c-0.6-0.4-1.4-0.6-2.2-0.6c-1.9,0-2.6,1-2.6,2
							c0,1.4,1.2,1.7,2.3,1.9c0.9,0.2,1.6,0.4,1.6,1c0,0.6-0.5,0.9-1.5,0.9c-0.8,0-1.6-0.3-2.2-0.7L240.9,318.4z"/>
					</g>
					<g>
						<path class="st5" d="M247.3,316.2v-3.7h1.2v3.7c0,1.4,0.6,1.9,1.7,1.9c1.1,0,1.7-0.6,1.7-1.9v-3.7h1.2v3.7c0,1.9-1.1,3-2.9,3
							C248.4,319.2,247.3,318.1,247.3,316.2z"/>
						<path class="st5" d="M250.3,319.2c-1.9,0-2.9-1.1-2.9-3v-3.8h1.3v3.7c0,1.3,0.5,1.9,1.7,1.9c1.1,0,1.6-0.6,1.6-1.9v-3.7h1.3
							v3.8C253.2,318.1,252.1,319.2,250.3,319.2z M247.4,312.5v3.7c0,1.9,1,3,2.9,3c1.8,0,2.9-1.1,2.9-3v-3.7H252v3.7
							c0,1.3-0.6,2-1.7,2c-1.1,0-1.7-0.7-1.7-2v-3.7H247.4z"/>
					</g>
					<g>
						<path class="st5" d="M260.8,317.3c0,1.1-0.9,1.8-2.6,1.8h-3.3v-6.6h3.1c1.6,0,2.4,0.7,2.4,1.7c0,0.7-0.3,1.2-0.9,1.5
							C260.3,315.9,260.8,316.4,260.8,317.3z M256.1,313.4v1.8h1.7c0.9,0,1.3-0.3,1.3-0.9c0-0.6-0.5-0.9-1.3-0.9H256.1z
							 M259.5,317.2c0-0.7-0.5-1-1.4-1h-2v1.9h2C259,318.1,259.5,317.8,259.5,317.2z"/>
						<path class="st5" d="M258.2,319.1h-3.3v-6.7h3.1c1.5,0,2.5,0.7,2.5,1.7c0,0.6-0.3,1.1-0.8,1.5c0.7,0.3,1.2,0.9,1.2,1.7
							C260.8,318.5,259.9,319.1,258.2,319.1z M254.9,319.1h3.3c1.7,0,2.6-0.6,2.6-1.8c0-0.8-0.4-1.4-1.2-1.6l-0.1,0l0.1,0
							c0.5-0.3,0.8-0.8,0.8-1.4c0-1.1-0.9-1.7-2.4-1.7h-3.1V319.1z M258.1,318.1h-2v-2h2c1,0,1.5,0.3,1.5,1
							C259.5,317.8,259.1,318.1,258.1,318.1z M256.1,318.1h2c0.9,0,1.4-0.3,1.4-0.9c0-0.6-0.5-0.9-1.4-0.9h-2V318.1z M257.8,315.3
							h-1.8v-1.9h1.8c0.9,0,1.4,0.3,1.4,0.9C259.2,315,258.7,315.3,257.8,315.3z M256.1,315.2h1.7c0.6,0,1.3-0.2,1.3-0.9
							c0-0.7-0.7-0.9-1.3-0.9h-1.7V315.2z"/>
					</g>
					<g>
						<path class="st5" d="M261.5,318.4l0.4-1c0.5,0.4,1.4,0.7,2.2,0.7c1,0,1.5-0.4,1.5-0.9c0-1.4-3.9-0.5-3.9-3c0-1.1,0.9-2,2.7-2
							c0.8,0,1.6,0.2,2.2,0.6l-0.4,1c-0.6-0.4-1.2-0.5-1.8-0.5c-1,0-1.4,0.4-1.4,0.9c0,1.4,3.9,0.5,3.9,2.9c0,1.1-0.9,2-2.7,2
							C263.1,319.2,262.1,318.9,261.5,318.4z"/>
						<path class="st5" d="M264.1,319.2c-1,0-2.1-0.3-2.6-0.8l0,0l0,0l0.4-1l0,0c0.5,0.4,1.4,0.7,2.2,0.7c0.9,0,1.4-0.3,1.4-0.8
							c0-0.6-0.7-0.8-1.6-1c-1.1-0.3-2.4-0.6-2.4-2c0-1,0.7-2,2.7-2c0.8,0,1.7,0.2,2.2,0.6l0,0l0,0l-0.4,1l0,0
							c-0.6-0.3-1.2-0.5-1.8-0.5c-0.9,0-1.4,0.3-1.4,0.9c0,0.6,0.7,0.8,1.5,1c1.1,0.3,2.4,0.6,2.4,2
							C266.8,318.4,265.8,319.2,264.1,319.2z M261.6,318.4c0.6,0.5,1.6,0.8,2.6,0.8c1.6,0,2.7-0.8,2.7-1.9c0-1.4-1.2-1.7-2.3-1.9
							c-0.9-0.2-1.6-0.4-1.6-1c0-0.6,0.5-0.9,1.5-0.9c0.6,0,1.2,0.2,1.8,0.5l0.4-0.9c-0.6-0.4-1.4-0.6-2.2-0.6c-1.9,0-2.6,1-2.6,2
							c0,1.4,1.2,1.7,2.3,1.9c0.9,0.2,1.6,0.4,1.6,1c0,0.6-0.5,0.9-1.5,0.9c-0.8,0-1.6-0.3-2.2-0.7L261.6,318.4z"/>
					</g>
					<g>
						<path class="st5" d="M267.6,315.8c0-2,1.5-3.4,3.5-3.4c1.1,0,2,0.4,2.6,1.1l-0.8,0.7c-0.5-0.5-1.1-0.8-1.8-0.8
							c-1.4,0-2.4,1-2.4,2.3c0,1.4,1,2.3,2.4,2.3c0.7,0,1.3-0.3,1.8-0.8l0.8,0.8c-0.6,0.7-1.5,1.1-2.6,1.1
							C269.1,319.2,267.6,317.8,267.6,315.8z"/>
						<path class="st5" d="M271.1,319.2c-2.1,0-3.6-1.4-3.6-3.4c0-2,1.5-3.4,3.6-3.4c1.1,0,2,0.4,2.6,1.1l0,0l0,0l-0.8,0.8l0,0
							c-0.5-0.5-1.1-0.8-1.8-0.8c-1.4,0-2.3,1-2.3,2.3c0,1.3,1,2.3,2.3,2.3c0.7,0,1.3-0.3,1.8-0.8l0,0l0.8,0.8l0,0
							C273.1,318.8,272.2,319.2,271.1,319.2z M271.1,312.4c-2,0-3.5,1.4-3.5,3.4c0,2,1.5,3.4,3.5,3.4c1.1,0,2-0.4,2.6-1.1l-0.8-0.7
							c-0.5,0.5-1.1,0.8-1.8,0.8c-1.4,0-2.4-1-2.4-2.4c0-1.4,1-2.4,2.4-2.4c0.7,0,1.3,0.3,1.8,0.8l0.8-0.7
							C273.1,312.8,272.2,312.4,271.1,312.4z"/>
					</g>
					<g>
						<path class="st5" d="M279.2,319.1l-1.4-1.9c-0.1,0-0.2,0-0.3,0h-1.5v1.9h-1.2v-6.6h2.7c1.7,0,2.8,0.9,2.8,2.4
							c0,1-0.5,1.7-1.4,2.1l1.5,2.2H279.2z M277.6,313.5h-1.4v2.6h1.4c1.1,0,1.6-0.5,1.6-1.3C279.2,314,278.7,313.5,277.6,313.5z"/>
						<path class="st5" d="M280.6,319.1h-1.4l0,0l-1.3-1.9c-0.1,0-0.2,0-0.2,0h-1.5v1.9h-1.3v-6.7h2.8c1.8,0,2.8,0.9,2.8,2.4
							c0,1-0.5,1.7-1.4,2.1L280.6,319.1z M279.3,319.1h1.3l-1.5-2.2l0,0c0.9-0.4,1.4-1.1,1.4-2.1c0-1.4-1.1-2.3-2.8-2.3h-2.7v6.6
							h1.2v-1.9h1.5c0.1,0,0.2,0,0.3,0l0,0l0,0L279.3,319.1z M277.6,316.2h-1.5v-2.7h1.5c1.1,0,1.7,0.5,1.7,1.3
							C279.2,315.7,278.7,316.2,277.6,316.2z M276.2,316.1h1.4c1,0,1.6-0.5,1.6-1.3c0-0.8-0.6-1.3-1.6-1.3h-1.4V316.1z"/>
					</g>
					<g>
						<path class="st5" d="M281.8,312.5h1.2v6.6h-1.2V312.5z"/>
						<path class="st5" d="M283.1,319.1h-1.3v-6.7h1.3V319.1z M281.9,319.1h1.2v-6.6h-1.2V319.1z"/>
					</g>
					<g>
						<path class="st5" d="M290.7,317.3c0,1.1-0.9,1.8-2.6,1.8h-3.3v-6.6h3.1c1.6,0,2.4,0.7,2.4,1.7c0,0.7-0.3,1.2-0.9,1.5
							C290.3,315.9,290.7,316.4,290.7,317.3z M286.1,313.4v1.8h1.7c0.9,0,1.3-0.3,1.3-0.9c0-0.6-0.5-0.9-1.3-0.9H286.1z
							 M289.5,317.2c0-0.7-0.5-1-1.4-1h-2v1.9h2C289,318.1,289.5,317.8,289.5,317.2z"/>
						<path class="st5" d="M288.1,319.1h-3.3v-6.7h3.1c1.5,0,2.5,0.7,2.5,1.7c0,0.6-0.3,1.1-0.8,1.5c0.7,0.3,1.2,0.9,1.2,1.7
							C290.8,318.5,289.8,319.1,288.1,319.1z M284.9,319.1h3.3c1.7,0,2.6-0.6,2.6-1.8c0-0.8-0.4-1.4-1.2-1.6l-0.1,0l0.1,0
							c0.5-0.3,0.8-0.8,0.8-1.4c0-1.1-0.9-1.7-2.4-1.7h-3.1V319.1z M288.1,318.1h-2v-2h2c1,0,1.5,0.3,1.5,1
							C289.5,317.8,289,318.1,288.1,318.1z M286.1,318.1h2c0.9,0,1.4-0.3,1.4-0.9c0-0.6-0.5-0.9-1.4-0.9h-2V318.1z M287.8,315.3
							h-1.8v-1.9h1.8c0.9,0,1.4,0.3,1.4,0.9C289.2,315,288.7,315.3,287.8,315.3z M286.1,315.2h1.7c0.6,0,1.3-0.2,1.3-0.9
							c0-0.7-0.7-0.9-1.3-0.9h-1.7V315.2z"/>
					</g>
					<g>
						<path class="st5" d="M297,318.1v1h-5v-6.6h4.8v1h-3.6v1.7h3.2v1h-3.2v1.8H297z"/>
						<path class="st5" d="M297.1,319.1h-5v-6.7h4.9v1.1h-3.6v1.7h3.2v1.1h-3.2v1.8h3.7V319.1z M292.1,319.1h4.9v-1h-3.7v-1.9h3.2
							v-1h-3.2v-1.8h3.6v-1h-4.8V319.1z"/>
					</g>
				</g>
			</g>
			<g>
				<g>
					<path class="st5" d="M317.4,205.8"/>
				</g>
			</g>
			<g>
				<g>
					<g>
						<path class="st5" d="M343.4,279c0,0.1-32.1,0.3-71.8,0.3c-39.7,0-71.8-0.1-71.8-0.3c0-0.1,32.1-0.3,71.8-0.3
							C311.3,278.8,343.4,278.9,343.4,279z"/>
					</g>
				</g>
			</g>
			<g>
				<g>
					<g>
						<path class="st5" d="M365.9,287.7c0,0.1-42.2,0.3-94.2,0.3c-52.1,0-94.2-0.1-94.2-0.3c0-0.1,42.2-0.3,94.2-0.3
							C323.7,287.4,365.9,287.6,365.9,287.7z"/>
					</g>
				</g>
			</g>
		</g>
		<g>
			<path class="st5" d="M155.4,91.3c0,1.2-1,2.1-2.1,2.1c-1.2,0-2.1-1-2.1-2.1c0-1.2,1-2.1,2.1-2.1
				C154.4,89.2,155.4,90.1,155.4,91.3z"/>
		</g>
		<g>
			<circle class="st5" cx="160.4" cy="91.3" r="2.1"/>
		</g>
		<g>
			<path class="st5" d="M169.6,91.3c0,1.2-1,2.1-2.1,2.1c-1.2,0-2.1-1-2.1-2.1c0-1.2,1-2.1,2.1-2.1
				C168.7,89.2,169.6,90.1,169.6,91.3z"/>
		</g>
	</g>
</g>
<g id="Character">
	<g>
		<g>
			<path class="st14" d="M377.4,136.1l4.2-15c0,0,1.5-6.1,1.9-7.5c0.5-1.9-0.8-2.5-1.6-1.2c-0.3,0.5-3.6,6.7-3.6,6.7
				s2.6-10.2,2.7-10.5c0.8-3.3-1.2-3-1.8-1.8c-0.6,1.2-4.3,11.2-4.3,11.2c3.5-13.1,2.4-14.2,1.4-14.4c-1-0.2-4.1,11.7-4.1,11.7
				s-1.1-2-3.2-3.4c-3.2-2.2-8.4,0-8.7,1.5c-0.3,1.5,1.6,1.9,1.6,1.9c3.9-2.5,8,0.5,7.6,4.3c-0.4,3.8-5.2,3.2-5.8,0.6
				c-1.3-5.9-3.3-4-3.3-4l2,13l-2.1,6.5"/>
		</g>
		<g>
			<g>
				<g>
					<polygon class="st10" points="227.7,197.2 317.6,196.6 320,257.7 227,256.8 					"/>
				</g>
			</g>
			<g>
				<g>
					<polyline class="st4" points="227.7,197.2 273.4,160.3 317.6,196.6 					"/>
				</g>
			</g>
			<g>
				<g>
					<g>
						<path class="st4" d="M227,256.8c-0.1-0.1,7.1-8,16.1-17.5c9-9.6,16.4-17.3,16.5-17.2c0.1,0.1-7.1,8-16.1,17.5
							C234.5,249.2,227.1,256.9,227,256.8z"/>
					</g>
				</g>
			</g>
			<g>
				<g>
					<g>
						<path class="st4" d="M320,257.7c-0.1,0.1-7.1-7.6-15.6-17.2c-8.5-9.6-15.3-17.5-15.2-17.6c0.1-0.1,7.1,7.6,15.6,17.2
							C313.3,249.7,320.1,257.6,320,257.7z"/>
					</g>
				</g>
			</g>
			<g>
				<g>
					<polyline class="st4" points="317.6,196.6 272.4,232.6 227.7,197.2 					"/>
				</g>
			</g>
		</g>
		<g>
			<g>
				<g>
					<g>
						<path class="st14" d="M167.7,128.4l0.3,0l-1.2-4l-3.8-15.4c-0.4-1.4,0.4-2.8,1.8-3.3l2.8-0.1l9.5-4.4c1.8-0.7,3.8,0.5,4,2.3
							c0.3,2.8,2.3,10.4,4.3,7.8c0-0.1,0.1-0.1,0.1-0.2c2.9-4,6.4-6.1,7.9-6c1.4,0.1,2,1.8,1,2.8c-0.1,0.2-0.3,0.3-0.5,0.5
							c-0.1,0.1-0.2,0.1-0.3,0.2c-1.1,0.9-2.4,2.5-3.4,3.7c-0.9,1.2-1.6,2.6-2.1,4c-0.5,1.6-0.9,3-1.2,4.2l0.7,7.8"/>
					</g>
				</g>
				<g>
					<g>
						<g>
							<g>
								<path class="st10" d="M193,58.8c0,0-11.1-2.1-27-16.6C150,27.7,142.2,8.1,140.3,8.3c-1.9,0.2-10.3-3.5-25.1,31.3
									c-14.8,34.7-8.4,42.5-5.2,42.4c3.1-0.2,24.3-6.7,37.6-5.6c13.3,1.1,30.6,7.6,30.6,7.6L193,58.8z"/>
							</g>
						</g>
						<g>
							<g>
								<path class="st4" d="M216.9,76.8l-3.6,7.3l-1.6,3.2c-2.2,4.5-7.5,6.4-12,4.5l-23.9-7.6l12.9-31.8l24,11.9
									C217.3,66.6,219.2,72.2,216.9,76.8z"/>
							</g>
						</g>
						<g>
							<g>
								<path class="st4" d="M203.6,88.6l-7.1,15l-3.8-0.9l-24,20.7l-7.2-13.3c0,0,14.3-6.7,16.9-11.9c2.5-5.3-0.6-6.3-0.6-6.3
									l6.6-8L203.6,88.6z"/>
							</g>
						</g>
						<g>
							<g>
								<path class="st4" d="M116.5,40.1c-7.9,18.8-10.9,35.5-6.8,37.2c4.1,1.7,13.9-12.1,21.7-30.9c7.9-18.8,10.9-35.5,6.8-37.2
									C134.1,7.5,124.4,21.3,116.5,40.1z"/>
							</g>
						</g>
					</g>
					<g>
						<g>
							<polygon class="st10" points="219.2,87.1 212.8,85.3 216.5,77.6 221.4,80.5 							"/>
						</g>
					</g>
					<g>
						<g>
							<polygon class="st10" points="182.1,86.6 199.6,97.1 201.7,92.8 							"/>
						</g>
					</g>
					<g>
						<g>
							<polygon class="st10" points="216.5,77.6 212.8,85.3 214.1,85.6 217.1,77.9 							"/>
						</g>
					</g>
					<g>
						<g>
							<path class="st10" d="M212.2,79.5c-0.1,0.2-3.3-0.9-7.2-2.6c-3.9-1.6-7-3.1-6.9-3.3c0.1-0.2,3.3,0.9,7.2,2.6
								C209.2,77.8,212.3,79.3,212.2,79.5z"/>
						</g>
					</g>
					<g>
						<g>
							<path class="st10" d="M214,74.9c-0.1,0.2-3-0.9-6.5-2.5c-3.5-1.6-6.3-3.1-6.2-3.3c0.1-0.2,3,0.9,6.5,2.5
								C211.3,73.3,214.1,74.7,214,74.9z"/>
						</g>
					</g>
					<g>
						<g>
							<path class="st10" d="M209.8,84.2c0,0.1-0.8,0-2-0.4c-0.6-0.2-1.3-0.4-2.1-0.6c-0.8-0.3-1.6-0.7-2.5-1
								c-3.5-1.5-6.3-3-6.2-3.2c0.1-0.2,3,1,6.5,2.5c0.9,0.4,1.7,0.8,2.5,1.1c0.8,0.3,1.5,0.6,2,0.8
								C209.1,83.8,209.9,84.1,209.8,84.2z"/>
						</g>
					</g>
					<g>
						<g>
							<path class="st10" d="M133.5,35.5c0,0-9.7-5.7-14.6,7.4c-4.9,13.1,5.3,14.9,5.3,14.9C128.1,51.4,131.2,43.9,133.5,35.5z"/>
						</g>
					</g>
					<g>
						<g>
							<path class="st4" d="M143.2,19.8c0.1,0-0.1,0.9-0.3,2.5c-0.3,1.6-0.6,3.9-1.2,6.7c-0.4,1.4-0.8,2.9-1.2,4.6
								c-0.2,0.8-0.4,1.7-0.7,2.5c-0.1,0.4-0.2,0.9-0.4,1.3c-0.1,0.4-0.3,0.9-0.5,1.3c-0.6,1.8-1.3,3.7-2,5.6
								c-0.2,0.5-0.4,1-0.5,1.5c-0.2,0.5-0.4,1-0.6,1.5c-0.4,1-0.9,2-1.3,3c-0.5,1-0.9,2-1.3,3c-0.2,0.5-0.4,1-0.7,1.4
								c-0.3,0.5-0.5,0.9-0.8,1.4c-1,1.8-2,3.6-2.9,5.2c-0.2,0.4-0.5,0.8-0.7,1.2c-0.3,0.4-0.5,0.8-0.8,1.1c-0.5,0.8-1,1.5-1.5,2.2
								c-0.9,1.4-1.8,2.7-2.6,3.9c-1.8,2.3-3.3,4.1-4.3,5.3c-1,1.2-1.6,1.9-1.7,1.9c0,0,0.5-0.8,1.4-2.1c1-1.3,2.4-3.2,4.1-5.5
								c0.8-1.2,1.6-2.5,2.5-3.9c0.5-0.7,0.9-1.4,1.4-2.2c0.2-0.4,0.5-0.8,0.7-1.1c0.2-0.4,0.4-0.8,0.7-1.2c0.9-1.7,1.9-3.4,2.8-5.2
								c0.2-0.5,0.5-0.9,0.7-1.4c0.3-0.5,0.4-1,0.7-1.4c0.4-1,0.9-2,1.3-3c0.5-1,0.9-2,1.3-3c0.2-0.5,0.5-1,0.6-1.5
								c0.2-0.5,0.4-1,0.5-1.5c0.7-1.9,1.4-3.8,2-5.6c0.2-0.4,0.3-0.9,0.5-1.3c0.1-0.4,0.2-0.9,0.4-1.3c0.2-0.9,0.5-1.7,0.7-2.5
								c0.5-1.6,0.9-3.1,1.3-4.5c0.6-2.8,1.1-5,1.4-6.7C143,20.7,143.2,19.8,143.2,19.8z"/>
						</g>
					</g>
				</g>
			</g>
			<g>
				<path class="st15" d="M311.7,186.7"/>
			</g>
		</g>
		<g>
			<g>
				<g>
					<path class="st8" d="M236.6,174.3"/>
				</g>
			</g>
			<g>
				<g>
					<path class="st8" d="M200.8,162.7l-9.9-37.7l-24.8,0.7l7.7,52.6c1,11.4,7.7,18.9,19.1,20.7c6.8,1.1,14.2-5.4,19.6-9.6
						c3.6-2.7,4.2-2.2,7.9-5.5l0,0l16-11.5l0.4,1.9l-0.1,0l2.7,32.1l33.1,26l39.4-31.6l-0.9-13.7c0.1,0,0.2-0.2,0-0.2l-1-15.5
						l20.2,23.2c4.6,6.8,12.6,10.6,20.8,10c8.9-0.7,16.6-6.4,19.8-14.7l10.4-53l-22.8-4.9l-10.7,38.2L322,140.8
						c-14.7-19.2-31.9-17.6-31.9-17.6l-31.7-0.6c0,0,0,0-0.1,0c-0.9,0.1-18.6,0.6-30.6,13.4L200.8,162.7z"/>
				</g>
			</g>
			<g>
				<g>
					<g>
						<path class="st8" d="M323.3,142.9c0,0-0.3-0.2-1-0.4c-0.7-0.2-1.7-0.4-3.1-0.3c-1.3,0.1-2.9,0.5-4.7,1.3
							c-1.8,0.8-3.6,2-5.7,3.2c-2.1,1.2-4.6,2.5-7.6,2.4c-1.5,0-2.9-0.5-4.4-1c-1.4-0.6-2.8-1.3-4.3-1.8c-2.9-1.2-6.4-1.6-9.7-0.9
							c-3.4,0.6-6.5,2.6-9.7,4.4c-1.6,0.9-3.2,1.8-4.9,2.5c-1.7,0.7-3.5,1.1-5.2,1.3c-3.5,0.4-7-0.1-10-1.4c-3-1.2-5.5-3-7.9-4.7
							c-2.3-1.7-4.4-3.3-6.5-4.5c-2.1-1.2-4.1-2-6-2.5c-1.9-0.4-3.5-0.5-4.9-0.4c-2.7,0.3-4,1.2-4,1.1c0,0,0.1-0.1,0.2-0.1
							c0.2-0.1,0.4-0.2,0.7-0.4c0.7-0.3,1.7-0.7,3-0.8c1.4-0.2,3.1-0.1,4.9,0.3c1.9,0.4,4,1.2,6.1,2.4c2.1,1.2,4.3,2.8,6.6,4.4
							c2.3,1.6,4.8,3.4,7.8,4.6c2.9,1.2,6.3,1.7,9.8,1.3c1.7-0.2,3.4-0.6,5.1-1.2c1.7-0.6,3.3-1.5,4.9-2.4c3.2-1.8,6.4-3.8,9.9-4.5
							c3.5-0.7,7-0.3,10,1c3,1.2,5.7,2.8,8.5,2.9c2.8,0.1,5.3-1.1,7.4-2.3c2.1-1.2,3.9-2.4,5.7-3.2c1.8-0.8,3.4-1.2,4.8-1.3
							c1.4-0.1,2.4,0.2,3.1,0.4C323,142.7,323.3,142.9,323.3,142.9z"/>
					</g>
				</g>
			</g>
			<g>
				<g>
					<g>
						<path class="st8" d="M341.7,161.7c0,0-0.1,0.5-0.5,1.4c-0.5,0.9-1.3,2.1-2.9,3.2c-1.5,1.1-3.7,2-6.4,2.3c-2.7,0.3-5.7,0-9-0.4
							c-3.3-0.3-7-0.7-10.7,0.5c-1.8,0.6-3.6,1.7-5.3,2.8c-1.7,1.1-3.5,2.4-5.6,3.2c-4.1,1.8-8.9,2.5-13.6,1.6
							c-2.4-0.4-4.7-1.2-6.9-2.4c-2.2-1.2-4.2-2.6-6.4-4c-2.1-1.4-4.3-2.6-6.6-3.3c-2.3-0.7-4.8-0.8-7.1-0.4
							c-4.7,0.7-9,2.6-13.2,3.7c-2.1,0.6-4.3,1-6.4,1.1c-2.1,0-4.2-0.3-6-1c-3.7-1.5-6.4-4.1-8.8-6.4c-2.4-2.3-4.6-4.3-6.9-5.7
							c-2.2-1.4-4.5-2-6.3-2.1c-1.8-0.2-3.3,0.2-4.2,0.5c-0.9,0.3-1.3,0.6-1.4,0.6c0,0,0.4-0.3,1.3-0.7c0.9-0.4,2.4-0.7,4.2-0.6
							c1.9,0.1,4.1,0.7,6.4,2.1c2.3,1.3,4.6,3.4,7,5.6c2.4,2.2,5.1,4.8,8.7,6.2c1.8,0.7,3.8,1,5.8,1c2.1-0.1,4.2-0.5,6.3-1.1
							c2.1-0.6,4.2-1.3,6.4-2c2.2-0.7,4.5-1.4,6.9-1.7c2.4-0.3,4.9-0.3,7.3,0.5c2.4,0.7,4.6,2,6.8,3.4c2.1,1.4,4.2,2.8,6.3,4
							c2.1,1.2,4.4,2,6.8,2.4c4.7,0.9,9.4,0.2,13.3-1.5c4-1.7,7.1-4.8,10.9-6c1.9-0.6,3.8-0.8,5.6-0.8c1.8,0,3.6,0.2,5.2,0.4
							c3.3,0.4,6.3,0.7,8.9,0.5c2.6-0.2,4.8-1.1,6.3-2.1c1.5-1,2.4-2.2,2.9-3.1C341.5,162.2,341.6,161.7,341.7,161.7z"/>
					</g>
				</g>
			</g>
			<g>
				<g>
					<g>
						<path class="st8" d="M370.5,187.1c0,0-0.4-0.5-1.4-1.1c-1-0.6-2.7-1.1-4.7-0.7c-2,0.4-4.2,1.7-6.3,3.4
							c-1.1,0.8-2.2,1.8-3.5,2.6c-1.3,0.8-2.7,1.6-4.3,1.9c-1.6,0.3-3.2,0.2-4.7-0.1c-1.5-0.3-2.9-0.8-4.2-1.2
							c-1.3-0.4-2.5-0.9-3.7-1.2c-1.2-0.3-2.3-0.5-3.3-0.6c-2.1-0.1-3.7,0.2-4.8,0.8c-1,0.5-1.5,1-1.5,0.9c0,0,0.1-0.1,0.3-0.3
							c0.1-0.1,0.3-0.2,0.4-0.4c0.2-0.1,0.4-0.3,0.7-0.4c1-0.6,2.8-1.1,4.9-0.9c1.1,0,2.2,0.2,3.4,0.5c1.2,0.3,2.5,0.7,3.8,1.2
							c2.6,0.8,5.6,1.9,8.7,1.3c1.5-0.3,2.9-1,4.2-1.8c1.3-0.8,2.4-1.7,3.5-2.6c2.2-1.7,4.4-3,6.6-3.4c2.1-0.3,3.9,0.2,4.9,0.9
							c0.5,0.3,0.8,0.7,1,0.9C370.5,187,370.6,187.1,370.5,187.1z"/>
					</g>
				</g>
			</g>
			<g>
				<g>
					<g>
						<path class="st8" d="M375.6,158.4c0,0-0.3,0.3-0.9,0.5c-0.6,0.3-1.5,0.6-2.7,0.7c-1.2,0.1-2.6,0-4.1-0.4
							c-1.5-0.4-3.1-1-4.7-1.6c-1.6-0.6-3.2-1.2-4.7-1.4c-1.5-0.3-2.8-0.2-4,0c-2.3,0.4-3.3,1.5-3.4,1.4c0,0,0.2-0.3,0.7-0.7
							c0.5-0.4,1.4-0.8,2.5-1.1c1.1-0.3,2.6-0.3,4.1-0.1c1.5,0.2,3.2,0.8,4.8,1.4c1.7,0.6,3.2,1.2,4.7,1.6c1.5,0.4,2.8,0.5,4,0.5
							C374.3,159.2,375.5,158.3,375.6,158.4z"/>
					</g>
				</g>
			</g>
			<g>
				<g>
					<g>
						<path class="st8" d="M309.3,196.2c0,0.1-0.9-0.6-2.6-1.2c-1.7-0.6-4.4-1.2-7.7-0.8c-3.3,0.3-7.1,1.6-11,3.5
							c-4,1.9-8.2,4.4-13.1,6c-2.4,0.8-4.9,1.3-7.4,1.3c-2.4,0-4.8-0.5-6.9-1.2c-2.1-0.7-4-1.5-5.8-2.3c-1.8-0.8-3.4-1.6-5-2.2
							c-3.1-1.3-5.7-1.8-7.6-2c-0.5,0-0.9-0.1-1.2-0.1c-0.3,0-0.6,0-0.9,0c-0.5,0-0.7,0-0.8,0c0,0,0.3-0.1,0.7-0.1
							c0.3,0,0.6,0,0.9-0.1c0.4,0,0.8,0,1.2,0c1.9,0.1,4.6,0.6,7.7,1.8c1.6,0.6,3.2,1.3,5,2.1c1.8,0.8,3.7,1.6,5.8,2.3
							c2.1,0.7,4.3,1.1,6.7,1.1c2.4,0,4.8-0.5,7.2-1.3c4.8-1.6,9-4,13-5.9c4-1.9,7.8-3.2,11.2-3.4c3.4-0.3,6.1,0.3,7.8,1
							C308.5,195.5,309.3,196.2,309.3,196.2z"/>
					</g>
				</g>
			</g>
			<g>
				<g>
					<g>
						<path class="st8" d="M172.7,170.6c0,0,0.1-0.1,0.5-0.2c0.3-0.1,0.9-0.1,1.5,0.1c0.6,0.2,1.4,0.6,2,1.4
							c0.6,0.7,1.1,1.7,1.6,2.7c0.5,1,1.2,2.1,2.2,2.9c1,0.9,2.3,1.6,3.7,2c2.9,1,6.3,1,9.7,0.5c3.5-0.5,6.8-1.2,9.9-1.2
							c3.1,0,5.9,0.9,7.8,2.2c2,1.3,3.1,2.9,3.6,4.2c0.5,1.2,0.4,2,0.4,2c-0.1,0-0.1-0.7-0.6-1.9c-0.5-1.2-1.6-2.7-3.6-3.9
							c-1.9-1.2-4.6-2.1-7.6-2c-3,0-6.3,0.7-9.8,1.2c-3.5,0.6-7,0.5-10-0.5c-1.5-0.5-2.8-1.2-3.8-2.2c-1-0.9-1.8-2-2.3-3.1
							c-0.5-1-0.9-2-1.5-2.7c-0.6-0.7-1.2-1.1-1.8-1.4C173.4,170.2,172.7,170.7,172.7,170.6z"/>
					</g>
				</g>
			</g>
			<g>
				<g>
					<g>
						<path class="st8" d="M194.4,140.1c-0.1,0.1-1.1-1.2-3.5-1.8c-1.2-0.3-2.6-0.5-4.2-0.3c-1.6,0.2-3.3,0.7-5,1.5
							c-1.7,0.7-3.3,1.6-4.8,2.3c-1.5,0.7-2.8,1.3-4,1.7c-1.2,0.4-2.2,0.6-2.9,0.7c-0.7,0.1-1.1,0.1-1.1,0.1c0-0.1,1.5-0.2,3.8-1.1
							c1.1-0.4,2.5-1.1,3.9-1.8c1.5-0.7,3-1.6,4.8-2.4c1.8-0.7,3.5-1.3,5.2-1.4c1.7-0.2,3.2,0,4.4,0.4c1.2,0.4,2.1,0.9,2.6,1.4
							C194.2,139.8,194.4,140.1,194.4,140.1z"/>
					</g>
				</g>
			</g>
			<g class="st16">
				<g>
					<g>
						<path class="st8" d="M266.8,227.9c12.8-7.4,27.7-16.2,35.1-29c4.7-8.2,7.1-18.1,8-27.5l1.9,29.3l-39.4,31.6L266.8,227.9z"/>
					</g>
				</g>
			</g>
			<g class="st17">
				<g>
					<g>
						<path class="st8" d="M233.5,130.9c-3,11.3-8.8,21-17.6,28.6c-2.1,1.8-4.4,3.6-7.1,4.5c-2.7,0.9-5.7,0.9-8.2-0.5l0.2-0.7
							l20-19.8L233.5,130.9z"/>
					</g>
				</g>
			</g>
			<g>
				<g>
					<g>
						<path class="st8" d="M203.4,178.5c-0.1,0,0.2-0.9,0.5-2.4c0.3-1.5,0.4-3.5,0-5.8c-0.4-2.2-1.2-4.2-1.9-5.4
							c-0.7-1.3-1.3-2-1.2-2.1c0,0,0.7,0.6,1.6,1.9c0.8,1.3,1.7,3.2,2.1,5.6c0.4,2.3,0.2,4.5-0.2,5.9
							C203.9,177.7,203.4,178.5,203.4,178.5z"/>
					</g>
				</g>
			</g>
			<g>
				<g>
					<g>
						<path class="st8" d="M197.6,173.4c-0.1-0.1,1.6-1.9,2.4-4.8c0.8-2.9,0.3-5.3,0.4-5.4c0.1,0,0.3,0.6,0.4,1.6
							c0.1,1,0.1,2.4-0.3,3.9c-0.4,1.5-1.1,2.7-1.7,3.5C198.2,173.1,197.7,173.5,197.6,173.4z"/>
					</g>
				</g>
			</g>
			<g>
				<g>
					<g>
						<path class="st8" d="M234.8,152.8c0.1,0,1,8,1.8,17.8c0.9,9.8,1.5,17.8,1.3,17.9c-0.1,0-1-8-1.8-17.8
							C235.3,160.8,234.7,152.8,234.8,152.8z"/>
					</g>
				</g>
			</g>
			<g>
				<g>
					<g>
						<path class="st8" d="M288.2,122.1c0,0,0.1,0.2,0.2,0.5c0.1,0.4,0.3,0.9,0.4,1.6c0.3,1.4,0.4,3.6-0.1,6.1
							c-0.6,2.5-1.9,5.5-4.4,7.9c-2.5,2.4-6.2,4-10.2,4.1c-4,0.1-7.8-1.3-10.4-3.7c-2.6-2.3-4-5.2-4.7-7.7c-0.6-2.5-0.6-4.7-0.4-6.1
							c0.1-0.7,0.2-1.3,0.4-1.6c0.1-0.4,0.2-0.6,0.2-0.5c0.1,0-0.2,0.8-0.4,2.2c-0.2,1.4-0.2,3.5,0.5,6c0.7,2.4,2.1,5.2,4.7,7.4
							c2.5,2.2,6.2,3.6,10,3.5c3.9-0.1,7.5-1.6,9.9-3.9c2.4-2.3,3.7-5.2,4.3-7.6c0.6-2.5,0.5-4.6,0.3-6
							C288.5,122.9,288.2,122.2,288.2,122.1z"/>
					</g>
				</g>
			</g>
			<g>
				<g>
					<g>
						<path class="st8" d="M346.3,182.4c-0.1,0-0.4-2.8-0.2-6.3c0.2-3.5,0.7-6.2,0.9-6.2c0.1,0-0.2,2.8-0.4,6.2
							C346.5,179.6,346.5,182.4,346.3,182.4z"/>
					</g>
				</g>
			</g>
			<g>
				<g>
					<g>
						<path class="st8" d="M350.3,184.2c-0.1,0-0.4-0.7-0.9-2c-0.4-1.3-1-3.1-1.4-5.1c-0.4-2-0.7-3.9-0.8-5.3
							c-0.1-1.4-0.1-2.2,0-2.2c0.2,0,0.5,3.3,1.3,7.4C349.4,181,350.5,184.1,350.3,184.2z"/>
					</g>
				</g>
			</g>
			<g>
				<g>
					<g>
						<path class="st8" d="M309.9,184.8c-0.1,0-0.5-5.6-0.7-12.6c-0.3-7-0.4-12.6-0.2-12.6c0.1,0,0.5,5.6,0.7,12.6
							C310,179.1,310.1,184.8,309.9,184.8z"/>
					</g>
				</g>
			</g>
		</g>
		<g>
			<g>
				<g>
					<g>
						<g>
							<g>
								<g>
									<g>
										<g>
											<g>
												<path class="st14" d="M274.1,140.8L274.1,140.8c-7.5-0.1-13.6-6.1-13.9-13.6c-0.2-5.5-0.4-10.5-0.4-10.5
													s-11.5-1.2-12.2-12.6c-0.7-11.4,0-37.6,0-37.6l0,0c12.9-6.3,28.2-5.1,40,3.1l1.7,1.2l-0.8,56
													C288.4,134.7,281.9,141,274.1,140.8z"/>
											</g>
										</g>
									</g>
								</g>
							</g>
							<g>
								<g>
									<g>
										<g>
											<g>
												<path class="st18" d="M259.7,116.6c0,0,7.2,0.2,14.6-4.9c0,0-3.1,8.4-14.5,7.9L259.7,116.6z"/>
											</g>
										</g>
									</g>
								</g>
							</g>
						</g>
					</g>
				</g>
				<g>
					<g>
						<g>
							<g>
								<g>
									<g>
										<path class="st14" d="M288.5,82.7c0.2-0.1,7.7-2.7,7.8,5.1c0.1,7.8-7.7,6.3-7.7,6.1C288.6,93.6,288.5,82.7,288.5,82.7z"/>
									</g>
								</g>
							</g>
						</g>
					</g>
					<g>
						<g>
							<g>
								<g>
									<g>
										<g>
											<path class="st18" d="M290.9,90.9c0,0,0.1,0.1,0.4,0.2c0.2,0.1,0.6,0.2,1,0c0.8-0.3,1.5-1.6,1.5-3c0-0.7-0.2-1.4-0.4-1.9
												c-0.2-0.6-0.6-1-1-1c-0.4-0.1-0.7,0.2-0.8,0.4c-0.1,0.2,0,0.4-0.1,0.4c0,0-0.2-0.1-0.1-0.5c0-0.2,0.1-0.3,0.3-0.5
												c0.2-0.2,0.5-0.2,0.7-0.2c0.6,0,1.2,0.6,1.4,1.2c0.3,0.6,0.5,1.4,0.5,2.2c0,1.6-0.8,3.1-1.9,3.4c-0.5,0.2-1,0-1.2-0.2
												C291,91.1,290.9,90.9,290.9,90.9z"/>
										</g>
									</g>
								</g>
							</g>
						</g>
					</g>
				</g>
				<g>
					<g>
						<g>
							<g>
								<g>
									<g>
										<g>
											<g>
												<g>
													<g>
														<g>
															<path class="st4" d="M253,83.7c0,0.9,0.7,1.6,1.6,1.6c0.9,0,1.6-0.6,1.7-1.5c0-0.9-0.7-1.6-1.6-1.6
																C253.8,82.2,253.1,82.9,253,83.7z"/>
														</g>
													</g>
												</g>
											</g>
										</g>
										<g>
											<g>
												<g>
													<g>
														<g>
															<g>
																<path class="st4" d="M251.1,82.1c0.2,0.2,1.4-0.7,3.2-0.7c1.7,0,3,0.9,3.2,0.7c0.1-0.1-0.1-0.5-0.7-0.9
																	c-0.6-0.4-1.5-0.8-2.6-0.8c-1.1,0-2,0.4-2.5,0.8C251.1,81.6,251,82,251.1,82.1z"/>
															</g>
														</g>
													</g>
												</g>
											</g>
										</g>
									</g>
									<g>
										<g>
											<g>
												<g>
													<g>
														<g>
															<path class="st4" d="M269.9,83.9c0,0.9,0.7,1.6,1.6,1.6c0.9,0,1.6-0.6,1.7-1.5c0-0.9-0.7-1.6-1.6-1.6
																C270.6,82.4,269.9,83.1,269.9,83.9z"/>
														</g>
													</g>
												</g>
											</g>
										</g>
										<g>
											<g>
												<g>
													<g>
														<g>
															<g>
																<path class="st4" d="M268.3,82.4c0.2,0.2,1.4-0.7,3.2-0.7c1.7,0,3,0.9,3.2,0.7c0.1-0.1-0.1-0.5-0.7-0.9
																	c-0.6-0.4-1.5-0.8-2.6-0.8c-1.1,0-2,0.4-2.5,0.8C268.4,82,268.2,82.4,268.3,82.4z"/>
															</g>
														</g>
													</g>
												</g>
											</g>
										</g>
									</g>
									<g>
										<g>
											<g>
												<g>
													<g>
														<g>
															<path class="st4" d="M261.9,95.4c0-0.1-1.1-0.3-2.8-0.5c-0.4,0-0.9-0.1-0.9-0.4c-0.1-0.3,0.1-0.8,0.3-1.3
																c0.4-1.1,0.9-2.2,1.3-3.4c1.8-4.8,3.2-8.8,3-8.9c-0.2-0.1-1.8,3.8-3.7,8.6c-0.4,1.2-0.9,2.3-1.3,3.4
																c-0.2,0.5-0.5,1.1-0.2,1.8c0.1,0.3,0.4,0.6,0.7,0.7c0.3,0.1,0.5,0.1,0.8,0.1C260.8,95.5,261.9,95.5,261.9,95.4z"/>
														</g>
													</g>
												</g>
											</g>
										</g>
									</g>
									<g>
										<g>
											<g>
												<g>
													<g>
														<g>
															<path class="st4" d="M267.1,96.6c-0.3,0-0.3,1.9-1.9,3.2c-1.6,1.4-3.7,1.1-3.7,1.4c0,0.1,0.5,0.4,1.3,0.4
																c0.8,0,2.1-0.2,3.1-1.1c1-0.8,1.4-1.9,1.5-2.7C267.4,97.1,267.2,96.6,267.1,96.6z"/>
														</g>
													</g>
												</g>
											</g>
										</g>
									</g>
								</g>
							</g>
						</g>
						<g>
							<g>
								<g>
									<g>
										<g>
											<path class="st4" d="M267.8,75.6c0.2,0.5,1.9,0.3,4,0.5c2.1,0.2,3.7,0.8,4,0.4c0.1-0.2-0.2-0.7-0.8-1.1
												c-0.7-0.5-1.7-0.9-3-1c-1.2-0.1-2.4,0.1-3.1,0.4C268.1,75,267.7,75.4,267.8,75.6z"/>
										</g>
									</g>
								</g>
							</g>
						</g>
						<g>
							<g>
								<g>
									<g>
										<g>
											<path class="st4" d="M251.7,77.1c0.3,0.4,1.5,0,3,0c1.4-0.1,2.7,0.3,3-0.1c0.1-0.2-0.1-0.6-0.6-1
												c-0.5-0.4-1.4-0.7-2.4-0.7c-1,0-1.9,0.4-2.4,0.8C251.7,76.4,251.6,76.9,251.7,77.1z"/>
										</g>
									</g>
								</g>
							</g>
						</g>
					</g>
				</g>
			</g>
			<g>
				<g>
					<g>
						<path class="st4" d="M241.8,59c-0.1-1.4,0.4-2.9,1.6-3.8c1.1-0.8,2.9-0.8,3.9,0.3c-0.5-1.9,1-4.1,3-4.2
							c1.9-0.1,3.4,1.3,5.2,1.8c1.8,0.5,3.6,0.1,5.3-0.6c1.7-0.7,3.3-1.6,5-2.2c3.6-1.3,7.6-1.1,11.1,0.4c3.4,1.6,6.2,4.6,7.6,8.1
							c2.5-0.8,5.3,0.5,6.9,2.6c1.5,2.1,1.9,4.9,1.6,7.5c-0.2,1.8-0.7,3.4-1.3,5.1c0,0.1,0,0.3,0,0.4c-0.1,6.3-0.8,13.6-3.5,13.7
							c-4.7,0.1-3.5-8.7-3.5-8.7c-5.7-2.2-3.6-10.8-5-12.1c-1.4-1.3-4.4-4.3-16.4,1.8c-4.6,2.4-10.8,2.3-14.2,1.5
							c-0.1,0-0.2,0-0.3-0.1c0,0,0,0-0.1,0c0,0-0.1,0-0.1,0c-1.1-0.3-2.1-0.7-3.1-1.3c-1.1-0.7-2.1-1.6-2.5-2.8
							c-0.5-1.2-0.3-2.7,0.7-3.6C242.6,61.7,241.9,60.4,241.8,59z"/>
					</g>
				</g>
			</g>
		</g>
	</g>
</g>
</svg>
