<?xml version="1.0" encoding="utf-8"?>
<!-- Generator: Adobe Illustrator 25.2.1, SVG Export Plug-In . SVG Version: 6.00 Build 0)  -->
<svg version="1.1" id="Layer_1" xmlns="http://www.w3.org/2000/svg" xmlns:xlink="http://www.w3.org/1999/xlink" x="0px" y="0px"
	 viewBox="0 0 700 590" style="enable-background:new 0 0 700 590;" xml:space="preserve">
<style type="text/css">
	.st0{fill:url(#SVGID_1_);}
	.st1{opacity:0.9;fill:#E9E9E9;enable-background:new    ;}
	.st2{fill:#F2F1FF;}
	.st3{fill:#1976D2;}
	.st4{fill:url(#SVGID_2_);}
	.st5{fill:url(#SVGID_3_);}
	.st6{fill:url(#SVGID_4_);}
	.st7{fill:url(#SVGID_5_);}
	.st8{fill:url(#SVGID_6_);}
	.st9{opacity:0.6;}
	.st10{fill-opacity:0;}
	.st11{opacity:2.816901e-03;enable-background:new    ;}
	.st12{opacity:5.633803e-03;enable-background:new    ;}
	.st13{opacity:8.450705e-03;enable-background:new    ;}
	.st14{opacity:1.126761e-02;enable-background:new    ;}
	.st15{opacity:1.408451e-02;enable-background:new    ;}
	.st16{opacity:1.690141e-02;enable-background:new    ;}
	.st17{opacity:1.971831e-02;enable-background:new    ;}
	.st18{opacity:2.253521e-02;enable-background:new    ;}
	.st19{opacity:2.535211e-02;enable-background:new    ;}
	.st20{opacity:2.816901e-02;enable-background:new    ;}
	.st21{opacity:3.098592e-02;enable-background:new    ;}
	.st22{opacity:3.380282e-02;enable-background:new    ;}
	.st23{opacity:3.661972e-02;enable-background:new    ;}
	.st24{opacity:3.943662e-02;enable-background:new    ;}
	.st25{opacity:4.225352e-02;enable-background:new    ;}
	.st26{opacity:4.507042e-02;enable-background:new    ;}
	.st27{opacity:4.788733e-02;enable-background:new    ;}
	.st28{opacity:5.070423e-02;enable-background:new    ;}
	.st29{opacity:5.352113e-02;enable-background:new    ;}
	.st30{opacity:5.633803e-02;enable-background:new    ;}
	.st31{opacity:5.915493e-02;enable-background:new    ;}
	.st32{opacity:6.197183e-02;enable-background:new    ;}
	.st33{opacity:6.478873e-02;enable-background:new    ;}
	.st34{opacity:6.760564e-02;enable-background:new    ;}
	.st35{opacity:7.042254e-02;enable-background:new    ;}
	.st36{opacity:7.323944e-02;enable-background:new    ;}
	.st37{opacity:7.605634e-02;enable-background:new    ;}
	.st38{opacity:7.887324e-02;enable-background:new    ;}
	.st39{opacity:8.169014e-02;enable-background:new    ;}
	.st40{opacity:8.450704e-02;enable-background:new    ;}
	.st41{opacity:8.732394e-02;enable-background:new    ;}
	.st42{opacity:9.014084e-02;enable-background:new    ;}
	.st43{opacity:9.295775e-02;enable-background:new    ;}
	.st44{opacity:9.577465e-02;enable-background:new    ;}
	.st45{opacity:9.859155e-02;enable-background:new    ;}
	.st46{opacity:0.1014;enable-background:new    ;}
	.st47{opacity:0.1042;enable-background:new    ;}
	.st48{opacity:0.107;enable-background:new    ;}
	.st49{opacity:0.1099;enable-background:new    ;}
	.st50{opacity:0.1127;enable-background:new    ;}
	.st51{opacity:0.1155;enable-background:new    ;}
	.st52{opacity:0.1183;enable-background:new    ;}
	.st53{opacity:0.1211;enable-background:new    ;}
	.st54{opacity:0.1239;enable-background:new    ;}
	.st55{opacity:0.1268;enable-background:new    ;}
	.st56{opacity:0.1296;enable-background:new    ;}
	.st57{opacity:0.1324;enable-background:new    ;}
	.st58{opacity:0.1352;enable-background:new    ;}
	.st59{opacity:0.138;enable-background:new    ;}
	.st60{opacity:0.1408;enable-background:new    ;}
	.st61{opacity:0.1437;enable-background:new    ;}
	.st62{opacity:0.1465;enable-background:new    ;}
	.st63{opacity:0.1493;enable-background:new    ;}
	.st64{opacity:0.1521;enable-background:new    ;}
	.st65{opacity:0.1549;enable-background:new    ;}
	.st66{opacity:0.1577;enable-background:new    ;}
	.st67{opacity:0.1606;enable-background:new    ;}
	.st68{opacity:0.1634;enable-background:new    ;}
	.st69{opacity:0.1662;enable-background:new    ;}
	.st70{opacity:0.169;enable-background:new    ;}
	.st71{opacity:0.1718;enable-background:new    ;}
	.st72{opacity:0.1746;enable-background:new    ;}
	.st73{opacity:0.1775;enable-background:new    ;}
	.st74{opacity:0.1803;enable-background:new    ;}
	.st75{opacity:0.1831;enable-background:new    ;}
	.st76{opacity:0.1859;enable-background:new    ;}
	.st77{opacity:0.1887;enable-background:new    ;}
	.st78{opacity:0.1915;enable-background:new    ;}
	.st79{opacity:0.1944;enable-background:new    ;}
	.st80{opacity:0.1972;enable-background:new    ;}
	.st81{opacity:0.2;enable-background:new    ;}
	.st82{fill:url(#SVGID_7_);}
	.st83{clip-path:url(#SVGID_9_);fill:#1565C0;}
	.st84{clip-path:url(#SVGID_12_);fill:#1565C0;}
	.st85{fill:url(#SVGID_13_);}
	.st86{fill:#B5BFC7;}
	.st87{fill:url(#SVGID_14_);}
	.st88{clip-path:url(#SVGID_16_);}
	.st89{fill:url(#SVGID_17_);}
	.st90{fill:url(#SVGID_18_);}
	.st91{fill:url(#SVGID_19_);}
	.st92{fill:#1565C0;}
	.st93{fill:url(#SVGID_20_);}
	.st94{fill:url(#SVGID_21_);}
	.st95{fill:url(#SVGID_22_);}
	.st96{fill:url(#SVGID_23_);}
	.st97{fill:url(#SVGID_24_);}
	.st98{fill:#FFFEFF;}
	.st99{fill:url(#SVGID_25_);}
	.st100{opacity:0.9;fill:url(#SVGID_26_);enable-background:new    ;}
	.st101{opacity:0.9;fill:url(#SVGID_27_);enable-background:new    ;}
	.st102{fill-rule:evenodd;clip-rule:evenodd;fill:#FFFFFF;}
</style>
<g>
	
		<linearGradient id="SVGID_1_" gradientUnits="userSpaceOnUse" x1="255.8" y1="523.75" x2="373" y2="523.75" gradientTransform="matrix(1 0 0 -1 0 590)">
		<stop  offset="6.012090e-02" style="stop-color:#F3F7FF"/>
		<stop  offset="0.1229" style="stop-color:#EBEFF6"/>
		<stop  offset="0.27" style="stop-color:#DDE2E6"/>
		<stop  offset="0.3866" style="stop-color:#D8DDE1"/>
		<stop  offset="0.5335" style="stop-color:#E3E8EE"/>
		<stop  offset="0.7606" style="stop-color:#EFF3FB"/>
		<stop  offset="0.9699" style="stop-color:#F3F7FF"/>
	</linearGradient>
	<path class="st0" d="M369.3,78.7H259.5c-2,0-3.7-1.7-3.7-3.7V57.5c0-2,1.7-3.7,3.7-3.7h109.8c2,0,3.7,1.7,3.7,3.7V75
		C373,77,371.3,78.7,369.3,78.7z"/>
	<g>
		<g>
			<path class="st1" d="M605.5,405.1H98c-7.1,0-12.9-5.8-12.9-12.9V156.6c0-7.1,5.8-12.9,12.9-12.9h507.5c7.1,0,12.9,5.8,12.9,12.9
				v235.5C618.4,399.3,612.7,405.1,605.5,405.1z"/>
			<path class="st2" d="M587.9,146.7H115.7c-14.3,0-25.9,11.6-25.9,25.9v89.2c0,3.7,2.4,7,5.9,8.2l0,0c1.9,0.6,3.1,2.4,3.1,4.4l0,0
				c0,2-1.2,3.7-3.1,4.4l0,0c-3.5,1.2-5.9,4.5-5.9,8.2v89.2c0,14.3,11.6,25.9,25.9,25.9h472.2c14.3,0,25.9-11.6,25.9-25.9V172.6
				C613.8,158.3,602.2,146.7,587.9,146.7z"/>
			<g>
				<g>
					<path class="st3" d="M429.3,146.7H115.7c-14.3,0-25.9,11.6-25.9,25.9v89.2c0,3.7,2.4,7,5.9,8.2c1.9,0.6,3.1,2.4,3.1,4.4l0,0
						c0,2-1.2,3.7-3.1,4.4l0,0c-3.5,1.2-5.9,4.5-5.9,8.2v89.2c0,14.3,11.6,25.9,25.9,25.9h313.6V146.7z"/>
				</g>
			</g>
		</g>
	</g>
	<g>
		<g>
			<g>
				<g>
					<g>
						<path class="st1" d="M517.5,245.5h-69.8c-2,0-3.7-1.7-3.7-3.7v-49.7c0-2,1.7-3.7,3.7-3.7h69.8c2,0,3.7,1.7,3.7,3.7v49.7
							C521.2,243.8,519.5,245.5,517.5,245.5z"/>
					</g>
					<g>
						<path class="st1" d="M591,202h-50.2c-2,0-3.7-1.7-3.7-3.7s1.7-3.7,3.7-3.7H591c2,0,3.7,1.7,3.7,3.7S593.1,202,591,202z"/>
					</g>
					<g>
						<path class="st1" d="M591,220.6h-50.2c-2,0-3.7-1.7-3.7-3.7s1.7-3.7,3.7-3.7H591c2,0,3.7,1.7,3.7,3.7
							C594.7,219,593.1,220.6,591,220.6z"/>
					</g>
					<g>
						<path class="st1" d="M566.7,239.3h-25.9c-2,0-3.7-1.7-3.7-3.7s1.7-3.7,3.7-3.7h25.9c2,0,3.7,1.7,3.7,3.7
							C570.4,237.7,568.7,239.3,566.7,239.3z"/>
					</g>
				</g>
			</g>
		</g>
		<g>
			<g>
				<g>
					<g>
						<path class="st1" d="M517.5,316.6h-69.8c-2,0-3.7-1.7-3.7-3.7v-49.7c0-2,1.7-3.7,3.7-3.7h69.8c2,0,3.7,1.7,3.7,3.7v49.7
							C521.2,314.9,519.5,316.6,517.5,316.6z"/>
					</g>
					<g>
						<path class="st1" d="M591,273.1h-50.2c-2,0-3.7-1.7-3.7-3.7s1.7-3.7,3.7-3.7H591c2,0,3.7,1.7,3.7,3.7S593.1,273.1,591,273.1z"
							/>
					</g>
					<g>
						<path class="st1" d="M591,291.8h-50.2c-2,0-3.7-1.7-3.7-3.7s1.7-3.7,3.7-3.7H591c2,0,3.7,1.7,3.7,3.7
							C594.7,290.1,593.1,291.8,591,291.8z"/>
					</g>
					<g>
						<path class="st1" d="M566.7,310.4h-25.9c-2,0-3.7-1.7-3.7-3.7s1.7-3.7,3.7-3.7h25.9c2,0,3.7,1.7,3.7,3.7
							C570.4,308.8,568.7,310.4,566.7,310.4z"/>
					</g>
				</g>
			</g>
		</g>
		<g>
			<g>
				<g>
					<g>
						<path class="st1" d="M517.5,387.7h-69.8c-2,0-3.7-1.7-3.7-3.7v-49.7c0-2,1.7-3.7,3.7-3.7h69.8c2,0,3.7,1.7,3.7,3.7V384
							C521.2,386,519.5,387.7,517.5,387.7z"/>
					</g>
					<g>
						<path class="st1" d="M591,344.2h-50.2c-2,0-3.7-1.7-3.7-3.7s1.7-3.7,3.7-3.7H591c2,0,3.7,1.7,3.7,3.7S593.1,344.2,591,344.2z"
							/>
					</g>
					<g>
						<path class="st1" d="M591,362.9h-50.2c-2,0-3.7-1.7-3.7-3.7s1.7-3.7,3.7-3.7H591c2,0,3.7,1.7,3.7,3.7
							C594.7,361.2,593.1,362.9,591,362.9z"/>
					</g>
					<g>
						<path class="st1" d="M566.7,381.6h-25.9c-2,0-3.7-1.7-3.7-3.7s1.7-3.7,3.7-3.7h25.9c2,0,3.7,1.7,3.7,3.7
							S568.7,381.6,566.7,381.6z"/>
					</g>
				</g>
			</g>
		</g>
	</g>
	<path class="st3" d="M461.8,364.9c0,7.6-6.2,13.8-13.8,13.8c-7.6,0-13.8-6.2-13.8-13.8c0-7.6,6.2-13.8,13.8-13.8
		C455.6,351,461.8,357.2,461.8,364.9z"/>
	<g>
		<g>
			<g>
				<g>
					<path class="st3" d="M650.9,224.3C650.9,224.2,650.9,224.2,650.9,224.3c0-0.2,0-0.7-0.2-1.6c0-0.1,0-0.2,0-0.2
						c0-0.1,0-0.2-0.1-0.3c-0.5-2.8-1.5-5.5-2.9-7.8l0,0c-0.2-0.3-0.3-0.5-0.5-0.8l0,0c-0.8-1.2-1.7-2.3-2.8-3.3
						c-0.5-0.5-1.1-1-1.6-1.4c-0.3-0.3-0.7-0.5-1.1-0.8c0,0,0,0-0.1,0l0,0c-0.1,0-0.1-0.1-0.2-0.1c-0.2-0.2-0.5-0.3-0.8-0.5l0,0l0,0
						c-0.1-0.1-0.3-0.2-0.4-0.3c-0.1,0-0.1-0.1-0.2-0.1c-0.1,0-0.1-0.1-0.2-0.1c0,0-0.1,0-0.1-0.1c-0.8-0.5-1.7-0.9-2.6-1.2
						c-0.2-0.1-0.4-0.2-0.5-0.2l-0.2-0.1l-0.2-0.1l0,0l0,0c-0.1,0-0.2-0.1-0.3-0.1l0,0l0,0l-0.2-0.1c-0.1,0-0.2-0.1-0.2-0.1
						l-0.2-0.1h-0.1l0,0l0,0c0,0,0,0-0.1,0l-0.2-0.1c-0.1,0-0.1,0-0.2,0c-0.1,0-0.1,0-0.2,0l0,0h-0.1c-0.1,0-0.2,0-0.2-0.1H634
						c-0.1,0-0.1,0-0.2,0l0,0c-0.1,0-0.1,0-0.2,0h-0.1h-0.1l0,0l0,0c0,0,0,0-0.1,0s-0.1,0-0.2,0H633l0,0c-0.1,0-0.1,0-0.2,0h-0.2
						h-0.1c-0.1,0-0.1,0-0.2,0c-0.1,0-0.1,0-0.1,0c-0.1,0-0.2,0-0.2,0h-0.2c0,0,0,0-0.1,0l0,0c-0.1,0-0.1,0-0.2,0
						c-0.1,0-0.2,0-0.3,0s-0.1,0-0.2,0c-0.1,0-0.2,0-0.2,0c-0.1,0-0.2,0-0.2,0c-0.1,0-0.1,0-0.1,0h-0.1h-0.1h-0.1
						c-0.4,0-0.9,0-1.3,0c-0.1,0-0.2,0-0.3,0s-0.2,0-0.3,0s-0.1,0-0.2,0c-0.1,0-0.3,0-0.4,0h-0.1c-0.2,0-0.4,0-0.6,0.1
						c-0.1,0-0.2,0-0.3,0l0,0l0,0c0,0,0,0-0.1,0s-0.3,0-0.4,0.1c-0.1,0-0.2,0-0.3,0.1c-0.2,0-0.4,0.1-0.5,0.1
						c-0.6,0.1-1.2,0.3-1.8,0.5c-0.4,0.1-0.7,0.2-1.1,0.4c-1.7,0.6-3.3,1.4-4.7,2.4l0,0l0,0c-0.1,0.1-0.3,0.2-0.4,0.3c0,0,0,0-0.1,0
						c-0.3,0.2-0.5,0.4-0.7,0.6c0,0,0,0-0.1,0l0,0l0,0l0,0l0,0c-0.1,0.1-0.1,0.1-0.2,0.2c-0.1,0.1-0.3,0.2-0.4,0.3
						c-0.1,0.1-0.1,0.1-0.2,0.2c-0.1,0.1-0.3,0.2-0.4,0.4l0,0l0,0l-0.1,0.1c-0.7,0.6-1.1,1.1-1.1,1.1c-0.2,0.2-0.4,0.5-0.6,0.7
						c-0.1,0.2-0.3,0.3-0.4,0.5l0,0l0,0c-0.3,0.4-0.6,0.8-1,1.3l0,0l0,0l0,0c-0.2,0.2-0.3,0.5-0.5,0.8c-0.1,0.2-0.3,0.5-0.4,0.7
						l-0.4,0.8c-0.1,0.3-0.3,0.5-0.4,0.7c-0.2,0.4-0.4,1-0.7,1.6l0,0l0,0c-0.2,0.5-0.4,1.1-0.5,1.7l0,0l0,0
						c-0.2,0.7-0.4,1.4-0.4,1.9c-0.3,2-0.3,2.2-0.3,3.5c0,1.7,0.2,2.8,0.2,3.4c0.2,1.6,0.6,2.9,0.8,3.3c0.5,1.5,0.9,2.3,1.3,3.1
						c0.2,0.5,0.4,0.9,0.7,1.3c0.3,0.5,0.6,1,1,1.5c0,0.1,0.1,0.1,0.1,0.2c0.3,0.5,0.8,1.2,1.3,1.6c0.3,0.3,0.7,0.8,1,1.1
						s0.8,0.7,1.1,1l0,0c0.4,0.3,0.5,0.5,0.9,0.7c0.4,0.3,0.9,0.7,1.3,1l0,0c0.1,0.1,0.3,0.2,0.4,0.3c0.2,0.1,0.3,0.2,0.5,0.3
						c0.1,0,0.2,0.1,0.3,0.2c0,0,0,0,0.1,0c0.1,0.1,0.3,0.2,0.5,0.3c0,0,0.1,0,0.1,0.1c0.5,0.3,1.2,0.6,1.9,0.9
						c0.2,0.1,0.4,0.1,0.6,0.2c0.1,0,0.1,0.1,0.2,0.1l0.4,0.1c0.1,0,0.2,0.1,0.3,0.1h0.1l0,0h0.1c0.1,0,0.2,0.1,0.2,0.1l0.2,0.1l0,0
						c0.9,0.3,1.8,0.4,2.7,0.6h0.1c0.1,0,0.2,0,0.2,0l0,0c0.1,0,0.1,0,0.2,0l0.5,0.1c0.2,0,0.5,0,0.7,0.1c0.2,0,0.4,0,0.7,0l0,0l0,0
						c0.1,0,0.2,0,0.3,0c0.3,0,0.7,0,1,0s0.7,0,1-0.1c0.6-0.1,1.5-0.2,2.1-0.3c0.5-0.1,1.2-0.2,1.7-0.4c0.1,0,0.3-0.1,0.4-0.1
						c0.4-0.1,0.8-0.2,1.1-0.3l0.4-0.1c0.3-0.1,0.6-0.2,0.9-0.4l0.2-0.1c0.4-0.1,0.8-0.3,1.2-0.5c0.2-0.1,0.3-0.2,0.5-0.3
						c0.4-0.2,1-0.5,1.4-0.8l0,0c0.4-0.2,0.7-0.5,1.1-0.7c0.1-0.1,0.2-0.1,0.2-0.2l0.4-0.3c0.1-0.1,0.2-0.2,0.3-0.2l0.6-0.5
						c0.2-0.2,0.6-0.5,1.2-1.1l0,0l0.1-0.1c0.3-0.3,0.7-0.7,1.1-1.2l0,0l0,0c0.4-0.5,1.1-1.3,1.8-2.5l0,0c0.2-0.3,0.3-0.6,0.5-0.9
						l0,0l0,0c0.1-0.1,0.1-0.3,0.2-0.4c0.1-0.2,0.2-0.4,0.3-0.5c0-0.1,0.1-0.1,0.1-0.2c0.1-0.3,0.3-0.6,0.4-0.9
						c0.2-0.4,0.4-0.9,0.5-1.2l0,0c0.2-0.6,0.4-1.3,0.6-2c0.1-0.4,0.2-0.9,0.3-1.3c0.1-0.4,0.2-0.9,0.2-1.3c0-0.1,0-0.2,0-0.3
						c0.1-0.6,0.1-1.3,0.1-1.9c0,0,0,0,0-0.1l0,0C651,225.3,651,224.8,650.9,224.3z"/>
					<g>
						<g>
							<path id="SVGID_10_" class="st3" d="M607.9,224.5L607.9,224.5c0-0.2,0-0.7,0.1-1.6c0-0.1,0-0.2,0-0.2c0-0.1,0-0.2,0-0.3
								c0.4-2.8,1.4-5.5,2.8-7.9l0,0c0.2-0.3,0.3-0.5,0.5-0.8l0,0c0.8-1.2,1.7-2.3,2.7-3.4c0.5-0.5,1.1-1,1.6-1.4
								c0.3-0.3,0.7-0.6,1.1-0.8c0,0,0,0,0.1,0l0,0c0.1,0,0.1-0.1,0.2-0.1c0.2-0.2,0.5-0.3,0.8-0.5l0,0l0,0c0.1-0.1,0.3-0.2,0.4-0.3
								c0.1,0,0.1-0.1,0.2-0.1c0.1,0,0.1-0.1,0.2-0.1c0,0,0.1,0,0.1-0.1c0.8-0.5,1.7-0.9,2.6-1.3c0.2-0.1,0.4-0.2,0.5-0.2l0.2-0.1
								l0.2-0.1l0,0l0,0c0.1,0,0.2-0.1,0.3-0.1l0,0l0,0l0.2-0.1c0.1,0,0.2-0.1,0.2-0.1l0.2-0.1h0.1l0,0l0,0c0,0,0,0,0.1,0l0.2-0.1
								c0.1,0,0.1,0,0.2-0.1c0.1,0,0.1,0,0.2,0l0,0h0.1c0.1,0,0.2,0,0.2-0.1h0.2c0.1,0,0.1,0,0.2,0l0,0c0.1,0,0.1,0,0.2,0h0.1h0.1
								l0,0l0,0c0,0,0,0,0.1,0s0.1,0,0.2,0h0.1l0,0c0.1,0,0.1,0,0.2,0h0.2h0.1c0.1,0,0.1,0,0.2,0c0.1,0,0.1,0,0.1,0
								c0.1,0,0.2,0,0.2,0h0.2c0,0,0,0,0.1,0l0,0c0.1,0,0.1,0,0.2,0c0.1,0,0.2,0,0.3,0s0.1,0,0.2,0c0.1,0,0.2,0,0.2,0
								c0.1,0,0.2,0,0.2,0c0.1,0,0.1,0,0.1,0h0.1h0.1h0.1c0.4,0,0.9,0,1.3,0c0.1,0,0.2,0,0.3,0s0.2,0,0.3,0s0.1,0,0.2,0
								c0.1,0,0.3,0,0.4,0h0.1c0.2,0,0.4,0,0.6,0.1c0.1,0,0.2,0,0.3,0l0,0l0,0c0,0,0,0,0.1,0s0.3,0,0.4,0.1c0.1,0,0.2,0,0.3,0
								c0.2,0,0.4,0.1,0.5,0.1c0.6,0.1,1.2,0.3,1.9,0.4c0.4,0.1,0.7,0.2,1.1,0.3c1.7,0.6,3.3,1.4,4.8,2.3l0,0l0,0
								c0.1,0.1,0.3,0.2,0.4,0.3c0,0,0,0,0.1,0c0.3,0.2,0.5,0.4,0.8,0.5c0,0,0,0,0.1,0l0,0l0,0l0,0l0,0c0.1,0.1,0.1,0.1,0.2,0.2
								c0.1,0.1,0.3,0.2,0.4,0.3c0.1,0.1,0.1,0.1,0.2,0.2c0.1,0.1,0.3,0.2,0.4,0.4l0,0l0,0l0.1,0.1c0.7,0.6,1.1,1.1,1.1,1.1
								c0.2,0.2,0.4,0.5,0.6,0.7c0.1,0.2,0.3,0.3,0.4,0.5l0,0l0,0c0.3,0.4,0.6,0.8,1,1.3l0,0l0,0l0,0c0.2,0.2,0.3,0.5,0.5,0.8
								c0.1,0.2,0.3,0.5,0.4,0.7l0.4,0.8c0.1,0.3,0.3,0.5,0.4,0.7c0.2,0.4,0.5,1,0.7,1.6l0,0l0,0c0.2,0.5,0.4,1.1,0.5,1.7l0,0l0,0
								c0.2,0.7,0.4,1.4,0.5,1.9c0.3,2,0.3,2.1,0.4,3.5c0,1.7-0.1,2.8-0.2,3.4c-0.2,1.6-0.6,2.9-0.7,3.3c-0.4,1.5-0.8,2.3-1.2,3.2
								c-0.2,0.5-0.4,0.9-0.7,1.3c-0.3,0.5-0.6,1-0.9,1.5c0,0.1-0.1,0.1-0.1,0.2c-0.3,0.5-0.8,1.2-1.2,1.6c-0.3,0.3-0.7,0.8-1,1.1
								s-0.7,0.7-1.1,1l0,0c-0.4,0.3-0.5,0.5-0.9,0.7c-0.4,0.3-0.9,0.7-1.3,1l0,0c-0.1,0.1-0.3,0.2-0.4,0.3
								c-0.2,0.1-0.3,0.2-0.5,0.3c-0.1,0-0.2,0.1-0.3,0.2c0,0,0,0-0.1,0c-0.1,0.1-0.3,0.2-0.5,0.3c0,0-0.1,0-0.1,0.1
								c-0.5,0.3-1.2,0.6-1.9,0.9c-0.2,0.1-0.4,0.2-0.6,0.3c-0.1,0-0.1,0.1-0.2,0.1l-0.4,0.1c-0.1,0-0.2,0.1-0.3,0.1h-0.1l0,0h-0.1
								c-0.1,0-0.2,0.1-0.2,0.1l-0.2,0.1l0,0c-0.9,0.3-1.8,0.5-2.7,0.6h-0.1c-0.1,0-0.2,0-0.2,0l0,0c-0.1,0-0.1,0-0.2,0l-0.5,0.1
								c-0.2,0-0.5,0-0.7,0.1c-0.2,0-0.4,0-0.7,0l0,0l0,0c-0.1,0-0.2,0-0.3,0c-0.3,0-0.7,0-1,0s-0.7,0-1,0c-0.6-0.1-1.5-0.1-2.1-0.2
								c-0.5-0.1-1.2-0.2-1.7-0.3c-0.1,0-0.3-0.1-0.4-0.1c-0.4-0.1-0.8-0.2-1.1-0.3l-0.4-0.1c-0.3-0.1-0.6-0.2-0.9-0.3l-0.2-0.1
								c-0.4-0.1-0.8-0.3-1.2-0.5c-0.2-0.1-0.3-0.2-0.5-0.2c-0.4-0.2-1-0.5-1.4-0.8l0,0c-0.4-0.2-0.7-0.5-1.1-0.7
								c-0.1-0.1-0.2-0.1-0.2-0.2l-0.4-0.3c-0.1-0.1-0.2-0.2-0.3-0.2l-0.6-0.5c-0.2-0.2-0.6-0.5-1.2-1.1l0,0l-0.1-0.1
								c-0.3-0.3-0.7-0.7-1.1-1.2l0,0l0,0c-0.4-0.5-1.1-1.3-1.8-2.4l0,0c-0.2-0.3-0.3-0.5-0.5-0.8l0,0l0,0c-0.1-0.1-0.1-0.3-0.2-0.4
								c-0.1-0.2-0.2-0.4-0.3-0.5c0-0.1-0.1-0.1-0.1-0.2c-0.1-0.3-0.3-0.6-0.4-0.9c-0.2-0.4-0.4-0.8-0.5-1.2l0,0
								c-0.2-0.6-0.5-1.3-0.6-2c-0.1-0.4-0.2-0.9-0.3-1.3c-0.1-0.4-0.2-0.9-0.2-1.3c0-0.1,0-0.2,0-0.3c-0.1-0.6-0.1-1.3-0.1-1.9
								c0,0,0,0,0-0.1l0,0C607.9,225.6,607.9,225.1,607.9,224.5z"/>
						</g>
					</g>
				</g>
			</g>
		</g>
	</g>
	<g>
		<g>
			<g>
				
					<radialGradient id="SVGID_2_" cx="280.3862" cy="140.8858" r="6.4618" gradientTransform="matrix(1 -6.200000e-03 -6.200000e-03 -1 16.2523 577.6273)" gradientUnits="userSpaceOnUse">
					<stop  offset="0.7008" style="stop-color:#D1EDDE"/>
					<stop  offset="0.7875" style="stop-color:#D5EFE1"/>
					<stop  offset="0.878" style="stop-color:#E2F4EA"/>
					<stop  offset="0.9698" style="stop-color:#F6FCF9"/>
					<stop  offset="1" style="stop-color:#FFFFFF"/>
				</radialGradient>
				<path class="st4" d="M301.1,434.2L301.1,434.2c0,0,0-0.2,0-0.4c0,0,0,0,0-0.1v-0.1c-0.1-0.8-0.4-1.5-0.8-2.1l0,0
					c0-0.1-0.1-0.1-0.1-0.2l0,0c-0.2-0.3-0.5-0.6-0.8-0.9c-0.1-0.1-0.3-0.3-0.4-0.4s-0.2-0.1-0.3-0.2l0,0l0,0c0,0,0,0-0.1,0
					s-0.1-0.1-0.2-0.1l0,0l0,0c0,0-0.1,0-0.1-0.1c0,0,0,0-0.1,0l0,0l0,0c-0.2-0.1-0.5-0.2-0.7-0.3c-0.1,0-0.1,0-0.1-0.1l0,0l0,0l0,0
					l0,0h-0.1l0,0l0,0l0,0c0,0,0,0-0.1,0h-0.1l0,0l0,0l0,0l0,0H297c0,0,0,0-0.1,0c0,0,0,0-0.1,0l0,0l0,0c0,0,0,0-0.1,0l0,0
					c0,0,0,0-0.1,0l0,0l0,0l0,0l0,0l0,0l0,0l0,0l0,0l0,0l0,0c0,0,0,0-0.1,0l0,0l0,0l0,0l0,0c0,0,0,0-0.1,0h-0.1l0,0l0,0
					c0,0,0,0-0.1,0h-0.1c0,0,0,0-0.1,0c0,0,0,0-0.1,0c0,0,0,0-0.1,0l0,0l0,0l0,0l0,0c-0.1,0-0.2,0-0.4,0h-0.1h-0.1l0,0h-0.1l0,0
					c-0.1,0-0.1,0-0.2,0c0,0,0,0-0.1,0l0,0l0,0l0,0h-0.1h-0.1c-0.1,0-0.1,0-0.1,0c-0.2,0-0.3,0.1-0.5,0.1c-0.1,0-0.2,0.1-0.3,0.1
					c-0.5,0.2-0.9,0.4-1.3,0.7l0,0l0,0l-0.1,0.1l0,0c-0.1,0-0.1,0.1-0.2,0.2l0,0l0,0l0,0l0,0l0,0c0,0,0,0-0.1,0l-0.1,0.1
					c0,0,0,0-0.1,0.1l-0.1,0.1l0,0l0,0l0,0c-0.2,0.2-0.3,0.3-0.3,0.3c-0.1,0.1-0.1,0.1-0.2,0.2l-0.1,0.1l0,0l0,0
					c-0.1,0.1-0.2,0.2-0.3,0.4l0,0l0,0l0,0c0,0.1-0.1,0.1-0.1,0.2s-0.1,0.1-0.1,0.2l-0.1,0.2c0,0.1-0.1,0.1-0.1,0.2
					c-0.1,0.1-0.1,0.3-0.2,0.4l0,0l0,0c-0.1,0.1-0.1,0.3-0.1,0.5l0,0l0,0c-0.1,0.2-0.1,0.4-0.1,0.5c-0.1,0.5-0.1,0.6-0.1,0.9
					c0,0.5,0,0.8,0.1,0.9c0.1,0.4,0.2,0.8,0.2,0.9c0.1,0.4,0.2,0.6,0.3,0.9c0.1,0.1,0.1,0.2,0.2,0.3c0.1,0.1,0.2,0.3,0.3,0.4l0,0
					c0.1,0.1,0.2,0.3,0.3,0.4c0.1,0.1,0.2,0.2,0.3,0.3c0.1,0.1,0.2,0.2,0.3,0.3l0,0c0.1,0.1,0.1,0.1,0.2,0.2s0.2,0.2,0.4,0.3l0,0
					l0.1,0.1l0.1,0.1c0,0,0.1,0,0.1,0.1l0,0c0,0,0.1,0,0.1,0.1l0,0c0.1,0.1,0.3,0.2,0.5,0.2c0,0,0.1,0,0.2,0.1c0,0,0,0,0.1,0h0.1
					h0.1l0,0l0,0l0,0c0,0,0,0,0.1,0h0.1l0,0c0.3,0.1,0.5,0.1,0.7,0.2l0,0c0,0,0,0,0.1,0l0,0c0,0,0,0,0.1,0h0.1c0.1,0,0.1,0,0.2,0
					s0.1,0,0.2,0l0,0l0,0h0.1c0.1,0,0.2,0,0.3,0c0.1,0,0.2,0,0.3,0c0.2,0,0.4,0,0.6-0.1c0.1,0,0.3-0.1,0.5-0.1h0.1
					c0.1,0,0.2-0.1,0.3-0.1h0.1c0.1,0,0.2-0.1,0.3-0.1l0,0c0.1,0,0.2-0.1,0.3-0.1c0,0,0.1,0,0.1-0.1c0.1-0.1,0.3-0.1,0.4-0.2l0,0
					c0.1-0.1,0.2-0.1,0.3-0.2c0,0,0,0,0.1,0l0.1-0.1c0,0,0.1,0,0.1-0.1l0.2-0.1c0.1,0,0.2-0.1,0.3-0.3l0,0l0,0
					c0.1-0.1,0.2-0.2,0.3-0.3l0,0l0,0c0.1-0.1,0.3-0.4,0.5-0.7l0,0c0-0.1,0.1-0.2,0.1-0.2l0,0l0,0c0,0,0-0.1,0.1-0.1
					c0-0.1,0.1-0.1,0.1-0.1l0,0c0-0.1,0.1-0.2,0.1-0.2c0.1-0.1,0.1-0.2,0.1-0.3l0,0c0.1-0.2,0.1-0.4,0.2-0.5c0-0.1,0.1-0.2,0.1-0.3
					c0-0.1,0-0.2,0.1-0.4v-0.1c0-0.2,0-0.3,0-0.5l0,0l0,0C301.2,434.5,301.1,434.3,301.1,434.2z"/>
			</g>
		</g>
	</g>
	<g>
		<g>
			<g>
				
					<radialGradient id="SVGID_3_" cx="431.3307" cy="502.9634" r="6.4617" gradientTransform="matrix(1 -6.200000e-03 -6.200000e-03 -1 16.2523 577.6273)" gradientUnits="userSpaceOnUse">
					<stop  offset="0.7008" style="stop-color:#D1EDDE"/>
					<stop  offset="0.7875" style="stop-color:#D5EFE1"/>
					<stop  offset="0.878" style="stop-color:#E2F4EA"/>
					<stop  offset="0.9698" style="stop-color:#F6FCF9"/>
					<stop  offset="1" style="stop-color:#FFFFFF"/>
				</radialGradient>
				<path class="st5" d="M449.8,71.2L449.8,71.2c0,0,0-0.2,0-0.4c0,0,0,0,0-0.1v-0.1c-0.1-0.8-0.4-1.5-0.8-2.1l0,0
					c0-0.1-0.1-0.1-0.1-0.2l0,0c-0.2-0.3-0.5-0.6-0.8-0.9c-0.1-0.1-0.3-0.3-0.4-0.4s-0.2-0.1-0.3-0.2l0,0l0,0c0,0,0,0-0.1,0
					s-0.1-0.1-0.2-0.1l0,0l0,0c0,0-0.1,0-0.1-0.1c0,0,0,0-0.1,0l0,0l0,0c-0.2-0.1-0.5-0.2-0.7-0.3c-0.1,0-0.1,0-0.1-0.1l0,0l0,0l0,0
					l0,0H446l0,0l0,0l0,0c0,0,0,0-0.1,0h-0.1l0,0l0,0l0,0l0,0h-0.1c0,0,0,0-0.1,0c0,0,0,0-0.1,0l0,0l0,0c0,0,0,0-0.1,0l0,0
					c0,0,0,0-0.1,0l0,0l0,0l0,0l0,0l0,0l0,0l0,0l0,0l0,0l0,0c0,0,0,0-0.1,0l0,0l0,0l0,0l0,0c0,0,0,0-0.1,0H445l0,0l0,0
					c0,0,0,0-0.1,0h-0.1c0,0,0,0-0.1,0c0,0,0,0-0.1,0c0,0,0,0-0.1,0l0,0l0,0l0,0l0,0c-0.1,0-0.2,0-0.4,0H444h-0.1l0,0h-0.1l0,0
					c-0.1,0-0.1,0-0.2,0c0,0,0,0-0.1,0l0,0l0,0l0,0h-0.1h-0.1c-0.1,0-0.1,0-0.1,0c-0.2,0-0.3,0.1-0.5,0.1c-0.1,0-0.2,0.1-0.3,0.1
					c-0.5,0.2-0.9,0.4-1.3,0.7l0,0l0,0l-0.1,0.1l0,0c-0.1,0-0.1,0.1-0.2,0.2l0,0l0,0l0,0l0,0l0,0c0,0,0,0-0.1,0l-0.1,0.1
					c0,0,0,0-0.1,0.1l-0.1,0.1l0,0l0,0l0,0c-0.2,0.2-0.3,0.3-0.3,0.3c-0.1,0.1-0.1,0.1-0.2,0.2l-0.1,0.1l0,0l0,0
					c-0.1,0.1-0.2,0.2-0.3,0.4l0,0l0,0l0,0c0,0.1-0.1,0.1-0.1,0.2s-0.1,0.1-0.1,0.2l-0.1,0.2c0,0.1-0.1,0.1-0.1,0.2
					c-0.1,0.1-0.1,0.3-0.2,0.4l0,0l0,0c-0.1,0.1-0.1,0.3-0.1,0.5l0,0l0,0c-0.1,0.2-0.1,0.4-0.1,0.5c-0.1,0.5-0.1,0.6-0.1,0.9
					c0,0.5,0,0.8,0.1,0.9c0.1,0.4,0.2,0.8,0.2,0.9c0.1,0.4,0.2,0.6,0.3,0.9c0.1,0.1,0.1,0.2,0.2,0.3c0.1,0.1,0.2,0.3,0.3,0.4l0,0
					c0.1,0.1,0.2,0.3,0.3,0.4c0.1,0.1,0.2,0.2,0.3,0.3c0.1,0.1,0.2,0.2,0.3,0.3l0,0c0.1,0.1,0.1,0.1,0.2,0.2s0.2,0.2,0.4,0.3l0,0
					l0.1,0.1l0.1,0.1c0,0,0.1,0,0.1,0.1l0,0c0,0,0.1,0,0.1,0.1l0,0c0.1,0.1,0.3,0.2,0.5,0.2c0,0,0.1,0,0.2,0.1c0,0,0,0,0.1,0h0.1
					h0.1l0,0l0,0l0,0c0,0,0,0,0.1,0h0.1l0,0c0.3,0.1,0.5,0.1,0.7,0.2l0,0c0,0,0,0,0.1,0l0,0c0,0,0,0,0.1,0h0.1c0.1,0,0.1,0,0.2,0
					s0.1,0,0.2,0l0,0l0,0h0.1c0.1,0,0.2,0,0.3,0c0.1,0,0.2,0,0.3,0c0.2,0,0.4,0,0.6-0.1c0.1,0,0.3-0.1,0.5-0.1h0.1
					c0.1,0,0.2-0.1,0.3-0.1h0.1c0.1,0,0.2-0.1,0.3-0.1l0,0c0.1,0,0.2-0.1,0.3-0.1c0,0,0.1,0,0.1-0.1c0.1-0.1,0.3-0.1,0.4-0.2l0,0
					c0.1-0.1,0.2-0.1,0.3-0.2c0,0,0,0,0.1,0l0.1-0.1c0,0,0.1,0,0.1-0.1l0.2-0.1c0.1,0,0.2-0.1,0.3-0.3l0,0l0,0
					c0.1-0.1,0.2-0.2,0.3-0.3l0,0l0,0c0.1-0.1,0.3-0.4,0.5-0.7l0,0c0-0.1,0.1-0.2,0.1-0.2l0,0l0,0c0,0,0-0.1,0.1-0.1
					c0-0.1,0.1-0.1,0.1-0.1l0,0c0-0.1,0.1-0.2,0.1-0.2c0.1-0.1,0.1-0.2,0.1-0.3l0,0c0.1-0.2,0.1-0.4,0.2-0.5c0-0.1,0.1-0.2,0.1-0.3
					c0-0.1,0-0.2,0.1-0.4v-0.1c0-0.2,0-0.3,0-0.5l0,0l0,0C449.9,71.5,449.8,71.3,449.8,71.2z"/>
			</g>
		</g>
	</g>
	<g>
		<g>
			<g>
				
					<radialGradient id="SVGID_4_" cx="446.6482" cy="96.3343" r="6.4618" gradientTransform="matrix(1 -6.200000e-03 -6.200000e-03 -1 16.2523 577.6273)" gradientUnits="userSpaceOnUse">
					<stop  offset="0.7008" style="stop-color:#D1EDDE"/>
					<stop  offset="0.7875" style="stop-color:#D5EFE1"/>
					<stop  offset="0.878" style="stop-color:#E2F4EA"/>
					<stop  offset="0.9698" style="stop-color:#F6FCF9"/>
					<stop  offset="1" style="stop-color:#FFFFFF"/>
				</radialGradient>
				<path class="st6" d="M467.7,477.7L467.7,477.7c0,0,0-0.2,0-0.4c0,0,0,0,0-0.1v-0.1c-0.1-0.8-0.4-1.5-0.8-2.1l0,0
					c0-0.1-0.1-0.1-0.1-0.2l0,0c-0.2-0.3-0.5-0.6-0.8-0.9c-0.1-0.1-0.3-0.3-0.4-0.4s-0.2-0.1-0.3-0.2l0,0l0,0c0,0,0,0-0.1,0
					s-0.1-0.1-0.2-0.1l0,0l0,0c0,0-0.1,0-0.1-0.1c0,0,0,0-0.1,0l0,0l0,0c-0.2-0.1-0.5-0.2-0.7-0.3c-0.1,0-0.1,0-0.1-0.1l0,0l0,0l0,0
					l0,0h-0.1l0,0l0,0l0,0c0,0,0,0-0.1,0h-0.1l0,0l0,0l0,0l0,0h-0.1c0,0,0,0-0.1,0c0,0,0,0-0.1,0l0,0l0,0c0,0,0,0-0.1,0l0,0
					c0,0,0,0-0.1,0l0,0l0,0l0,0l0,0l0,0l0,0l0,0l0,0l0,0l0,0c0,0,0,0-0.1,0l0,0l0,0l0,0l0,0c0,0,0,0-0.1,0h-0.1l0,0l0,0
					c0,0,0,0-0.1,0h-0.1c0,0,0,0-0.1,0c0,0,0,0-0.1,0c0,0,0,0-0.1,0l0,0l0,0l0,0l0,0c-0.1,0-0.2,0-0.4,0h-0.1h-0.1l0,0h-0.1l0,0
					c-0.1,0-0.1,0-0.2,0c0,0,0,0-0.1,0l0,0l0,0l0,0h-0.1h-0.1c-0.1,0-0.1,0-0.1,0c-0.2,0-0.3,0.1-0.5,0.1c-0.1,0-0.2,0.1-0.3,0.1
					c-0.5,0.2-0.9,0.4-1.3,0.7l0,0l0,0l-0.1,0.1l0,0c-0.1,0-0.1,0.1-0.2,0.2l0,0l0,0l0,0l0,0l0,0c0,0,0,0-0.1,0l-0.1,0.1
					c0,0,0,0-0.1,0.1l-0.1,0.1l0,0l0,0l0,0c-0.2,0.2-0.3,0.3-0.3,0.3c-0.1,0.1-0.1,0.1-0.2,0.2l-0.1,0.1l0,0l0,0
					c-0.1,0.1-0.2,0.2-0.3,0.4l0,0l0,0l0,0c0,0.1-0.1,0.1-0.1,0.2s-0.1,0.1-0.1,0.2l-0.1,0.2c0,0.1-0.1,0.1-0.1,0.2
					c-0.1,0.1-0.1,0.3-0.2,0.4l0,0l0,0c-0.1,0.1-0.1,0.3-0.1,0.5l0,0l0,0c-0.1,0.2-0.1,0.4-0.1,0.5c-0.1,0.5-0.1,0.6-0.1,0.9
					c0,0.5,0,0.8,0.1,0.9c0.1,0.4,0.2,0.8,0.2,0.9c0.1,0.4,0.2,0.6,0.3,0.9c0.1,0.1,0.1,0.2,0.2,0.3c0.1,0.1,0.2,0.3,0.3,0.4l0,0
					c0.1,0.1,0.2,0.3,0.3,0.4c0.1,0.1,0.2,0.2,0.3,0.3c0.1,0.1,0.2,0.2,0.3,0.3l0,0c0.1,0.1,0.1,0.1,0.2,0.2s0.2,0.2,0.4,0.3l0,0
					l0.1,0.1l0.1,0.1h0.1l0,0c0,0,0.1,0,0.1,0.1l0,0c0.1,0.1,0.3,0.2,0.5,0.2c0,0,0.1,0,0.2,0.1c0,0,0,0,0.1,0h0.1h0.1l0,0l0,0l0,0
					c0,0,0,0,0.1,0h0.1l0,0c0.3,0.1,0.5,0.1,0.7,0.2l0,0c0,0,0,0,0.1,0l0,0c0,0,0,0,0.1,0h0.1c0.1,0,0.1,0,0.2,0s0.1,0,0.2,0l0,0
					l0,0h0.1c0.1,0,0.2,0,0.3,0c0.1,0,0.2,0,0.3,0c0.2,0,0.4,0,0.6-0.1c0.1,0,0.3-0.1,0.5-0.1h0.1c0.1,0,0.2-0.1,0.3-0.1h0.1
					c0.1,0,0.2-0.1,0.3-0.1l0,0c0.1,0,0.2-0.1,0.3-0.1c0,0,0.1,0,0.1-0.1c0.1-0.1,0.3-0.1,0.4-0.2l0,0c0.1-0.1,0.2-0.1,0.3-0.2
					c0,0,0,0,0.1,0l0.1-0.1c0,0,0.1,0,0.1-0.1l0.2-0.1c0.1,0,0.2-0.1,0.3-0.3l0,0l0,0c0.1-0.1,0.2-0.2,0.3-0.3l0,0l0,0
					c0.1-0.1,0.3-0.4,0.5-0.7l0,0c0-0.1,0.1-0.2,0.1-0.2l0,0l0,0c0,0,0-0.1,0.1-0.1c0-0.1,0.1-0.1,0.1-0.1l0,0
					c0-0.1,0.1-0.2,0.1-0.2c0.1-0.1,0.1-0.2,0.1-0.3l0,0c0.1-0.2,0.1-0.4,0.2-0.5c0-0.1,0.1-0.2,0.1-0.3c0-0.1,0-0.2,0.1-0.4v-0.1
					c0-0.2,0-0.3,0-0.5l0,0l0,0C467.7,478,467.7,477.9,467.7,477.7z"/>
			</g>
		</g>
	</g>
	<g>
		<g>
			<g>
				
					<radialGradient id="SVGID_5_" cx="646.7804" cy="308.1985" r="6.4618" gradientTransform="matrix(1 -6.200000e-03 -6.200000e-03 -1 16.2523 577.6273)" gradientUnits="userSpaceOnUse">
					<stop  offset="0.7008" style="stop-color:#D1EDDE"/>
					<stop  offset="0.7875" style="stop-color:#D5EFE1"/>
					<stop  offset="0.878" style="stop-color:#E2F4EA"/>
					<stop  offset="0.9698" style="stop-color:#F6FCF9"/>
					<stop  offset="1" style="stop-color:#FFFFFF"/>
				</radialGradient>
				<path class="st7" d="M666.5,264.6L666.5,264.6c0,0,0-0.2,0-0.4c0,0,0,0,0-0.1V264c-0.1-0.8-0.4-1.5-0.8-2.1l0,0
					c0-0.1-0.1-0.1-0.1-0.2l0,0c-0.2-0.3-0.5-0.6-0.8-0.9c-0.1-0.1-0.3-0.3-0.4-0.4c-0.1-0.1-0.2-0.1-0.3-0.2l0,0l0,0c0,0,0,0-0.1,0
					s-0.1-0.1-0.2-0.1l0,0l0,0c0,0-0.1,0-0.1-0.1c0,0,0,0-0.1,0l0,0l0,0c-0.2-0.1-0.5-0.2-0.7-0.3c-0.1,0-0.1,0-0.1-0.1l0,0l0,0l0,0
					l0,0h-0.1l0,0l0,0l0,0c0,0,0,0-0.1,0h-0.1l0,0l0,0l0,0l0,0h-0.1c0,0,0,0-0.1,0c0,0,0,0-0.1,0l0,0l0,0c0,0,0,0-0.1,0l0,0
					c0,0,0,0-0.1,0l0,0l0,0l0,0l0,0l0,0l0,0l0,0l0,0l0,0l0,0c0,0,0,0-0.1,0l0,0l0,0l0,0l0,0c0,0,0,0-0.1,0h-0.1l0,0l0,0
					c0,0,0,0-0.1,0h-0.1c0,0,0,0-0.1,0c0,0,0,0-0.1,0c0,0,0,0-0.1,0l0,0l0,0l0,0l0,0c-0.1,0-0.2,0-0.4,0h-0.1h-0.1l0,0h-0.1l0,0
					c-0.1,0-0.1,0-0.2,0c0,0,0,0-0.1,0l0,0l0,0l0,0h-0.1H660c-0.1,0-0.1,0-0.1,0c-0.2,0-0.3,0.1-0.5,0.1c-0.1,0-0.2,0.1-0.3,0.1
					c-0.5,0.2-0.9,0.4-1.3,0.7l0,0l0,0l-0.1,0.1l0,0c-0.1,0-0.1,0.1-0.2,0.2l0,0l0,0l0,0l0,0l0,0c0,0,0,0-0.1,0l-0.1,0.1
					c0,0,0,0-0.1,0.1l-0.1,0.1l0,0l0,0l0,0c-0.2,0.2-0.3,0.3-0.3,0.3c-0.1,0.1-0.1,0.1-0.2,0.2l-0.1,0.1l0,0l0,0
					c-0.1,0.1-0.2,0.2-0.3,0.4l0,0l0,0l0,0c0,0.1-0.1,0.1-0.1,0.2s-0.1,0.1-0.1,0.2l-0.1,0.2c0,0.1-0.1,0.1-0.1,0.2
					c-0.1,0.1-0.1,0.3-0.2,0.4l0,0l0,0c-0.1,0.1-0.1,0.3-0.1,0.5l0,0l0,0c-0.1,0.2-0.1,0.4-0.1,0.5c-0.1,0.5-0.1,0.6-0.1,0.9
					c0,0.5,0,0.8,0.1,0.9c0.1,0.4,0.2,0.8,0.2,0.9c0.1,0.4,0.2,0.6,0.3,0.9c0.1,0.1,0.1,0.2,0.2,0.3c0.1,0.1,0.2,0.3,0.3,0.4l0,0
					c0.1,0.1,0.2,0.3,0.3,0.4s0.2,0.2,0.3,0.3c0.1,0.1,0.2,0.2,0.3,0.3l0,0c0.1,0.1,0.1,0.1,0.2,0.2c0.1,0.1,0.2,0.2,0.4,0.3l0,0
					l0.1,0.1l0.1,0.1c0,0,0.1,0,0.1,0.1l0,0c0,0,0.1,0,0.1,0.1l0,0c0.1,0.1,0.3,0.2,0.5,0.2c0,0,0.1,0,0.2,0.1c0,0,0,0,0.1,0h0.1
					h0.1l0,0l0,0l0,0c0,0,0,0,0.1,0h0.1l0,0c0.3,0.1,0.5,0.1,0.7,0.2l0,0c0,0,0,0,0.1,0l0,0c0,0,0,0,0.1,0h0.1c0.1,0,0.1,0,0.2,0
					c0.1,0,0.1,0,0.2,0l0,0l0,0h0.1c0.1,0,0.2,0,0.3,0s0.2,0,0.3,0c0.2,0,0.4,0,0.6-0.1c0.1,0,0.3-0.1,0.5-0.1h0.1
					c0.1,0,0.2-0.1,0.3-0.1h0.1c0.1,0,0.2-0.1,0.3-0.1l0,0c0.1,0,0.2-0.1,0.3-0.1c0,0,0.1,0,0.1-0.1c0.1-0.1,0.3-0.1,0.4-0.2l0,0
					c0.1-0.1,0.2-0.1,0.3-0.2c0,0,0,0,0.1,0l0.1-0.1c0,0,0.1,0,0.1-0.1l0.2-0.1c0.1,0,0.2-0.1,0.3-0.3l0,0l0,0
					c0.1-0.1,0.2-0.2,0.3-0.3l0,0l0,0c0.1-0.1,0.3-0.4,0.5-0.7l0,0c0-0.1,0.1-0.2,0.1-0.2l0,0l0,0c0,0,0-0.1,0.1-0.1
					c0-0.1,0.1-0.1,0.1-0.1l0,0c0-0.1,0.1-0.2,0.1-0.2c0.1-0.1,0.1-0.2,0.1-0.3l0,0c0.1-0.2,0.1-0.4,0.2-0.5c0-0.1,0.1-0.2,0.1-0.3
					c0-0.1,0-0.2,0.1-0.4v-0.1c0-0.2,0-0.3,0-0.5l0,0l0,0C666.5,264.9,666.5,264.7,666.5,264.6z"/>
			</g>
		</g>
	</g>
	<g>
		<g>
			<g>
				
					<radialGradient id="SVGID_6_" cx="25.8095" cy="312.0486" r="6.4618" gradientTransform="matrix(1 -6.200000e-03 -6.200000e-03 -1 16.2523 577.6273)" gradientUnits="userSpaceOnUse">
					<stop  offset="0.7008" style="stop-color:#D1EDDE"/>
					<stop  offset="0.7875" style="stop-color:#D5EFE1"/>
					<stop  offset="0.878" style="stop-color:#E2F4EA"/>
					<stop  offset="0.9698" style="stop-color:#F6FCF9"/>
					<stop  offset="1" style="stop-color:#FFFFFF"/>
				</radialGradient>
				<path class="st8" d="M45.5,264.6L45.5,264.6c0,0,0-0.2,0-0.4c0,0,0,0,0-0.1V264c-0.1-0.8-0.4-1.5-0.8-2.1l0,0
					c0-0.1-0.1-0.1-0.1-0.2l0,0c-0.2-0.3-0.5-0.6-0.8-0.9c-0.1-0.1-0.3-0.3-0.4-0.4c-0.1-0.1-0.2-0.1-0.3-0.2l0,0l0,0c0,0,0,0-0.1,0
					s-0.1-0.1-0.2-0.1l0,0l0,0c0,0-0.1,0-0.1-0.1c0,0,0,0-0.1,0l0,0l0,0c-0.2-0.1-0.5-0.2-0.7-0.3c-0.1,0-0.1,0-0.1-0.1l0,0l0,0l0,0
					l0,0h-0.1l0,0l0,0l0,0c0,0,0,0-0.1,0h-0.1l0,0l0,0l0,0l0,0h-0.1c0,0,0,0-0.1,0c0,0,0,0-0.1,0l0,0l0,0c0,0,0,0-0.1,0l0,0
					c0,0,0,0-0.1,0l0,0l0,0l0,0l0,0l0,0l0,0l0,0l0,0l0,0l0,0c0,0,0,0-0.1,0l0,0l0,0l0,0l0,0c0,0,0,0-0.1,0h-0.1l0,0l0,0
					c0,0,0,0-0.1,0h-0.1c0,0,0,0-0.1,0c0,0,0,0-0.1,0c0,0,0,0-0.1,0l0,0l0,0l0,0l0,0c-0.1,0-0.2,0-0.4,0h-0.1h-0.1l0,0h-0.1l0,0
					c-0.1,0-0.1,0-0.2,0c0,0,0,0-0.1,0l0,0l0,0l0,0h-0.1H39c-0.1,0-0.1,0-0.1,0c-0.2,0-0.3,0.1-0.5,0.1c-0.1,0-0.2,0.1-0.3,0.1
					c-0.5,0.2-0.9,0.4-1.3,0.7l0,0l0,0l-0.1,0.1l0,0c-0.1,0-0.1,0.1-0.2,0.2l0,0l0,0l0,0l0,0l0,0c0,0,0,0-0.1,0l-0.1,0.1
					c0,0,0,0-0.1,0.1l-0.1,0.1l0,0l0,0l0,0c-0.2,0.2-0.3,0.3-0.3,0.3c-0.1,0.1-0.1,0.1-0.2,0.2l-0.1,0.1l0,0l0,0
					c-0.1,0.1-0.2,0.2-0.3,0.4l0,0l0,0l0,0c0,0.1-0.1,0.1-0.1,0.2s-0.1,0.1-0.1,0.2l-0.1,0.2c0,0.1-0.1,0.1-0.1,0.2
					c-0.1,0.1-0.1,0.3-0.2,0.4l0,0l0,0c-0.1,0.1-0.1,0.3-0.1,0.5l0,0l0,0c-0.1,0.2-0.1,0.4-0.1,0.5c-0.1,0.5-0.1,0.6-0.1,0.9
					c0,0.5,0,0.8,0.1,0.9c0.1,0.4,0.2,0.8,0.2,0.9c0.1,0.4,0.2,0.6,0.3,0.9c0.1,0.1,0.1,0.2,0.2,0.3c0.1,0.1,0.2,0.3,0.3,0.4l0,0
					c0.1,0.1,0.2,0.3,0.3,0.4s0.2,0.2,0.3,0.3c0.1,0.1,0.2,0.2,0.3,0.3l0,0c0.1,0.1,0.1,0.1,0.2,0.2c0.1,0.1,0.2,0.2,0.4,0.3l0,0
					l0.1,0.1l0.1,0.1c0,0,0.1,0,0.1,0.1l0,0c0,0,0.1,0,0.1,0.1l0,0c0.1,0.1,0.3,0.2,0.5,0.2c0,0,0.1,0,0.2,0.1c0,0,0,0,0.1,0h0.1
					h0.1l0,0l0,0l0,0c0,0,0,0,0.1,0h0.1l0,0c0.3,0.1,0.5,0.1,0.7,0.2l0,0c0,0,0,0,0.1,0l0,0c0,0,0,0,0.1,0h0.1c0.1,0,0.1,0,0.2,0
					c0.1,0,0.1,0,0.2,0l0,0l0,0H40c0.1,0,0.2,0,0.3,0s0.2,0,0.3,0c0.2,0,0.4,0,0.6-0.1c0.1,0,0.3-0.1,0.5-0.1h0.1
					c0.1,0,0.2-0.1,0.3-0.1h0.1c0.1,0,0.2-0.1,0.3-0.1l0,0c0.1,0,0.2-0.1,0.3-0.1c0,0,0.1,0,0.1-0.1c0.1-0.1,0.3-0.1,0.4-0.2l0,0
					c0.1-0.1,0.2-0.1,0.3-0.2c0,0,0,0,0.1,0l0.1-0.1c0,0,0.1,0,0.1-0.1l0.2-0.1c0.1,0,0.2-0.1,0.3-0.3l0,0l0,0
					c0.1-0.1,0.2-0.2,0.3-0.3l0,0l0,0c0.1-0.1,0.3-0.4,0.5-0.7l0,0c0-0.1,0.1-0.2,0.1-0.2l0,0l0,0c0,0,0-0.1,0.1-0.1
					c0-0.1,0.1-0.1,0.1-0.1l0,0c0-0.1,0.1-0.2,0.1-0.2c0.1-0.1,0.1-0.2,0.1-0.3l0,0c0.1-0.2,0.1-0.4,0.2-0.5c0-0.1,0.1-0.2,0.1-0.3
					c0-0.1,0-0.2,0.1-0.4v-0.1c0-0.2,0-0.3,0-0.5l0,0l0,0C45.5,264.9,45.5,264.7,45.5,264.6z"/>
			</g>
		</g>
	</g>
	<g class="st9">
		<g>
			<path class="st10" d="M629.7,552.8c0,2.1-23.8,3.8-47.9,3.8s-43.7-1.7-43.7-3.8s19.6-3.8,43.7-3.8S629.7,550.7,629.7,552.8z"/>
			<path class="st11" d="M538.4,552.8c0-2.1,19.5-3.8,43.5-3.8s47.7,1.7,47.7,3.8s-23.7,3.8-47.7,3.8S538.4,554.9,538.4,552.8z"/>
			<path class="st12" d="M538.9,552.8c0-2.1,19.4-3.8,43.3-3.8s47.5,1.7,47.5,3.8s-23.6,3.8-47.5,3.8S538.9,554.9,538.9,552.8z"/>
			<path class="st13" d="M539.3,552.8c0-2.1,19.3-3.7,43.1-3.7s47.3,1.7,47.3,3.7c0,2.1-23.5,3.7-47.3,3.7S539.3,554.8,539.3,552.8z
				"/>
			<path class="st14" d="M539.7,552.8c0-2,19.2-3.7,42.9-3.7s47,1.7,47,3.7s-23.4,3.7-47,3.7S539.7,554.8,539.7,552.8z"/>
			<path class="st15" d="M540.2,552.8c0-2,19.1-3.7,42.7-3.7s46.8,1.6,46.8,3.7c0,2-23.2,3.7-46.8,3.7S540.2,554.8,540.2,552.8z"/>
			<path class="st16" d="M540.6,552.8c0-2,19-3.6,42.5-3.6s46.6,1.6,46.6,3.6s-23.1,3.6-46.6,3.6S540.6,554.8,540.6,552.8z"/>
			<path class="st17" d="M541.1,552.8c0-2,18.9-3.6,42.3-3.6s46.3,1.6,46.3,3.6s-23,3.6-46.3,3.6S541.1,554.8,541.1,552.8z"/>
			<path class="st18" d="M541.5,552.8c0-2,18.8-3.6,42-3.6s46.1,1.6,46.1,3.6s-22.9,3.6-46.1,3.6S541.5,554.8,541.5,552.8z"/>
			<path class="st19" d="M541.9,552.8c0-2,18.7-3.6,41.8-3.6s45.9,1.6,45.9,3.6s-22.8,3.6-45.9,3.6S541.9,554.8,541.9,552.8z"/>
			<path class="st20" d="M542.4,552.8c0-2,18.6-3.5,41.6-3.5s45.7,1.6,45.7,3.5c0,2-22.7,3.5-45.7,3.5S542.4,554.7,542.4,552.8z"/>
			<path class="st21" d="M542.8,552.8c0-1.9,18.5-3.5,41.4-3.5s45.4,1.6,45.4,3.5s-22.6,3.5-45.4,3.5S542.8,554.7,542.8,552.8z"/>
			<path class="st22" d="M543.2,552.8c0-1.9,18.5-3.5,41.2-3.5s45.2,1.6,45.2,3.5s-22.4,3.5-45.2,3.5S543.2,554.7,543.2,552.8z"/>
			<path class="st23" d="M543.7,552.8c0-1.9,18.4-3.5,41-3.5s45,1.5,45,3.5c0,1.9-22.3,3.5-45,3.5S543.7,554.7,543.7,552.8z"/>
			<path class="st24" d="M544.1,552.8c0-1.9,18.3-3.4,40.8-3.4s44.7,1.5,44.7,3.4s-22.2,3.4-44.7,3.4S544.1,554.7,544.1,552.8z"/>
			<path class="st25" d="M544.5,552.8c0-1.9,18.2-3.4,40.6-3.4s44.5,1.5,44.5,3.4s-22.1,3.4-44.5,3.4S544.5,554.7,544.5,552.8z"/>
			<path class="st26" d="M545,552.8c0-1.9,18.1-3.4,40.4-3.4s44.3,1.5,44.3,3.4s-22,3.4-44.3,3.4S545,554.7,545,552.8z"/>
			<path class="st27" d="M545.4,552.8c0-1.9,18-3.4,40.2-3.4s44.1,1.5,44.1,3.4s-21.9,3.4-44.1,3.4S545.4,554.6,545.4,552.8z"/>
			<path class="st28" d="M545.9,552.8c0-1.8,17.9-3.3,40-3.3s43.8,1.5,43.8,3.3s-21.8,3.3-43.8,3.3S545.9,554.6,545.9,552.8z"/>
			<path class="st29" d="M546.3,552.8c0-1.8,17.8-3.3,39.8-3.3s43.6,1.5,43.6,3.3s-21.6,3.3-43.6,3.3S546.3,554.6,546.3,552.8z"/>
			<path class="st30" d="M546.7,552.8c0-1.8,17.7-3.3,39.5-3.3s43.4,1.5,43.4,3.3s-21.5,3.3-43.4,3.3
				C564.4,556.1,546.7,554.6,546.7,552.8z"/>
			<path class="st31" d="M547.2,552.8c0-1.8,17.6-3.2,39.3-3.2s43.1,1.5,43.1,3.2c0,1.8-21.4,3.2-43.1,3.2S547.2,554.6,547.2,552.8z
				"/>
			<path class="st32" d="M547.6,552.8c0-1.8,17.5-3.2,39.1-3.2s42.9,1.4,42.9,3.2s-21.3,3.2-42.9,3.2S547.6,554.6,547.6,552.8z"/>
			<path class="st33" d="M548,552.8c0-1.8,17.4-3.2,38.9-3.2s42.7,1.4,42.7,3.2s-21.2,3.2-42.7,3.2C565.5,556,548,554.5,548,552.8z"
				/>
			<path class="st34" d="M548.5,552.8c0-1.7,17.3-3.2,38.7-3.2s42.5,1.4,42.5,3.2c0,1.7-21.1,3.2-42.5,3.2S548.5,554.5,548.5,552.8z
				"/>
			<path class="st35" d="M548.9,552.8c0-1.7,17.2-3.1,38.5-3.1s42.2,1.4,42.2,3.1c0,1.7-21,3.1-42.2,3.1S548.9,554.5,548.9,552.8z"
				/>
			<path class="st36" d="M549.4,552.8c0-1.7,17.1-3.1,38.3-3.1s42,1.4,42,3.1c0,1.7-20.9,3.1-42,3.1
				C566.5,555.9,549.4,554.5,549.4,552.8z"/>
			<path class="st37" d="M549.8,552.8c0-1.7,17.1-3.1,38.1-3.1s41.8,1.4,41.8,3.1c0,1.7-20.7,3.1-41.8,3.1S549.8,554.5,549.8,552.8z
				"/>
			<path class="st38" d="M550.2,552.8c0-1.7,17-3.1,37.9-3.1s41.5,1.4,41.5,3.1c0,1.7-20.6,3.1-41.5,3.1
				C567.2,555.8,550.2,554.5,550.2,552.8z"/>
			<path class="st39" d="M550.7,552.8c0-1.7,16.9-3,37.7-3s41.3,1.4,41.3,3c0,1.7-20.5,3-41.3,3S550.7,554.5,550.7,552.8z"/>
			<path class="st40" d="M551.1,552.8c0-1.7,16.8-3,37.5-3s41.1,1.3,41.1,3s-20.4,3-41.1,3S551.1,554.4,551.1,552.8z"/>
			<path class="st41" d="M551.5,552.8c0-1.6,16.7-3,37.3-3s40.9,1.3,40.9,3c0,1.6-20.3,3-40.9,3
				C568.2,555.8,551.5,554.4,551.5,552.8z"/>
			<path class="st42" d="M552,552.8c0-1.6,16.6-3,37-3s40.6,1.3,40.6,3c0,1.6-20.2,3-40.6,3S552,554.4,552,552.8z"/>
			<path class="st43" d="M552.4,552.8c0-1.6,16.5-2.9,36.8-2.9s40.4,1.3,40.4,2.9c0,1.6-20.1,2.9-40.4,2.9S552.4,554.4,552.4,552.8z
				"/>
			<path class="st44" d="M552.9,552.8c0-1.6,16.4-2.9,36.6-2.9c20.2,0,40.2,1.3,40.2,2.9c0,1.6-19.9,2.9-40.2,2.9
				C569.3,555.7,552.9,554.4,552.9,552.8z"/>
			<path class="st45" d="M553.3,552.8c0-1.6,16.3-2.9,36.4-2.9s39.9,1.3,39.9,2.9c0,1.6-19.8,2.9-39.9,2.9S553.3,554.4,553.3,552.8z
				"/>
			<path class="st46" d="M553.7,552.8c0-1.6,16.2-2.8,36.2-2.8s39.7,1.3,39.7,2.8c0,1.6-19.7,2.8-39.7,2.8S553.7,554.4,553.7,552.8z
				"/>
			<path class="st47" d="M554.2,552.8c0-1.6,16.1-2.8,36-2.8s39.5,1.3,39.5,2.8c0,1.6-19.6,2.8-39.5,2.8S554.2,554.3,554.2,552.8z"
				/>
			<path class="st48" d="M554.6,552.8c0-1.5,16-2.8,35.8-2.8s39.3,1.3,39.3,2.8s-19.5,2.8-39.3,2.8S554.6,554.3,554.6,552.8z"/>
			<path class="st49" d="M555,552.8c0-1.5,15.9-2.8,35.6-2.8c19.7,0,39,1.2,39,2.8c0,1.5-19.4,2.8-39,2.8S555,554.3,555,552.8z"/>
			<path class="st50" d="M555.5,552.8c0-1.5,15.8-2.7,35.4-2.7c19.5,0,38.8,1.2,38.8,2.7s-19.3,2.7-38.8,2.7
				C571.3,555.5,555.5,554.3,555.5,552.8z"/>
			<path class="st51" d="M555.9,552.8c0-1.5,15.7-2.7,35.2-2.7s38.6,1.2,38.6,2.7s-19.2,2.7-38.6,2.7S555.9,554.3,555.9,552.8z"/>
			<path class="st52" d="M556.3,552.8c0-1.5,15.7-2.7,35-2.7s38.3,1.2,38.3,2.7s-19,2.7-38.3,2.7S556.3,554.3,556.3,552.8z"/>
			<path class="st53" d="M556.8,552.8c0-1.5,15.6-2.7,34.8-2.7s38.1,1.2,38.1,2.7s-18.9,2.7-38.1,2.7S556.8,554.3,556.8,552.8z"/>
			<path class="st54" d="M557.2,552.8c0-1.5,15.5-2.6,34.5-2.6c19.1,0,37.9,1.2,37.9,2.6c0,1.5-18.8,2.6-37.9,2.6
				C572.7,555.4,557.2,554.2,557.2,552.8z"/>
			<path class="st55" d="M557.7,552.8c0-1.4,15.4-2.6,34.3-2.6c19,0,37.7,1.2,37.7,2.6c0,1.4-18.7,2.6-37.7,2.6
				C573,555.4,557.7,554.2,557.7,552.8z"/>
			<path class="st56" d="M558.1,552.8c0-1.4,15.3-2.6,34.1-2.6s37.4,1.2,37.4,2.6c0,1.4-18.6,2.6-37.4,2.6S558.1,554.2,558.1,552.8z
				"/>
			<path class="st57" d="M558.5,552.8c0-1.4,15.2-2.6,33.9-2.6s37.2,1.1,37.2,2.6c0,1.4-18.5,2.6-37.2,2.6
				C573.7,555.3,558.5,554.2,558.5,552.8z"/>
			<path class="st58" d="M559,552.8c0-1.4,15.1-2.5,33.7-2.5c18.6,0,37,1.1,37,2.5s-18.4,2.5-37,2.5
				C574.1,555.3,559,554.2,559,552.8z"/>
			<path class="st59" d="M559.4,552.8c0-1.4,15-2.5,33.5-2.5s36.7,1.1,36.7,2.5s-18.2,2.5-36.7,2.5S559.4,554.2,559.4,552.8z"/>
			<path class="st60" d="M559.8,552.8c0-1.4,14.9-2.5,33.3-2.5c18.4,0,36.5,1.1,36.5,2.5s-18.1,2.5-36.5,2.5
				C574.8,555.3,559.8,554.2,559.8,552.8z"/>
			<path class="st61" d="M560.3,552.8c0-1.4,14.8-2.4,33.1-2.4s36.3,1.1,36.3,2.4c0,1.4-18,2.4-36.3,2.4S560.3,554.1,560.3,552.8z"
				/>
			<path class="st62" d="M560.7,552.8c0-1.3,14.7-2.4,32.9-2.4s36.1,1.1,36.1,2.4c0,1.3-17.9,2.4-36.1,2.4
				C575.4,555.2,560.7,554.1,560.7,552.8z"/>
			<path class="st63" d="M561.2,552.8c0-1.3,14.6-2.4,32.7-2.4c18,0,35.8,1.1,35.8,2.4c0,1.3-17.8,2.4-35.8,2.4
				C575.8,555.2,561.2,554.1,561.2,552.8z"/>
			<path class="st64" d="M561.6,552.8c0-1.3,14.5-2.4,32.5-2.4c17.9,0,35.6,1.1,35.6,2.4c0,1.3-17.7,2.4-35.6,2.4
				C576.1,555.2,561.6,554.1,561.6,552.8z"/>
			<path class="st65" d="M562,552.8c0-1.3,14.4-2.3,32.3-2.3c17.8,0,35.4,1,35.4,2.3s-17.6,2.3-35.4,2.3
				C576.5,555.1,562,554.1,562,552.8z"/>
			<path class="st66" d="M562.5,552.8c0-1.3,14.3-2.3,32-2.3s35.1,1,35.1,2.3s-17.5,2.3-35.1,2.3
				C576.8,555.1,562.5,554.1,562.5,552.8z"/>
			<path class="st67" d="M562.9,552.8c0-1.3,14.3-2.3,31.8-2.3s34.9,1,34.9,2.3s-17.3,2.3-34.9,2.3S562.9,554,562.9,552.8z"/>
			<path class="st68" d="M563.3,552.8c0-1.2,14.2-2.3,31.6-2.3c17.5,0,34.7,1,34.7,2.3c0,1.2-17.2,2.3-34.7,2.3
				C577.5,555,563.3,554,563.3,552.8z"/>
			<path class="st69" d="M563.8,552.8c0-1.2,14.1-2.2,31.4-2.2c17.4,0,34.5,1,34.5,2.2s-17.1,2.2-34.5,2.2S563.8,554,563.8,552.8z"
				/>
			<path class="st70" d="M564.2,552.8c0-1.2,14-2.2,31.2-2.2s34.2,1,34.2,2.2s-17,2.2-34.2,2.2S564.2,554,564.2,552.8z"/>
			<path class="st71" d="M564.7,552.8c0-1.2,13.9-2.2,31-2.2s34,1,34,2.2s-16.9,2.2-34,2.2C578.5,555,564.7,554,564.7,552.8z"/>
			<path class="st72" d="M565.1,552.8c0-1.2,13.8-2.2,30.8-2.2s33.8,1,33.8,2.2s-16.8,2.2-33.8,2.2
				C578.9,554.9,565.1,554,565.1,552.8z"/>
			<path class="st73" d="M565.5,552.8c0-1.2,13.7-2.1,30.6-2.1c16.9,0,33.5,1,33.5,2.1c0,1.2-16.7,2.1-33.5,2.1
				C579.2,554.9,565.5,554,565.5,552.8z"/>
			<path class="st74" d="M566,552.8c0-1.2,13.6-2.1,30.4-2.1c16.8,0,33.3,0.9,33.3,2.1c0,1.2-16.5,2.1-33.3,2.1
				C579.6,554.9,566,553.9,566,552.8z"/>
			<path class="st75" d="M566.4,552.8c0-1.1,13.5-2.1,30.2-2.1s33.1,0.9,33.1,2.1c0,1.1-16.4,2.1-33.1,2.1
				C579.9,554.9,566.4,553.9,566.4,552.8z"/>
			<path class="st76" d="M566.8,552.8c0-1.1,13.4-2,30-2c16.5,0,32.9,0.9,32.9,2s-16.3,2-32.9,2
				C580.3,554.8,566.8,553.9,566.8,552.8z"/>
			<path class="st77" d="M567.3,552.8c0-1.1,13.3-2,29.8-2c16.4,0,32.6,0.9,32.6,2s-16.2,2-32.6,2
				C580.6,554.8,567.3,553.9,567.3,552.8z"/>
			<path class="st78" d="M567.7,552.8c0-1.1,13.2-2,29.5-2s32.4,0.9,32.4,2s-16.1,2-32.4,2S567.7,553.9,567.7,552.8z"/>
			<path class="st79" d="M568.1,552.8c0-1.1,13.1-2,29.3-2s32.2,0.9,32.2,2s-16,2-32.2,2C581.3,554.8,568.1,553.9,568.1,552.8z"/>
			<path class="st80" d="M568.6,552.8c0-1.1,13-1.9,29.1-1.9s31.9,0.9,31.9,1.9c0,1.1-15.9,1.9-31.9,1.9
				C581.6,554.7,568.6,553.9,568.6,552.8z"/>
			<path class="st81" d="M629.7,552.8c0,1.1-15.7,1.9-31.7,1.9s-28.9-0.9-28.9-1.9c0-1.1,12.9-1.9,28.9-1.9
				C613.9,550.9,629.7,551.7,629.7,552.8z"/>
		</g>
	</g>
	<g>
		<g>
			
				<linearGradient id="SVGID_7_" gradientUnits="userSpaceOnUse" x1="576.0337" y1="235.7887" x2="588.511" y2="135.8129" gradientTransform="matrix(1 0 0 -1 0 590)">
				<stop  offset="0.3863" style="stop-color:#7B9AF2"/>
				<stop  offset="0.5136" style="stop-color:#5352EE"/>
				<stop  offset="0.6268" style="stop-color:#3130C8"/>
			</linearGradient>
			<path id="SVGID_38_" class="st82" d="M604.1,508.5c-3.3,1.1-6.9,1.1-9.2-2c-1.9-2.5-2.5-5.7-3.8-8.6
				c-4.8-10.4-18.4-15.4-20.9-26.5c-1.2-5.5,0.7-11.1,2-16.6c1.4-5.4,2.2-11.6-0.9-16.4c-1.9-2.9-4.9-4.8-7.1-7.4
				c-3.7-4.5-4.7-10.7-3.9-16.5c1.2-8.8,6.8-15.6,3.9-24.7c-1.5-4.6-5.3-7.9-8.2-11.8c-4.3-5.9-6.3-19.1,3.1-21.6
				c4.1-1.1,8.4,1.3,10.9,4.7c2.5,3.4,3.4,7.7,4.1,11.8c0.7,4.1,1.3,8.4,3.3,12.1c6,11.4,22.1,14.1,28.9,25.1
				c4.8,7.7,3.7,17.6,1.9,26.5s-4.3,18.1-1.8,26.8c2.7,9.5,11,17.3,11.3,27.2c0.2,6.3-3.5,12.4-8.8,15.6
				C607.6,507.1,605.9,508,604.1,508.5z"/>
		</g>
		<g>
			<g>
				<g>
					<defs>
						<path id="SVGID_8_" d="M604.1,508.5c-3.3,1.1-6.9,1.1-9.2-2c-1.9-2.5-2.5-5.7-3.8-8.6c-4.8-10.4-18.4-15.4-20.9-26.5
							c-1.2-5.5,0.7-11.1,2-16.6c1.4-5.4,2.2-11.6-0.9-16.4c-1.9-2.9-4.9-4.8-7.1-7.4c-3.7-4.5-4.7-10.7-3.9-16.5
							c1.2-8.8,6.8-15.6,3.9-24.7c-1.5-4.6-5.3-7.9-8.2-11.8c-4.3-5.9-6.3-19.1,3.1-21.6c4.1-1.1,8.4,1.3,10.9,4.7
							c2.5,3.4,3.4,7.7,4.1,11.8c0.7,4.1,1.3,8.4,3.3,12.1c6,11.4,22.1,14.1,28.9,25.1c4.8,7.7,3.7,17.6,1.9,26.5
							s-4.3,18.1-1.8,26.8c2.7,9.5,11,17.3,11.3,27.2c0.2,6.3-3.5,12.4-8.8,15.6C607.6,507.1,605.9,508,604.1,508.5z"/>
					</defs>
					<clipPath id="SVGID_9_">
						<use xlink:href="#SVGID_8_"  style="overflow:visible;"/>
					</clipPath>
					<path class="st83" d="M604.1,508.5c-3.3,1.1-6.9,1.1-9.2-2c-1.9-2.5-2.5-5.7-3.8-8.6c-4.8-10.4-18.4-15.4-20.9-26.5
						c-1.2-5.5,0.7-11.1,2-16.6c1.4-5.4,2.2-11.6-0.9-16.4c-1.9-2.9-4.9-4.8-7.1-7.4c-3.7-4.5-4.7-10.7-3.9-16.5
						c1.2-8.8,6.8-15.6,3.9-24.7c-1.5-4.6-5.3-7.9-8.2-11.8c-4.3-5.9-6.3-19.1,3.1-21.6c4.1-1.1,8.4,1.3,10.9,4.7
						c2.5,3.4,3.4,7.7,4.1,11.8c0.7,4.1,1.3,8.4,3.3,12.1c6,11.4,22.1,14.1,28.9,25.1c4.8,7.7,3.7,17.6,1.9,26.5s-4.3,18.1-1.8,26.8
						c2.7,9.5,11,17.3,11.3,27.2c0.2,6.3-3.5,12.4-8.8,15.6C607.6,507.1,605.9,508,604.1,508.5z"/>
				</g>
			</g>
		</g>
		<g>
			<g>
				<g>
					<defs>
						<path id="SVGID_11_" d="M604.1,508.5c-3.3,1.1-6.9,1.1-9.2-2c-1.9-2.5-2.5-5.7-3.8-8.6c-4.8-10.4-18.4-15.4-20.9-26.5
							c-1.2-5.5,0.7-11.1,2-16.6c1.4-5.4,2.2-11.6-0.9-16.4c-1.9-2.9-4.9-4.8-7.1-7.4c-3.7-4.5-4.7-10.7-3.9-16.5
							c1.2-8.8,6.8-15.6,3.9-24.7c-1.5-4.6-5.3-7.9-8.2-11.8c-4.3-5.9-6.3-19.1,3.1-21.6c4.1-1.1,8.4,1.3,10.9,4.7
							c2.5,3.4,3.4,7.7,4.1,11.8c0.7,4.1,1.3,8.4,3.3,12.1c6,11.4,22.1,14.1,28.9,25.1c4.8,7.7,3.7,17.6,1.9,26.5
							s-4.3,18.1-1.8,26.8c2.7,9.5,11,17.3,11.3,27.2c0.2,6.3-3.5,12.4-8.8,15.6C607.6,507.1,605.9,508,604.1,508.5z"/>
					</defs>
					<clipPath id="SVGID_12_">
						<use xlink:href="#SVGID_11_"  style="overflow:visible;"/>
					</clipPath>
					<path class="st84" d="M600.4,508.4c-2.1,0-3.6-0.8-4.8-2.3c-1.1-1.5-1.8-3.3-2.5-5.2c-0.4-1-0.8-2.1-1.2-3.2
						c-2.2-4.8-6.3-8.5-10.3-12.1c-4.8-4.3-9.3-8.4-10.6-14.2c-1-4.6,0.2-9.4,1.5-14.1c0.2-0.7,0.4-1.4,0.5-2.1
						c1.2-4.8,2.4-11.7-1-17c-1.1-1.7-2.7-3.1-4.1-4.5c-1-0.9-2.1-1.9-3-3c-3.2-3.9-4.6-9.6-3.7-15.8c0.4-3,1.4-5.8,2.3-8.6
						c1.7-5.1,3.5-10.4,1.5-16.5c-1.1-3.4-3.4-6.1-5.6-8.7c-0.9-1.1-1.9-2.2-2.7-3.4c-2.7-3.7-4.5-10.4-2.8-15.3
						c0.9-2.6,2.7-4.3,5.4-5.1c0.6-0.2,1.2-0.2,1.9-0.2c2.9,0,6.1,1.8,8.2,4.6c2.4,3.3,3.3,7.5,4,11.5l0.2,1.1
						c0.7,3.8,1.3,7.7,3.2,11.2c3.2,6.1,9.2,9.8,15,13.4c5.3,3.2,10.7,6.6,13.9,11.7c4.7,7.6,3.5,17.3,1.8,25.9
						c-0.2,0.9-0.4,1.8-0.6,2.7c-1.7,8.1-3.5,16.5-1.2,24.6c1.2,4.1,3.3,7.8,5.4,11.5c2.9,5.1,5.7,9.9,5.9,15.5
						c0.2,5.8-3.2,11.8-8.4,14.9c-1.6,1-3.3,1.7-4.8,2.2C602.6,508.2,601.4,508.4,600.4,508.4z"/>
				</g>
			</g>
		</g>
	</g>
	<g>
		
			<linearGradient id="SVGID_13_" gradientUnits="userSpaceOnUse" x1="645.5421" y1="302.0539" x2="590.3658" y2="77.3508" gradientTransform="matrix(1 0 0 -1 0 590)">
			<stop  offset="0.3542" style="stop-color:#BEF6F4"/>
			<stop  offset="0.504" style="stop-color:#3AE4DF"/>
			<stop  offset="0.6423" style="stop-color:#00AFC9"/>
		</linearGradient>
		<path class="st85" d="M590.3,502.4c-3.2-2.6-5.5-6.4-6.5-10.5c-1.3-5.5-0.4-11.3,1.8-16.4c1.7-3.8,4.1-7.4,5.1-11.4
			c3.1-12.5-7.2-23-9.4-34.6c-2.4-12.4,4.9-21,12.4-29.7c7-8.2,10.7-15.8,8.8-26.6c-1.8-10.6-0.2-21.4,5.9-30.4
			c3.9-5.7,9.2-10.4,12.5-16.4c4.6-8.5,2.2-16.6,3.5-25.6c1.1-7.5,7.1-14,14.9-10.4c4.1,1.9,6.8,6.1,7.9,10.4
			c1.3,5.3,1,11.4-1.2,16.4c-1.4,3.2-3.2,6.2-4.3,9.4c-5.5,15.8,9.3,31.8,0.4,47.1c-1.8,3.1-4.3,5.7-6.4,8.6
			c-3.3,4.5-4,9.6-3.5,15.1c0.7,7.3,3.8,14,6.1,21c2.3,6.9,3.9,14.5,1.7,21.4c-2.5,7.8-8.9,13.2-13,20.1c-7.6,13,3.7,29.4-9.5,39.8
			c-5.7,4.5-16.9,7.9-23.7,4.9C592.6,504,591.4,503.3,590.3,502.4z"/>
		<path class="st3" d="M600,504.9c-2.2,0-4.1-0.4-5.7-1.1c-1.2-0.5-2.4-1.2-3.4-2.1c-3-2.4-5.3-6.1-6.2-10
			c-1.2-4.9-0.6-10.6,1.8-15.9c0.6-1.3,1.3-2.6,1.9-3.9c1.3-2.4,2.6-4.9,3.3-7.7c2-8.1-1.4-15.4-4.7-22.4c-1.9-4.1-3.9-8.3-4.7-12.6
			c-2.3-12.1,5.1-20.7,12.2-29c8.1-9.4,10.7-17.3,9-27.3c-1.9-11.1,0.1-21.4,5.8-29.8c1.6-2.4,3.5-4.6,5.4-6.8
			c2.6-3,5.2-6.1,7.1-9.7c3.1-5.8,3.1-11.2,3.1-16.9c0-2.9,0-5.9,0.4-8.9c0.8-5.3,4.3-10.7,9.7-10.7c1.3,0,2.6,0.3,4,1
			c3.5,1.6,6.3,5.3,7.5,9.9c1.3,5.3,0.9,11.2-1.1,15.8c-0.5,1.2-1.1,2.4-1.7,3.5c-0.9,1.9-1.9,3.9-2.6,5.9c-2.6,7.5-0.8,15.1,1,22.5
			c2.1,8.5,4.1,16.6-0.5,24.5c-1.1,1.9-2.5,3.6-3.8,5.3c-0.8,1-1.7,2.1-2.5,3.2c-3.1,4.3-4.3,9.4-3.6,15.7c0.6,5.6,2.5,11,4.4,16.2
			c0.6,1.6,1.2,3.3,1.7,4.9c2,6,4,13.7,1.7,20.9c-1.5,4.7-4.5,8.5-7.6,12.5c-1.8,2.4-3.8,4.8-5.3,7.5c-3.5,5.9-3.2,12.4-2.9,18.6
			c0.4,7.9,0.7,15.4-6.4,20.9C612.7,502.5,605.7,504.9,600,504.9z"/>
		<path class="st1" d="M635.2,311.7c-0.7-0.1-1.3,0.3-1.4,1l-11,60.7l-5.3-20.9c-0.2-0.7-0.8-1-1.5-0.9c-0.7,0.2-1,0.8-0.9,1.5
			l6.6,26.1l-16.1,88.9l-5.2-36.7c-0.1-0.7-0.7-1.1-1.4-1s-1.1,0.7-1,1.4l6.2,44l-3.6,20c-0.1,0.7,0.3,1.3,1,1.4c0.1,0,0.1,0,0.2,0
			c0.6,0,1.1-0.4,1.2-1l11-60.8l13.4-21.6c0.4-0.6,0.2-1.3-0.4-1.7c-0.6-0.4-1.3-0.2-1.7,0.4l-10.1,16.3l21-115.7
			C636.3,312.5,635.9,311.9,635.2,311.7z"/>
	</g>
	<polygon class="st86" points="633,488.2 573.4,488.2 576.6,552.8 629.7,552.8 	"/>
	<g>
		<g>
			<g>
				
					<linearGradient id="SVGID_14_" gradientUnits="userSpaceOnUse" x1="39.6" y1="428.6" x2="139.8" y2="428.6" gradientTransform="matrix(1 0 0 -1 0 590)">
					<stop  offset="6.012090e-02" style="stop-color:#F3F7FF"/>
					<stop  offset="0.1229" style="stop-color:#EBEFF6"/>
					<stop  offset="0.27" style="stop-color:#DDE2E6"/>
					<stop  offset="0.3866" style="stop-color:#D8DDE1"/>
					<stop  offset="0.5335" style="stop-color:#E3E8EE"/>
					<stop  offset="0.7606" style="stop-color:#EFF3FB"/>
					<stop  offset="0.9699" style="stop-color:#F3F7FF"/>
				</linearGradient>
				<path id="SVGID_46_" class="st87" d="M89.7,111.3c-27.7,0-50.1,22.4-50.1,50.1s22.4,50.1,50.1,50.1s50.1-22.4,50.1-50.1
					C139.8,133.7,117.4,111.3,89.7,111.3z M89.7,185.2c-13.1,0-23.8-10.6-23.8-23.8c0-13.1,10.6-23.8,23.8-23.8
					c13.1,0,23.8,10.6,23.8,23.8C113.5,174.5,102.9,185.2,89.7,185.2z"/>
			</g>
			<g>
				<g>
					<g>
						<defs>
							<path id="SVGID_15_" d="M89.7,111.3c-27.7,0-50.1,22.4-50.1,50.1s22.4,50.1,50.1,50.1s50.1-22.4,50.1-50.1
								C139.8,133.7,117.4,111.3,89.7,111.3z M89.7,185.2c-13.1,0-23.8-10.6-23.8-23.8c0-13.1,10.6-23.8,23.8-23.8
								c13.1,0,23.8,10.6,23.8,23.8C113.5,174.5,102.9,185.2,89.7,185.2z"/>
						</defs>
						<clipPath id="SVGID_16_">
							<use xlink:href="#SVGID_15_"  style="overflow:visible;"/>
						</clipPath>
						<g class="st88">
							
								<linearGradient id="SVGID_17_" gradientUnits="userSpaceOnUse" x1="37.4" y1="454.75" x2="142.1" y2="454.75" gradientTransform="matrix(1 0 0 -1 0 590)">
								<stop  offset="6.012090e-02" style="stop-color:#F3F7FF"/>
								<stop  offset="0.1229" style="stop-color:#EBEFF6"/>
								<stop  offset="0.27" style="stop-color:#DDE2E6"/>
								<stop  offset="0.3866" style="stop-color:#D8DDE1"/>
								<stop  offset="0.5335" style="stop-color:#E3E8EE"/>
								<stop  offset="0.7606" style="stop-color:#EFF3FB"/>
								<stop  offset="0.9699" style="stop-color:#F3F7FF"/>
							</linearGradient>
							<rect x="37.4" y="109.1" class="st89" width="104.7" height="52.3"/>
							
								<linearGradient id="SVGID_18_" gradientUnits="userSpaceOnUse" x1="37.4" y1="402.45" x2="142.1" y2="402.45" gradientTransform="matrix(1 0 0 -1 0 590)">
								<stop  offset="6.012090e-02" style="stop-color:#F3F7FF"/>
								<stop  offset="0.1229" style="stop-color:#EBEFF6"/>
								<stop  offset="0.27" style="stop-color:#DDE2E6"/>
								<stop  offset="0.3866" style="stop-color:#D8DDE1"/>
								<stop  offset="0.5335" style="stop-color:#E3E8EE"/>
								<stop  offset="0.7606" style="stop-color:#EFF3FB"/>
								<stop  offset="0.9699" style="stop-color:#F3F7FF"/>
							</linearGradient>
							<rect x="37.4" y="161.4" class="st90" width="104.7" height="52.3"/>
						</g>
					</g>
				</g>
			</g>
		</g>
	</g>
	<g>
		
			<linearGradient id="SVGID_19_" gradientUnits="userSpaceOnUse" x1="489.8174" y1="489.8377" x2="474.4855" y2="412.4967" gradientTransform="matrix(1 0 0 -1 0 590)">
			<stop  offset="0.3786" style="stop-color:#ACD1FF"/>
			<stop  offset="0.501" style="stop-color:#A2C4FF"/>
			<stop  offset="0.6395" style="stop-color:#7FAEFF"/>
		</linearGradient>
		<path class="st91" d="M643.8,173.8H321.1c-4.1,0-7.4-3.3-7.4-7.4v-58.6c0-4.1,3.3-7.4,7-7.4h322.8c4.5,0,7.8,3.3,7.8,7.4v58.6
			C651.3,170.4,647.9,173.8,643.8,173.8z"/>
		<path class="st92" d="M314.4,169.7v-65.3c0-1.8,1.5-3.3,3.3-3.3h329.5c1.8,0,3.3,1.5,3.3,3.3v65.3c0,1.8-1.5,3.3-3.3,3.3H317.7
			C315.9,173,314.4,171.5,314.4,169.7z"/>
		
			<linearGradient id="SVGID_20_" gradientUnits="userSpaceOnUse" x1="161.8" y1="356.65" x2="349.6" y2="356.65" gradientTransform="matrix(1 0 0 -1 0 590)">
			<stop  offset="6.012090e-02" style="stop-color:#F3F7FF"/>
			<stop  offset="0.1229" style="stop-color:#EBEFF6"/>
			<stop  offset="0.27" style="stop-color:#DDE2E6"/>
			<stop  offset="0.3866" style="stop-color:#D8DDE1"/>
			<stop  offset="0.5335" style="stop-color:#E3E8EE"/>
			<stop  offset="0.7606" style="stop-color:#EFF3FB"/>
			<stop  offset="0.9699" style="stop-color:#F3F7FF"/>
		</linearGradient>
		<path class="st93" d="M161.8,266v-65.3c0-1.8,0.8-3.3,1.8-3.3h184.2c1,0,1.8,1.5,1.8,3.3V266c0,1.8-0.8,3.3-1.8,3.3H163.7
			C162.7,269.2,161.8,267.8,161.8,266z"/>
		<g>
			<g>
				<g>
					<g>
						
							<linearGradient id="SVGID_21_" gradientUnits="userSpaceOnUse" x1="365.2723" y1="473.8996" x2="343.4233" y2="432.2825" gradientTransform="matrix(1 0 0 -1 0 590)">
							<stop  offset="0.3542" style="stop-color:#BEF6F4"/>
							<stop  offset="0.504" style="stop-color:#3AE4DF"/>
							<stop  offset="0.6423" style="stop-color:#00AFC9"/>
						</linearGradient>
						<circle class="st94" cx="354.3" cy="137" r="23.7"/>
					</g>
				</g>
				<path class="st3" d="M354.3,160c-12.7,0-22.9-10.3-22.9-22.9c0-12.7,10.3-22.9,22.9-22.9c12.7,0,22.9,10.3,22.9,22.9
					C377.2,149.7,366.9,160,354.3,160z"/>
			</g>
			<g>
				<g>
					<g>
						<g>
							<path class="st1" d="M526.1,132H400.6c-2,0-3.7-1.7-3.7-3.7s1.7-3.7,3.7-3.7h125.5c2,0,3.7,1.7,3.7,3.7S528.1,132,526.1,132z
								"/>
						</g>
						<g>
							<path class="st1" d="M629.5,132h-86.6c-2,0-3.7-1.7-3.7-3.7s1.7-3.7,3.7-3.7h86.6c2,0,3.7,1.7,3.7,3.7S631.6,132,629.5,132z"
								/>
						</g>
						<g>
							<path class="st1" d="M445.4,150.7h-44.8c-2,0-3.7-1.7-3.7-3.7s1.7-3.7,3.7-3.7h44.8c2,0,3.7,1.7,3.7,3.7
								S447.5,150.7,445.4,150.7z"/>
						</g>
					</g>
				</g>
			</g>
		</g>
		
			<linearGradient id="SVGID_22_" gradientUnits="userSpaceOnUse" x1="161.8" y1="259.45" x2="349.6" y2="259.45" gradientTransform="matrix(1 0 0 -1 0 590)">
			<stop  offset="6.012090e-02" style="stop-color:#F3F7FF"/>
			<stop  offset="0.1229" style="stop-color:#EBEFF6"/>
			<stop  offset="0.27" style="stop-color:#DDE2E6"/>
			<stop  offset="0.3866" style="stop-color:#D8DDE1"/>
			<stop  offset="0.5335" style="stop-color:#E3E8EE"/>
			<stop  offset="0.7606" style="stop-color:#EFF3FB"/>
			<stop  offset="0.9699" style="stop-color:#F3F7FF"/>
		</linearGradient>
		<path class="st95" d="M161.8,363.2v-65.3c0-1.8,0.8-3.3,1.8-3.3h184.2c1,0,1.8,1.5,1.8,3.3v65.3c0,1.8-0.8,3.3-1.8,3.3H163.7
			C162.7,366.5,161.8,365,161.8,363.2z"/>
	</g>
	<g>
		
			<linearGradient id="SVGID_23_" gradientUnits="userSpaceOnUse" x1="196.4632" y1="541.4337" x2="149.6479" y2="465.6564" gradientTransform="matrix(1 0 0 -1 0 590)">
			<stop  offset="0.3542" style="stop-color:#BEF6F4"/>
			<stop  offset="0.504" style="stop-color:#3AE4DF"/>
			<stop  offset="0.6423" style="stop-color:#00AFC9"/>
		</linearGradient>
		<path class="st96" d="M208.4,50.6h-69.2c-6.3,0-11.4,5.1-11.4,11.4v46.5c0,6.3,5.1,11.4,11.4,11.4h25.3l9.3,9.3l9.3-9.3h25.3
			c6.3,0,11.4-5.1,11.4-11.4V61.9C219.8,55.7,214.7,50.6,208.4,50.6z"/>
		<path class="st3" d="M164.8,119.1h-25.6c-5.9,0-10.6-4.8-10.6-10.6V61.9c0-5.9,4.8-10.6,10.6-10.6h69.2c5.9,0,10.6,4.8,10.6,10.6
			v46.5c0,5.9-4.8,10.6-10.6,10.6h-25.6l-9,9L164.8,119.1z"/>
		<g>
			<g>
				<path class="st2" d="M178.6,95.7l-4.8,3.1l-4.8-3.1c-12-7.8-12-13.3-12-15.4c0-4.9,4-8.8,8.8-8.8c3.5,0,6.5,2,8,5
					c1.4-2.9,4.5-5,8-5c4.9,0,8.8,4,8.8,8.8C190.6,82.4,190.6,88,178.6,95.7z"/>
			</g>
		</g>
	</g>
	<g>
		
			<linearGradient id="SVGID_24_" gradientUnits="userSpaceOnUse" x1="477.6606" y1="569.0706" x2="443.7928" y2="494.5616" gradientTransform="matrix(1 0 0 -1 0 590)">
			<stop  offset="0.3542" style="stop-color:#BEF6F4"/>
			<stop  offset="0.504" style="stop-color:#3AE4DF"/>
			<stop  offset="0.6423" style="stop-color:#00AFC9"/>
		</linearGradient>
		<path class="st97" d="M427.9,30.5h69.5c5,0,9,4,9,9v29c0,5-4,9-9,9H490v11.9l-11-11.9h-51.1c-5,0-9-4-9-9v-29
			C418.8,34.5,422.9,30.5,427.9,30.5z"/>
		<path class="st3" d="M479.3,76.7h-51.5c-4.5,0-8.2-3.7-8.2-8.2v-29c0-4.5,3.7-8.2,8.2-8.2h69.5c4.5,0,8.2,3.7,8.2,8.2v29
			c0,4.5-3.7,8.2-8.2,8.2h-8.1v10.7L479.3,76.7z"/>
		<g>
			<g>
				<path class="st98" d="M484.9,47.7c3.3,0,6,2.7,6,6s-2.7,6-6,6s-6-2.7-6-6S481.6,47.7,484.9,47.7z M456.7,53.7c0,3.3,2.7,6,6,6
					s6-2.7,6-6s-2.7-6-6-6C459.3,47.7,456.7,50.4,456.7,53.7z M434.4,53.7c0,3.3,2.7,6,6,6s6-2.7,6-6s-2.7-6-6-6
					C437,47.7,434.4,50.4,434.4,53.7z"/>
			</g>
		</g>
	</g>
	<g>
		<g>
			<g>
				<path class="st3" d="M513.5,456.8C513.5,456.7,513.5,456.7,513.5,456.8c0-0.2,0-0.7-0.2-1.6c0-0.1,0-0.2,0-0.2
					c0-0.1,0-0.2-0.1-0.3c-0.5-2.8-1.5-5.5-2.9-7.8l0,0c-0.2-0.3-0.3-0.5-0.5-0.8l0,0c-0.8-1.2-1.7-2.3-2.8-3.3
					c-0.5-0.5-1.1-1-1.6-1.4c-0.3-0.3-0.7-0.5-1.1-0.8c0,0,0,0-0.1,0l0,0c-0.1,0-0.1-0.1-0.2-0.1c-0.2-0.2-0.5-0.3-0.8-0.5l0,0l0,0
					c-0.1-0.1-0.3-0.2-0.4-0.3c-0.1,0-0.1-0.1-0.2-0.1s-0.1-0.1-0.2-0.1c0,0-0.1,0-0.1-0.1c-0.8-0.5-1.7-0.9-2.6-1.2
					c-0.2-0.1-0.4-0.2-0.5-0.2l-0.2-0.1l-0.2-0.1l0,0l0,0c-0.1,0-0.2-0.1-0.3-0.1l0,0l0,0l-0.2-0.1c-0.1,0-0.2-0.1-0.2-0.1l-0.2-0.1
					h-0.1l0,0l0,0c0,0,0,0-0.1,0l-0.2-0.1c-0.1,0-0.1,0-0.2,0s-0.1,0-0.2,0l0,0H497c-0.1,0-0.2,0-0.2-0.1h-0.2c-0.1,0-0.1,0-0.2,0
					l0,0c-0.1,0-0.1,0-0.2,0h-0.1H496l0,0l0,0c0,0,0,0-0.1,0s-0.1,0-0.2,0h-0.1l0,0c-0.1,0-0.1,0-0.2,0h-0.2h-0.1
					c-0.1,0-0.1,0-0.2,0s-0.1,0-0.1,0c-0.1,0-0.2,0-0.2,0h-0.2c0,0,0,0-0.1,0l0,0c-0.1,0-0.1,0-0.2,0s-0.2,0-0.3,0
					c-0.1,0-0.1,0-0.2,0s-0.2,0-0.2,0c-0.1,0-0.2,0-0.2,0c-0.1,0-0.1,0-0.1,0H493h-0.1h-0.1c-0.4,0-0.9,0-1.3,0c-0.1,0-0.2,0-0.3,0
					c-0.1,0-0.2,0-0.3,0c-0.1,0-0.1,0-0.2,0s-0.3,0-0.4,0h-0.1c-0.2,0-0.4,0-0.6,0.1c-0.1,0-0.2,0-0.3,0l0,0l0,0c0,0,0,0-0.1,0
					s-0.3,0-0.4,0.1c-0.1,0-0.2,0-0.3,0.1c-0.2,0-0.4,0.1-0.5,0.1c-0.6,0.1-1.2,0.3-1.8,0.5c-0.4,0.1-0.7,0.2-1.1,0.4
					c-1.7,0.6-3.3,1.4-4.7,2.4l0,0l0,0c-0.1,0.1-0.3,0.2-0.4,0.3c0,0,0,0-0.1,0c-0.3,0.2-0.5,0.4-0.7,0.6c0,0,0,0-0.1,0l0,0l0,0l0,0
					l0,0c-0.1,0.1-0.1,0.1-0.2,0.2s-0.3,0.2-0.4,0.3c-0.1,0.1-0.1,0.1-0.2,0.2s-0.3,0.2-0.4,0.4l0,0l0,0l-0.1,0.1
					c-0.7,0.6-1.1,1.1-1.1,1.1c-0.2,0.2-0.4,0.5-0.6,0.7c-0.1,0.2-0.3,0.3-0.4,0.5l0,0l0,0c-0.3,0.4-0.6,0.8-1,1.3l0,0l0,0l0,0
					c-0.2,0.2-0.3,0.5-0.5,0.8c-0.1,0.2-0.3,0.5-0.4,0.7l-0.4,0.8c-0.1,0.3-0.3,0.5-0.4,0.7c-0.2,0.4-0.4,1-0.7,1.6l0,0l0,0
					c-0.2,0.5-0.4,1.1-0.5,1.7l0,0l0,0c-0.2,0.7-0.4,1.4-0.4,1.9c-0.3,2-0.3,2.2-0.3,3.5c0,1.7,0.2,2.8,0.2,3.4
					c0.2,1.6,0.6,2.9,0.8,3.3c0.5,1.5,0.9,2.3,1.3,3.1c0.2,0.5,0.4,0.9,0.7,1.3c0.3,0.5,0.6,1,1,1.5c0,0.1,0.1,0.1,0.1,0.2
					c0.3,0.5,0.8,1.2,1.3,1.6c0.3,0.3,0.7,0.8,1,1.1c0.3,0.3,0.8,0.7,1.1,1l0,0c0.4,0.3,0.5,0.5,0.9,0.7c0.4,0.3,0.9,0.7,1.3,1l0,0
					c0.1,0.1,0.3,0.2,0.4,0.3c0.2,0.1,0.3,0.2,0.5,0.3c0.1,0,0.2,0.1,0.3,0.2c0,0,0,0,0.1,0c0.1,0.1,0.3,0.2,0.5,0.3
					c0,0,0.1,0,0.1,0.1c0.5,0.3,1.2,0.6,1.9,0.9c0.2,0.1,0.4,0.1,0.6,0.2c0.1,0,0.1,0.1,0.2,0.1l0.4,0.1c0.1,0,0.2,0.1,0.3,0.1h0.1
					l0,0h0.1c0.1,0,0.2,0.1,0.2,0.1l0.2,0.1l0,0c0.9,0.3,1.8,0.4,2.7,0.6h0.1c0.1,0,0.2,0,0.2,0l0,0c0.1,0,0.1,0,0.2,0l0.5,0.1
					c0.2,0,0.5,0,0.7,0.1c0.2,0,0.4,0,0.7,0l0,0l0,0c0.1,0,0.2,0,0.3,0c0.3,0,0.7,0,1,0s0.7,0,1-0.1c0.6-0.1,1.5-0.2,2.1-0.3
					c0.5-0.1,1.2-0.2,1.7-0.4c0.1,0,0.3-0.1,0.4-0.1c0.4-0.1,0.8-0.2,1.1-0.3l0.4-0.1c0.3-0.1,0.6-0.2,0.9-0.4l0.2-0.1
					c0.4-0.1,0.8-0.3,1.2-0.5c0.2-0.1,0.3-0.2,0.5-0.3c0.4-0.2,1-0.5,1.4-0.8l0,0c0.4-0.2,0.7-0.5,1.1-0.7c0.1-0.1,0.2-0.1,0.2-0.2
					l0.4-0.3c0.1-0.1,0.2-0.2,0.3-0.2l0.6-0.5c0.2-0.2,0.6-0.5,1.2-1.1l0,0l0.1-0.1c0.3-0.3,0.7-0.7,1.1-1.2l0,0l0,0
					c0.4-0.5,1.1-1.3,1.8-2.5l0,0c0.2-0.3,0.3-0.6,0.5-0.9l0,0l0,0c0.1-0.1,0.1-0.3,0.2-0.4c0.1-0.2,0.2-0.4,0.3-0.5
					c0-0.1,0.1-0.1,0.1-0.2c0.1-0.3,0.3-0.6,0.4-0.9c0.2-0.4,0.4-0.9,0.5-1.2l0,0c0.2-0.6,0.4-1.3,0.6-2c0.1-0.4,0.2-0.9,0.3-1.3
					s0.2-0.9,0.2-1.3c0-0.1,0-0.2,0-0.3c0.1-0.6,0.1-1.3,0.1-1.9c0,0,0,0,0-0.1l0,0C513.5,457.8,513.5,457.3,513.5,456.8z"/>
				<g>
					<g>
						<path id="SVGID_57_" class="st3" d="M470.4,457L470.4,457c0-0.2,0-0.7,0.1-1.6c0-0.1,0-0.2,0-0.2c0-0.1,0-0.2,0-0.3
							c0.4-2.8,1.4-5.5,2.8-7.9l0,0c0.2-0.3,0.3-0.5,0.5-0.8l0,0c0.8-1.2,1.7-2.3,2.7-3.4c0.5-0.5,1.1-1,1.6-1.4
							c0.3-0.3,0.7-0.6,1.1-0.8c0,0,0,0,0.1,0l0,0c0.1,0,0.1-0.1,0.2-0.1c0.2-0.2,0.5-0.3,0.8-0.5l0,0l0,0c0.1-0.1,0.3-0.2,0.4-0.3
							c0.1,0,0.1-0.1,0.2-0.1s0.1-0.1,0.2-0.1c0,0,0.1,0,0.1-0.1c0.8-0.5,1.7-0.9,2.6-1.3c0.2-0.1,0.4-0.2,0.5-0.2l0.2-0.1l0.2-0.1
							l0,0l0,0c0.1,0,0.2-0.1,0.3-0.1l0,0l0,0l0.2-0.1c0.1,0,0.2-0.1,0.2-0.1l0.2-0.1h0.1l0,0l0,0c0,0,0,0,0.1,0l0.2-0.1
							c0.1,0,0.1,0,0.2-0.1c0.1,0,0.1,0,0.2,0l0,0h0.1c0.1,0,0.2,0,0.2-0.1h0.2c0.1,0,0.1,0,0.2,0l0,0c0.1,0,0.1,0,0.2,0h0.1h0.1
							l0,0l0,0c0,0,0,0,0.1,0s0.1,0,0.2,0h0.1l0,0c0.1,0,0.1,0,0.2,0h0.2h0.1c0.1,0,0.1,0,0.2,0s0.1,0,0.1,0c0.1,0,0.2,0,0.2,0h0.2
							c0,0,0,0,0.1,0l0,0c0.1,0,0.1,0,0.2,0s0.2,0,0.3,0c0.1,0,0.1,0,0.2,0s0.2,0,0.2,0c0.1,0,0.2,0,0.2,0c0.1,0,0.1,0,0.1,0h0.1
							h0.1h0.1c0.4,0,0.9,0,1.3,0c0.1,0,0.2,0,0.3,0c0.1,0,0.2,0,0.3,0c0.1,0,0.1,0,0.2,0s0.3,0,0.4,0h0.1c0.2,0,0.4,0,0.6,0.1
							c0.1,0,0.2,0,0.3,0l0,0l0,0c0,0,0,0,0.1,0s0.3,0,0.4,0.1c0.1,0,0.2,0,0.3,0c0.2,0,0.4,0.1,0.5,0.1c0.6,0.1,1.2,0.3,1.9,0.4
							c0.4,0.1,0.7,0.2,1.1,0.3c1.7,0.6,3.3,1.4,4.8,2.3l0,0l0,0c0.1,0.1,0.3,0.2,0.4,0.3c0,0,0,0,0.1,0c0.3,0.2,0.5,0.4,0.8,0.5
							c0,0,0,0,0.1,0l0,0l0,0l0,0l0,0c0.1,0.1,0.1,0.1,0.2,0.2s0.3,0.2,0.4,0.3c0.1,0.1,0.1,0.1,0.2,0.2s0.3,0.2,0.4,0.4l0,0l0,0
							l0.1,0.1c0.7,0.6,1.1,1.1,1.1,1.1c0.2,0.2,0.4,0.5,0.6,0.7c0.1,0.2,0.3,0.3,0.4,0.5l0,0l0,0c0.3,0.4,0.6,0.8,1,1.3l0,0l0,0
							l0,0c0.2,0.2,0.3,0.5,0.5,0.8c0.1,0.2,0.3,0.5,0.4,0.7l0.4,0.8c0.1,0.3,0.3,0.5,0.4,0.7c0.2,0.4,0.5,1,0.7,1.6l0,0l0,0
							c0.2,0.5,0.4,1.1,0.5,1.7l0,0l0,0c0.2,0.7,0.4,1.4,0.5,1.9c0.3,2,0.3,2.1,0.4,3.5c0,1.7-0.1,2.8-0.2,3.4
							c-0.2,1.6-0.6,2.9-0.7,3.3c-0.4,1.5-0.8,2.3-1.2,3.2c-0.2,0.5-0.4,0.9-0.7,1.3c-0.3,0.5-0.6,1-0.9,1.5c0,0.1-0.1,0.1-0.1,0.2
							c-0.3,0.5-0.8,1.2-1.2,1.6c-0.3,0.3-0.7,0.8-1,1.1c-0.3,0.3-0.7,0.7-1.1,1l0,0c-0.4,0.3-0.5,0.5-0.9,0.7
							c-0.4,0.3-0.9,0.7-1.3,1l0,0c-0.1,0.1-0.3,0.2-0.4,0.3c-0.2,0.1-0.3,0.2-0.5,0.3c-0.1,0-0.2,0.1-0.3,0.2c0,0,0,0-0.1,0
							c-0.1,0.1-0.3,0.2-0.5,0.3c0,0-0.1,0-0.1,0.1c-0.5,0.3-1.2,0.6-1.9,0.9c-0.2,0.1-0.4,0.2-0.6,0.3c-0.1,0-0.1,0.1-0.2,0.1
							l-0.4,0.1c-0.1,0-0.2,0.1-0.3,0.1h-0.1l0,0h-0.1c-0.1,0-0.2,0.1-0.2,0.1l-0.2,0.1l0,0c-0.9,0.3-1.8,0.5-2.7,0.6h-0.1
							c-0.1,0-0.2,0-0.2,0l0,0c-0.1,0-0.1,0-0.2,0l-0.5,0.1c-0.2,0-0.5,0-0.7,0.1c-0.2,0-0.4,0-0.7,0l0,0l0,0c-0.1,0-0.2,0-0.3,0
							c-0.3,0-0.7,0-1,0s-0.7,0-1,0c-0.6-0.1-1.5-0.1-2.1-0.2c-0.5-0.1-1.2-0.2-1.7-0.3c-0.1,0-0.3-0.1-0.4-0.1
							c-0.4-0.1-0.8-0.2-1.1-0.3l-0.4-0.1c-0.3-0.1-0.6-0.2-0.9-0.3l-0.2-0.1c-0.4-0.1-0.8-0.3-1.2-0.5c-0.2-0.1-0.3-0.2-0.5-0.2
							c-0.4-0.2-1-0.5-1.4-0.8l0,0c-0.4-0.2-0.7-0.5-1.1-0.7c-0.1-0.1-0.2-0.1-0.2-0.2l-0.4-0.3c-0.1-0.1-0.2-0.2-0.3-0.2l-0.6-0.5
							c-0.2-0.2-0.6-0.5-1.2-1.1l0,0l-0.1-0.1c-0.3-0.3-0.7-0.7-1.1-1.2l0,0l0,0c-0.4-0.5-1.1-1.3-1.8-2.4l0,0
							c-0.2-0.3-0.3-0.5-0.5-0.8l0,0l0,0c-0.1-0.1-0.1-0.3-0.2-0.4c-0.1-0.2-0.2-0.4-0.3-0.5c0-0.1-0.1-0.1-0.1-0.2
							c-0.1-0.3-0.3-0.6-0.4-0.9c-0.2-0.4-0.4-0.8-0.5-1.2l0,0c-0.2-0.6-0.5-1.3-0.6-2c-0.1-0.4-0.2-0.9-0.3-1.3
							c-0.1-0.4-0.2-0.9-0.2-1.3c0-0.1,0-0.2,0-0.3c-0.1-0.6-0.1-1.3-0.1-1.9c0,0,0,0,0-0.1l0,0C470.4,458.1,470.4,457.6,470.4,457z
							"/>
					</g>
				</g>
			</g>
		</g>
	</g>
	
		<linearGradient id="SVGID_25_" gradientUnits="userSpaceOnUse" x1="580.4467" y1="533.7383" x2="561.2311" y2="483.1714" gradientTransform="matrix(1 0 0 -1 0 590)">
		<stop  offset="0.3607" style="stop-color:#9FA9FF"/>
		<stop  offset="0.5031" style="stop-color:#909CFF"/>
		<stop  offset="0.6491" style="stop-color:#7A88FF"/>
	</linearGradient>
	<circle class="st99" cx="570.4" cy="82.7" r="27.3"/>
	<path class="st3" d="M570.4,109.3c-14.7,0-26.6-11.9-26.6-26.6s11.9-26.6,26.6-26.6c14.7,0,26.6,11.9,26.6,26.6
		S585,109.3,570.4,109.3z"/>
	<g>
		<g>
			<g>
				
					<linearGradient id="SVGID_26_" gradientUnits="userSpaceOnUse" x1="560.9137" y1="516.8" x2="579.8491" y2="516.8" gradientTransform="matrix(1 0 0 -1 0 590)">
					<stop  offset="6.012090e-02" style="stop-color:#F3F7FF"/>
					<stop  offset="0.1229" style="stop-color:#EBEFF6"/>
					<stop  offset="0.27" style="stop-color:#DDE2E6"/>
					<stop  offset="0.3866" style="stop-color:#D8DDE1"/>
					<stop  offset="0.5335" style="stop-color:#E3E8EE"/>
					<stop  offset="0.7606" style="stop-color:#EFF3FB"/>
					<stop  offset="0.9699" style="stop-color:#F3F7FF"/>
				</linearGradient>
				<path class="st100" d="M579.8,73.2c0,5.2-4.2,9.5-9.5,9.5c-5.2,0-9.5-4.2-9.5-9.5s4.2-9.5,9.5-9.5
					C575.6,63.8,579.8,68,579.8,73.2z"/>
				
					<linearGradient id="SVGID_27_" gradientUnits="userSpaceOnUse" x1="552.2" y1="492.8" x2="588.6" y2="492.8" gradientTransform="matrix(1 0 0 -1 0 590)">
					<stop  offset="6.012090e-02" style="stop-color:#F3F7FF"/>
					<stop  offset="0.1229" style="stop-color:#EBEFF6"/>
					<stop  offset="0.27" style="stop-color:#DDE2E6"/>
					<stop  offset="0.3866" style="stop-color:#D8DDE1"/>
					<stop  offset="0.5335" style="stop-color:#E3E8EE"/>
					<stop  offset="0.7606" style="stop-color:#EFF3FB"/>
					<stop  offset="0.9699" style="stop-color:#F3F7FF"/>
				</linearGradient>
				<path class="st101" d="M570.4,107.6c7.2,0,13.6-3.1,18.2-7.9c-2.6-7.5-9.8-12.9-18.2-12.9s-15.5,5.4-18.2,12.9
					C556.7,104.6,563.2,107.6,570.4,107.6z"/>
			</g>
		</g>
	</g>
</g>
<g>
	<polygon class="st102" points="-4.2,354.1 -2.2,352.3 4,358.6 3.2,360 	"/>
	<polygon class="st102" points="3.3,352.3 4.7,353.3 -4.8,360 -5.4,358.8 	"/>
</g>
</svg>
