<?xml version="1.0" encoding="utf-8"?>
<!-- Generator: Adobe Illustrator 25.2.1, SVG Export Plug-In . SVG Version: 6.00 Build 0)  -->
<svg version="1.1" xmlns="http://www.w3.org/2000/svg" xmlns:xlink="http://www.w3.org/1999/xlink" x="0px" y="0px"
	 viewBox="0 0 579 380" style="enable-background:new 0 0 579 380;" xml:space="preserve">
<style type="text/css">
	.st0{fill:#3C4354;}
	.st1{fill:#27DEBF;}
	.st2{fill:#4675CD;}
	.st3{fill:#FAFAFA;}
	.st4{fill:#4069A5;}
	.st5{opacity:0.5;fill:#4069A5;}
	.st6{fill:#E0E0E0;}
	.st7{fill:#1D2430;}
	.st8{fill:#37474F;}
	.st9{fill:#263238;}
	.st10{fill:#455A64;}
	.st11{fill:#F5F5F5;}
	.st12{fill:#E7E7E7;}
	.st13{fill:#F28F8F;}
	.st14{fill:#FFA8A7;}
</style>
<g id="Floor">
	<g id="XMLID_15997_">
		<g id="XMLID_15998_">
			<path class="st0" d="M144.3,335.3c83.8,43.8,219.6,43.8,303.4,0c83.8-43.8,83.8-114.7,0-158.5c-83.8-43.8-219.6-43.8-303.4,0
				C60.5,220.6,60.5,291.5,144.3,335.3z"/>
		</g>
	</g>
</g>
<g id="Plants">
	<g id="XMLID_15937_">
		<g id="XMLID_15913_">
			<g id="XMLID_15915_">
				<path class="st1" d="M465.5,249.6c0,0,1.1-5.3,9.6-9.4c8.3-4,13.1-3.1,18.8-5.4c5.8-2.3,1.6-13-14-8.3
					c-14.3,4.4-15.7,16.7-15.7,16.7L465.5,249.6z"/>
				<path class="st2" d="M465.5,249.6c0,0,1.1-5.3,9.6-9.4c8.3-4,13.1-3.1,18.8-5.4c5.8-2.3,1.6-13-14-8.3
					c-14.3,4.4-15.7,16.7-15.7,16.7L465.5,249.6z"/>
			</g>
			<g id="XMLID_15914_">
				<path class="st3" d="M464,247.6c-0.1,0-0.1,0-0.2,0c-0.3-0.1-0.4-0.4-0.3-0.7c2-5.7,7-11,13.5-14.2c8.4-4.1,14.3-2.8,14.6-2.7
					c0.3,0.1,0.5,0.4,0.4,0.7c-0.1,0.3-0.4,0.5-0.7,0.4c-0.1,0-5.9-1.3-13.8,2.6c-6.2,3.1-11.1,8.1-13,13.6
					C464.5,247.5,464.2,247.6,464,247.6z"/>
			</g>
		</g>
		<g id="XMLID_15910_">
			<g id="XMLID_15912_">
				<path class="st2" d="M464.3,243c0,0,1-3,4.8-8.9c6.6-10.2,17.5-14.6,22.2-20.4c5.1-6.3-3.7-10.2-11.6-8
					c-4.5,1.3-8.7,5.4-10.9,8.2c-7.6,9.8-7.6,21-7.6,21L464.3,243z"/>
			</g>
			<g id="XMLID_15911_">
				<path class="st2" d="M462.8,243.2C462.8,243.2,462.8,243.2,462.8,243.2c-0.3,0-0.6-0.3-0.5-0.6c0-0.1,0.3-9.5,5.5-18.8
					c6-10.8,14.9-14.6,15.3-14.8c0.3-0.1,0.6,0,0.7,0.3c0.1,0.3,0,0.6-0.3,0.7c-0.1,0-8.9,3.9-14.8,14.3c-5.1,9.1-5.4,18.3-5.4,18.3
					C463.3,243,463.1,243.2,462.8,243.2z"/>
			</g>
		</g>
	</g>
	<g id="XMLID_15855_">
		<g id="XMLID_15856_">
			<path class="st1" d="M172,252c-7.2-4.8-7.5-17.8-6.5-26c1.7-13-5-16-8.4-10.3c-1.6,2.8-3.7,8.9-3.5,15.9
				c0.4,11.1,5.2,24.3,16.8,29.1L172,252z"/>
			<path class="st2" d="M172,252c-7.2-4.8-7.5-17.8-6.5-26c1.7-13-5-16-8.4-10.3c-1.6,2.8-3.7,8.9-3.5,15.9
				c0.4,11.1,5.2,24.3,16.8,29.1L172,252z"/>
		</g>
		<g id="XMLID_15857_">
			<path class="st3" d="M170.5,260c-0.1,0-0.2,0-0.3-0.1c-12.2-10.4-14.1-29-10.7-41.9c0.1-0.3,0.3-0.4,0.6-0.4
				c0.3,0.1,0.4,0.3,0.4,0.6c-3.3,12.6-1.5,30.7,10.4,40.9c0.2,0.2,0.2,0.5,0.1,0.7C170.8,259.9,170.7,260,170.5,260z"/>
		</g>
	</g>
	<g id="XMLID_15848_">
		<g id="XMLID_15851_">
			<path class="st2" d="M182.8,276c-6.3,4.5-20.6,8.4-25.3,0.7c-4.4-7.2-1.4-10.3-10.3-9.1c-8.8,1.2-10.9-5.6-8.8-11.4
				c2.1-5.8-6.6-14.2-0.3-20.7c6.3-6.5,10,7.1,13.7,8.5c3.6,1.5,5.9-1.7,10.2,0.6c4.2,2.3,4.6,11.8,8.8,11.9
				c6.8,0.3,18.1,0.3,19,6.3C190.6,268.9,182.8,276,182.8,276z"/>
		</g>
		<g id="XMLID_15852_">
			<path class="st3" d="M185.4,273.4C185.4,273.4,185.4,273.4,185.4,273.4c-32.8-3.4-45.5-32-46.3-36.2c-0.1-0.3,0.1-0.5,0.4-0.6
				c0.3-0.1,0.5,0.1,0.6,0.4c0.8,4.1,13.2,32,45.3,35.3c0.3,0,0.5,0.3,0.4,0.5C185.9,273.2,185.7,273.4,185.4,273.4z"/>
		</g>
		<g id="XMLID_15853_">
			<path class="st3" d="M149.6,260.6c-3.3,0-6-0.5-6.2-0.5c-0.3,0-0.5-0.3-0.4-0.6c0-0.3,0.3-0.5,0.6-0.4c0.1,0,6.2,1.1,11.3,0
				c0.3-0.1,0.5,0.1,0.6,0.4c0.1,0.3-0.1,0.5-0.4,0.6C153.3,260.4,151.3,260.6,149.6,260.6z"/>
		</g>
		<g id="XMLID_15854_">
			<path class="st3" d="M159.4,263.6c0,0-0.1,0-0.1,0c-0.3-0.1-0.4-0.3-0.4-0.6c1.7-7.4,0.7-13.5,0.7-13.6c0-0.3,0.1-0.5,0.4-0.6
				c0.3,0,0.5,0.1,0.6,0.4c0,0.3,1,6.4-0.7,14C159.8,263.4,159.6,263.6,159.4,263.6z"/>
		</g>
	</g>
</g>
<g id="Icons">
	<g>
		<g id="XMLID_15872_">
			<g id="XMLID_15903_">
				<path class="st4" d="M98.1,224l15.7-8.7c1.3-0.7,3.5-0.7,4.9,0l2,1.1c1.3,0.7,2.4,2.5,2.4,4v17.3c0,1.5-1.1,3.3-2.4,4l-15.7,8.7
					c-1.3,0.7-3.5,0.7-4.9,0l-2-1.1c-1.3-0.7-2.4-2.5-2.4-4V228C95.6,226.5,96.7,224.7,98.1,224z"/>
				<path class="st5" d="M98.1,224l15.7-8.7c1.3-0.7,3.5-0.7,4.9,0l2,1.1c1.3,0.7,2.4,2.5,2.4,4v17.3c0,1.5-1.1,3.3-2.4,4l-15.7,8.7
					c-1.3,0.7-3.5,0.7-4.9,0l-2-1.1c-1.3-0.7-2.4-2.5-2.4-4V228C95.6,226.5,96.7,224.7,98.1,224z"/>
			</g>
			<g id="XMLID_15902_">
				<path class="st4" d="M123.1,220.5c0-1.5-1.1-2.1-2.4-1.3l-15.7,8.7c-1.3,0.7-2.4,2.5-2.4,4l0,17.3c0,1.5,1.1,2.1,2.4,1.3
					l15.7-8.7c1.3-0.7,2.4-2.5,2.4-4V220.5z"/>
			</g>
			<g id="XMLID_15901_">
				<path class="st4" d="M95.6,245.3c0,1.5,1.1,3.3,2.4,4l2,1.1c1.2,0.7,3.1,0.7,4.5,0.2c-1.1,0.4-2-0.2-2-1.5l0-17.3
					c0-0.7,0.3-1.6,0.7-2.3l-6.9-3.8c-0.4,0.7-0.7,1.6-0.7,2.3V245.3z"/>
				<path class="st4" d="M95.6,245.3c0,1.5,1.1,3.3,2.4,4l2,1.1c1.2,0.7,3.1,0.7,4.5,0.2c-1.1,0.4-2-0.2-2-1.5l0-17.3
					c0-0.7,0.3-1.6,0.7-2.3l-6.9-3.8c-0.4,0.7-0.7,1.6-0.7,2.3V245.3z"/>
			</g>
		</g>
		<g id="XMLID_15569_">
			<path class="st3" d="M106.1,233.8l13.3-7.7c0.4-0.2,0.6,0,0.6,0.4v9.1c0,0.4-0.3,0.9-0.6,1.1l-13.3,7.7c-0.4,0.2-0.6,0-0.6-0.4
				V235C105.5,234.6,105.8,234.1,106.1,233.8z"/>
		</g>
		<g id="XMLID_15846_">
			<polygon class="st6" points="105.5,234.2 113.5,236.8 120.1,225.7 113.7,237.7 			"/>
		</g>
	</g>
	<g>
		<g id="XMLID_15866_">
			<g id="XMLID_15871_">
				<path class="st4" d="M98.1,178.7l15.7-9.1c1.3-0.8,3.5-0.8,4.9,0l2,1.1c1.3,0.8,2.4,2.7,2.4,4.2l0,18.1c0,1.6-1.1,3.4-2.4,4.2
					l-15.7,9.1c-1.3,0.8-3.5,0.8-4.9,0l-2-1.1c-1.3-0.8-2.4-2.7-2.4-4.2v-18.1C95.6,181.4,96.7,179.5,98.1,178.7z"/>
				<path class="st5" d="M98.1,178.7l15.7-9.1c1.3-0.8,3.5-0.8,4.9,0l2,1.1c1.3,0.8,2.4,2.7,2.4,4.2l0,18.1c0,1.6-1.1,3.4-2.4,4.2
					l-15.7,9.1c-1.3,0.8-3.5,0.8-4.9,0l-2-1.1c-1.3-0.8-2.4-2.7-2.4-4.2v-18.1C95.6,181.4,96.7,179.5,98.1,178.7z"/>
			</g>
			<g id="XMLID_15870_">
				<path class="st4" d="M123.1,175c0-1.6-1.1-2.2-2.4-1.4l-15.7,9.1c-1.3,0.8-2.4,2.7-2.4,4.2V205c0,1.6,1.1,2.2,2.4,1.4l15.7-9.1
					c1.3-0.8,2.4-2.7,2.4-4.2L123.1,175z"/>
			</g>
			<g id="XMLID_15869_">
				<path class="st4" d="M95.6,201c0,1.6,1.1,3.4,2.4,4.2l2,1.1c1.2,0.7,3.1,0.8,4.5,0.2c-1.1,0.4-2-0.2-2-1.6v-18.1
					c0-0.8,0.3-1.6,0.7-2.4l-6.9-4c-0.4,0.8-0.7,1.6-0.7,2.4V201z"/>
				<path class="st4" d="M95.6,201c0,1.6,1.1,3.4,2.4,4.2l2,1.1c1.2,0.7,3.1,0.8,4.5,0.2c-1.1,0.4-2-0.2-2-1.6v-18.1
					c0-0.8,0.3-1.6,0.7-2.4l-6.9-4c-0.4,0.8-0.7,1.6-0.7,2.4V201z"/>
			</g>
		</g>
		<g id="XMLID_15847_">
			<g id="XMLID_15864_">
				<path class="st3" d="M112.6,196.9l-1.7-0.1c-2.2-0.2-4.8-1-4.8-4.2c0-2.1,1.5-4.7,3.3-5.8c1.4-0.8,2.7-0.5,3.1,0.7
					c0.5-1.7,1.7-3.5,3.1-4.3c1.8-1.1,3.3-0.2,3.3,1.9c0,3.1-2.6,7-4.8,9.7L112.6,196.9z"/>
			</g>
		</g>
	</g>
	<g>
		<g id="XMLID_15904_">
			<g id="XMLID_15909_">
				<path class="st4" d="M98.1,133l15.7-9.1c1.3-0.8,3.5-0.8,4.9,0l2,1.1c1.3,0.8,2.4,2.7,2.4,4.2v18.1c0,1.6-1.1,3.4-2.4,4.2
					l-15.7,9.1c-1.3,0.8-3.5,0.8-4.9,0l-2-1.1c-1.3-0.8-2.4-2.7-2.4-4.2v-18.1C95.6,135.6,96.7,133.7,98.1,133z"/>
				<path class="st5" d="M98.1,133l15.7-9.1c1.3-0.8,3.5-0.8,4.9,0l2,1.1c1.3,0.8,2.4,2.7,2.4,4.2v18.1c0,1.6-1.1,3.4-2.4,4.2
					l-15.7,9.1c-1.3,0.8-3.5,0.8-4.9,0l-2-1.1c-1.3-0.8-2.4-2.7-2.4-4.2v-18.1C95.6,135.6,96.7,133.7,98.1,133z"/>
			</g>
			<g id="XMLID_15908_">
				<path class="st4" d="M104.9,160.7c-1.3,0.8-2.4,0.1-2.4-1.4l0-18.1c0-1.6,1.1-3.4,2.4-4.2l15.7-9.1c1.3-0.8,2.4-0.1,2.4,1.4
					v18.1c0,1.6-1.1,3.4-2.4,4.2"/>
			</g>
			<g id="XMLID_15907_">
				<path class="st4" d="M95.6,155.3c0,1.6,1.1,3.4,2.4,4.2l2,1.1c1.2,0.7,3.1,0.8,4.5,0.2c-1.1,0.4-2-0.2-2-1.6l0-18.1
					c0-0.8,0.3-1.6,0.7-2.4l-6.9-4c-0.4,0.8-0.7,1.6-0.7,2.4V155.3z"/>
				<path class="st4" d="M95.6,155.3c0,1.6,1.1,3.4,2.4,4.2l2,1.1c1.2,0.7,3.1,0.8,4.5,0.2c-1.1,0.4-2-0.2-2-1.6l0-18.1
					c0-0.8,0.3-1.6,0.7-2.4l-6.9-4c-0.4,0.8-0.7,1.6-0.7,2.4V155.3z"/>
			</g>
		</g>
		<g id="XMLID_15867_">
			<g id="XMLID_15873_">
				<path class="st3" d="M109.9,144c0,0,1.8-4.2,2-4.8c0.2-0.6,0-2.7,0-3.1c0-0.4,1.7-1.5,2.2-0.4c0.5,1.2,0.6,2.4,0.3,3.9l4.1-2.4
					c0.9-0.5,1.2,0.2,1.2,0.8c0,0.8-0.4,1.5-0.7,1.8c0,0,0.8-0.2,0.8,0.8c0,0.6-0.4,1.5-1,2c0,0,0.3,0.2,0.3,1c0,0.5-0.6,1.7-1.1,2
					c0,0,0.2,0.4,0.2,1c0,0.7-0.6,1.8-1.5,2.3c-0.9,0.5-6.7,3.9-6.7,3.9L109.9,144z"/>
			</g>
			<g id="XMLID_15868_">
				<polygon class="st3" points="106.1,156.3 109,154.5 108.9,144.3 106,146.1 				"/>
			</g>
		</g>
	</g>
	<g id="XMLID_15863_">
		<g id="XMLID_15880_">
			<g id="XMLID_15883_">
				<path class="st1" d="M89.5,79.5c0,0,24.1-13.9,24.1-13.9c5.5-2.9,14,2,14.2,8.2c-1.1,5.4,3.1,31.5-3.7,34.2
					c0,0-24.1,13.9-24.1,13.9c-5.5,2.9-14-2-14.2-8.2C86.8,108.3,82.6,82.2,89.5,79.5z"/>
				<path class="st2" d="M89.5,79.5c0,0,24.1-13.9,24.1-13.9c5.5-2.9,14,2,14.2,8.2c-1.1,5.4,3.1,31.5-3.7,34.2
					c0,0-24.1,13.9-24.1,13.9c-5.5,2.9-14-2-14.2-8.2C86.8,108.3,82.6,82.2,89.5,79.5z"/>
			</g>
			<g id="XMLID_15875_">
				<path class="st1" d="M127.8,73.6c0-1.4-0.7-4.8-4.2-2.7c-6.3,4.7-24.2,11.6-27.3,17.7l1.9,1.9L127.8,73.6z"/>
				<path class="st2" d="M127.8,73.6c0-1.4-0.7-4.8-4.2-2.7c-6.3,4.7-24.2,11.6-27.3,17.7l1.9,1.9L127.8,73.6z"/>
			</g>
			<g id="XMLID_15882_">
				<path class="st1" d="M100,121.9c-2.1,1.2-3.7,0.2-3.7-2.2c1.1-5.4-3.1-31.5,3.7-34.2c0,0,24.1-13.9,24.1-13.9
					c2.1-1.2,3.7-0.2,3.7,2.2c-1.1,5.4,3.1,31.5-3.7,34.2"/>
				<path class="st2" d="M100,121.9c-2.1,1.2-3.7,0.2-3.7-2.2c1.1-5.4-3.1-31.5,3.7-34.2c0,0,24.1-13.9,24.1-13.9
					c2.1-1.2,3.7-0.2,3.7,2.2c-1.1,5.4,3.1,31.5-3.7,34.2"/>
			</g>
			<g id="XMLID_15881_">
				<path class="st1" d="M85.7,113.7c0.3,6,8.1,10.7,13.6,8.5c-1.8,0.7-3.1-0.3-3.1-2.5c0.4-2.5-1-30.1,1.1-31.5l-10.5-6.1
					C84.7,83.5,86.1,111.3,85.7,113.7z"/>
				<path class="st2" d="M85.7,113.7c0.3,6,8.1,10.7,13.6,8.5c-1.8,0.7-3.1-0.3-3.1-2.5c0.4-2.5-1-30.1,1.1-31.5l-10.5-6.1
					C84.7,83.5,86.1,111.3,85.7,113.7z"/>
			</g>
		</g>
		<g id="XMLID_15862_">
			<path class="st3" d="M112.7,82.3l3.1,5.5l7-2.9c0.7-0.3,0.9,0.5,0.4,1.3l-5.1,8.6l1.2,7.3c0.1,0.7-0.6,1.7-1.2,1.7l-6.2-0.2
				l-6.2,7.4c-0.6,0.7-1.3,0.5-1.2-0.3l1.2-8.7l-5.1-2.8c-0.5-0.3-0.2-1.4,0.4-1.8l7-5.2l3.1-9.1C111.6,82.2,112.4,81.8,112.7,82.3z
				"/>
		</g>
	</g>
</g>
<g id="Shadow">
	<g id="XMLID_15961_">
		<path class="st7" d="M451,209.2c-12,5.7-31.4,5.7-43.4,0c-12-5.7-12-15,0-20.7c12-5.7,31.4-5.7,43.4,0
			C462.9,194.2,462.9,203.5,451,209.2z"/>
	</g>
</g>
<g id="Device">
	<g id="XMLID_15860_">
		<g id="XMLID_15587_">
			<path class="st8" d="M178.2,275.5c0,2.6,1.9,5.8,4.3,7.2l121.3,70c2.4,1.4,6.3,1.4,8.7,0l166-95.8c2.4-1.4,4.3-4.6,4.3-7.2
				c0-2.6-1.9-5.8-4.3-7.2l-121.3-70c-2.4-1.4-6.3-1.4-8.7,0l-166,95.8C180.1,269.7,178.2,272.9,178.2,275.5z"/>
		</g>
		<g id="XMLID_15874_">
			<path class="st9" d="M228.3,241.9l-45.7,26.4c-2.4,1.4-4.3,4.6-4.3,7.2c0,2.6,1.9,5.8,4.3,7.2l121.3,70c1.2,0.7,2.8,1,4.3,1
				V241.9H228.3z"/>
		</g>
		<g id="XMLID_15585_">
			<path class="st10" d="M174.1,268.4c-2.2-1.3-4.1-4.6-4.1-7.3l0-144.8c0-2.8,1.9-6.1,4.3-7.5l166-95.8c2.4-1.4,6.1-1.4,8.4-0.2
				c2.2,1.3,4.1,4.6,4.1,7.3v144.8c0,2.8-1.9,6.1-4.3,7.5l-166,95.8C180.1,269.7,176.4,269.7,174.1,268.4z"/>
		</g>
		<g id="XMLID_15592_">
			<path class="st9" d="M190.4,123l-19-11c-0.8,1.4-1.3,2.9-1.3,4.3l0,144.8c0,2.8,1.8,6,4.1,7.3c2.2,1.3,6,1.2,8.4-0.2l18.9-10.9
				L190.4,123z"/>
		</g>
		<g id="XMLID_15584_">
			<path class="st8" d="M178.2,121v144.8c0,2.8,1.9,3.9,4.3,2.5l166-95.8c2.4-1.4,4.3-4.7,4.3-7.5V20.1c0-2.8-1.9-3.9-4.3-2.5
				l-166,95.8C180.1,114.9,178.2,118.2,178.2,121z"/>
		</g>
		<g id="XMLID_15586_">
			<path class="st10" d="M182.5,273.3l121.3,70c2.4,1.4,6.3,1.4,8.7,0l166-95.8c2.4-1.4,2.4-3.6,0-5l-121.3-70
				c-2.4-1.4-6.3-1.4-8.7,0l-166,95.8C180.1,269.7,180.1,271.9,182.5,273.3z"/>
		</g>
		<g id="XMLID_15588_">
			<path class="st3" d="M184.9,121.5l161.3-93.2c1.4-0.8,2.6-0.2,2.6,1.5v125.3c0,1.7-1.2,3.7-2.6,4.5l-161.3,93.2
				c-1.4,0.8-2.6,0.2-2.6-1.5V126C182.3,124.4,183.4,122.4,184.9,121.5z"/>
		</g>
		<g id="XMLID_15589_">
			<path class="st9" d="M196.6,269.5l154.1-89c1.2-0.7,3.1-0.7,4.3,0l7.9,4.6c1.2,0.7,1.2,1.8,0,2.5l-154.1,88.9
				c-1.2,0.7-3.1,0.7-4.3,0l-7.9-4.5C195.4,271.3,195.4,270.2,196.6,269.5z"/>
		</g>
		<g id="XMLID_15590_">
			<path class="st9" d="M216.9,281.3l154.1-89c1.2-0.7,3.1-0.7,4.3,0l48.5,28c1.2,0.7,1.2,1.8,0,2.5l-153.9,88.8
				c-1.2,0.7-3.1,0.7-4.3,0l-48.6-27.9C215.7,283.1,215.7,281.9,216.9,281.3z"/>
		</g>
		<g id="XMLID_15605_">
			<path class="st6" d="M355.1,232.3l4.8-2.8c0.2-0.1,0.2-0.3,0-0.4l-5.6-3.2c-0.2-0.1-0.6-0.1-0.8,0l-4.8,2.8
				c-0.2,0.1-0.2,0.3,0,0.4l5.6,3.2C354.5,232.4,354.8,232.4,355.1,232.3z M345.5,221.2l-4.8,2.8c-0.2,0.1-0.2,0.3,0,0.4l5.6,3.2
				c0.2,0.1,0.6,0.1,0.8,0l4.8-2.8c0.2-0.1,0.2-0.3,0-0.4l-5.6-3.2C346.1,221.1,345.7,221.1,345.5,221.2z M329.9,230.2l-8.2,4.7
				c-0.2,0.1-0.2,0.3,0,0.4l5.6,3.2c0.2,0.1,0.6,0.1,0.8,0l8.2-4.7c0.2-0.1,0.2-0.3,0-0.4l-5.6-3.2
				C330.5,230.1,330.1,230.1,329.9,230.2z M338.5,225.3l-4.8,2.8c-0.2,0.1-0.2,0.3,0,0.4l5.6,3.2c0.2,0.1,0.6,0.1,0.8,0l4.8-2.8
				c0.2-0.1,0.2-0.3,0-0.4l-5.6-3.2C339,225.2,338.7,225.2,338.5,225.3z M319.6,236.2l-4.8,2.8c-0.2,0.1-0.2,0.3,0,0.4l5.6,3.2
				c0.2,0.1,0.6,0.1,0.8,0l4.8-2.8c0.2-0.1,0.2-0.3,0-0.4l-5.6-3.2C320.1,236.1,319.8,236.1,319.6,236.2z M312.5,240.3l-4.8,2.8
				c-0.2,0.1-0.2,0.3,0,0.4l5.6,3.2c0.2,0.1,0.6,0.1,0.8,0l4.8-2.8c0.2-0.1,0.2-0.3,0-0.4l-5.6-3.2
				C313.1,240.2,312.7,240.2,312.5,240.3z M334.4,253.4l4.8-2.8c0.2-0.1,0.2-0.3,0-0.4l-5.6-3.2c-0.2-0.1-0.6-0.1-0.8,0l-4.8,2.8
				c-0.2,0.1-0.2,0.3,0,0.4l5.6,3.2C333.9,253.5,334.2,253.5,334.4,253.4z M327.4,257.5l4.8-2.8c0.2-0.1,0.2-0.3,0-0.4l-5.6-3.2
				c-0.2-0.1-0.6-0.1-0.8,0l-4.8,2.8c-0.2,0.1-0.2,0.3,0,0.4l5.6,3.2C326.8,257.6,327.2,257.6,327.4,257.5z M320.3,261.6l4.8-2.8
				c0.2-0.1,0.2-0.3,0-0.4l-5.6-3.2c-0.2-0.1-0.6-0.1-0.8,0l-4.8,2.8c-0.2,0.1-0.2,0.3,0,0.4l5.6,3.2
				C319.8,261.7,320.1,261.7,320.3,261.6z M313.3,265.6l4.8-2.8c0.2-0.1,0.2-0.3,0-0.4l-5.6-3.2c-0.2-0.1-0.6-0.1-0.8,0l-4.8,2.8
				c-0.2,0.1-0.2,0.3,0,0.4l5.6,3.2C312.7,265.7,313.1,265.7,313.3,265.6z M348,236.4l4.8-2.8c0.2-0.1,0.2-0.3,0-0.4l-5.6-3.2
				c-0.2-0.1-0.6-0.1-0.8,0l-4.8,2.8c-0.2,0.1-0.2,0.3,0,0.4l5.6,3.2C347.5,236.5,347.8,236.5,348,236.4z M341.5,249.3l10.8-6.2
				c0.2-0.1,0.2-0.3,0-0.4l-13.5-7.8c-0.2-0.1-0.6-0.1-0.8,0l-5.6,3.2c-0.2,0.1-0.2,0.3,0,0.4l7.2,4.1c0.2,0.1,0.2,0.3,0,0.4
				l-4.5,2.6c-0.2,0.1-0.2,0.3,0,0.4l5.6,3.2C340.9,249.5,341.3,249.5,341.5,249.3z M305.5,244.4l-4.8,2.8c-0.2,0.1-0.2,0.3,0,0.4
				l5.6,3.2c0.2,0.1,0.6,0.1,0.8,0l4.8-2.8c0.2-0.1,0.2-0.3,0-0.4l-5.6-3.2C306,244.3,305.7,244.3,305.5,244.4z M298.4,248.5
				l-4.8,2.8c-0.2,0.1-0.2,0.3,0,0.4l5.6,3.2c0.2,0.1,0.6,0.1,0.8,0l4.8-2.8c0.2-0.1,0.2-0.3,0-0.4l-5.6-3.2
				C298.9,248.3,298.6,248.3,298.4,248.5z M263.2,294.1c0.2,0.1,0.6,0.1,0.8,0l4.8-2.8c0.2-0.1,0.2-0.3,0-0.4l-5.6-3.2
				c-0.2-0.1-0.6-0.1-0.8,0l-4.8,2.8c-0.2,0.1-0.2,0.3,0,0.4L263.2,294.1z M242,281l-4.8,2.8c-0.2,0.1-0.2,0.3,0,0.4l5.6,3.2
				c0.2,0.1,0.6,0.1,0.8,0l4.8-2.8c0.2-0.1,0.2-0.3,0-0.4l-5.6-3.2C242.5,280.9,242.2,280.9,242,281z M253.3,290.6
				c0.2,0.1,0.6,0.1,0.8,0l4.8-2.8c0.2-0.1,0.2-0.3,0-0.4l-5.6-3.2c-0.2-0.1-0.6-0.1-0.8,0l-4.8,2.8c-0.2,0.1-0.2,0.3,0,0.4
				L253.3,290.6z M275.6,296.6l4.8-2.8c0.2-0.1,0.2-0.3,0-0.4l-5.6-3.2c-0.2-0.1-0.6-0.1-0.8,0l-4.8,2.8c-0.2,0.1-0.2,0.3,0,0.4
				l5.6,3.2C275.1,296.7,275.4,296.7,275.6,296.6z M267.8,300.6c0.2,0.1,0.6,0.1,0.8,0l4.8-2.8c0.2-0.1,0.2-0.3,0-0.4l-5.6-3.2
				c-0.2-0.1-0.6-0.1-0.8,0l-4.8,2.8c-0.2,0.1-0.2,0.3,0,0.4L267.8,300.6z M249,277l-4.8,2.8c-0.2,0.1-0.2,0.3,0,0.4l5.6,3.2
				c0.2,0.1,0.6,0.1,0.8,0l4.8-2.8c0.2-0.1,0.2-0.3,0-0.4l-5.6-3.2C249.6,276.8,249.2,276.8,249,277z M284.3,256.6l-4.8,2.8
				c-0.2,0.1-0.2,0.3,0,0.4l5.6,3.2c0.2,0.1,0.6,0.1,0.8,0l4.8-2.8c0.2-0.1,0.2-0.3,0-0.4l-5.6-3.2
				C284.8,256.5,284.5,256.5,284.3,256.6z M256.1,272.9l-4.8,2.8c-0.2,0.1-0.2,0.3,0,0.4l5.6,3.2c0.2,0.1,0.6,0.1,0.8,0l4.8-2.8
				c0.2-0.1,0.2-0.3,0-0.4l-5.6-3.2C256.6,272.8,256.3,272.8,256.1,272.9z M291.3,252.5l-4.8,2.8c-0.2,0.1-0.2,0.3,0,0.4l5.6,3.2
				c0.2,0.1,0.6,0.1,0.8,0l4.8-2.8c0.2-0.1,0.2-0.3,0-0.4l-5.6-3.2C291.9,252.4,291.6,252.4,291.3,252.5z M277.2,260.7l-4.8,2.8
				c-0.2,0.1-0.2,0.3,0,0.4l5.6,3.2c0.2,0.1,0.6,0.1,0.8,0l4.8-2.8c0.2-0.1,0.2-0.3,0-0.4l-5.6-3.2
				C277.8,260.6,277.4,260.6,277.2,260.7z M270.2,264.7l-4.8,2.8c-0.2,0.1-0.2,0.3,0,0.4l5.6,3.2c0.2,0.1,0.6,0.1,0.8,0l4.8-2.8
				c0.2-0.1,0.2-0.3,0-0.4l-5.6-3.2C270.7,264.6,270.4,264.6,270.2,264.7z M263.1,268.8l-4.8,2.8c-0.2,0.1-0.2,0.3,0,0.4l5.6,3.2
				c0.2,0.1,0.6,0.1,0.8,0l4.8-2.8c0.2-0.1,0.2-0.3,0-0.4l-5.6-3.2C263.7,268.7,263.3,268.7,263.1,268.8z M299.2,273.8l4.8-2.8
				c0.2-0.1,0.2-0.3,0-0.4l-5.6-3.2c-0.2-0.1-0.6-0.1-0.8,0l-4.8,2.8c-0.2,0.1-0.2,0.3,0,0.4l5.6,3.2
				C298.6,273.9,299,273.9,299.2,273.8z M361.1,212.2l-4.8,2.8c-0.2,0.1-0.2,0.3,0,0.4l5.6,3.2c0.2,0.1,0.6,0.1,0.8,0l4.8-2.8
				c0.2-0.1,0.2-0.3,0-0.4l-5.6-3.2C361.7,212.1,361.3,212.1,361.1,212.2z M352.6,217.2l-4.8,2.8c-0.2,0.1-0.2,0.3,0,0.4l5.6,3.2
				c0.2,0.1,0.6,0.1,0.8,0l4.8-2.8c0.2-0.1,0.2-0.3,0-0.4l-5.6-3.2C353.1,217.1,352.8,217.1,352.6,217.2z M368.2,208.2l-4.8,2.8
				c-0.2,0.1-0.2,0.3,0,0.4l5.6,3.2c0.2,0.1,0.6,0.1,0.8,0l4.8-2.8c0.2-0.1,0.2-0.3,0-0.4l-5.6-3.2
				C368.7,208.1,368.4,208.1,368.2,208.2z M331.7,245.8l4.8-2.8c0.2-0.1,0.2-0.3,0-0.4l-5.6-3.2c-0.2-0.1-0.6-0.1-0.8,0l-4.8,2.8
				c-0.2,0.1-0.2,0.3,0,0.4l5.6,3.2C331.1,245.9,331.5,245.9,331.7,245.8z M376,204.1c-0.2-0.1-0.6-0.1-0.8,0l-4.8,2.8
				c-0.2,0.1-0.2,0.3,0,0.4l5.6,3.2c0.2,0.1,0.6,0.1,0.8,0l4.8-2.8c0.2-0.1,0.2-0.3,0-0.4L376,204.1z M306.2,269.7l4.8-2.8
				c0.2-0.1,0.2-0.3,0-0.4l-5.6-3.2c-0.2-0.1-0.6-0.1-0.8,0l-4.8,2.8c-0.2,0.1-0.2,0.3,0,0.4l5.6,3.2
				C305.7,269.8,306,269.8,306.2,269.7z M392.7,219.8l4.8-2.8c0.2-0.1,0.2-0.3,0-0.4l-5.6-3.2c-0.2-0.1-0.6-0.1-0.8,0l-4.8,2.8
				c-0.2,0.1-0.2,0.3,0,0.4l5.6,3.2C392.2,219.9,392.5,219.9,392.7,219.8z M377.7,219.2l4.8-2.8c0.2-0.1,0.2-0.3,0-0.4l-5.6-3.2
				c-0.2-0.1-0.6-0.1-0.8,0l-4.8,2.8c-0.2,0.1-0.2,0.3,0,0.4l5.6,3.2C377.1,219.4,377.5,219.4,377.7,219.2z M384,208.7
				c-0.2-0.1-0.6-0.1-0.8,0l-4.8,2.8c-0.2,0.1-0.2,0.3,0,0.4l5.6,3.2c0.2,0.1,0.6,0.1,0.8,0l4.8-2.8c0.2-0.1,0.2-0.3,0-0.4
				L384,208.7z M385.4,207.9l13.5,7.8c0.2,0.1,0.6,0.1,0.8,0l4.8-2.8c0.2-0.1,0.2-0.3,0-0.4l-13.5-7.8c-0.2-0.1-0.6-0.1-0.8,0
				l-4.8,2.8C385.2,207.5,385.2,207.7,385.4,207.9z M369.1,216.9l-4.8,2.8c-0.2,0.1-0.2,0.3,0,0.4l5.6,3.2c0.2,0.1,0.6,0.1,0.8,0
				l4.8-2.8c0.2-0.1,0.2-0.3,0-0.4l-5.6-3.2C369.6,216.7,369.3,216.7,369.1,216.9z M316,247.5l-4.8,2.8c-0.2,0.1-0.2,0.3,0,0.4
				l5.6,3.2c0.2,0.1,0.6,0.1,0.8,0l4.8-2.8c0.2-0.1,0.2-0.3,0-0.4l-5.6-3.2C316.6,247.4,316.2,247.4,316,247.5z M384.9,223.8
				c0.2,0.1,0.6,0.1,0.8,0l4.8-2.8c0.2-0.1,0.2-0.3,0-0.4l-5.6-3.2c-0.2-0.1-0.6-0.1-0.8,0l-4.8,2.8c-0.2,0.1-0.2,0.3,0,0.4
				L384.9,223.8z M323.1,243.4l-4.8,2.8c-0.2,0.1-0.2,0.3,0,0.4l5.6,3.2c0.2,0.1,0.6,0.1,0.8,0l4.8-2.8c0.2-0.1,0.2-0.3,0-0.4
				l-5.6-3.2C323.6,243.3,323.3,243.3,323.1,243.4z M270.2,290c0.2,0.1,0.6,0.1,0.8,0l4.8-2.8c0.2-0.1,0.2-0.3,0-0.4l-5.6-3.2
				c-0.2-0.1-0.6-0.1-0.8,0l-4.8,2.8c-0.2,0.1-0.2,0.3,0,0.4L270.2,290z M259.6,280.1l-4.8,2.8c-0.2,0.1-0.2,0.3,0,0.4l5.6,3.2
				c0.2,0.1,0.6,0.1,0.8,0l4.8-2.8c0.2-0.1,0.2-0.3,0-0.4l-5.6-3.2C260.2,279.9,259.8,279.9,259.6,280.1z M278,286l4.8-2.8
				c0.2-0.1,0.2-0.3,0-0.4l-5.6-3.2c-0.2-0.1-0.6-0.1-0.8,0l-4.8,2.8c-0.2,0.1-0.2,0.3,0,0.4l5.6,3.2
				C277.5,286.1,277.8,286.1,278,286z M285.1,281.9l4.8-2.8c0.2-0.1,0.2-0.3,0-0.4l-5.6-3.2c-0.2-0.1-0.6-0.1-0.8,0l-4.8,2.8
				c-0.2,0.1-0.2,0.3,0,0.4l5.6,3.2C284.5,282,284.9,282,285.1,281.9z M292.1,277.8l4.8-2.8c0.2-0.1,0.2-0.3,0-0.4l-5.6-3.2
				c-0.2-0.1-0.6-0.1-0.8,0l-4.8,2.8c-0.2,0.1-0.2,0.3,0,0.4l5.6,3.2C291.6,278,291.9,278,292.1,277.8z M266.7,276l-4.8,2.8
				c-0.2,0.1-0.2,0.3,0,0.4l5.6,3.2c0.2,0.1,0.6,0.1,0.8,0l4.8-2.8c0.2-0.1,0.2-0.3,0-0.4l-5.6-3.2
				C267.2,275.9,266.9,275.9,266.7,276z M273.7,271.9l-4.8,2.8c-0.2,0.1-0.2,0.3,0,0.4l5.6,3.2c0.2,0.1,0.6,0.1,0.8,0l4.8-2.8
				c0.2-0.1,0.2-0.3,0-0.4l-5.6-3.2C274.3,271.8,273.9,271.8,273.7,271.9z M301.9,255.6l-4.8,2.8c-0.2,0.1-0.2,0.3,0,0.4l5.6,3.2
				c0.2,0.1,0.6,0.1,0.8,0l4.8-2.8c0.2-0.1,0.2-0.3,0-0.4l-5.6-3.2C302.5,255.5,302.1,255.5,301.9,255.6z M294.9,259.7l-4.8,2.8
				c-0.2,0.1-0.2,0.3,0,0.4l5.6,3.2c0.2,0.1,0.6,0.1,0.8,0l4.8-2.8c0.2-0.1,0.2-0.3,0-0.4l-5.6-3.2
				C295.4,259.6,295.1,259.6,294.9,259.7z M309,251.6l-4.8,2.8c-0.2,0.1-0.2,0.3,0,0.4l5.6,3.2c0.2,0.1,0.6,0.1,0.8,0l4.8-2.8
				c0.2-0.1,0.2-0.3,0-0.4l-5.6-3.2C309.5,251.5,309.2,251.4,309,251.6z M280.8,267.8l-4.8,2.8c-0.2,0.1-0.2,0.3,0,0.4l5.6,3.2
				c0.2,0.1,0.6,0.1,0.8,0l4.8-2.8c0.2-0.1,0.2-0.3,0-0.4l-5.6-3.2C281.3,267.7,281,267.7,280.8,267.8z M287.8,263.8l-4.8,2.8
				c-0.2,0.1-0.2,0.3,0,0.4l5.6,3.2c0.2,0.1,0.6,0.1,0.8,0l4.8-2.8c0.2-0.1,0.2-0.3,0-0.4l-5.6-3.2
				C288.4,263.7,288,263.7,287.8,263.8z M282.7,292.5l4.8-2.8c0.2-0.1,0.2-0.3,0-0.4l-5.6-3.2c-0.2-0.1-0.6-0.1-0.8,0l-4.8,2.8
				c-0.2,0.1-0.2,0.3,0,0.4l5.6,3.2C282.1,292.6,282.5,292.6,282.7,292.5z M241.3,288.3l-5.6-3.2c-0.2-0.1-0.6-0.1-0.8,0l-4.8,2.8
				c-0.2,0.1-0.2,0.3,0,0.4l5.6,3.2c0.2,0.1,0.6,0.1,0.8,0l4.8-2.8C241.5,288.7,241.5,288.5,241.3,288.3z M251.9,291.4l-5.6-3.2
				c-0.2-0.1-0.6-0.1-0.8,0l-7.4,4.3c-0.2,0.1-0.2,0.3,0,0.4l5.6,3.2c0.2,0.1,0.6,0.1,0.8,0l7.4-4.3
				C252.1,291.8,252.1,291.6,251.9,291.4z M232.7,282.1l-5.6-3.2c-0.2-0.1-0.6-0.1-0.8,0l-5.9,3.4c-0.2,0.1-0.2,0.3,0,0.4l5.6,3.2
				c0.2,0.1,0.6,0.1,0.8,0l5.9-3.4C233,282.4,232.9,282.2,232.7,282.1z M237.3,279.5c0.2,0.1,0.6,0.1,0.8,0l4.8-2.8
				c0.2-0.1,0.2-0.3,0-0.4l-5.6-3.2c-0.2-0.1-0.6-0.1-0.8,0l-4.8,2.8c-0.2,0.1-0.2,0.3,0,0.4L237.3,279.5z M261.7,295l-5.6-3.2
				c-0.2-0.1-0.6-0.1-0.8,0l-9.3,5.4c-0.2,0.1-0.2,0.3,0,0.4l5.6,3.2c0.2,0.1,0.6,0.1,0.8,0l9.3-5.4
				C261.9,295.3,261.9,295.1,261.7,295z M266.3,301.5l-5.6-3.2c-0.2-0.1-0.6-0.1-0.8,0l-5.9,3.4c-0.2,0.1-0.2,0.3,0,0.4l5.6,3.2
				c0.2,0.1,0.6,0.1,0.8,0l5.9-3.4C266.5,301.8,266.5,301.6,266.3,301.5z M289.7,249.2c0.2,0.1,0.6,0.1,0.8,0l4.8-2.8
				c0.2-0.1,0.2-0.3,0-0.4l-5.6-3.2c-0.2-0.1-0.6-0.1-0.8,0l-4.8,2.8c-0.2,0.1-0.2,0.3,0,0.4L289.7,249.2z M275.6,257.4
				c0.2,0.1,0.6,0.1,0.8,0l4.8-2.8c0.2-0.1,0.2-0.3,0-0.4l-5.6-3.2c-0.2-0.1-0.6-0.1-0.8,0l-4.8,2.8c-0.2,0.1-0.2,0.3,0,0.4
				L275.6,257.4z M244.3,275.4c0.2,0.1,0.6,0.1,0.8,0l4.8-2.8c0.2-0.1,0.2-0.3,0-0.4l-5.6-3.2c-0.2-0.1-0.6-0.1-0.8,0l-4.8,2.8
				c-0.2,0.1-0.2,0.3,0,0.4L244.3,275.4z M282.7,253.3c0.2,0.1,0.6,0.1,0.8,0l4.8-2.8c0.2-0.1,0.2-0.3,0-0.4l-5.6-3.2
				c-0.2-0.1-0.6-0.1-0.8,0l-4.8,2.8c-0.2,0.1-0.2,0.3,0,0.4L282.7,253.3z M268.6,261.4c0.2,0.1,0.6,0.1,0.8,0l4.8-2.8
				c0.2-0.1,0.2-0.3,0-0.4l-5.6-3.2c-0.2-0.1-0.6-0.1-0.8,0l-4.8,2.8c-0.2,0.1-0.2,0.3,0,0.4L268.6,261.4z M270.2,302
				c-0.2-0.1-0.6-0.1-0.8,0l-7.4,4.3c-0.2,0.1-0.2,0.3,0,0.4l5.6,3.2c0.2,0.1,0.6,0.1,0.8,0l7.4-4.3c0.2-0.1,0.2-0.3,0-0.4
				L270.2,302z M258.4,267.3c0.2,0.1,0.6,0.1,0.8,0l4.8-2.8c0.2-0.1,0.2-0.3,0-0.4l-5.6-3.2c-0.2-0.1-0.6-0.1-0.8,0l-4.8,2.8
				c-0.2,0.1-0.2,0.3,0,0.4L258.4,267.3z M251.4,271.3c0.2,0.1,0.6,0.1,0.8,0l4.8-2.8c0.2-0.1,0.2-0.3,0-0.4l-5.6-3.2
				c-0.2-0.1-0.6-0.1-0.8,0l-4.8,2.8c-0.2,0.1-0.2,0.3,0,0.4L251.4,271.3z M400.8,226.6c-0.2-0.1-0.6-0.1-0.8,0l-11.9,6.9
				c-0.2,0.1-0.2,0.3,0,0.4l5.6,3.2c0.2,0.1,0.6,0.1,0.8,0l11.9-6.9c0.2-0.1,0.2-0.3,0-0.4L400.8,226.6z M385.2,235.6
				c-0.2-0.1-0.6-0.1-0.8,0l-4.8,2.8c-0.2,0.1-0.2,0.3,0,0.4l5.6,3.2c0.2,0.1,0.6,0.1,0.8,0l4.8-2.8c0.2-0.1,0.2-0.3,0-0.4
				L385.2,235.6z M289.7,288.4l4.8-2.8c0.2-0.1,0.2-0.3,0-0.4l-5.6-3.2c-0.2-0.1-0.6-0.1-0.8,0l-4.8,2.8c-0.2,0.1-0.2,0.3,0,0.4
				l5.6,3.2C289.2,288.6,289.5,288.6,289.7,288.4z M371.1,243.7c-0.2-0.1-0.6-0.1-0.8,0l-4.8,2.8c-0.2,0.1-0.2,0.3,0,0.4l5.6,3.2
				c0.2,0.1,0.6,0.1,0.8,0l4.8-2.8c0.2-0.1,0.2-0.3,0-0.4L371.1,243.7z M407.9,222.5c-0.2-0.1-0.6-0.1-0.8,0l-4.8,2.8
				c-0.2,0.1-0.2,0.3,0,0.4l5.6,3.2c0.2,0.1,0.6,0.1,0.8,0l4.8-2.8c0.2-0.1,0.2-0.3,0-0.4L407.9,222.5z M420.5,221.7l-13.5-7.8
				c-0.2-0.1-0.6-0.1-0.8,0l-4.8,2.8c-0.2,0.1-0.2,0.3,0,0.4l13.5,7.8c0.2,0.1,0.6,0.1,0.8,0l4.8-2.8
				C420.7,222,420.7,221.8,420.5,221.7z M344.8,259c-0.2-0.1-0.6-0.1-0.8,0l-5.9,3.4c-0.2,0.1-0.2,0.3,0,0.4l5.6,3.2
				c0.2,0.1,0.6,0.1,0.8,0l5.9-3.4c0.2-0.1,0.2-0.3,0-0.4L344.8,259z M362.6,248.7c-0.2-0.1-0.6-0.1-0.8,0l-7.4,4.3
				c-0.2,0.1-0.2,0.3,0,0.4l5.6,3.2c0.2,0.1,0.6,0.1,0.8,0l7.4-4.3c0.2-0.1,0.2-0.3,0-0.4L362.6,248.7z M328.4,268.4
				c-0.2-0.1-0.6-0.1-0.8,0L288,291.3c-0.2,0.1-0.2,0.3,0,0.4l5.6,3.2c0.2,0.1,0.6,0.1,0.8,0l39.7-22.9c0.2-0.1,0.2-0.3,0-0.4
				L328.4,268.4z M286.5,292.6c-0.2-0.1-0.6-0.1-0.8,0l-5.9,3.4c-0.2,0.1-0.2,0.3,0,0.4l5.6,3.2c0.2,0.1,0.6,0.1,0.8,0l5.9-3.4
				c0.2-0.1,0.2-0.3,0-0.4L286.5,292.6z M336.6,263.7c-0.2-0.1-0.6-0.1-0.8,0l-5.9,3.4c-0.2,0.1-0.2,0.3,0,0.4l5.6,3.2
				c0.2,0.1,0.6,0.1,0.8,0l5.9-3.4c0.2-0.1,0.2-0.3,0-0.4L336.6,263.7z M278.3,297.3c-0.2-0.1-0.6-0.1-0.8,0l-5.9,3.4
				c-0.2,0.1-0.2,0.3,0,0.4l5.6,3.2c0.2,0.1,0.6,0.1,0.8,0l5.9-3.4c0.2-0.1,0.2-0.3,0-0.4L278.3,297.3z M352.9,254.2
				c-0.2-0.1-0.6-0.1-0.8,0l-5.9,3.4c-0.2,0.1-0.2,0.3,0,0.4l5.6,3.2c0.2,0.1,0.6,0.1,0.8,0l5.9-3.4c0.2-0.1,0.2-0.3,0-0.4
				L352.9,254.2z M378.2,239.7c-0.2-0.1-0.6-0.1-0.8,0l-4.8,2.8c-0.2,0.1-0.2,0.3,0,0.4l5.6,3.2c0.2,0.1,0.6,0.1,0.8,0l4.8-2.8
				c0.2-0.1,0.2-0.3,0-0.4L378.2,239.7z M393.6,228.4l4.8-2.8c0.2-0.1,0.2-0.3,0-0.4l-5.6-3.2c-0.2-0.1-0.6-0.1-0.8,0l-4.8,2.8
				c-0.2,0.1-0.2,0.3,0,0.4l5.6,3.2C393.1,228.6,393.4,228.6,393.6,228.4z M362.1,228.2l4.8-2.8c0.2-0.1,0.2-0.3,0-0.4l-5.6-3.2
				c-0.2-0.1-0.6-0.1-0.8,0l-4.8,2.8c-0.2,0.1-0.2,0.3,0,0.4l5.6,3.2C361.6,228.4,361.9,228.4,362.1,228.2z M346.1,255.9l14.1-8.1
				c0.2-0.1,0.2-0.3,0-0.4l-5.6-3.2c-0.2-0.1-0.6-0.1-0.8,0l-14.1,8.1c-0.2,0.1-0.2,0.3,0,0.4l5.6,3.2
				C345.6,256,345.9,256,346.1,255.9z M385.8,232.5c0.2,0.1,0.6,0.1,0.8,0l4.8-2.8c0.2-0.1,0.2-0.3,0-0.4l-5.6-3.2
				c-0.2-0.1-0.6-0.1-0.8,0l-4.8,2.8c-0.2,0.1-0.2,0.3,0,0.4L385.8,232.5z M378.6,227.9l4.8-2.8c0.2-0.1,0.2-0.3,0-0.4l-5.6-3.2
				c-0.2-0.1-0.6-0.1-0.8,0l-4.8,2.8c-0.2,0.1-0.2,0.3,0,0.4l5.6,3.2C378.1,228,378.4,228,378.6,227.9z M339.1,259.9l4.8-2.8
				c0.2-0.1,0.2-0.3,0-0.4l-5.6-3.2c-0.2-0.1-0.6-0.1-0.8,0l-4.8,2.8c-0.2,0.1-0.2,0.3,0,0.4l5.6,3.2
				C338.5,260.1,338.9,260.1,339.1,259.9z M370.2,241.5c0.2,0.1,0.6,0.1,0.8,0l4.8-2.8c0.2-0.1,0.2-0.3,0-0.4l-5.6-3.2
				c-0.2-0.1-0.6-0.1-0.8,0l-4.8,2.8c-0.2,0.1-0.2,0.3,0,0.4L370.2,241.5z M303.8,280.3l4.8-2.8c0.2-0.1,0.2-0.3,0-0.4l-5.6-3.2
				c-0.2-0.1-0.6-0.1-0.8,0l-4.8,2.8c-0.2,0.1-0.2,0.3,0,0.4l5.6,3.2C303.3,280.4,303.6,280.4,303.8,280.3z M310.9,276.2l4.8-2.8
				c0.2-0.1,0.2-0.3,0-0.4l-5.6-3.2c-0.2-0.1-0.6-0.1-0.8,0l-4.8,2.8c-0.2,0.1-0.2,0.3,0,0.4l5.6,3.2
				C310.3,276.3,310.7,276.3,310.9,276.2z M296.8,284.4l4.8-2.8c0.2-0.1,0.2-0.3,0-0.4l-5.6-3.2c-0.2-0.1-0.6-0.1-0.8,0l-4.8,2.8
				c-0.2,0.1-0.2,0.3,0,0.4l5.6,3.2C296.2,284.5,296.6,284.5,296.8,284.4z M325,268.1l4.8-2.8c0.2-0.1,0.2-0.3,0-0.4l-5.6-3.2
				c-0.2-0.1-0.6-0.1-0.8,0l-4.8,2.8c-0.2,0.1-0.2,0.3,0,0.4l5.6,3.2C324.4,268.2,324.8,268.2,325,268.1z M317.9,272.2l4.8-2.8
				c0.2-0.1,0.2-0.3,0-0.4l-5.6-3.2c-0.2-0.1-0.6-0.1-0.8,0l-4.8,2.8c-0.2,0.1-0.2,0.3,0,0.4l5.6,3.2
				C317.4,272.3,317.7,272.3,317.9,272.2z M332,264l4.8-2.8c0.2-0.1,0.2-0.3,0-0.4l-5.6-3.2c-0.2-0.1-0.6-0.1-0.8,0l-4.8,2.8
				c-0.2,0.1-0.2,0.3,0,0.4l5.6,3.2C331.5,264.1,331.8,264.1,332,264z M364.3,203.8c0.2,0.1,0.6,0.1,0.8,0l4.8-2.8
				c0.2-0.1,0.2-0.3,0-0.4l-1.5-0.9c-0.2-0.1-0.6-0.1-0.8,0l-4.8,2.8c-0.2,0.1-0.2,0.3,0,0.4L364.3,203.8z M329.6,226.2
				c0.2,0.1,0.6,0.1,0.8,0l4.8-2.8c0.2-0.1,0.2-0.3,0-0.4l-5.6-3.2c-0.2-0.1-0.6-0.1-0.8,0l-4.8,2.8c-0.2,0.1-0.2,0.3,0,0.4
				L329.6,226.2z M343.7,218c0.2,0.1,0.6,0.1,0.8,0l4.8-2.8c0.2-0.1,0.2-0.3,0-0.4l-5.6-3.2c-0.2-0.1-0.6-0.1-0.8,0l-4.8,2.8
				c-0.2,0.1-0.2,0.3,0,0.4L343.7,218z M321,231.2c0.2,0.1,0.6,0.1,0.8,0l4.8-2.8c0.2-0.1,0.2-0.3,0-0.4l-5.6-3.2
				c-0.2-0.1-0.6-0.1-0.8,0l-4.8,2.8c-0.2,0.1-0.2,0.3,0,0.4L321,231.2z M336.6,222.1c0.2,0.1,0.6,0.1,0.8,0l4.8-2.8
				c0.2-0.1,0.2-0.3,0-0.4l-5.6-3.2c-0.2-0.1-0.6-0.1-0.8,0l-4.8,2.8c-0.2,0.1-0.2,0.3,0,0.4L336.6,222.1z M306.9,239.3
				c0.2,0.1,0.6,0.1,0.8,0l4.8-2.8c0.2-0.1,0.2-0.3,0-0.4l-5.6-3.2c-0.2-0.1-0.6-0.1-0.8,0l-4.8,2.8c-0.2,0.1-0.2,0.3,0,0.4
				L306.9,239.3z M313.9,235.2c0.2,0.1,0.6,0.1,0.8,0l4.8-2.8c0.2-0.1,0.2-0.3,0-0.4l-5.6-3.2c-0.2-0.1-0.6-0.1-0.8,0l-4.8,2.8
				c-0.2,0.1-0.2,0.3,0,0.4L313.9,235.2z M350.2,211.9c0.2,0.1,0.6,0.1,0.8,0l4.8-2.8c0.2-0.1,0.2-0.3,0-0.4l-1.5-0.9
				c-0.2-0.1-0.6-0.1-0.8,0l-4.8,2.8c-0.2,0.1-0.2,0.3,0,0.4L350.2,211.9z M371.3,199.7c0.2,0.1,0.6,0.1,0.8,0l4.8-2.8
				c0.2-0.1,0.2-0.3,0-0.4l-1.5-0.9c-0.2-0.1-0.6-0.1-0.8,0l-4.8,2.8c-0.2,0.1-0.2,0.3,0,0.4L371.3,199.7z M383.1,206.5
				c0.2,0.1,0.6,0.1,0.8,0l4.8-2.8c0.2-0.1,0.2-0.3,0-0.4l-5.6-3.2c-0.2-0.1-0.6-0.1-0.8,0l-4.8,2.8c-0.2,0.1-0.2,0.3,0,0.4
				L383.1,206.5z M400.7,224.4l4.8-2.8c0.2-0.1,0.2-0.3,0-0.4l-5.6-3.2c-0.2-0.1-0.6-0.1-0.8,0l-4.8,2.8c-0.2,0.1-0.2,0.3,0,0.4
				l5.6,3.2C400.1,224.5,400.5,224.5,400.7,224.4z M357.2,207.9c0.2,0.1,0.6,0.1,0.8,0l4.8-2.8c0.2-0.1,0.2-0.3,0-0.4l-1.5-0.9
				c-0.2-0.1-0.6-0.1-0.8,0l-4.8,2.8c-0.2,0.1-0.2,0.3,0,0.4L357.2,207.9z M299.8,243.4c0.2,0.1,0.6,0.1,0.8,0l4.8-2.8
				c0.2-0.1,0.2-0.3,0-0.4l-5.6-3.2c-0.2-0.1-0.6-0.1-0.8,0l-4.8,2.8c-0.2,0.1-0.2,0.3,0,0.4L299.8,243.4z"/>
		</g>
		<g id="XMLID_15859_">
			<polygon class="st9" points="328.5,287.2 381.3,256.7 413.8,275.5 361,306 			"/>
		</g>
	</g>
</g>
<g id="Screen">
	<g>
		<g id="XMLID_15884_">
			<g id="XMLID_15861_">
				<path class="st11" d="M222.4,106.4l157.4-90.8c3.1-1.8,5.6-0.3,5.6,3.2v121.9c0,1.6-1.2,3.7-2.6,4.5l-161.3,93.2
					c-1.4,0.8-2.6,0.2-2.6-1.5V112.6C218.8,110.3,220.4,107.5,222.4,106.4z"/>
			</g>
			<g id="XMLID_15865_">
				<path class="st9" d="M385.4,21.7v-2.9c0-3.6-2.5-5-5.6-3.2l-157.4,90.8c-2,1.1-3.6,3.9-3.6,6.2v5.2L385.4,21.7z"/>
			</g>
			<g id="XMLID_15878_">
				<path class="st6" d="M361.9,28.3c-1.1,0.6-1.9,2.1-1.9,3.3c0,1.2,0.9,1.7,1.9,1.1c1.1-0.6,1.9-2.1,1.9-3.3
					C363.8,28.2,363,27.7,361.9,28.3z"/>
			</g>
			<g id="XMLID_15877_">
				<path class="st6" d="M369.5,23.9c-1.1,0.6-1.9,2.1-1.9,3.3c0,1.2,0.9,1.7,1.9,1.1c1.1-0.6,1.9-2.1,1.9-3.3
					S370.6,23.3,369.5,23.9z"/>
			</g>
			<g id="XMLID_15876_">
				<path class="st6" d="M377.2,19.5c-1.1,0.6-1.9,2.1-1.9,3.3c0,1.2,0.9,1.7,1.9,1.1c1.1-0.6,1.9-2.1,1.9-3.3
					C379.1,19.4,378.3,18.9,377.2,19.5z"/>
			</g>
			<g id="XMLID_15892_">
				<polygon class="st1" points="218.8,117.8 218.8,141.3 385.4,45.1 385.4,21.7 				"/>
				<polygon class="st2" points="218.8,117.8 218.8,141.3 385.4,45.1 385.4,21.7 				"/>
			</g>
			<g id="XMLID_15893_">
				<path class="st3" d="M229.7,129.1c-0.7,0.2-1.3,0.2-1.7,0.1v-11.5c0-0.2,0-0.5,0.1-0.6c0.1-0.2,0.3-0.3,0.5-0.5l0.9-0.5
					c0.2-0.1,0.4-0.2,0.5-0.1c0.1,0.1,0.2,0.2,0.2,0.5v3.8c0.3-0.5,0.7-0.9,1.1-1.3c0.5-0.4,1-0.8,1.5-1.1c1.3-0.7,2.2-0.9,2.9-0.5
					c0.7,0.4,1,1.3,1,2.8c0,1.7-0.4,3.2-1.2,4.6c-0.8,1.4-2,2.5-3.5,3.4C231.2,128.6,230.5,128.9,229.7,129.1z M233.9,124.4
					c0.4-0.8,0.7-1.8,0.7-3c0-1-0.2-1.6-0.5-1.9c-0.4-0.3-0.9-0.1-1.8,0.3c-0.6,0.3-1.1,0.8-1.5,1.4c-0.4,0.6-0.7,1.2-0.7,1.8v3.9
					c0.2,0,0.4,0,0.8-0.1c0.3-0.1,0.6-0.2,1-0.4C232.8,125.9,233.5,125.2,233.9,124.4z"/>
				<path class="st3" d="M238.5,123.9c-0.1-0.1-0.1-0.2-0.1-0.4v-11.8c0-0.2,0-0.5,0.1-0.6c0.1-0.2,0.3-0.3,0.5-0.5l0.9-0.5
					c0.2-0.1,0.4-0.2,0.5-0.1c0.1,0.1,0.2,0.2,0.2,0.5v11.8c0,0.2,0,0.4-0.1,0.6c-0.1,0.2-0.3,0.3-0.5,0.5l-0.9,0.5
					C238.8,123.9,238.6,124,238.5,123.9z"/>
				<path class="st3" d="M243.3,120.3c-0.8-0.4-1.2-1.4-1.2-2.9c0-1.5,0.4-3,1.2-4.3c0.8-1.3,1.9-2.4,3.4-3.3c1.5-0.8,2.6-1,3.4-0.6
					c0.8,0.4,1.2,1.4,1.2,2.9c0,1.5-0.4,3-1.2,4.3c-0.8,1.3-1.9,2.4-3.4,3.3C245.2,120.5,244.1,120.7,243.3,120.3z M248.5,116
					c0.4-0.8,0.6-1.7,0.6-2.7c0-1-0.2-1.7-0.6-1.9c-0.4-0.3-1-0.2-1.8,0.3c-0.8,0.5-1.4,1.1-1.8,1.8c-0.4,0.8-0.6,1.7-0.6,2.7
					c0,1,0.2,1.7,0.6,2c0.4,0.3,1,0.2,1.8-0.2C247.5,117.4,248.1,116.7,248.5,116z"/>
				<path class="st3" d="M255.3,117.5c-0.6,0.2-1.1,0.3-1.4,0.3c-0.2,0-0.2-0.1-0.1-0.3l0.5-1.2c0.1-0.2,0.1-0.3,0.2-0.3
					c0,0,0.1,0,0.2,0c0.6,0,1.4-0.3,2.4-0.8c0.8-0.4,1.3-1,1.6-1.6c0.3-0.6,0.5-1.4,0.5-2.4c-0.3,0.6-0.7,1.1-1.1,1.5
					c-0.4,0.4-0.9,0.8-1.5,1.2c-1.3,0.7-2.2,0.9-2.9,0.5c-0.7-0.4-1-1.3-1-2.7c0-1.6,0.4-3.1,1.3-4.5c0.8-1.4,2-2.5,3.6-3.4
					c0.7-0.4,1.4-0.7,2.1-0.9c0.7-0.2,1.3-0.2,1.7-0.1v6.6c0,1.6-0.3,3-1,4.3c-0.7,1.3-1.7,2.3-3.1,3.1
					C256.5,117,255.9,117.3,255.3,117.5z M258.6,110.1c0.4-0.6,0.6-1.2,0.6-1.9v-3.5c-0.2,0-0.5,0.1-0.8,0.2c-0.3,0.1-0.7,0.3-1,0.5
					c-1.8,1-2.7,2.6-2.7,4.7c0,1,0.2,1.6,0.6,1.8c0.4,0.2,1,0.1,1.8-0.3C257.7,111.2,258.2,110.7,258.6,110.1z"/>
			</g>
			<g id="XMLID_14969_">
				<path class="st1" d="M247.3,135.3v82.4c0,0.6,0.3,0.8,0.6,0.6c0.4-0.2,0.6-0.8,0.6-1.4v-82.4c0-0.6-0.3-0.8-0.6-0.6
					C247.5,134.1,247.3,134.7,247.3,135.3z"/>
			</g>
		</g>
		<g id="XMLID_695_">
			<g id="XMLID_14642_">
				<g id="XMLID_15894_">
					<path class="st4" d="M198.5,167.2l36.3-21c1.2-0.7,2.2-0.1,2.2,1.2v25.5c0,1.4-1,3.1-2.2,3.8l-36.3,21
						c-1.2,0.7-2.2,0.1-2.2-1.2V171C196.3,169.6,197.3,167.9,198.5,167.2z"/>
				</g>
				<g id="XMLID_15898_">
					<path class="st4" d="M237,147.5c0-1.4-1-1.9-2.2-1.2l-36.3,21c-1.2,0.7-2.2,2.4-2.2,3.8v2.2l40.6-23.5V147.5z"/>
				</g>
			</g>
			<g id="XMLID_14633_">
				<polygon class="st4" points="200.4,175.5 216.7,166.1 216.7,182.5 200.4,191.9 				"/>
			</g>
			<g id="XMLID_14640_">
				<path class="st4" d="M200.4,189.5l6.1-10.8c0.3-0.5,0.8-0.5,1.2-0.1l2.1,2.3l3.7-8.5c0.2-0.5,0.7-0.6,1-0.1l2.2,3.2v7l-16.2,9.4
					V189.5z"/>
			</g>
			<g id="XMLID_703_">
				<path id="XMLID_34_" class="st4" d="M220.7,165.2c0,0.8,0.6,1.1,1.3,0.7l9.6-5.5c0.7-0.4,1.3-1.4,1.3-2.2c0-0.8-0.6-1.1-1.3-0.7
					L222,163C221.3,163.4,220.7,164.4,220.7,165.2z"/>
				<path class="st4" d="M220.7,171.9c0,0.8,0.6,1.1,1.3,0.7l9.6-5.5c0.7-0.4,1.3-1.4,1.3-2.2c0-0.8-0.6-1.1-1.3-0.7l-9.6,5.5
					C221.3,170.2,220.7,171.2,220.7,171.9z"/>
				<path id="XMLID_31_" class="st4" d="M220.7,178.7c0,0.8,0.6,1.1,1.3,0.7l9.6-5.5c0.7-0.4,1.3-1.4,1.3-2.2c0-0.8-0.6-1.1-1.3-0.7
					l-9.6,5.5C221.3,177,220.7,177.9,220.7,178.7z"/>
			</g>
		</g>
		<g id="XMLID_704_">
			<g id="XMLID_15510_">
				<g id="XMLID_15512_">
					<path class="st4" d="M198.5,206.8l36.3-21c1.2-0.7,2.2-0.1,2.2,1.2v25.5c0,1.4-1,3.1-2.2,3.8l-36.3,21
						c-1.2,0.7-2.2,0.1-2.2-1.2v-25.5C196.3,209.1,197.3,207.5,198.5,206.8z"/>
				</g>
				<g id="XMLID_15511_">
					<path class="st4" d="M237,187.1c0-1.4-1-1.9-2.2-1.2l-36.3,21c-1.2,0.7-2.2,2.4-2.2,3.8v2.2l40.6-23.5V187.1z"/>
				</g>
			</g>
			<g id="XMLID_15500_">
				<polygon class="st4" points="200.4,215 216.7,205.7 216.7,222.1 200.4,231.4 				"/>
			</g>
			<g id="XMLID_15488_">
				<path class="st4" d="M200.4,229.1l6.1-10.8c0.3-0.5,0.8-0.5,1.2-0.1l2.1,2.3l3.7-8.5c0.2-0.5,0.7-0.6,1-0.1l2.2,3.2v7l-16.2,9.4
					V229.1z"/>
			</g>
			<g id="XMLID_705_">
				<path id="XMLID_36_" class="st4" d="M220.7,204.7c0,0.8,0.6,1.1,1.3,0.7l9.6-5.5c0.7-0.4,1.3-1.4,1.3-2.2c0-0.8-0.6-1.1-1.3-0.7
					l-9.6,5.5C221.3,203,220.7,203.9,220.7,204.7z"/>
				<path class="st4" d="M220.7,211.5c0,0.8,0.6,1.1,1.3,0.7l9.6-5.5c0.7-0.4,1.3-1.4,1.3-2.2c0-0.8-0.6-1.1-1.3-0.7l-9.6,5.5
					C221.3,209.7,220.7,210.7,220.7,211.5z"/>
				<path id="XMLID_35_" class="st4" d="M220.7,218.2c0,0.8,0.6,1.1,1.3,0.7l9.6-5.5c0.7-0.4,1.3-1.4,1.3-2.2c0-0.8-0.6-1.1-1.3-0.7
					l-9.6,5.5C221.3,216.5,220.7,217.4,220.7,218.2z"/>
			</g>
		</g>
		<g id="XMLID_15501_">
			<g id="XMLID_15394_">
				<g id="XMLID_15595_">
					<g id="XMLID_15597_">
						<path class="st4" d="M261.6,168.2l111.6-64.4c1.2-0.7,2.2-0.1,2.2,1.2l0,32.5c0,1.4-1,3.1-2.2,3.8l-111.6,64.4
							c-1.2,0.7-2.2,0.1-2.2-1.2l0-32.5C259.4,170.6,260.4,168.9,261.6,168.2z"/>
					</g>
					<g id="XMLID_15596_">
						<path class="st4" d="M375.3,105c0-1.4-1-1.9-2.2-1.2l-111.6,64.4c-1.2,0.7-2.2,2.4-2.2,3.8v2.2l115.9-66.9V105z"/>
					</g>
				</g>
			</g>
			<g id="XMLID_15541_">
				<path class="st4" d="M287,161.4l-22.5,13c-1,0.6-1.7,1.9-1.7,3v22.3c0,1.1,0.8,1.6,1.7,1l22.5-13c1-0.6,1.7-1.9,1.7-3v-22.3
					C288.7,161.3,287.9,160.9,287,161.4z"/>
			</g>
			<g id="XMLID_15557_">
				<path class="st4" d="M270.6,181l-7.9,17v1.8c0,1.1,0.8,1.6,1.7,1l22.5-13c1-0.6,1.7-1.9,1.7-3V177l-4.3-8
					c-0.5-1-1.3-0.9-1.7,0.1l-6.7,15.8l-3.3-4.1C272,179.9,271.1,180,270.6,181z"/>
			</g>
			<g id="XMLID_15558_">
				<path class="st4" d="M265.3,180.8c2.2-1.2,3.9-4.3,3.9-6.7c0-0.9-0.2-1.6-0.6-2l-4.2,2.4c-1,0.6-1.7,1.9-1.7,3v3.7
					C263.4,181.5,264.3,181.4,265.3,180.8z"/>
			</g>
			<g id="XMLID_708_">
				<path class="st4" d="M298.9,156.5l69.7-40.2c1-0.6,1.7-0.2,1.7,0.8c0,1-0.8,2.3-1.7,2.8l-69.7,40.2c-1,0.6-1.7,0.2-1.7-0.8
					C297.1,158.4,297.9,157.1,298.9,156.5z"/>
			</g>
			<g id="XMLID_15513_">
				<path class="st4" d="M298.9,165.9l69.7-40.2c1-0.6,1.7-0.2,1.7,0.8c0,1-0.8,2.3-1.7,2.8l-69.7,40.2c-1,0.6-1.7,0.2-1.7-0.8
					C297.1,167.7,297.9,166.5,298.9,165.9z"/>
			</g>
			<g id="XMLID_15560_">
				<path class="st4" d="M298.9,175.3l69.7-40.2c1-0.6,1.7-0.2,1.7,0.8c0,1-0.8,2.3-1.7,2.8L298.9,179c-1,0.6-1.7,0.2-1.7-0.8
					C297.1,177.1,297.9,175.8,298.9,175.3z"/>
			</g>
		</g>
	</g>
	<rect x="-182.2" y="-64.8" class="st12" width="63" height="85"/>
	<rect x="-101.3" y="31.8" class="st0" width="65.5" height="119.7"/>
	<rect x="-321" y="-31" class="st2" width="183" height="53"/>
	<rect x="-293.7" y="69.2" class="st4" width="127.6" height="45"/>
	<rect x="27.1" y="-72.7" class="st7" width="85" height="49.8"/>
</g>
<g id="Character">
	<g id="XMLID_15879_">
		<g id="XMLID_15849_">
			<path class="st13" d="M412.8,65.3L402.6,65c-0.7-0.6-11.4-12.7-11.4-12.7s-3.9,6.1-3.9,6.5c-0.1,0.4,10.5,11.7,11.6,12.9
				c0.6,0.6,1.1,1.1,2.5,1.2c2.8,0.2,13.1,0.9,13.1,0.9L412.8,65.3z"/>
		</g>
		<g id="XMLID_15933_">
			<polygon class="st1" points="427.4,77.1 411.6,75.9 412.8,65.3 429.1,65.7 			"/>
			<polygon class="st2" points="427.4,77.1 411.6,75.9 412.8,65.3 429.1,65.7 			"/>
		</g>
		<g id="XMLID_15570_">
			<g id="XMLID_15601_">
				<g id="XMLID_15602_">
					<g id="XMLID_15604_">
						<path class="st4" d="M281.9,111.9l111.6-64.4c1.2-0.7,2.2-0.1,2.2,1.2v32.5c0,1.4-1,3.1-2.2,3.8l-111.6,64.4
							c-1.2,0.7-2.2,0.1-2.2-1.2l0-32.5C279.8,114.2,280.7,112.5,281.9,111.9z"/>
					</g>
					<g id="XMLID_15603_">
						<path class="st4" d="M395.7,48.7c0-1.4-1-1.9-2.2-1.2l-111.6,64.4c-1.2,0.7-2.2,2.4-2.2,3.8v2.2l115.9-66.9V48.7z"/>
					</g>
				</g>
			</g>
			<g id="XMLID_15600_">
				<path class="st4" d="M307.3,105.1l-22.5,13c-1,0.6-1.7,1.9-1.7,3v22.3c0,1.1,0.8,1.6,1.7,1l22.5-13c1-0.6,1.7-1.9,1.7-3v-22.3
					C309,105,308.2,104.6,307.3,105.1z"/>
			</g>
			<g id="XMLID_15599_">
				<path class="st4" d="M290.9,124.7l-7.9,17v1.8c0,1.1,0.8,1.6,1.7,1l22.5-13c1-0.6,1.7-1.9,1.7-3v-7.7l-4.3-8
					c-0.5-1-1.3-0.9-1.7,0.1l-6.7,15.8l-3.3-4.1C292.4,123.6,291.4,123.7,290.9,124.7z"/>
			</g>
			<g id="XMLID_15598_">
				<path class="st4" d="M285.6,124.5c2.2-1.2,3.9-4.3,3.9-6.7c0-0.9-0.2-1.6-0.6-2l-4.2,2.4c-1,0.6-1.7,1.9-1.7,3v3.7
					C283.7,125.1,284.6,125.1,285.6,124.5z"/>
			</g>
			<g id="XMLID_15594_">
				<path class="st4" d="M319.2,100.2L388.8,60c1-0.6,1.7-0.2,1.7,0.8c0,1-0.8,2.3-1.7,2.8l-69.7,40.2c-1,0.6-1.7,0.2-1.7-0.8
					C317.5,102,318.2,100.8,319.2,100.2z"/>
			</g>
			<g id="XMLID_15593_">
				<path class="st4" d="M319.2,109.6l69.7-40.2c1-0.6,1.7-0.2,1.7,0.8c0,1-0.8,2.3-1.7,2.8l-69.7,40.2c-1,0.6-1.7,0.2-1.7-0.8
					C317.5,111.4,318.2,110.1,319.2,109.6z"/>
			</g>
			<g id="XMLID_15591_">
				<path class="st4" d="M319.2,119l69.7-40.2c1-0.6,1.7-0.2,1.7,0.8c0,1-0.8,2.3-1.7,2.8l-69.7,40.2c-1,0.6-1.7,0.2-1.7-0.8
					C317.5,120.8,318.2,119.5,319.2,119z"/>
			</g>
		</g>
		<g id="XMLID_15927_">
			<g id="XMLID_15928_">
				<g id="XMLID_15959_">
					<rect x="441.6" y="188.9" class="st14" width="5.9" height="8.6"/>
				</g>
				<g id="XMLID_15958_">
					
						<rect x="421" y="178.4" transform="matrix(0.9994 -3.432754e-02 3.432754e-02 0.9994 -6.0209 14.6602)" class="st14" width="5.9" height="8.6"/>
				</g>
				<g id="XMLID_15956_">
					<path class="st10" d="M447.1,105c0,5.6,0.7,42.1,0.7,42.1c0.1,1.6,1.7,4.6,1.3,10.8c-0.4,8.5-1.2,32-1.2,32s-2.8,2.7-6.7,0
						c0,0-5.3-32-6.4-40.3c-0.9-7.3-2.5-27.2-2.5-27.2l-5.5,23.4c0,0,1,5.5,1.2,9.4c0.2,3.9-1,26.3-1,26.3s-3,2.1-6.4,0.2
						c0,0-4.7-32.8-5.4-36.3c-0.6-3.5,4.2-40.5,4.2-40.5H447.1z"/>
				</g>
				<g id="XMLID_15955_">
					<path class="st2" d="M438.2,65.9C438.3,65.9,438.3,65.9,438.2,65.9c5.3,1.3,8.9,6.1,8.9,11.4v10.2V105
						c-4.1,4.5-18.6,6.6-27.6,0c0,0,0-24.2,0-28.8c0-4.6,2.6-10.1,9.6-10.5L438.2,65.9z"/>
				</g>
				<g id="XMLID_15940_">
					<g id="XMLID_15948_">
						<g id="XMLID_15954_">
							<path class="st9" d="M440.2,42.4c0,0,1.5-0.3,2.6,0.9c1.1,1.1,0.9,3.3,0,8.1l-3.5,0.4L440.2,42.4z"/>
						</g>
						<g id="XMLID_15953_">
							<path class="st9" d="M420.1,41c0,0-1.4,0-2.2-0.4c-1.1-0.6-1.3,0.6-0.8,1.6c0.6,1,1.7,2.4,4,2.7c0-0.2,1-2.7,1-2.7L420.1,41z
								"/>
						</g>
						<g id="XMLID_15952_">
							<path class="st14" d="M438.6,51.8c0.5,0.3,1.2-0.7,1.9-1.3c0.6-0.7,2.7-1.6,3.7,0.6c1,2.2-1.3,5.2-2.7,6.1
								c-1.7,1.2-2.9,0.2-2.9,0.2l-0.4,8.5c0,0-1.8,4.5-6.8,5.2c-5,0.7-3.9-3.4-2.3-5.4l0-3.1c0,0-2.6,0.5-3.8,0.2
								c-0.6-0.2-2.2-2-3.2-4.1c-1.1-2.3-3-6.5-1.3-13.6c1.8-7.6,9.9-7.8,14.8-4.8C440.4,43.4,438.6,51.8,438.6,51.8z"/>
						</g>
						<g id="XMLID_15951_">
							<path class="st9" d="M438.6,52.7c0.3,0,1.2-1.6,1.9-2.2c0.9-0.8-0.3-8.1-0.3-8.1s0.9-2.8-0.9-4.6c-1.7-1.8-5.1-1.5-7.6-1.6
								c-2.6-0.1-5.3-0.2-8.9-1.8c-3.5-1.5-3.8-1.7-4.2-0.2c-0.4,1.5-0.6,5.1,1.5,7.5l1.7,0.6c0,0,0.9,0.8,4.2,1.2
								c3.3,0.4,8.4-0.1,9.1-0.2c1-0.1,1.2,0.8,1.7,3.3C437.4,48.9,437.7,52.7,438.6,52.7z"/>
						</g>
						<g id="XMLID_15950_">
							<path class="st9" d="M440.2,43l3.1-1.7c-0.4-0.9-1.5-1.2-2.3-0.8C440.1,41,439.8,42.1,440.2,43z"/>
						</g>
						<g id="XMLID_15949_">
							<path class="st13" d="M429.1,62.6c0,0,4.6-0.9,6.2-1.8c1.1-0.6,2-1.6,2.2-2.2c0,0-0.3,1.4-1.3,2.6c-1.2,1.5-7.2,2.6-7.2,2.6
								V62.6z"/>
						</g>
					</g>
					<g id="XMLID_15941_">
						<g id="XMLID_15947_">
							<path class="st9" d="M430.2,50.7c0,0.5,0.4,1,0.9,1c0.5,0,0.9-0.4,0.9-1c0-0.5-0.4-1-0.9-1C430.6,49.7,430.2,50.2,430.2,50.7
								z"/>
						</g>
						<g id="XMLID_15946_">
							<path class="st9" d="M431.2,47.2l2,1.1c0.3-0.6,0.1-1.3-0.5-1.6C432.2,46.4,431.5,46.6,431.2,47.2z"/>
						</g>
						<g id="XMLID_15945_">
							<path class="st13" d="M430.3,56.9l-2.1,0.8c0.2,0.6,0.8,0.9,1.4,0.7C430.2,58.2,430.5,57.5,430.3,56.9z"/>
						</g>
						<g id="XMLID_15944_">
							<path class="st9" d="M422,48l1.8-1.4c-0.4-0.5-1.1-0.6-1.6-0.2C421.7,46.7,421.6,47.5,422,48z"/>
						</g>
						<g id="XMLID_15943_">
							<path class="st9" d="M422.6,50.4c0,0.5,0.4,1,0.9,1c0.5,0,0.9-0.4,0.9-1c0-0.5-0.4-1-0.9-1C423,49.5,422.6,49.9,422.6,50.4z"
								/>
						</g>
						<g id="XMLID_15942_">
							<polygon class="st13" points="427.3,49.5 426.9,55.1 424.1,54.1 							"/>
						</g>
					</g>
				</g>
				<g id="XMLID_15930_">
					<path class="st9" d="M441.6,194.6v-0.8c-0.6,0.2-1.9,5.3-4.2,7.4c-1.9,1.7-4.4,3.7-5,5.6c-0.7,2,3.5,3.1,5.3,2.7
						c2-0.4,5.5-1.8,6.4-3.1c0.9-1.3,1.3-3.3,2-4.2c0.7-1,2.4-2,2.7-3.2c0.2-0.6,0-2-0.3-3.1c-0.3-1-0.6-2.2-0.9-2.1
						c0,0.1,0,0.6,0,0.6c-0.4,0.5-1.6,0.9-3,1C443.7,195.4,441.6,195.3,441.6,194.6z"/>
				</g>
				<g id="XMLID_15929_">
					<path class="st9" d="M421.1,185.3c-0.3,0-0.6,0.4-1.2,1.2c-0.8,0.9-2.2,1.8-3.5,2.5c-2.2,1.1-6.5,2.8-8.5,3.7
						c-1.2,0.5-1.2,2,0.1,2.9c1.3,0.8,4.3,1.4,7.9,0.6c2-0.4,4.6-2.3,6.2-2.2c1.6,0.1,4.7,0.1,5.9-0.8c1.2-0.8,0.7-2.6,0.4-4.1
						c-0.4-1.7-0.9-4.2-1.5-4.1l0,0.5c-0.7,1.1-4.3,1.5-5.9,0.7L421.1,185.3z"/>
				</g>
			</g>
		</g>
		<g id="XMLID_15932_">
			<path class="st14" d="M440,69.8l-18.2,18.9c0,0-16-2.9-21.5-4.4c-1.7-0.5-2.9-3.1-3.3-5c-0.4-2-1.4-2.6-1.4-2.6s0,1.4-0.4,3.7
				c-0.1,1-1.7,1.1-3.1,1.4c-5,1.1-6.7,0-8.8,1.4c-1.6,1.1,0.4,4.1,4.1,5.1c5.1,1.4,8,0.7,11.1,1.5c2.4,0.6,19.7,6,23,6.8
				c1.7,0.4,3.1,0.3,5-1.6c1.9-1.9,16.3-14.4,16.3-14.4L440,69.8z"/>
		</g>
		<g id="XMLID_15931_">
			<path class="st2" d="M440.8,69.1c-2-0.5-14.2,14-14.2,14l6.7,5.6c0,0,8.7-5.7,10.2-8C445.1,78.5,446.9,70.6,440.8,69.1z"/>
		</g>
		<g id="XMLID_15934_">
			<path class="st1" d="M433.8,89.1c0,0,9.2-8.2,9.6-9.1c0.8-1.7,0.6-4.9,0.6-4.9s1,2.8,0,4.9s-8,8.3-9.1,9.3
				c-1.1,1.1-1.1,1.1-1.1,1.1l-1.1-1l0.7-0.6L433.8,89.1z"/>
			<path class="st2" d="M433.8,89.1c0,0,9.2-8.2,9.6-9.1c0.8-1.7,0.6-4.9,0.6-4.9s1,2.8,0,4.9s-8,8.3-9.1,9.3
				c-1.1,1.1-1.1,1.1-1.1,1.1l-1.1-1l0.7-0.6L433.8,89.1z"/>
		</g>
		<g id="XMLID_15850_">
			<path class="st13" d="M387.7,48.4c2-0.2,3.3-1.7,3.8-1.3c0.5,0.4,0.3,1.1,0.1,1.4c-0.6,0.6-3,1.7-3,1.7s-0.3,1.3-0.5,3.1
				c-0.2,1.5-0.1,4.6-1.4,5.6c-3.9,3.1-4.9-1.8-4.8-5.2C382,49.7,385.6,48.7,387.7,48.4z"/>
		</g>
	</g>
</g>
</svg>
