<?xml version="1.0" encoding="utf-8"?>
<!-- Generator: Adobe Illustrator 25.2.1, SVG Export Plug-In . SVG Version: 6.00 Build 0)  -->
<svg version="1.1" id="_x2018_лой_x5F_1" xmlns="http://www.w3.org/2000/svg" xmlns:xlink="http://www.w3.org/1999/xlink"
	 x="0px" y="0px" viewBox="0 0 1818 1090.3" style="enable-background:new 0 0 1818 1090.3;" xml:space="preserve">
<style type="text/css">
	.st0{fill:#E8E8E8;}
	.st1{display:none;}
	.st2{display:inline;fill:#F3F7FF;}
	.st3{display:inline;}
	.st4{opacity:0.1;fill:#A8D29F;}
	.st5{opacity:0.2;fill:#A8D29F;}
	.st6{opacity:0.3;fill:#A8D29F;}
	.st7{opacity:0.5;fill:#A8D29F;}
	.st8{opacity:0.8;fill:#A8D29F;}
	.st9{opacity:0.1;fill:#7D9FEA;}
	.st10{opacity:0.2;fill:#7D9FEA;}
	.st11{opacity:0.4;fill:#7D9FEA;}
	.st12{opacity:0.5;fill:#7D9FEA;}
	.st13{opacity:0.7;fill:#7D9FEA;}
	.st14{opacity:0.1;fill:#ED823A;}
	.st15{opacity:0.2;fill:#ED823A;}
	.st16{opacity:0.4;fill:#ED823A;}
	.st17{opacity:0.5;fill:#ED823A;}
	.st18{opacity:0.7;fill:#ED823A;}
	.st19{opacity:0.5;fill:#6180CE;}
	.st20{fill:#2A4E96;}
	.st21{fill:#FF9E55;}
	.st22{display:inline;fill:#8DB0FF;}
	.st23{display:inline;fill:#AEC3FF;}
	.st24{display:inline;fill:#2A4E96;}
	.st25{display:inline;opacity:0.3;fill:#8DB0FF;}
	.st26{display:inline;fill:#23358E;}
	.st27{fill:#17296D;}
	.st28{fill:#F9DDBF;}
	.st29{fill:#163560;}
	.st30{display:inline;fill:#6C88CB;}
	.st31{display:inline;fill:#17296D;}
	.st32{fill:#8DB0FF;}
	.st33{display:inline;fill:#F9DDBF;}
	.st34{fill:#C0D8FB;}
	.st35{fill:#DFEBFD;}
	.st36{fill:#B7D3F3;}
	.st37{fill:#3476CA;}
	.st38{fill:#384152;}
	.st39{opacity:0.4;fill:#384152;}
	.st40{fill:#0E2C4F;}
	.st41{fill:#FFB27D;}
	.st42{fill:#2B478B;}
	.st43{fill:#EAC3A2;}
	.st44{fill:#EAA16E;}
	.st45{fill:#3C5EA5;}
	.st46{fill:#F1A34F;}
	.st47{fill:#7EA4ED;}
	.st48{fill:#AEC3FF;}
	.st49{fill:#F78248;}
	.st50{fill:#FF8C5A;}
	.st51{fill:#C7D8FF;}
	.st52{fill:#FFB93E;}
	.st53{fill:#EA9E24;}
	.st54{fill:#ED823A;}
	.st55{fill:#DD732C;}
	.st56{fill:#FFFFFF;}
	.st57{display:inline;fill:#163560;}
	.st58{display:inline;fill:#2B478B;}
	.st59{display:inline;fill:#FFB27D;}
	.st60{display:inline;fill:#E8945B;}
	.st61{display:inline;fill:#F2CCAA;}
	.st62{display:inline;fill:#ED7D2B;}
	.st63{display:inline;fill:#F99746;}
	.st64{display:inline;fill:#FFFFFF;}
	.st65{display:inline;fill:#233862;}
	.st66{fill:#E58638;}
	.st67{fill:#082038;}
	.st68{fill:#F99746;}
	.st69{fill:#FCA56B;}
	.st70{fill:#2E3552;}
</style>
<path class="st0" d="M1740.3,1101c-33.3,0-85.2-3.9-85.9-2.6h-172.2l-50.4-0.1H980.3l-131.8-0.1H501l-145.1-0.1H93.4
	c0,0-0.4-1.1-1.3-3.2l-0.1-0.3c0,0-0.1-0.3-0.1-0.4c-0.6-1.1-221.2-478.6,138.4-688.2c140.7-82-2.8-234.8,205.5-334
	C704.3-56,855.6,233.1,1167.2,126.4c292.2-100.1,465.2,63.2,445.8,248c-9.1,86.8,7.1,216.2,68.2,233.7
	c95.3,27.4,116.6,190.1,102.7,331.8C1775.3,1027.3,1741.4,1101,1740.3,1101z"/>
<g class="st1">
	<rect x="1355.9" y="223.4" class="st2" width="291.5" height="329.2"/>
	<g class="st3">
		<rect x="1381.6" y="251.6" class="st4" width="40.8" height="40.8"/>
		<rect x="1381.6" y="312.4" class="st5" width="40.8" height="40.8"/>
		<rect x="1381.6" y="373.2" class="st6" width="40.8" height="40.8"/>
		<rect x="1381.6" y="434" class="st7" width="40.8" height="40.8"/>
		<rect x="1381.6" y="494.7" class="st8" width="40.8" height="40.8"/>
	</g>
	<g class="st3">
		<rect x="1447.7" y="251.6" class="st9" width="40.8" height="40.8"/>
		<rect x="1447.7" y="312.4" class="st10" width="40.8" height="40.8"/>
		<rect x="1447.7" y="373.2" class="st11" width="40.8" height="40.8"/>
		<rect x="1447.7" y="434" class="st12" width="40.8" height="40.8"/>
		<rect x="1447.7" y="494.7" class="st13" width="40.8" height="40.8"/>
	</g>
	<g class="st3">
		<rect x="1514.6" y="251.6" class="st14" width="40.8" height="40.8"/>
		<rect x="1514.6" y="312.4" class="st15" width="40.8" height="40.8"/>
		<rect x="1514.6" y="373.2" class="st16" width="40.8" height="40.8"/>
		<rect x="1514.6" y="434" class="st17" width="40.8" height="40.8"/>
		<rect x="1514.6" y="494.7" class="st18" width="40.8" height="40.8"/>
	</g>
	<g class="st3">
		<rect x="1573" y="251.6" class="st19" width="52.1" height="3.6"/>
		<rect x="1573" y="259.8" class="st19" width="52.1" height="3.6"/>
	</g>
	<g class="st3">
		<rect x="1573" y="312.1" class="st19" width="52.1" height="3.6"/>
		<rect x="1573" y="320.3" class="st19" width="52.1" height="3.6"/>
	</g>
	<g class="st3">
		<rect x="1573" y="372.5" class="st19" width="52.1" height="3.6"/>
		<rect x="1573" y="380.8" class="st19" width="52.1" height="3.6"/>
	</g>
	<g class="st3">
		<rect x="1573" y="433" class="st19" width="52.1" height="3.6"/>
		<rect x="1573" y="441.2" class="st19" width="52.1" height="3.6"/>
	</g>
	<g class="st3">
		<rect x="1573" y="493.5" class="st19" width="52.1" height="3.6"/>
		<rect x="1573" y="501.7" class="st19" width="52.1" height="3.6"/>
	</g>
</g>
<g class="st1">
	<g class="st3">
		
			<rect x="2000.3" y="1034.7" transform="matrix(-1 -1.224647e-16 1.224647e-16 -1 4009.7625 2102.8325)" class="st20" width="9.1" height="33.4"/>
		<path class="st20" d="M2016.7,1072.9c0-6.5-5.3-11.8-11.8-11.8c-6.5,0-11.8,5.3-11.8,11.8c0,6.5,5.3,11.8,11.8,11.8
			C2011.4,1084.7,2016.7,1079.5,2016.7,1072.9z"/>
		<path class="st21" d="M2012.6,1072.9c0-4.3-3.5-7.7-7.7-7.7c-4.3,0-7.7,3.5-7.7,7.7c0,4.3,3.5,7.7,7.7,7.7
			C2009.1,1080.7,2012.6,1077.2,2012.6,1072.9z"/>
	</g>
	<g class="st3">
		
			<rect x="1773.6" y="1034.7" transform="matrix(-1 -1.224647e-16 1.224647e-16 -1 3556.3953 2102.8325)" class="st20" width="9.1" height="33.4"/>
		<path class="st20" d="M1790,1072.9c0-6.5-5.3-11.8-11.8-11.8c-6.5,0-11.8,5.3-11.8,11.8c0,6.5,5.3,11.8,11.8,11.8
			C1784.7,1084.7,1790,1079.5,1790,1072.9z"/>
		<path class="st21" d="M1785.9,1072.9c0-4.3-3.5-7.7-7.7-7.7c-4.3,0-7.7,3.5-7.7,7.7c0,4.3,3.5,7.7,7.7,7.7
			C1782.5,1080.7,1785.9,1077.2,1785.9,1072.9z"/>
	</g>
	<g class="st3">
		
			<rect x="1624.3" y="1034.7" transform="matrix(-1 -1.224647e-16 1.224647e-16 -1 3257.8142 2102.8325)" class="st20" width="9.1" height="33.4"/>
		<path class="st20" d="M1640.7,1072.9c0-6.5-5.3-11.8-11.8-11.8s-11.8,5.3-11.8,11.8c0,6.5,5.3,11.8,11.8,11.8
			S1640.7,1079.5,1640.7,1072.9z"/>
		<path class="st21" d="M1636.6,1072.9c0-4.3-3.5-7.7-7.7-7.7c-4.3,0-7.7,3.5-7.7,7.7c0,4.3,3.5,7.7,7.7,7.7
			C1633.2,1080.7,1636.6,1077.2,1636.6,1072.9z"/>
	</g>
	<path class="st22" d="M1601.9,1057.4h155.4c9.9,0,17.9-8,17.9-17.9V678.3c0-9.9-8-17.9-17.9-17.9h-134c-21.7,0-39.3,17.6-39.3,39.3
		v339.8C1584.1,1049.4,1592.1,1057.4,1601.9,1057.4z"/>
	<path class="st23" d="M1744.3,1057.4h278.6c9.6,0,17.4-7.8,17.4-17.4V660.4h-295.9V1057.4z"/>
	
		<rect x="1639.7" y="641.9" transform="matrix(-1 -1.224647e-16 1.224647e-16 -1 3582.9866 1302.3256)" class="st24" width="303.5" height="18.5"/>
	
		<rect x="1796" y="759.8" transform="matrix(-1 -1.224647e-16 1.224647e-16 -1 3800.9138 1663.1722)" class="st25" width="208.8" height="143.5"/>
	
		<rect x="1619.9" y="686.9" transform="matrix(-1 -1.224647e-16 1.224647e-16 -1 3346.2068 1381.3451)" class="st26" width="106.3" height="7.6"/>
	
		<rect x="1619.9" y="705.4" transform="matrix(-1 -1.224647e-16 1.224647e-16 -1 3346.2068 1418.3129)" class="st26" width="106.3" height="7.6"/>
	<path class="st23" d="M1680.9,641.9h332l0,0c0-19.9-16.2-36.1-36.1-36.1h-295.9V641.9z"/>
	<path class="st22" d="M1602.6,641.9h172.6l0,0c0-19.9-16.2-36.1-36.1-36.1h-100.4C1618.8,605.8,1602.6,622,1602.6,641.9
		L1602.6,641.9z"/>
	<g class="st3">
		<path class="st27" d="M2033.3,660.4l27.3,51.8c4.2,7.9,1.1,14.3-6.7,14.3h-227.4c-7.9,0-17.6-6.4-21.8-14.3l-27.3-51.8H2033.3z"/>
		<path class="st21" d="M1838.3,726.5h227.4c7.9,0,10.9-6.4,6.7-14.3l-27.3-51.8h-255.9l27.3,51.8
			C1820.7,720.1,1830.4,726.5,1838.3,726.5z"/>
		<polygon class="st28" points="1845.4,707 1913.2,707 1895.3,672.9 1827.4,672.9 		"/>
		<g>
			<path class="st29" d="M1987.1,680.9c1.4,2.7,4.7,4.8,7.3,4.8s3.7-2.2,2.3-4.8c-1.4-2.7-4.7-4.8-7.3-4.8
				C1986.7,676.1,1985.7,678.2,1987.1,680.9z"/>
			<path class="st29" d="M1960.8,680.9c1.4,2.7,4.7,4.8,7.3,4.8c2.7,0,3.7-2.2,2.3-4.8c-1.4-2.7-4.7-4.8-7.3-4.8
				C1960.4,676.1,1959.4,678.2,1960.8,680.9z"/>
			<path class="st29" d="M1933.6,680.9c1.4,2.7,4.7,4.8,7.3,4.8s3.7-2.2,2.3-4.8c-1.4-2.7-4.7-4.8-7.3-4.8
				S1932.2,678.2,1933.6,680.9z"/>
			<path class="st29" d="M1997.4,700.5c1.4,2.7,4.7,4.8,7.3,4.8c2.7,0,3.7-2.2,2.3-4.8c-1.4-2.7-4.7-4.8-7.3-4.8
				C1997,695.6,1996,697.8,1997.4,700.5z"/>
			<path class="st29" d="M1971.1,700.5c1.4,2.7,4.7,4.8,7.3,4.8c2.7,0,3.7-2.2,2.3-4.8c-1.4-2.7-4.7-4.8-7.3-4.8
				C1970.7,695.6,1969.7,697.8,1971.1,700.5z"/>
			<path class="st29" d="M1943.9,700.5c1.4,2.7,4.7,4.8,7.3,4.8s3.7-2.2,2.3-4.8c-1.4-2.7-4.7-4.8-7.3-4.8
				C1943.5,695.6,1942.5,697.8,1943.9,700.5z"/>
		</g>
		<g>
			<path class="st29" d="M2034.5,673.7c0.7,1.3,2.2,2.3,3.5,2.3c1.3,0,1.7-1,1.1-2.3c-0.7-1.3-2.2-2.3-3.5-2.3
				S2033.9,672.5,2034.5,673.7z"/>
			<path class="st29" d="M2022,673.7c0.7,1.3,2.2,2.3,3.5,2.3c1.3,0,1.7-1,1.1-2.3c-0.7-1.3-2.2-2.3-3.5-2.3
				C2021.8,671.4,2021.4,672.5,2022,673.7z"/>
			<path class="st29" d="M2009.1,673.7c0.7,1.3,2.2,2.3,3.5,2.3s1.7-1,1.1-2.3c-0.7-1.3-2.2-2.3-3.5-2.3
				C2008.9,671.4,2008.4,672.5,2009.1,673.7z"/>
			<path class="st29" d="M2039.4,683c0.7,1.3,2.2,2.3,3.5,2.3c1.3,0,1.7-1,1.1-2.3c-0.7-1.3-2.2-2.3-3.5-2.3
				C2039.2,680.7,2038.8,681.8,2039.4,683z"/>
			<path class="st29" d="M2026.9,683c0.7,1.3,2.2,2.3,3.5,2.3c1.3,0,1.7-1,1.1-2.3c-0.7-1.3-2.2-2.3-3.5-2.3
				C2026.7,680.7,2026.3,681.8,2026.9,683z"/>
			<path class="st29" d="M2014,683c0.7,1.3,2.2,2.3,3.5,2.3c1.3,0,1.7-1,1.1-2.3c-0.7-1.3-2.2-2.3-3.5-2.3
				C2013.8,680.7,2013.3,681.8,2014,683z"/>
		</g>
	</g>
	<path class="st22" d="M1987.5,799.9h-162.3c-3.1,0-5.6-2.5-5.6-5.6l0,0c0-3.1,2.5-5.6,5.6-5.6h162.3c3.1,0,5.6,2.5,5.6,5.6l0,0
		C1993.1,797.4,1990.6,799.9,1987.5,799.9z"/>
	<path class="st22" d="M1987.5,825.8h-162.3c-3.1,0-5.6-2.5-5.6-5.6l0,0c0-3.1,2.5-5.6,5.6-5.6h162.3c3.1,0,5.6,2.5,5.6,5.6l0,0
		C1993.1,823.3,1990.6,825.8,1987.5,825.8z"/>
</g>
<g class="st1">
	<g class="st3">
		
			<rect x="2937.4" y="1031.5" transform="matrix(-1 -1.224647e-16 1.224647e-16 -1 5884.522 2098.4634)" class="st20" width="9.7" height="35.4"/>
		<path class="st20" d="M2954.8,1072c0-6.9-5.6-12.5-12.5-12.5c-6.9,0-12.5,5.6-12.5,12.5c0,6.9,5.6,12.5,12.5,12.5
			C2949.2,1084.5,2954.8,1078.9,2954.8,1072z"/>
		<path class="st21" d="M2950.4,1072c0-4.5-3.7-8.2-8.2-8.2c-4.5,0-8.2,3.7-8.2,8.2c0,4.5,3.7,8.2,8.2,8.2
			C2946.8,1080.2,2950.4,1076.6,2950.4,1072z"/>
	</g>
	<g class="st3">
		
			<rect x="2539" y="1031.5" transform="matrix(-1 -1.224647e-16 1.224647e-16 -1 5087.7217 2098.4634)" class="st20" width="9.7" height="35.4"/>
		<path class="st20" d="M2556.4,1072c0-6.9-5.6-12.5-12.5-12.5c-6.9,0-12.5,5.6-12.5,12.5c0,6.9,5.6,12.5,12.5,12.5
			C2550.8,1084.5,2556.4,1078.9,2556.4,1072z"/>
		<path class="st21" d="M2552.1,1072c0-4.5-3.7-8.2-8.2-8.2c-4.5,0-8.2,3.7-8.2,8.2c0,4.5,3.7,8.2,8.2,8.2
			C2548.4,1080.2,2552.1,1076.6,2552.1,1072z"/>
	</g>
	<g class="st3">
		
			<rect x="2359.2" y="1031.5" transform="matrix(-1 -1.224647e-16 1.224647e-16 -1 4728.166 2098.4634)" class="st20" width="9.7" height="35.4"/>
		<path class="st20" d="M2376.6,1072c0-6.9-5.6-12.5-12.5-12.5c-6.9,0-12.5,5.6-12.5,12.5c0,6.9,5.6,12.5,12.5,12.5
			C2371,1084.5,2376.6,1078.9,2376.6,1072z"/>
		<path class="st21" d="M2372.3,1072c0-4.5-3.7-8.2-8.2-8.2c-4.5,0-8.2,3.7-8.2,8.2c0,4.5,3.7,8.2,8.2,8.2
			C2368.6,1080.2,2372.3,1076.6,2372.3,1072z"/>
	</g>
	<path class="st30" d="M2970.7,1054.9l79.9,0.6V704c0-38.1-30.9-69.1-69.1-69.1h-26.7L2970.7,1054.9z"/>
	<path class="st23" d="M2937.4,1055.4h89.8V712.3c0-25.4-20.6-46.1-46.1-46.1h-1.8L2937.4,1055.4z"/>
	<path class="st23" d="M2328.7,1055.6h624.6c14.6,0,26.5-11.9,26.5-26.5V634.9h-651.1V1055.6z"/>
	<polygon class="st30" points="2328.7,666.2 2993.9,666.2 2979.7,634.9 2328.7,634.9 	"/>
	<path class="st22" d="M2328.7,1055.6h95.8V704c0-38.1-30.9-69.1-69.1-69.1h-26.7V1055.6z"/>
	<g class="st3">
		<path class="st27" d="M2697.5,608.8l28.9,54.9c4.4,8.3,1.2,15.1-7.1,15.1h-241c-8.3,0-18.7-6.8-23.1-15.1l-23.4-44.4
			c-2.5-4.8,0.9-10.5,6.3-10.5H2697.5z"/>
		<path class="st20" d="M2490.9,678.8h241c8.3,0,11.5-6.8,7.1-15.1l-24.5-46.4c-2.7-5.2-8.1-8.4-14-8.4h-247.2
			c-6.6,0-10.8,7-7.7,12.8l22.2,42.1C2472.2,672,2482.5,678.8,2490.9,678.8z"/>
		<polygon class="st28" points="2498.3,658.1 2570.3,658.1 2551.2,622 2479.3,622 		"/>
		<g>
			<path class="st27" d="M2648.5,630.5c1.5,2.8,5,5.1,7.8,5.1c2.8,0,3.9-2.3,2.4-5.1c-1.5-2.8-5-5.1-7.8-5.1
				C2648.1,625.4,2647,627.7,2648.5,630.5z"/>
			<path class="st27" d="M2620.7,630.5c1.5,2.8,5,5.1,7.8,5.1c2.8,0,3.9-2.3,2.4-5.1c-1.5-2.8-5-5.1-7.8-5.1
				S2619.2,627.7,2620.7,630.5z"/>
			<path class="st27" d="M2591.8,630.5c1.5,2.8,5,5.1,7.8,5.1s3.9-2.3,2.4-5.1c-1.5-2.8-5-5.1-7.8-5.1
				C2591.4,625.4,2590.3,627.7,2591.8,630.5z"/>
			<path class="st27" d="M2659.4,651.2c1.5,2.8,5,5.1,7.8,5.1c2.8,0,3.9-2.3,2.4-5.1c-1.5-2.8-5-5.1-7.8-5.1
				C2659,646.1,2658,648.4,2659.4,651.2z"/>
			<path class="st27" d="M2631.6,651.2c1.5,2.8,5,5.1,7.8,5.1s3.9-2.3,2.4-5.1c-1.5-2.8-5-5.1-7.8-5.1
				C2631.2,646.1,2630.1,648.4,2631.6,651.2z"/>
			<path class="st27" d="M2602.7,651.2c1.5,2.8,5,5.1,7.8,5.1c2.8,0,3.9-2.3,2.4-5.1c-1.5-2.8-5-5.1-7.8-5.1
				C2602.3,646.1,2601.2,648.4,2602.7,651.2z"/>
		</g>
		<g>
			<path class="st28" d="M2698.8,622.9c0.7,1.3,2.4,2.4,3.7,2.4c1.3,0,1.9-1.1,1.1-2.4c-0.7-1.3-2.4-2.4-3.7-2.4
				C2698.6,620.4,2698.1,621.5,2698.8,622.9z"/>
			<path class="st28" d="M2685.5,622.9c0.7,1.3,2.4,2.4,3.7,2.4c1.3,0,1.9-1.1,1.1-2.4c-0.7-1.3-2.4-2.4-3.7-2.4
				C2685.3,620.4,2684.8,621.5,2685.5,622.9z"/>
			<path class="st28" d="M2671.8,622.9c0.7,1.3,2.4,2.4,3.7,2.4c1.3,0,1.8-1.1,1.1-2.4c-0.7-1.3-2.4-2.4-3.7-2.4
				S2671.1,621.5,2671.8,622.9z"/>
			<path class="st28" d="M2704,632.7c0.7,1.3,2.4,2.4,3.7,2.4c1.3,0,1.9-1.1,1.1-2.4c-0.7-1.3-2.4-2.4-3.7-2.4
				C2703.8,630.3,2703.3,631.4,2704,632.7z"/>
			<path class="st28" d="M2690.7,632.7c0.7,1.3,2.4,2.4,3.7,2.4c1.3,0,1.9-1.1,1.1-2.4c-0.7-1.3-2.4-2.4-3.7-2.4
				C2690.5,630.3,2690,631.4,2690.7,632.7z"/>
			<path class="st28" d="M2677,632.7c0.7,1.3,2.4,2.4,3.7,2.4c1.3,0,1.8-1.1,1.1-2.4c-0.7-1.3-2.4-2.4-3.7-2.4
				C2676.8,630.3,2676.3,631.4,2677,632.7z"/>
		</g>
	</g>
	<path class="st31" d="M2479.2,780.8h449c7.8,0,14.1-6.3,14.1-14.1l0,0c0-7.8-6.3-14.1-14.1-14.1h-449c-7.8,0-14.1,6.3-14.1,14.1
		l0,0C2465.1,774.5,2471.4,780.8,2479.2,780.8z"/>
	<g class="st3">
		<path class="st32" d="M2935.3,1020.6H2725V894h210.3V1020.6z M2727.5,1018.2h205.3V896.4h-205.3V1018.2z"/>
	</g>
	<g class="st3">
		<path class="st32" d="M2674.1,1020.6h-210.3V894h210.3V1020.6z M2466.3,1018.2h205.3V896.4h-205.3V1018.2z"/>
	</g>
	<path class="st33" d="M3062.1,1032h-541.7c-11.9-15.8-21.3-35-24.4-58c-10.4-78.9,21-169.8-30.9-207.4h477.2
		c0,0,71.3,10,64.4,128.5C3003.3,952.1,3031.7,998.8,3062.1,1032z"/>
</g>
<g>
	<path class="st34" d="M811.9,336.7H704.8c-4.9,0-8.9-4-8.9-8.9V224.4c0-4.9,4-8.9,8.9-8.9h107.1c4.9,0,8.9,4,8.9,8.9v103.4
		C820.9,332.7,816.8,336.7,811.9,336.7z"/>
	<path class="st35" d="M807.3,331.4h-97.8c-4.5,0-8.2-3.7-8.2-8.2v-94.4c0-4.5,3.7-8.2,8.2-8.2h97.8c4.5,0,8.2,3.7,8.2,8.2v94.4
		C815.4,327.8,811.8,331.4,807.3,331.4z"/>
	<g>
		<g>
			<path class="st36" d="M755.8,231.8c0-1.4,1.2-2.6,2.6-2.6s2.6,1.2,2.6,2.6c0,1.4-1.2,2.6-2.6,2.6S755.8,233.2,755.8,231.8z"/>
			<path class="st36" d="M776.7,235.4c0.7-1.2,2.3-1.7,3.5-1c1.2,0.7,1.7,2.3,1,3.5c-0.7,1.2-2.3,1.7-3.5,1
				C776.4,238.2,776,236.7,776.7,235.4z"/>
			<path class="st36" d="M794.6,249.6c1.2-0.8,2.8-0.4,3.6,0.8c0.8,1.2,0.4,2.8-0.8,3.6c-1.2,0.8-2.8,0.4-3.6-0.8
				C793,252,793.4,250.4,794.6,249.6z"/>
			<path class="st36" d="M803.4,271.6c1.4,0,2.6,1.2,2.6,2.6c0,1.4-1.2,2.6-2.6,2.6s-2.6-1.2-2.6-2.6
				C800.9,272.8,802,271.6,803.4,271.6z"/>
			<path class="st36" d="M798.9,297.2c1,1,1,2.6,0,3.7c-1,1-2.6,1-3.7,0c-1-1-1-2.6,0-3.7C796.3,296.2,797.9,296.2,798.9,297.2z"/>
			<path class="st36" d="M782.7,313.5c1,1,1,2.6,0,3.7c-1,1-2.6,1-3.7,0c-1-1-1-2.6,0-3.7C780,312.5,781.6,312.5,782.7,313.5z"/>
			<path class="st36" d="M755.8,321.9c0-1.4,1.2-2.6,2.6-2.6s2.6,1.2,2.6,2.6c0,1.4-1.2,2.6-2.6,2.6S755.8,323.3,755.8,321.9z"/>
		</g>
		<g>
			<path class="st36" d="M740,235.4c-0.7-1.2-2.3-1.7-3.5-1c-1.2,0.7-1.7,2.3-1,3.5c0.7,1.2,2.3,1.7,3.5,1
				C740.2,238.2,740.7,236.7,740,235.4z"/>
			<path class="st36" d="M722.1,249.6c-1.2-0.8-2.8-0.4-3.6,0.8c-0.8,1.2-0.4,2.8,0.8,3.6c1.2,0.8,2.8,0.4,3.6-0.8
				C723.7,252,723.3,250.4,722.1,249.6z"/>
			<circle class="st36" cx="713.2" cy="274.2" r="2.6"/>
			<path class="st36" d="M717.8,297.2c-1,1-1,2.6,0,3.7c1,1,2.7,1,3.7,0c1-1,1-2.6,0-3.7C720.4,296.2,718.8,296.2,717.8,297.2z"/>
			<circle class="st36" cx="735.9" cy="315.3" r="2.6"/>
		</g>
	</g>
	<g>
		<path class="st36" d="M757.7,274.2c0-1.4,1.2-2.6,2.6-2.6s2.6,1.2,2.6,2.6c0,1.4-1.2,2.6-2.6,2.6S757.7,275.7,757.7,274.2z"/>
		<g>
			<rect x="759.9" y="241.9" class="st36" width="0.7" height="32.3"/>
		</g>
		<g>
			
				<rect x="757.6" y="266.4" transform="matrix(0.7865 -0.6175 0.6175 0.7865 -1.1161 531.6807)" class="st36" width="21.8" height="2.1"/>
		</g>
	</g>
</g>
<g>
	<g>
		<g>
			<path class="st37" d="M767.2,1087.1h-0.3c-1.9,0-3.4-2.5-3.3-5.5l5.1-355.4l14.9-2.8l-12.7,358.2
				C770.7,1084.7,769.2,1087.1,767.2,1087.1z"/>
		</g>
		<g>
			<path class="st37" d="M1360.1,1087.1h0.3c1.9,0,3.4-2.5,3.3-5.5l-5.1-355.4l-14.9-2.8l12.7,358.2
				C1356.6,1084.7,1358.1,1087.1,1360.1,1087.1z"/>
		</g>
		<path class="st37" d="M737.3,732.7h630.5c4.5,0,8.2-3.7,8.2-8.2v-5c0-4.5-3.7-8.2-8.2-8.2H737.3c-4.5,0-8.2,3.7-8.2,8.2v5
			C729,729,732.7,732.7,737.3,732.7z"/>
	</g>
	<g>
		<g>
			<path class="st38" d="M890.7,553.4l-12.5,148.8c0,0-1.3,9,5.4,9c11,0,54.9,0,54.9,0s-8.3-1.9-8.2-6.1
				c0.1-5,14.6-153.1,14.6-153.1L890.7,553.4z"/>
			<path class="st38" d="M942.1,708.5c-2.2,0-44.1,0.1-54.8,0c-4.7-0.1-5.5-4.2-5.5-6.8c0-1.3,0.1-2.2,0.1-2.2l0.3-3.9l0.8-9.9
				l0.7-8.7l0.9-11.2l0.8-9.4l8.9-105.7l54.2-1.4c0,0-6.1,62-10.4,107.1c-0.5,5-0.9,9.9-1.4,14.4c-0.1,1.4-0.3,2.8-0.4,4.2
				c-0.4,4.3-0.8,8.2-1.1,11.7c-0.2,1.8-0.3,3.5-0.5,5.1c-0.6,6.1-0.9,10-0.9,10.7c0,0.4,0,0.8,0.1,1.2
				C935,708.4,941.3,708.5,942.1,708.5z"/>
			<polygon class="st38" points="759.1,472.4 789.6,594.9 793.7,611.6 807.9,668.7 1071.7,668.7 1019.4,472.4 			"/>
			<polygon class="st38" points="759.1,472.4 754.8,473.8 802.3,672.9 807.9,668.7 			"/>
			<polygon class="st38" points="802.3,672.9 1064.5,672.9 1071.7,668.7 807.9,668.7 			"/>
			
				<rect x="894.4" y="708.6" transform="matrix(-1 -1.224647e-16 1.224647e-16 -1 1845.4919 1419.8695)" class="st38" width="56.8" height="2.7"/>
			<polygon class="st38" points="1058.9,632.5 1016.1,475 758.6,475 758.6,472.4 1019.4,472.4 1062,632.1 			"/>
			<polygon class="st38" points="936.7,672.9 936.4,675 883,685.8 883.8,677.1 884.1,672.9 			"/>
			<path class="st39" d="M942.1,708.5c-2.2,0-44.1,0.1-54.8,0c-4.7-0.1-5.5-4.2-5.5-6.8l53.1-10c-0.6,6.1-0.9,10-0.9,10.7
				c0,0.4,0,0.8,0.1,1.2C935,708.4,941.3,708.5,942.1,708.5z"/>
			<polygon class="st39" points="923.8,628.9 807.9,668.7 793.7,611.6 			"/>
			<polygon class="st38" points="759.1,472.4 1019.4,472.4 1061.6,630.1 797,630.1 			"/>
		</g>
		<polygon class="st32" points="1049.3,623.3 805.6,623.3 778,513.3 775.9,504.9 774.1,497.7 769.8,480.9 1010.1,480.9 
			1014.7,497.7 1016.7,504.9 1019,513.3 		"/>
		<g>
			<polygon class="st28" points="806.1,495 789.9,495.3 789.5,493.8 805.7,493.6 			"/>
			<polygon class="st28" points="802.5,498.9 790.8,499.1 790.5,497.7 802.2,497.5 			"/>
			<polygon class="st28" points="815.9,498.7 804.3,498.9 803.9,497.5 815.6,497.3 			"/>
			<polygon class="st28" points="825.7,498.6 818.4,498.7 818.1,497.3 825.3,497.2 			"/>
			<polygon class="st28" points="819.1,494.8 809.1,495 808.8,493.6 818.8,493.4 			"/>
			<polygon class="st28" points="832.8,494.7 822.8,494.8 822.5,493.4 832.5,493.2 			"/>
		</g>
		<g>
			<polygon class="st28" points="986.6,488.5 975.7,488.7 975.4,487.8 986.4,487.6 			"/>
			<polygon class="st28" points="984.2,491.2 976.3,491.3 976.1,490.3 983.9,490.2 			"/>
			<polygon class="st28" points="993.2,491 985.4,491.2 985.1,490.2 993,490.1 			"/>
			<polygon class="st28" points="999.8,491 994.9,491 994.7,490.1 999.5,490 			"/>
			<polygon class="st28" points="995.4,488.4 988.6,488.5 988.4,487.6 995.2,487.5 			"/>
			<polygon class="st28" points="1004.6,488.3 997.9,488.4 997.6,487.4 1004.4,487.3 			"/>
		</g>
		<g>
			<polygon class="st28" points="1015.8,613.5 1004.9,613.7 1004.6,612.7 1015.6,612.6 			"/>
			<polygon class="st28" points="1013.4,616.1 1005.5,616.3 1005.3,615.3 1013.2,615.2 			"/>
			<polygon class="st28" points="1022.5,616 1014.6,616.1 1014.4,615.2 1022.2,615.1 			"/>
			<polygon class="st28" points="1029,615.9 1024.1,616 1023.9,615 1028.8,615 			"/>
			<polygon class="st28" points="1024.6,613.4 1017.9,613.5 1017.6,612.5 1024.4,612.4 			"/>
			<polygon class="st28" points="1033.9,613.3 1027.1,613.4 1026.9,612.4 1033.6,612.3 			"/>
		</g>
		<g>
			<g>
				<polygon class="st28" points="806.8,507.5 793.1,507.7 792.7,506.3 806.4,506.1 				"/>
				<polygon class="st28" points="816.9,507.4 809.3,507.5 808.9,506.1 816.6,505.9 				"/>
				<polygon class="st28" points="832.2,507.1 820.4,507.3 820,505.9 831.8,505.7 				"/>
			</g>
			<g>
				<polygon class="st28" points="810.2,511.2 794,511.4 793.6,510 809.9,509.8 				"/>
				<polygon class="st28" points="806.7,515.1 795,515.2 794.6,513.8 806.3,513.7 				"/>
				<polygon class="st28" points="820.1,514.9 808.4,515 808,513.6 819.7,513.5 				"/>
				<polygon class="st28" points="829.8,514.7 822.5,514.8 822.2,513.4 829.4,513.3 				"/>
				<polygon class="st28" points="823.3,511 813.3,511.1 812.9,509.7 822.9,509.6 				"/>
				<polygon class="st28" points="837,510.8 827,510.9 826.6,509.5 836.6,509.4 				"/>
			</g>
		</g>
		<g>
			<g>
				<polygon class="st28" points="811.3,525.2 797.6,525.4 797.2,524 810.9,523.8 				"/>
				<polygon class="st28" points="821.5,525 813.8,525.1 813.4,523.7 821.1,523.6 				"/>
				<polygon class="st28" points="836.7,524.8 824.9,525 824.6,523.6 836.3,523.4 				"/>
			</g>
			<g>
				<polygon class="st28" points="814.8,528.9 798.5,529.1 798.2,527.7 814.4,527.4 				"/>
				<polygon class="st28" points="811.2,532.7 799.5,532.9 799.2,531.5 810.8,531.3 				"/>
				<polygon class="st28" points="824.6,532.6 812.9,532.7 812.6,531.3 824.2,531.1 				"/>
				<polygon class="st28" points="834.3,532.4 827.1,532.5 826.7,531.1 834,531 				"/>
				<polygon class="st28" points="827.8,528.7 817.8,528.8 817.4,527.4 827.4,527.3 				"/>
				<polygon class="st28" points="841.5,528.5 831.5,528.6 831.1,527.2 841.1,527.1 				"/>
			</g>
		</g>
		<g>
			<g>
				<polygon class="st28" points="815.6,542.1 801.9,542.3 801.6,540.9 815.3,540.7 				"/>
				<polygon class="st28" points="825.8,542 818.1,542.1 817.8,540.6 825.4,540.5 				"/>
				<polygon class="st28" points="841,541.7 829.3,541.9 828.9,540.5 840.7,540.3 				"/>
			</g>
			<g>
				<polygon class="st28" points="819.1,545.8 802.9,546 802.5,544.6 818.7,544.4 				"/>
				<polygon class="st28" points="815.5,549.7 803.8,549.8 803.5,548.4 815.2,548.3 				"/>
				<polygon class="st28" points="828.9,549.5 817.3,549.6 816.9,548.2 828.6,548.1 				"/>
				<polygon class="st28" points="838.7,549.3 831.4,549.4 831.1,548 838.3,547.9 				"/>
				<polygon class="st28" points="832.1,545.6 822.1,545.7 821.8,544.3 831.8,544.2 				"/>
				<polygon class="st28" points="845.8,545.4 835.8,545.5 835.5,544.1 845.5,544 				"/>
			</g>
		</g>
		<g>
			<g>
				<polygon class="st28" points="820.1,559.5 806.4,559.7 806,558.2 819.7,558.1 				"/>
				<polygon class="st28" points="830.2,559.3 822.6,559.4 822.2,558 829.9,557.9 				"/>
				<polygon class="st28" points="845.5,559.1 833.7,559.3 833.4,557.9 845.1,557.7 				"/>
			</g>
			<g>
				<polygon class="st28" points="823.6,563.1 807.3,563.4 807,562 823.2,561.7 				"/>
				<polygon class="st28" points="820,567 808.3,567.2 807.9,565.8 819.6,565.6 				"/>
				<polygon class="st28" points="833.4,566.8 821.7,567 821.4,565.6 833,565.4 				"/>
				<polygon class="st28" points="843.1,566.7 835.9,566.8 835.5,565.4 842.7,565.3 				"/>
				<polygon class="st28" points="836.6,563 826.6,563.1 826.2,561.7 836.2,561.5 				"/>
				<polygon class="st28" points="850.3,562.8 840.3,562.9 839.9,561.5 849.9,561.4 				"/>
			</g>
		</g>
		<g>
			<g>
				<polygon class="st28" points="825.3,580.9 811.6,581.1 811.3,579.7 825,579.5 				"/>
				<polygon class="st28" points="835.5,580.7 827.8,580.9 827.5,579.4 835.1,579.3 				"/>
				<polygon class="st28" points="850.7,580.5 839,580.7 838.6,579.3 850.4,579.1 				"/>
			</g>
			<g>
				<polygon class="st28" points="828.8,584.6 812.6,584.8 812.2,583.4 828.4,583.2 				"/>
				<polygon class="st28" points="825.2,588.5 813.5,588.6 813.2,587.2 824.9,587 				"/>
				<polygon class="st28" points="838.6,588.3 827,588.4 826.6,587 838.3,586.9 				"/>
				<polygon class="st28" points="848.4,588.1 841.1,588.2 840.7,586.8 848,586.7 				"/>
				<polygon class="st28" points="841.8,584.4 831.8,584.5 831.5,583.1 841.5,583 				"/>
				<polygon class="st28" points="855.5,584.2 845.5,584.3 845.2,582.9 855.2,582.8 				"/>
			</g>
		</g>
		<g>
			<g>
				<polygon class="st28" points="830.6,600.9 816.9,601.1 816.5,599.7 830.2,599.5 				"/>
				<polygon class="st28" points="840.7,600.8 833.1,600.9 832.7,599.5 840.4,599.4 				"/>
				<polygon class="st28" points="856,600.6 844.2,600.7 843.9,599.3 855.6,599.2 				"/>
			</g>
			<g>
				<polygon class="st28" points="834.1,604.6 817.8,604.8 817.5,603.4 833.7,603.2 				"/>
				<polygon class="st28" points="830.5,608.5 818.8,608.7 818.4,607.3 830.1,607.1 				"/>
				<polygon class="st28" points="843.9,608.3 832.2,608.5 831.9,607.1 843.5,606.9 				"/>
				<polygon class="st28" points="853.6,608.2 846.4,608.3 846,606.9 853.2,606.8 				"/>
				<polygon class="st28" points="847.1,604.4 837.1,604.6 836.7,603.2 846.7,603 				"/>
				<polygon class="st28" points="860.8,604.2 850.8,604.4 850.4,603 860.4,602.8 				"/>
			</g>
		</g>
		<g>
			<polygon class="st28" points="870.2,495 854,495.3 853.6,493.8 869.9,493.6 			"/>
			<polygon class="st28" points="866.6,498.9 855,499.1 854.6,497.7 866.3,497.5 			"/>
			<polygon class="st28" points="880,498.7 868.4,498.9 868,497.5 879.7,497.3 			"/>
			<polygon class="st28" points="889.8,498.6 882.5,498.7 882.2,497.3 889.4,497.2 			"/>
			<polygon class="st28" points="883.3,494.8 873.2,495 872.9,493.6 882.9,493.4 			"/>
			<polygon class="st28" points="896.9,494.7 886.9,494.8 886.6,493.4 896.6,493.2 			"/>
		</g>
		<g>
			<g>
				<polygon class="st28" points="870.9,507.5 857.2,507.7 856.8,506.3 870.5,506.1 				"/>
				<polygon class="st28" points="881,507.4 873.4,507.5 873,506.1 880.7,505.9 				"/>
				<polygon class="st28" points="896.3,507.1 884.5,507.3 884.2,505.9 895.9,505.7 				"/>
			</g>
			<g>
				<polygon class="st28" points="874.4,511.2 858.1,511.4 857.7,510 874,509.8 				"/>
				<polygon class="st28" points="870.8,515.1 859.1,515.2 858.7,513.8 870.4,513.7 				"/>
				<polygon class="st28" points="884.2,514.9 872.5,515 872.1,513.6 883.8,513.5 				"/>
				<polygon class="st28" points="893.9,514.7 886.7,514.8 886.3,513.4 893.5,513.3 				"/>
				<polygon class="st28" points="887.4,511 877.4,511.1 877,509.7 887,509.6 				"/>
				<polygon class="st28" points="901.1,510.8 891.1,510.9 890.7,509.5 900.7,509.4 				"/>
			</g>
		</g>
		<g>
			<g>
				<polygon class="st28" points="875.4,525.2 861.7,525.4 861.3,524 875,523.8 				"/>
				<polygon class="st28" points="885.6,525 877.9,525.1 877.5,523.7 885.2,523.6 				"/>
				<polygon class="st28" points="900.8,524.8 889,525 888.7,523.6 900.4,523.4 				"/>
			</g>
			<g>
				<polygon class="st28" points="878.9,528.9 862.6,529.1 862.3,527.7 878.5,527.4 				"/>
				<polygon class="st28" points="875.3,532.7 863.6,532.9 863.3,531.5 874.9,531.3 				"/>
				<polygon class="st28" points="888.7,532.6 877,532.7 876.7,531.3 888.4,531.1 				"/>
				<polygon class="st28" points="898.4,532.4 891.2,532.5 890.8,531.1 898.1,531 				"/>
				<polygon class="st28" points="891.9,528.7 881.9,528.8 881.5,527.4 891.6,527.3 				"/>
				<polygon class="st28" points="905.6,528.5 895.6,528.6 895.2,527.2 905.2,527.1 				"/>
			</g>
		</g>
		<g>
			<g>
				<polygon class="st28" points="879.7,542.1 866,542.3 865.7,540.9 879.4,540.7 				"/>
				<polygon class="st28" points="889.9,542 882.2,542.1 881.9,540.6 889.5,540.5 				"/>
				<polygon class="st28" points="905.1,541.7 893.4,541.9 893,540.5 904.8,540.3 				"/>
			</g>
			<g>
				<polygon class="st28" points="883.2,545.8 867,546 866.6,544.6 882.9,544.4 				"/>
				<polygon class="st28" points="879.6,549.7 868,549.8 867.6,548.4 879.3,548.3 				"/>
				<polygon class="st28" points="893,549.5 881.4,549.6 881,548.2 892.7,548.1 				"/>
				<polygon class="st28" points="902.8,549.3 895.5,549.4 895.2,548 902.4,547.9 				"/>
				<polygon class="st28" points="896.3,545.6 886.2,545.7 885.9,544.3 895.9,544.2 				"/>
				<polygon class="st28" points="909.9,545.4 899.9,545.5 899.6,544.1 909.6,544 				"/>
			</g>
		</g>
		<g>
			<g>
				<polygon class="st28" points="884.2,559.5 870.5,559.7 870.1,558.2 883.8,558.1 				"/>
				<polygon class="st28" points="894.3,559.3 886.7,559.4 886.3,558 894,557.9 				"/>
				<polygon class="st28" points="909.6,559.1 897.8,559.3 897.5,557.9 909.2,557.7 				"/>
			</g>
			<g>
				<polygon class="st28" points="887.7,563.1 871.4,563.4 871.1,562 887.3,561.7 				"/>
				<polygon class="st28" points="884.1,567 872.4,567.2 872,565.8 883.7,565.6 				"/>
				<polygon class="st28" points="897.5,566.8 885.8,567 885.5,565.6 897.1,565.4 				"/>
				<polygon class="st28" points="907.2,566.7 900,566.8 899.6,565.4 906.8,565.3 				"/>
				<polygon class="st28" points="900.7,563 890.7,563.1 890.3,561.7 900.3,561.5 				"/>
				<polygon class="st28" points="914.4,562.8 904.4,562.9 904,561.5 914,561.4 				"/>
			</g>
		</g>
		<g>
			<g>
				<polygon class="st28" points="889.4,580.9 875.7,581.1 875.4,579.7 889.1,579.5 				"/>
				<polygon class="st28" points="899.6,580.7 891.9,580.9 891.6,579.4 899.2,579.3 				"/>
				<polygon class="st28" points="914.8,580.5 903.1,580.7 902.7,579.3 914.5,579.1 				"/>
			</g>
			<g>
				<polygon class="st28" points="892.9,584.6 876.7,584.8 876.3,583.4 892.6,583.2 				"/>
				<polygon class="st28" points="889.3,588.5 877.7,588.6 877.3,587.2 889,587 				"/>
				<polygon class="st28" points="902.7,588.3 891.1,588.4 890.7,587 902.4,586.9 				"/>
				<polygon class="st28" points="912.5,588.1 905.2,588.2 904.9,586.8 912.1,586.7 				"/>
				<polygon class="st28" points="906,584.4 895.9,584.5 895.6,583.1 905.6,583 				"/>
				<polygon class="st28" points="919.6,584.2 909.6,584.3 909.3,582.9 919.3,582.8 				"/>
			</g>
		</g>
		<g>
			<g>
				<polygon class="st28" points="894.7,600.9 881,601.1 880.6,599.7 894.3,599.5 				"/>
				<polygon class="st28" points="904.9,600.8 897.2,600.9 896.8,599.5 904.5,599.4 				"/>
				<polygon class="st28" points="920.1,600.6 908.3,600.7 908,599.3 919.7,599.2 				"/>
			</g>
			<g>
				<polygon class="st28" points="898.2,604.6 881.9,604.8 881.6,603.4 897.8,603.2 				"/>
				<polygon class="st28" points="894.6,608.5 882.9,608.7 882.5,607.3 894.2,607.1 				"/>
				<polygon class="st28" points="908,608.3 896.3,608.5 896,607.1 907.6,606.9 				"/>
				<polygon class="st28" points="917.7,608.2 910.5,608.3 910.1,606.9 917.4,606.8 				"/>
				<polygon class="st28" points="911.2,604.4 901.2,604.6 900.8,603.2 910.8,603 				"/>
				<polygon class="st28" points="924.9,604.2 914.9,604.4 914.5,603 924.5,602.8 				"/>
			</g>
		</g>
	</g>
	<g>
		<path class="st40" d="M1065.9,1047.8c0,0-2.3,36.6-9.4,37.1c-0.9,0.1-35.9,0-35.9,0l-44.6-0.4c0,0,0.3-10.8,13.4-13
			c13.1-2.2,34.9-11.4,42.9-28.6C1040.5,1024.8,1065.9,1047.8,1065.9,1047.8z"/>
		<path class="st29" d="M1193.7,746.7c1.7,1.4,47.2,50.7,43.5,88.6c-1.1,11.1-10.7,19.5-21.8,19.5h-55.4c0,0-56.5,10.1-57.9,22.3
			c-1.3,12.2-12.9,78.1-35.8,171.6c0,0-16.9,5.8-27.1,1.7c-13.5-5.5-15.5-11.3-15.5-11.3s13.7-209.5,24.4-224.3
			c10.8-14.7,121.9-58.6,157.9-62.9C1241.9,747.4,1193.7,746.7,1193.7,746.7z"/>
		<path class="st41" d="M872.5,694.5c0,0-32.1-7.5-40.4,0c-8.2,7.5-10.8,18.3-10.8,18.3h51.2V694.5z"/>
		<path class="st29" d="M987.6,1047.8c0,0-2.3,36.6-9.4,37.1c-0.9,0.1-35.9,0-35.9,0l-44.6-0.4c0,0,0.3-10.8,13.4-13
			c13.1-2.2,34.9-11.4,42.9-28.6C962.2,1024.8,987.6,1047.8,987.6,1047.8z"/>
		<path class="st42" d="M1235.7,746.7c1.3,1.1,11.1,27.6,17.7,57.6c5.7,25.9-14,50.4-40.5,50.4H1084c0,0-56.5,10.1-57.9,22.3
			c-1.3,12.2-12.9,78.1-35.8,171.6c0,0-16.9,4.4-30.2-1.2c-7-3-12.6-10.2-12.6-10.2s13.8-207.7,24.6-222.5
			c10.8-14.7,121.9-58.6,157.9-62.9C1166,747.4,1235.7,746.7,1235.7,746.7z"/>
		<path class="st41" d="M1164.3,559.4l-19.9,19.1l-34,0c0-2.7,0.1-14.1,0.2-24.4c0-0.6,0-1.2,0-1.8c0-2.3,0.1-4.5,0.1-6.5
			c0.1-5.7,0.1-9.8,0.1-9.8l8.7-6l19.4-13.3l10.5-7.2c0,0.2,0.9,9.6,1,10.9C1152.8,544.8,1164.3,559.4,1164.3,559.4z"/>
		<path class="st43" d="M1114.9,556c0.6-0.3,37.4-16.8,41.7-15.3c4.3,1.4,9.7,14.5,9.7,14.5l-64.7,14.6
			C1101.6,569.8,1106.7,559.4,1114.9,556z"/>
		<path class="st28" d="M1273.8,666c-7-43.2-36.6-75.5-49.2-87.6c-8.5-12.8-58.4-23.3-58.4-23.3s-41.3,9.3-64.7,14.6
			c0,0-36.5,4-57,38c-12.7,21-49.1,69.1-73.1,70.6c-23.9,1.5-99,16.1-99,16.1v18.5l114.5,3.1c1.4,0,2.8-0.1,4.2-0.3
			c9.9-1.9,52.1-10.3,73.1-21.2c3.4,54.1,7.3,136.7,26.2,149.8c20,13.9,160.5,15.7,175.4-5.4c7.6-10.8-1.7-74.9-13.4-136.7
			C1267,695.4,1276.8,684.1,1273.8,666z"/>
		<path class="st44" d="M1144,528l-1.7,1.1c0,0-16,11.5-31.6,16.7c0.1-5.7,0.1-9.8,0.1-9.8l8.7-6L1144,528z"/>
		<path class="st41" d="M1098.9,536.3c0,0,52.2,6.2,55.6-26.4c3.3-32.6,12.3-53.7-20.9-59.1s-41,6.4-44.7,17.1
			C1085.1,478.5,1085.4,533.8,1098.9,536.3z"/>
		<path class="st29" d="M1090.3,464.5c0,0,9.9,35.4,17,32.4c7.1-2.9,13.7-5.4,14.6,5.7c0.9,11-7,25.5,16.2,23.1s45.2-67.6,36.8-77.6
			C1150.7,419.2,1056.7,430,1090.3,464.5z"/>
	</g>
	<g>
		<path class="st38" d="M1053.3,861.7h258.4c9.8,0,17.8-8,17.8-17.8v-11.6h-276.2V861.7z"/>
		<path class="st38" d="M1022.3,861.7h195.5c7.3,0,13.1-5.9,13.1-13.1v-3c0-7.3-5.9-13.1-13.1-13.1h-195.5
			c-7.3,0-13.1,5.9-13.1,13.1v3C1009.2,855.9,1015.1,861.7,1022.3,861.7z"/>
		<g>
			<polygon class="st38" points="1185.1,1073.9 1201.8,1073.9 1206.4,861.7 1181,861.7 			"/>
			<polygon class="st38" points="1112.6,1073.9 1274.8,1073.9 1274.8,1059.2 1192.1,1051.8 1112.6,1059.2 			"/>
			<path class="st38" d="M1290.5,1071.6c0-7.4-6-13.3-13.3-13.3c-7.4,0-13.3,6-13.3,13.3c0,7.4,6,13.3,13.3,13.3
				C1284.5,1084.9,1290.5,1078.9,1290.5,1071.6z"/>
			<path class="st38" d="M1128.4,1071.6c0-7.4-6-13.3-13.3-13.3c-7.4,0-13.3,6-13.3,13.3c0,7.4,6,13.3,13.3,13.3
				C1122.4,1084.9,1128.4,1078.9,1128.4,1071.6z"/>
			<path class="st38" d="M1118.5,875.7H1269c7.7,0,13.9-6.2,13.9-13.9l0,0h-178.3l0,0C1104.5,869.4,1110.8,875.7,1118.5,875.7z"/>
		</g>
		<path class="st38" d="M1304,861.7c7,0,12.7-5.7,12.7-12.7V653.7c0-36.6-23.9-66.3-53.4-66.3h-120.9c-29.5,0-53.4,29.7-53.4,66.3
			v208H1304z"/>
		<path class="st38" d="M1306.3,861.7c12.8,0,23.1-10.4,23.1-23.1V653.7c0-36.6-23.9-66.3-53.4-66.3h-120.9
			c-29.5,0-53.4,29.7-53.4,66.3v208H1306.3z"/>
	</g>
	<g>
		<rect x="773.1" y="799.6" class="st45" width="93.8" height="288.4"/>
		<rect x="642.9" y="799.6" class="st42" width="137.9" height="288.4"/>
		<rect x="780.8" y="852" class="st42" width="86" height="2.9"/>
		<rect x="780.8" y="913.6" class="st42" width="86" height="2.9"/>
		<rect x="780.8" y="975.3" class="st42" width="86" height="2.9"/>
		<rect x="780.8" y="1037" class="st42" width="86" height="2.9"/>
		<g>
			<path class="st42" d="M786.5,807.5c0-1.3,1-2.3,2.3-2.3c1.3,0,2.3,1,2.3,2.3c0,1.3-1,2.3-2.3,2.3
				C787.6,809.8,786.5,808.7,786.5,807.5z"/>
			<path class="st28" d="M798.9,807.5c0-1.3,1-2.3,2.3-2.3s2.3,1,2.3,2.3c0,1.3-1,2.3-2.3,2.3S798.9,808.7,798.9,807.5z"/>
			<path class="st46" d="M811.3,807.5c0-1.3,1-2.3,2.3-2.3c1.3,0,2.3,1,2.3,2.3c0,1.3-1,2.3-2.3,2.3
				C812.4,809.8,811.3,808.7,811.3,807.5z"/>
			<path class="st28" d="M823.7,807.5c0-1.3,1-2.3,2.3-2.3c1.3,0,2.3,1,2.3,2.3c0,1.3-1,2.3-2.3,2.3
				C824.8,809.8,823.7,808.7,823.7,807.5z"/>
		</g>
		<g>
			<path class="st42" d="M786.5,927.8c0-1.3,1-2.3,2.3-2.3c1.3,0,2.3,1,2.3,2.3c0,1.3-1,2.3-2.3,2.3
				C787.6,930.1,786.5,929.1,786.5,927.8z"/>
			<path class="st28" d="M798.9,927.8c0-1.3,1-2.3,2.3-2.3s2.3,1,2.3,2.3c0,1.3-1,2.3-2.3,2.3S798.9,929.1,798.9,927.8z"/>
			<path class="st46" d="M811.3,927.8c0-1.3,1-2.3,2.3-2.3c1.3,0,2.3,1,2.3,2.3c0,1.3-1,2.3-2.3,2.3
				C812.4,930.1,811.3,929.1,811.3,927.8z"/>
			<path class="st28" d="M823.7,927.8c0-1.3,1-2.3,2.3-2.3c1.3,0,2.3,1,2.3,2.3c0,1.3-1,2.3-2.3,2.3
				C824.8,930.1,823.7,929.1,823.7,927.8z"/>
		</g>
		<g>
			<path class="st42" d="M786.5,997.2c0-1.3,1-2.3,2.3-2.3c1.3,0,2.3,1,2.3,2.3s-1,2.3-2.3,2.3C787.6,999.5,786.5,998.4,786.5,997.2
				z"/>
			<path class="st28" d="M798.9,997.2c0-1.3,1-2.3,2.3-2.3s2.3,1,2.3,2.3s-1,2.3-2.3,2.3S798.9,998.4,798.9,997.2z"/>
			<path class="st46" d="M811.3,997.2c0-1.3,1-2.3,2.3-2.3c1.3,0,2.3,1,2.3,2.3s-1,2.3-2.3,2.3C812.4,999.5,811.3,998.4,811.3,997.2
				z"/>
			<path class="st28" d="M823.7,997.2c0-1.3,1-2.3,2.3-2.3c1.3,0,2.3,1,2.3,2.3s-1,2.3-2.3,2.3C824.8,999.5,823.7,998.4,823.7,997.2
				z"/>
		</g>
		<rect x="654.6" y="818.3" class="st29" width="113" height="2.9"/>
		<rect x="654.6" y="827.1" class="st29" width="113" height="2.9"/>
		<rect x="654.6" y="836.8" class="st29" width="113" height="2.9"/>
	</g>
</g>
<g>
	<g>
		<path class="st37" d="M546.1,952.1c0,0-21-24.5-1.3-40c0,0,14.4-8.7,26.1-8c0,0-16.6,27.9-11.2,30.6c5.4,2.8,16.3-32.4,16.3-32.4
			s32.7-3.2,43.3,1.9c0,0-28,22.9-22.1,24.3c5.9,1.4,36.1-21.1,36.1-21.1s30.5,5.2,28.8,23.8c-1.6,18.6-12.1,24.3-16.7,23.8
			c-4.6-0.5-31.6-10.8-32.2-7c-0.6,3.8,15.7,16.1,27,16.7c0,0-21.5,23.7-35.7,16.8c-14.3-6.8-15.5-17.7-24.4-21.7
			c-8.9-4.1-16.5-4.1-12.8,0.1c3.7,4.1,19.8,8.2,24.9,17.2c5.1,9,9.7,15.1-5.1,12.8c-14.8-2.2-38.8-13-39.8-25.4
			C546.1,952.1,546.1,952.1,546.1,952.1z"/>
		<g>
			<path class="st37" d="M647.1,931.6c0,0-82.7-3.2-101,20.5c0,0-4,12.1-16.5,23.1l-1.9,5.3c0,0,14.3-15.1,19.5-16
				C547.2,964.5,539.2,935.2,647.1,931.6z"/>
			<path class="st37" d="M529.7,975.2c0,0-17.8,13.1-19,36.6l3.2,0.3c0,0,5.7-24.3,15.9-33.8C540.1,968.9,529.7,975.2,529.7,975.2z"
				/>
		</g>
	</g>
	<g>
		<path class="st37" d="M472.8,921.3c0,0,33.4-18.7,17.8-44.1c0,0-12.5-15.6-25.8-19.6c0,0,7.1,37.8,0,38.7
			c-7.1,0.9-4.9-42.7-4.9-42.7s-35.2-16.9-49-15.6c0,0,21.8,36.9,14.7,36c-7.1-0.9-31.6-38.3-31.6-38.3s-36-6.7-41.8,14.7
			c-5.8,21.4,3.6,32,8.9,33.4c5.3,1.3,39.6,0.9,38.7,5.3c-0.9,4.5-24,11.6-36.9,7.6c0,0,14.2,35.2,32.9,33.4
			c18.7-1.8,24.5-13.4,36-14.2c11.6-0.9,20,2.2,14.2,5.3c-5.8,3.1-25.4,1-34.7,9c-9.3,7.9-16.9,12.8,0.4,16.4
			c17.4,3.6,48.5,1.3,54.7-12C472.8,921.3,472.8,921.3,472.8,921.3z"/>
		<g>
			<path class="st37" d="M368.6,857.2c0,0,93.5,30.3,104.1,64.1c0,0-0.4,15.1,8.9,32.5v6.7c0,0-9.8-22.7-15.1-25.8
				C466.5,934.7,487.5,905.3,368.6,857.2z"/>
			<path class="st37" d="M481.7,953.8c0,0,14.4,21.9,6.2,48.5l-3.7-1c0,0,3.6-29.3-3.9-44.1C472.7,942.5,481.7,953.8,481.7,953.8z"
				/>
		</g>
	</g>
	<g>
		<path class="st37" d="M525.9,895.5c0,0-44-24.6-23.5-58.1c0,0,16.4-20.5,34-25.8c0,0-9.4,49.9,0,51c9.4,1.2,6.5-56.3,6.5-56.3
			s46.3-22.3,64.5-20.5c0,0-28.7,48.7-19.4,47.5c9.4-1.2,41.7-50.5,41.7-50.5s47.5-8.8,55.1,19.4c7.6,28.2-4.7,42.2-11.7,44
			c-7,1.8-52.2,1.2-51,7c1.2,5.9,31.7,15.3,48.7,10c0,0-18.8,46.3-43.4,44c-24.6-2.3-32.3-17.6-47.5-18.8c-15.3-1.2-26.4,2.9-18.8,7
			c7.6,4.1,33.4,1.3,45.8,11.8c12.3,10.5,22.3,16.9-0.6,21.6c-22.9,4.7-63.9,1.8-72.2-15.8C525.9,895.5,525.9,895.5,525.9,895.5z"/>
		<g>
			<path class="st37" d="M663.2,811.1c0,0-123.2,39.9-137.3,84.5c0,0,0.6,19.9-11.7,42.8v8.8c0,0,12.9-29.9,19.9-34
				C534.1,913.1,506.5,874.4,663.2,811.1z"/>
			<path class="st37" d="M514.1,938.4c0,0-19,28.9-8.2,64l4.9-1.3c0,0-4.7-38.7,5.2-58.1C526,923.4,514.1,938.4,514.1,938.4z"/>
		</g>
	</g>
	<path class="st37" d="M524.4,1078.5c47.6,0,86.2-38.6,86.2-86.2H438.2C438.2,1039.9,476.8,1078.5,524.4,1078.5z"/>
	<path class="st37" d="M611.8,1082.9H437l0,0c0-5.9,4.8-10.6,10.6-10.6h153.5C607,1072.3,611.8,1077,611.8,1082.9L611.8,1082.9z"/>
	<rect x="435.4" y="992.3" class="st37" width="177.2" height="2.6"/>
</g>
<g class="st1">
	<g class="st3">
		
			<rect x="1415.9" y="749.6" transform="matrix(0.9777 -0.2102 0.2102 0.9777 -146.7091 321.0839)" class="st47" width="41.8" height="202"/>
		<path class="st48" d="M1436.1,747.4c0.6,2.6-8.1,6.8-19.4,9.2c-11.3,2.4-20.9,2.3-21.5-0.4c-0.6-2.6,8.1-6.8,19.4-9.2
			C1425.9,744.6,1435.5,744.8,1436.1,747.4z"/>
	</g>
	<g class="st3">
		
			<rect x="1489.9" y="750.6" transform="matrix(0.9529 -0.3034 0.3034 0.9529 -187.1422 498.4727)" class="st49" width="41.8" height="202"/>
		<path class="st50" d="M1500.1,749c1,3-7.2,8.3-18.2,11.8c-11,3.5-20.7,3.9-21.7,0.9c-1-3,7.2-8.3,18.2-11.8
			C1489.4,746.4,1499.1,746,1500.1,749z"/>
	</g>
	<g class="st3">
		
			<rect x="1557.1" y="910.8" transform="matrix(0.2794 -0.9602 0.9602 0.2794 307.2317 2258.3149)" class="st48" width="202" height="27.3"/>
		<path class="st51" d="M1699.5,831.4c-0.9,3-7.5,3.8-14.7,1.7c-7.3-2.1-12.4-6.3-11.5-9.3c0.9-3,7.5-3.8,14.7-1.7
			C1695.2,824.2,1700.3,828.3,1699.5,831.4z"/>
	</g>
	<g class="st3">
		
			<rect x="1370.8" y="879.7" transform="matrix(1.825958e-02 -0.9998 0.9998 1.825958e-02 555.5649 2352.8577)" class="st52" width="210.1" height="27.6"/>
		<path class="st53" d="M1491.7,789c0,2.7-6.3,4.8-13.9,4.7c-7.6-0.1-13.8-2.5-13.7-5.2c0-2.7,6.3-4.8,13.9-4.7
			C1485.6,783.9,1491.8,786.2,1491.7,789z"/>
	</g>
	<g class="st3">
		
			<rect x="1541.4" y="924" transform="matrix(0.1097 -0.994 0.994 0.1097 515.1434 2449.6743)" class="st52" width="167.3" height="26.5"/>
		<path class="st53" d="M1647.4,855.8c-0.2,2.2-6.3,3.3-13.6,2.5c-7.3-0.8-13-3.2-12.8-5.4c0.2-2.2,6.3-3.3,13.6-2.5
			C1642,851.2,1647.7,853.6,1647.4,855.8z"/>
	</g>
	<g class="st3">
		<rect x="1499.5" y="912.6" class="st54" width="209" height="172.3"/>
		<rect x="1395" y="912.6" class="st21" width="209" height="172.3"/>
		<polygon class="st55" points="1708.4,1041.3 1675.3,1041.3 1678.2,1031.9 1675.3,1025.3 1708.4,1025.3 		"/>
		<polygon class="st41" points="1604,966 1570.9,966 1573.8,956.6 1570.9,950 1604,950 		"/>
		<polygon class="st55" points="1604,950 1637.2,950 1634.2,959.3 1637.2,966 1604,966 		"/>
		<polygon class="st41" points="1395,1043.1 1428.1,1043.1 1425.2,1052.4 1428.1,1059.1 1395,1059.1 		"/>
		
			<rect x="1408.7" y="924.3" transform="matrix(-1 -1.224647e-16 1.224647e-16 -1 2877.5789 1872.0179)" class="st56" width="60.1" height="23.4"/>
	</g>
</g>
<g class="st1">
	<path class="st57" d="M2197.7,401.1c-13.9-4.6-23.4,1.2-23.4,1.2c-39.9,1.6-44,49.1-41,64.7c3,15.6,7.5,32.2-6.7,55.4
		c-41.1,67,65.1,52.7,65.1,52.7c-6.6-47.2,52.6-39,50.9-33.9C2317.6,547.2,2229.2,411.6,2197.7,401.1z"/>
	<path class="st33" d="M2156.3,605.1c0,0-3.8,7.5-10.7,16.1c-8.3,10.4-51.8-14.3-48-16.1c3.7-1.9,25.6-64.8,30.8-72.7
		c5.2-7.9,22.9-12,22.9-12L2156.3,605.1z"/>
	<path class="st58" d="M2303,1029.6c0,0,12,11,9.7,18.7c-2.3,7.8-13.2,13-14.6,22.5s-7.3,14.7-12.6,14.7s-25.1,0-25.1,0
		s-3.9-6.7,5.5-8.7s12.9-13.2,12.3-23.6c-0.6-10.4,0.9-24.2,0.9-24.2l19.9-4.6L2303,1029.6z"/>
	<path class="st58" d="M2201.5,1034.3c0,0,4.3,46.4-1,49l-67.4-0.1c0,0,0-7.8,10.8-9.5c10.8-1.7,29.9-8.1,33.1-22.2
		C2180.2,1037.3,2201.5,1034.3,2201.5,1034.3z"/>
	<path class="st59" d="M2249.5,701.4c-13.9-31.1-22.4-40-20.7-49.7c1.2-7.2-3.7-134-3.7-134c-1.6-0.5-4.9-1-6.8-1.4
		c-5.7-1.3-10.4-5.3-12.4-10.8c-2.4-6.6-4.2-16.4-4.2-28.6l-1.8,0.4l-29.9,5.9c0,0,0.7,9.4,0.7,18.3c0,0.1,0,0.1,0,0.2
		c0,7.7-5,14.5-12.4,16.6c-3.8,1.1-7.1,2-7.1,2s-11,31.3-13.1,63.5c-2.1,32.2,20,46.2-0.2,110.5
		C2117.6,760,2257.2,718.6,2249.5,701.4z"/>
	<path class="st60" d="M2170.1,483.2c0,0,0.7,9.4,0.7,18.3c16.7-0.5,25.6-15.7,29.2-24.2L2170.1,483.2z"/>
	<path class="st59" d="M2168.3,495.7c0,0,39.2-5.6,35.3-29.9c-3.9-24.3-1.4-41.5-26.6-38.9c-25.2,2.5-28.6,12.6-29.2,21
		C2147.1,456.3,2158,496.5,2168.3,495.7z"/>
	<path class="st57" d="M2159.2,429.1c0,0,15.2,26.9,32.3,28.5c17.1,1.6,23.5-3.9,23.5-3.9s-14.2-8-19.6-25
		C2195.5,428.6,2165.1,414.2,2159.2,429.1z"/>
	<path class="st57" d="M2162.2,431c0,0-7.5,4.2-9.8,10.5c-2.3,6.2-3.8,14.1-1.7,23.2c0,0-11.2-18.1-3.8-30.5
		C2154.6,421,2162.2,431,2162.2,431z"/>
	<path class="st33" d="M2253.3,573.8c0,0,1,14.2,0,31.2c-0.7,11.3-12.1,26.4-13.7,30.1c-4.1,9.4-8.6,10.9-8.6,10.9l-35.4,8.7
		l-12.4,3l-39.3-11.7c0,0-17.9-49.9-10.7-78c7.2-28.1,18.1-47.6,18.1-47.6s32,31.4,73.7-2.7L2253.3,573.8z"/>
	<path class="st61" d="M2256.7,605.4c-0.7,11.3-15.4,26-17.1,29.7c-4.1,9.4-8.6,10.9-8.6,10.9l-35.4,8.7l-9.4-13.3
		c0,0,57.3-15.9,46.5-66.5L2256.7,605.4z"/>
	<path class="st62" d="M2146.4,653.5c0,0-19.4,60.5-20.7,81.1c-1.2,20.6,37.2,292.6,38.7,302.1c1.5,8.9,12.6,14.7,12.6,14.7
		s5.1,3,12.4,1c10.1-2.9,13.3-6.3,13.3-6.3s15.1-194,5.8-263.3c-9.4-69.3-9.5-129.2-9.5-129.2H2146.4z"/>
	<path class="st63" d="M2228.8,651.7c0,0,29.7,39.8,32.4,66.7c2.8,26.9,4.3,121.4,10.2,147.6c5.9,26.2,27.5,76.7,27.5,158.4
		c0,0-2.2,4.7-9.2,7.2c-2.2,0.8-5.2,1.6-8.1,2.2c-5.7,1.3-11.6-1.5-14.2-6.7c-14.6-29.5-61.2-124.4-63.6-144.2
		c-1.7-14-16.4-106.3-48.5-160.5c-7.7-13,4.7-64.8,4.7-64.8L2228.8,651.7z"/>
	<path class="st64" d="M2173.7,480.1c0,0-0.2,3-7.4,3.7c0,0-6.1,0.6-6.4-2.6C2159.9,481.1,2165.3,478,2173.7,480.1z"/>
	<path class="st65" d="M2143.3,644.2c0,0,7.8,6.2,23.3,6.5c18.5,0.4,64.4-4.7,64.4-4.7s2,5.7,2,11.7c0,0-56,14.1-88.5,2.1
		C2144.5,659.7,2140.3,651.8,2143.3,644.2z"/>
	<g class="st3">
		<path class="st56" d="M2162.2,666.6c-4.7,0-8.5-4.3-8.5-9.6c0-5.3,3.8-9.6,8.5-9.6c4.7,0,8.4,4.3,8.4,9.6
			C2170.6,662.3,2166.8,666.6,2162.2,666.6z M2162.2,650.3c-3.1,0-5.6,3-5.6,6.8c0,3.7,2.5,6.8,5.6,6.8c3.1,0,5.6-3,5.6-6.8
			C2167.8,653.3,2165.3,650.3,2162.2,650.3z"/>
	</g>
	<polygon class="st23" points="2202.7,684 2118.4,684.8 2077,587.4 2161.2,586.6 	"/>
	<path class="st59" d="M2191.6,640l-6.2-7.6c0,0-4.2-3.7-7.2-4.4c-3-0.6-9.4-4.3-10.1-3.3c-0.6,1,4.9,8.5,4.9,8.5l0.3,0
		c-6.4,4.8-22.4,0.6-24.4,2.5c-2.4,2.4,3.3,7.5,6.4,10.3c3.1,2.9,11.8,7.7,18.6,5.5c5-1.6,12.8-3.1,12.8-3.1L2191.6,640z"/>
	<path class="st59" d="M2083.3,604.5c0,0,5.3-6,8.7-3.1c3.4,2.9-0.9,17.1-4.1,15.6C2084.7,615.6,2081.5,606.3,2083.3,604.5z"/>
	<path class="st33" d="M2225.1,517.7c0,0,28.1,2,38.9,28.1c10.8,26.2,30.7,82,30.7,89.4c0,7.4-22,34.6-108.3,13.6
		c0,0-2.9-8.3,2.8-12.5c0,0,60.1-19.3,60-23.1c-0.2-7.3-8.1-13.5-41.7-47.1C2198.4,556.9,2225.1,517.7,2225.1,517.7z"/>
</g>
<g class="st1">
	<g class="st3">
		<path class="st41" d="M2629.5,625.9c0,0-13.1-8.3-20.2-7.6c-8.4,0.8-15.3,1.1-15.3,3.3c0,8.3,8.8,5.2,12.1,9.8
			c4.3,6,14.2,4.5,16.1,4.7c1.9,0.2,6.2,2.2,6.2,2.2L2629.5,625.9z"/>
		<path class="st66" d="M2795.4,499.5c0,0,60.4,100,51,119c-9.4,19-32.4,23.6-32.4,23.6L2795.4,499.5z"/>
		<path class="st29" d="M2764.3,1056.2c0,0-1.4,22.7-5.6,28.1h-65c0.4-2.3,2.2-7.9,10.4-9.3c10.3-1.8,27.5-9,33.7-22.6
			C2744.3,1038.1,2764.3,1056.2,2764.3,1056.2z"/>
		<path class="st67" d="M2879.6,1053c0,0,5.6,30.1,0,30.6c-0.7,0.1-27.2,0.3-34.3,1.4c-11.6,1.7-32.6-1.4-32.6-1.4
			c-2.4,0.1-3.1-3-1.9-5.1c1.3-2.3,3.9-4.7,8.8-5.7c10.2-2,27.3-9.5,33.3-23.2C2859.3,1035.3,2879.6,1053,2879.6,1053z"/>
		<path class="st29" d="M2733.8,753.6c0,0,16.3,57.2,63.2,156.4c46.8,99.3,45.8,150.7,45.8,150.7h39.3c0,0-5.5-125.9-27.6-176
			c-22.1-50.1-26.6-187.2-26.6-187.2L2733.8,753.6z"/>
		<path class="st42" d="M2707.6,704.4c0,0-1.3,88.5,14,197.2c15.3,108.7,7.5,159.1,7.5,159.1h39.4c0,0,21.9-111.8,15.6-166.2
			c-6.3-54.4,30-186.7,30-186.7L2707.6,704.4z"/>
		<path class="st41" d="M2783.2,493.1l-11.4,18.2l-25.2,4.2c-0.5-2.2-2.4-11.7-4.1-20.2c-0.1-0.5-0.2-1-0.3-1.5
			c-1.5-7.3-2.7-13.5-2.7-13.5l17.5-19.4l6.5-7.2c0,0.2,2.3,7.8,2.7,8.9C2772.1,482.5,2783.2,493.1,2783.2,493.1z"/>
		<path class="st68" d="M2829.5,715.3c0.4-23.3-13.5-151.6-17.8-169.9c-7.6-32.5-14.4-51-28.9-55.3c-5.4-1.6-25,3.6-39.3,7.7
			c-1,0.3-2,0.6-2.9,1c-3.5,1.4-6.7,3.4-9.4,6c-3.8,3.6-6.7,8.2-8.3,13.4c-2.2,7.4-4.7,16.9-6.8,27.3c-2.2,11.3-3.9,23.8-4,36
			c-0.1,12.6-1.8,31.3-3.8,51c-0.2,2.2-0.4,4.4-0.7,6.6c-0.2,1.5-2.6,51.6-3.3,65.1c0,0.2,0,0.4,0,0.5c0,0,0,0,0,0.1
			c0,0.2,0,0.4,0,0.6c-0.1,1.2-0.1,1.9-0.1,2.1C2702.6,723.1,2829,741.8,2829.5,715.3z"/>
		<path class="st69" d="M2764.6,463.7c-1.2,11-15.9,25.9-22.2,31.7c-0.1-0.5-0.2-1-0.3-1.5c-1.5-7.3-2.7-13.5-2.7-13.5l17.5-19.4
			C2761.7,459.1,2765.1,459.2,2764.6,463.7z"/>
		<path class="st41" d="M2728.3,483.3c0,0,44-3.1,41.7-30.5c-2.4-27.4,1.7-46.2-26.5-45.4c-28.2,0.8-32.8,11.8-34.2,21.1
			C2707.9,437.8,2716.8,483.4,2728.3,483.3z"/>
		<path class="st29" d="M2709.9,425.5c0,0,13.7,27.6,19.1,24c5.4-3.6,10.4-6.6,12.9,2.4c2.5,9,3.4,21.8,22.2,16.1
			c18.8-5.6,21.4-62.5,12.9-69.4C2752.6,378.7,2676.8,402.4,2709.9,425.5z"/>
		<path class="st66" d="M2704.3,705.2c93.8-4.9,74.6-109,74.6-109l-70.6,36.2c-0.2,2.2-0.4,4.4-0.7,6.6c-0.2,1.5-2.6,51.6-3.3,65.1
			c0,0.2,0,0.4,0,0.5c0,0,0,0,0,0.1C2704.3,704.8,2704.3,705,2704.3,705.2z"/>
		<path class="st20" d="M2550.3,576.6c0.4,0,0.7,0.3,0.7,0.7c0,0.4-0.3,0.7-0.7,0.7c-0.4,0-0.7-0.3-0.7-0.7
			C2549.5,576.9,2549.9,576.6,2550.3,576.6z"/>
		<path class="st68" d="M2630,623.7c0,0,89.1-7.4,95.4-10.5c10-4.9,3.2-81.7,3.2-81.7s-7.7-11.5,11.3-15.4
			c16.6-3.3,32.5,9.1,32.5,9.1s14.5,13,12.7,27.4c-4.1,32-10.5,97-31.9,106.9c-27.6,12.9-128.1-20-128.1-20s-0.6-4.6,1.4-10.3
			C2627.3,627,2630,623.7,2630,623.7z"/>
		<path class="st66" d="M2739.4,490.8c0.5-0.2,34-10.1,37.6-8.9c3.6,1.2,5.8,8.2,5.8,8.2l-51.7,14.7
			C2731.2,504.8,2732.4,493.7,2739.4,490.8z"/>
		<path class="st41" d="M2624,622.9c0,0-5.8-6.1-7.3-8c-1.5-1.9-1.7,0.1-1.4,1.3c0.2,1.1,1.9,4,1.2,4.6S2622.7,625.3,2624,622.9z"/>
	</g>
</g>
<path class="st70" d="M1742.5,1090.3H91.5c-2,0-3.7-1.7-3.7-3.7v0c0-2,1.7-3.7,3.7-3.7h1651c2,0,3.7,1.7,3.7,3.7l0,0
	C1746.1,1088.6,1744.5,1090.3,1742.5,1090.3z"/>
</svg>
