<?xml version="1.0" encoding="utf-8"?>
<!-- Generator: Adobe Illustrator 25.2.1, SVG Export Plug-In . SVG Version: 6.00 Build 0)  -->
<svg version="1.1" id="Layer_1" xmlns="http://www.w3.org/2000/svg" xmlns:xlink="http://www.w3.org/1999/xlink" x="0px" y="0px"
	 viewBox="0 0 700 590" style="enable-background:new 0 0 700 590;" xml:space="preserve">
<style type="text/css">
	.st0{fill:#FD7955;}
	.st1{fill:#131F2D;}
	.st2{fill:#ED6343;}
	.st3{fill:#1976D2;}
	.st4{fill:#B5BFC7;}
	.st5{fill:#4B9BA9;}
	.st6{fill:#364154;}
	.st7{fill:#1A69AA;}
	.st8{fill:#B53C37;}
	.st9{fill:#99AEF9;}
	.st10{fill:#FFFFFF;}
	.st11{fill:#2A3342;}
	.st12{fill:#6CA3EA;}
	.st13{fill:#657283;}
	.st14{fill:#F3F3F3;}
	.st15{fill:#03A1FC;}
	.st16{fill:#026EB7;}
	.st17{fill:#454E5B;}
</style>
<g>
	<g>
		<path class="st0" d="M895.7,458.4c0.3,3.8,5.8,4,12,3.2s4.6,0.9,13.3,1c8.7,0.1,11.7-2.8,12.1-4c0.4-1.1-3.8-2-8.2-3.1
			c-0.5-0.1-1.2-0.3-1.7-0.4c-5-1.3-8.3-5-12.7-8.3c-4.1-3.1-9.3-14.4-9.3-14.4l-12-0.5c0,0,5,10.2,6.8,14.5
			c1.1,2.6,0.6,5.8,0.1,8.1C895.9,455.7,895.6,457.1,895.7,458.4z"/>
		<path class="st1" d="M907.7,461.6c6.2-0.7,4.6,0.9,13.3,1c8.7,0.1,11.7-2.8,12.1-4c0.4-1.1-3.8-2-8.2-3.1v0.1c0,0-5.6,3-12.7,2.2
			c-5.8-0.5-11.8-3-15.8-3.4c-0.2,1.3-0.5,2.7-0.4,4.1C896,462.4,901.5,462.4,907.7,461.6z"/>
	</g>
	<g>
		<path class="st0" d="M813.8,459.3c0.3,3.8,5.8,4,12,3.2s4.6,0.9,13.3,1c8.7,0.1,11.7-2.8,12.1-4c0.4-1.1-3.8-2-8.2-3.1
			c-0.5-0.1-1.2-0.3-1.7-0.4c-5-1.3-8.3-5-12.7-8.3c-4.1-3.1,0-21.6,0-21.6l-13-1.3c0,0,0.6,15.6,0.6,22.7c0,2.8-1.3,5.5-1.8,7.9
			C814,456.6,813.8,457.9,813.8,459.3z"/>
		<path class="st1" d="M825.8,462.5c6.2-0.7,4.6,0.9,13.3,1c8.7,0.1,11.7-2.8,12.1-4c0.4-1.1-3.8-2-8.2-3.1v0.1c0,0-5.6,3-12.7,2.2
			c-5.8-0.6-11.8-3-15.8-3.4c-0.2,1.3-0.5,2.7-0.4,4.1C814.1,463.1,819.6,463.2,825.8,462.5z"/>
	</g>
	<path class="st1" d="M851.9,139.7c2.2-9.2-1-13.6-4-15.8c-1.4-3.4-3-5.9-4.6-6.7c-3-1.7-6.5-1.8-9-1.7c0.6-0.6,1.9-0.9,1.9-0.9
		c-1.5-0.2-5,1.3-5,1.3c-21.4-8.2-24.8,23.3-24.4,30.6c0.4,7.4,0.4,15.9-10.8,21.7c-21.3,11,7.1,52.5,7.1,52.5
		c-0.5-5.9,26.7-37.2,41-46.5c3.4-5.1,4.7-14.1,4.8-14.9c-0.6,7.2-1.8,11.1-2.9,13.5C852.6,166.7,853.6,152.3,851.9,139.7z"/>
	<path class="st0" d="M843.4,174.5c0.1,0-6.8,3.6-12.1,2.2c-4.9-1.4-8.1-7.7-8-7.7c2-0.4,2.7-3.3,2.7-15.6l1,0.2l15.8,3.1
		c0,0-0.3,5-0.3,9.7C842.2,170.4,842.6,174.1,843.4,174.5z"/>
	<path class="st2" d="M842.7,156.8c0,0-0.3,5-0.3,9.7c-8.9-0.2-13.6-8.3-15.5-12.8L842.7,156.8z"/>
	<path class="st3" d="M907.1,438.6c0.7,2.5-1,4.9-3.5,5l-6.2,0.3l-6.5,0.2c-1.6,0-3.2-0.6-4.3-1.9c-5.2-6.4-21.3-27.8-31.1-58.8
		c-0.3-0.9-0.5-1.7-0.9-2.7c-6.4-18.8-19.8-42.3-26.8-63.7c-1.1-3.4-2.1-6.6-3-9.6c-0.3-1-0.5-1.9-0.9-2.9
		c-5.2-18.1-6.7-29.8-8.1-42.5l50.8,0.4C866.7,262.5,877.4,345.6,907.1,438.6z"/>
	<path class="st4" d="M859.7,233.3c-0.1,24.2,3.5,34.5,3.5,34.5s-21.8,11-47.7,2.9c-0.3-0.1-7.1-40-6.4-43.6
		c1.2-6.7,1.2-13.7,0.6-20.3c-1.6-17.4-6.3-31.9-6.3-31.9c7.1-1.6,13.7-4.4,20.9-7.2c1.7,2.1,6.8,4.3,11.3,4.2
		c5.1-0.1,6.8-2.4,6.5-4.7c5.5,3.1,9.8,6,9.8,6c4.7,8.1,14.1,15.9,14.9,28.4C867.2,204.9,859.7,232.7,859.7,233.3z"/>
	<path class="st5" d="M816,236c-2.2,3.1-6.5,22.2-17.1,24.7c5.5-13.6,9.6-19.6,10.3-23.7c1.2-7.8,1.2-15.9,0.6-23.5
		c3.5-6.2,6.2-10.5,6.2-10.5c0.3-1,5.7-17.5,7.4-2.8C824.9,214.9,818.4,232.5,816,236z"/>
	<path class="st6" d="M852,171.6c0,0,7.6,4.1,10.7,8.1c3.2,4.1,21.8,37.5,21.8,40.8c0,3.3-18.9,1.2-18.9,1.2L852,171.6z"/>
	<path class="st0" d="M845.7,161.2c0,0-20.9,0.3-20.9-12.7c0-13-2.8-21.8,10.7-22.6c13.4-0.7,16,4.2,17.1,8.6
		C853.5,138.8,851.1,160.7,845.7,161.2z"/>
	<path class="st1" d="M844.8,125.6c0,0-5.8,15.3-14.5,17.6c-8.8,2.2-12.6-0.1-12.6-0.1s6.7-5.3,8.1-14.8
		C825.9,128.4,840.5,118.3,844.8,125.6z"/>
	<path class="st1" d="M843.4,126.9c0,0,4.3,3.4,5.3,6.7s1.5,10.2,3.5,9.9c0,0,4.3-10.4-0.5-16.4C846.6,121,843.4,126.9,843.4,126.9z
		"/>
	<path class="st6" d="M842.2,167.5c0,0,12.1,29.9,12.5,36c0.3,6.1,1.4,99.2,1.4,99.2s-0.7,4.3,7.5,2.5c8.2-1.8,10.4-3.5,10.4-3.5
		s-7.8-57.4-5.7-77.4s-16.5-52.6-16.5-52.6L842.2,167.5z"/>
	<path class="st7" d="M897.4,444l-7.1,0.2c-1.3,0-2.5-0.5-3.3-1.5c-4.8-5.8-21.5-27.5-31.4-59.3c-0.3-0.9-0.5-1.7-0.9-2.7
		c-6.4-18.8-19.8-42.3-26.8-63.7c-1.1-3.4-2.1-6.6-3-9.6c-0.3-1-0.5-1.9-0.9-2.9l7.5-5.7c0,0,22.4,36.3,29.4,70.7
		C866.9,399.3,891.1,435.1,897.4,444z"/>
	<path class="st3" d="M832.2,372.7c0.1,15.7-0.6,50.9-2.6,68c-0.2,1.6-1.5,2.8-3.1,2.8h-5.3c-2.2,0-4,0-5,0c-1,0-1.8-0.7-1.9-1.6
		c-5.2-26.8-9.1-49.2-11.8-68.4c-2.4-16.1-4.4-29.9-6-41.8c-1.6-12-2.7-22-3.1-30.5c-0.1-1.3-0.1-2.7-0.1-3.8c0-1.3,0-2.5,0-3.7
		l43.9-4.3C836.7,318.4,832.2,363.1,832.2,372.7z"/>
	<path class="st7" d="M821.3,443.6c-2,0-3.5,0-4.7,0c-1.2,0-2.1-0.9-2.4-2c-5.2-26.7-9-48.8-11.8-68.1c-2.4-16.1-4.4-29.9-6-41.8
		c-1.6-12-2.7-22-3.1-30.5l16.1,9.5c0,0-10.3,3.6-6.4,31.1C807.2,369.2,815.8,439.6,821.3,443.6z"/>
	<path class="st6" d="M823.4,300.9c0,0-3.1,11.2-13.8,9.7c-10.7-1.4-25.9-7.8-25.9-7.8s4.6-14.4,10.3-33.5
		c6.8-23,15.4-52.6,19.5-71.3c1.2-5.2,1.9-9.6,2.1-12.7l8.9-17.2c0,0,13.3,29.7,14,37.2C839,212.8,823.4,300.9,823.4,300.9z"/>
	<path class="st1" d="M822.9,220.9c-0.4,12.1-3.3,35.7-28.8,48.3c-0.1,0-0.1,0.1-0.2,0.1c6.8-23,15.4-52.6,19.5-71.3
		C818,205,823.2,214.3,822.9,220.9z"/>
	<path class="st0" d="M812.7,204.1l11.8-36.1c0,0-14.8,4.4-22.2,8.1c0,0-4.6,6-7.5,19.8c0,0-3,33.1,3.7,45.3c0,0,21.4,4.3,55.7-7.5
		v-7.8c0,0-37.4,1.9-45.1,2.9L812.7,204.1z"/>
	<path class="st6" d="M824.4,168.1c0,0-21.7,1.5-26.9,13.1c-5.2,11.7-6.9,50.4-0.2,61.8c0,0,9.2,2.6,25.3-0.4c0.2,0,0.4-0.1,0.6-0.1
		c0,0,5.1-12.6,0.5-15.2c0,0-13.7,0.7-12.3-3.8C813,219.1,824.4,168.1,824.4,168.1z"/>
	<g>
		<path class="st8" d="M878.9,230.9l-0.6,2l-35.6-11.1c0,0-0.4-0.5-0.2-1.3c0.2-0.7,0.9-0.7,0.9-0.7L878.9,230.9z"/>
		<polygon class="st8" points="881.5,232.8 878.9,230.9 878.3,232.9 		"/>
	</g>
	<path class="st0" d="M854.1,225.9c0,0,8.1-5,11.4-4.2c3.4,0.7,12.1,7.1,7.9,8.3c-4.2,1.4-7.5-0.1-9.1,1c-1.6,1-2.8,2.8-10.3,2.8
		C846.6,233.7,854.1,225.9,854.1,225.9z"/>
	<g>
		<polygon class="st1" points="851.1,270 888.1,270.1 902.4,216.2 865.3,216.2 		"/>
		<path class="st9" d="M866.9,212.5c0,0-2.9,0.4-1.6,3.7h12.6l-4.1-3.7H866.9z"/>
		<path class="st10" d="M866.9,212.5c0,0,5.6,0,7.5,4.5c2.4,5.5,1.4,20.8,1.4,20.8h29.7c0,0,4.7-18.1-5.1-25.3H866.9z"/>
	</g>
	<path class="st0" d="M895.2,243c0,0-4.5-3.3-5.9-1.4c-1.4,1.9,1.1,11.8,4,11C896.2,251.9,896.2,245,895.2,243z"/>
</g>
<path class="st11" d="M65,540c0,0-95.4-236.9-20-364.8C159.8-19.6,281.8,213.1,354.6,96C454.2-64.4,674-12.1,635.3,208.4
	C608.2,363,741.1,333.2,679.5,543.7L65,540z"/>
<g>
	<g>
		<path class="st12" d="M261.1,430.1H133.3c-4.7,0-8.5-3.7-8.5-8.5v-6h136.3L261.1,430.1L261.1,430.1z"/>
		<g>
			<polygon class="st13" points="196.1,534.7 187.9,534.7 185.5,430.1 198.2,430.1 			"/>
			<polygon class="st13" points="231.9,534.7 151.8,534.7 151.8,527.6 192.6,523.8 231.9,527.6 			"/>
			<path class="st13" d="M144,533.6c0-3.6,2.9-6.5,6.5-6.5s6.5,2.9,6.5,6.5s-2.9,6.5-6.5,6.5S144,537.3,144,533.6z"/>
			<path class="st13" d="M224,533.6c0-3.6,2.9-6.5,6.5-6.5c3.6,0,6.5,2.9,6.5,6.5s-2.9,6.5-6.5,6.5C227,540.2,224,537.3,224,533.6z"
				/>
			<path class="st13" d="M221.5,437h-59.3c-2.2,0-4-1.8-4-4v-2.9h67.3v2.9C225.5,435.2,223.7,437,221.5,437z"/>
		</g>
		<path class="st4" d="M136.2,430.1c-6.3,0-11.5-5.1-11.5-11.5v-91.2c0-18,11.8-32.7,26.3-32.7h59.7c14.6,0,26.3,14.6,26.3,32.7
			v102.7H136.2z"/>
		<path class="st13" d="M137.4,430.1c-3.5,0-6.3-2.8-6.3-6.3v-96.4c0-18,11.8-32.7,26.3-32.7h59.7c14.6,0,26.3,14.6,26.3,32.7v24.8
			v77.9H137.4z"/>
		<path class="st4" d="M275.6,430.1H129.8c-4,0-7.2-3.3-7.2-7.2l0,0c0-4,3.3-7.2,7.2-7.2h146c4,0,7.2,3.3,7.2,7.2l0,0
			C282.9,426.8,279.6,430.1,275.6,430.1z"/>
	</g>
</g>
<g>
	<path class="st3" d="M359.6,542.8h-54.4c-2.7-3.1-4.1-18.2-3.6-22c0.1-0.7,1.1-4.3,1.1-4.3s20.1-8.5,22.6,2.9
		c0.1,0.4,0.1,0.7,0.2,1.1c3.3,10.6,17.6,15.5,26,16.8C356.9,538,358.9,540.9,359.6,542.8z"/>
	<path class="st1" d="M211.6,373.2c1.9,0,74.4,10.1,89.4,27.1c7.5,8.5,27.2,119.3,27.2,119.3s-9.2,6.5-29.2,0.4
		c0,0-26.6-71.8-25.5-91.9c0.2-5.6-64.4-8-75.8-10.6c-11.5-2.7-25.6-9.3-19.5-20.3C184.3,386.1,211.6,373.2,211.6,373.2z"/>
	<path class="st3" d="M323.5,542.8h-54.4c-2.7-3.1-1.7-15-1.2-18.8c0.1-0.7,0.1-1.2,0.1-1.2s18.6-14.9,21.1-3.5
		c0.1,0.4,0.1,0.7,0.2,1.1c3.3,10.6,17.6,15.5,26,16.8C320.7,538,322.7,540.9,323.5,542.8z"/>
	<path class="st6" d="M182.7,379.1c1.9,0,88.4,4.3,103.5,23c7.5,9.3,8.7,117,8.7,117s-9.3,11.6-29.5,4.8c0,0-18.5-57.2-17.2-95.9
		c0.2-6.2-53.8-6.9-68.6-8.1c-18.8-1.4-23.6-33.1-17.4-45.2C168.3,362.4,182.7,379.1,182.7,379.1z"/>
	<g>
		<path class="st3" d="M201.1,257.4l-1.1,0.2c-4.8,1-9.5-2.2-10.5-7l-1.1-5.7c-1-4.8,2.2-9.5,7-10.5l1.1-0.2c4.8-1,9.5,2.2,10.5,7
			l1.1,5.7C209,251.6,205.9,256.5,201.1,257.4z"/>
		<path class="st3" d="M239.8,378c-10.9,17.3-78.5,22.5-78.5,22.5c-1.1-2.8-6.3-47.4-7.1-50.5c-2.2-7.7-3.6-16.2-4.6-24.5
			c0-0.1,0-0.2,0-0.4c-1.6-14.4-1.6-28.3-1.3-36.6c0.1-4.8,0.4-7.7,0.4-8l0,0c0.1-0.1,0.4-0.1,0.5-0.2c4.1-1.7,8-3.1,11.8-4.5l0,0
			c3.1-1.1,6.2-2.1,9.2-2.8c5.2-1.4,9.9-2.4,14.4-3.1c5.2-0.8,9.9-1.2,14.3-1.3c0.2,0,0.4,0,0.6,0c1.1,0,2.2,0,3.3,0
			c10.6,0.2,17.6,2.3,21.1,3.7c0.5,0.2,1,0.4,1.3,0.5h0.1c0.4,0.1,0.7,0.4,1,0.5c0,0,0,0,0.1,0c0.1,0,0.2,0.1,0.4,0.1l5.6,58.6
			L239.8,378z"/>
		<path class="st3" d="M311.5,346.1c-7.7,3.6-53.8,6.6-58.2,5.3c-2.3-0.6-11.7-9.1-21.3-19.3l0,0c-9.1-9.8-18.1-21.1-21.3-29.4
			c-6.3-16.9-0.8-32-0.8-32s11.7,0,16.6,2.9c4.8,2.9,32.1,53.3,35.9,54.6c3.6,1.3,47,3.9,52,6.2
			C314.1,334.5,319.2,342.6,311.5,346.1z"/>
		<path class="st0" d="M199.2,270.7v2.9c0,0,0.8,8.9-10.1,10.3c-11,1.3-19.3-3.5-19-10.3c1-5.3,2.1-8.9,2.2-13.4
			c0-1.7-0.1-3.4-0.4-5.3l21.3-0.5l6.3,1L199.2,270.7z"/>
		<path class="st2" d="M199.2,255.3v15.5c-2.3,1.1-4.8,1.7-7.6,1.7c-9.8,0-19.5-15.7-19.8-17.6L199.2,255.3z"/>
		<path class="st0" d="M200.5,262.7c0,0-27.2,5.6-30.4-11.5c-3.1-17-8.8-27.8,8.5-32c17.3-4.2,21.9,1.6,24.3,7
			C205.2,231.7,207.5,260.9,200.5,262.7z"/>
		<path class="st1" d="M208.1,213.7c0,0-7.6-0.6-16.6-4.5c-7.2-3.1-16.4,0.4-19.5,1.9c0.1-0.5,0.2-1.1,0.7-1.8c0,0-1.3,1-1.6,2.3
			c-0.1,0.1-0.2,0.1-0.1,0.2c0,0-1.6-0.2-2.5,0.1c0,0,0.7-0.1,1,0.4l0.1,0.1c-11.4,5.6-12.3,23.4-8.7,27.5c4.3,5,9.7,16.2,9.7,16.2
			s1.9-2.7,1.1-7s3-4.3,7.7-6.4c4.8-2.1,0.8-7.6,5-11c4.2-3.4,19.6-1.4,19.3-4C209.5,225.7,208.1,214.2,208.1,213.7z"/>
		<path class="st7" d="M158.8,384.1c-1.3-8.8-4.5-20.1-5.9-29.5c-1.2-8-2.4-20.7-3.3-29c0-0.1,0-0.2,0-0.4c0,0,0.1,0.2,0.2,0.1
			c3-3.6,11.2-7.6,21.1,6.9c1.9,2.9,10.1,20.8,9.8,24.4C179.4,373.2,158.8,384.1,158.8,384.1z"/>
		<path class="st0" d="M165.3,358.8c-0.2-1.3,0-3,1.1-5.1c0,0,1.3-0.8,3-1.8c2.5-1.4,5.9-3.1,7.5-2.9c0.2,0,0.6,0.1,1.1,0.2
			c3.7,0.8,12.3,3.5,13.7,5.1c1.1,1.3,2.5,2.9,3.5,4.3L165.3,358.8L165.3,358.8z"/>
		<path class="st3" d="M171,358.8H98.2c-0.2-1-0.2-1.8,0-2.4c2.2-5.4,6.4-14.5,11.2-24.2c3.6-7.1,7.5-14.6,11.2-21.3
			c5.2-9.3,9.9-17,12.7-20.3c2.2-2.5,5-4.6,7.9-6.4c2.4-1.4,5-2.7,7.2-3.6l0,0c0.1-0.1,0.4-0.1,0.5-0.2c5.1-2.1,9.1-2.9,9.1-2.9
			s0,2.3,0,5.8c0,10.3-0.4,30.9-3.6,36c-1,1.4-2.7,3.5-4.7,6c-0.1,0.1-0.1,0.1-0.2,0.2c-1.2,1.3-2.4,2.8-3.7,4.3
			c-7.6,8.5-17.3,18.5-18.4,19.7c-0.1,0.1-0.1,0.1-0.1,0.1h0.1l20.4,0.2l6.3,0.1l12.9,0.1c0.8,0.4,1.6,1,2.2,1.8
			C170.6,353.8,171,356.5,171,358.8z"/>
		<path class="st7" d="M311.5,346.1c-7.7,3.6-53.8,6.6-58.2,5.3c-2.3-0.6-11.7-9.1-21.3-19.3c0.5,0.1,4.8-7.2,24.8,10.1
			c0,0,5.2,2.3,19.5,1C290.2,342.1,308.5,341.6,311.5,346.1z"/>
		<path class="st3" d="M178,257.4l-1.1,0.2c-4.8,1-9.5-2.2-10.5-7l-1.1-5.7c-1-4.8,2.2-9.5,7-10.5l1.1-0.2c4.8-1,9.5,2.2,10.5,7
			l1.1,5.7C186,251.6,182.8,256.5,178,257.4z"/>
		<g>
			<path class="st3" d="M169.5,237c-0.7-1.3-1.8-11.8,1.1-20.3c1.4-4.1,3.6-6.4,6.5-8c1.1-0.6,2.2-0.8,3.4-0.8h2.9
				c-9.4,4-11.6,25.3-10.9,27.5c0-0.1,0-0.1-0.1-0.1L169.5,237z"/>
		</g>
		<g>
			<path class="st3" d="M197.1,259.1c-15.8,0-23.7-12.4-23.7-12.7l1.4-0.8l-0.8,0.5l0.7-0.5c0.1,0.1,7.5,11.8,22.4,11.8
				c0.1,0,0.2,0,0.2,0v1.7C197.2,259.1,197.1,259.1,197.1,259.1z"/>
		</g>
		<path class="st7" d="M177.1,251.5l-3.9,0.7c-1.4,0.2-2.9-0.7-3.3-2.2l-1.2-6.2c-0.2-1.4,0.7-2.9,2.2-3.3l3.9-0.7
			c1.4-0.2,2.9,0.7,3.3,2.2l1.2,6.2C179.6,249.7,178.6,251.3,177.1,251.5z"/>
		<path class="st3" d="M199,259.7h-1.4c-0.7,0-1.3-0.6-1.3-1.3l0,0c0-0.7,0.6-1.3,1.3-1.3h1.4c0.7,0,1.3,0.6,1.3,1.3l0,0
			C200.3,259.1,199.7,259.7,199,259.7z"/>
	</g>
</g>
<path class="st4" d="M233.7,202.8c-0.8-20.5,16.3-29.6,34-29.6s36.7,4.6,38.4,31.9c1.1,17.5-8.3,28.4-35.3,28.4
	c-9.1,0-16.2-1.4-21.5-4l-13.4,12l6.6-16.6C236.6,219.4,234,211.8,233.7,202.8z"/>
<path class="st4" d="M474,180.2c1.6-37.5-29.8-54.1-62-54.1c-32.1,0-67.1,8.3-70.1,58.1c-1.9,32,15.1,51.7,64.3,51.7
	c16.6,0,29.5-2.7,39.4-7.2l24.5,21.9l-12.1-30.2C468.8,210.4,473.4,196.4,474,180.2z"/>
<g>
	<g>
		<g>
			<path class="st1" d="M74.4,543.3L74.4,543.3c-0.6,0-1.1-1.2-1.1-2.7l1.4-174.5l4.3-1.3l-3.7,175.9
				C75.4,542.1,74.9,543.3,74.4,543.3z"/>
		</g>
		<path class="st1" d="M66.2,369.3h256.3c1.7,0,3-1.3,3-3v-4.3c0-1.7-1.3-3-3-3H66.2c-1.7,0-3,1.3-3,3v4.3
			C63.2,367.9,64.5,369.3,66.2,369.3z"/>
	</g>
	<g>
		<path class="st1" d="M639.5,543.3L639.5,543.3c0.6,0,1.1-1.2,1.1-2.7l-1.4-174.5l-4.3-1.3l3.7,175.9
			C638.4,542.1,638.9,543.3,639.5,543.3z"/>
	</g>
	<path class="st1" d="M303.2,369.3h342.8c1.7,0,3-1.3,3-3v-4.3c0-1.7-1.3-3-3-3H303.2c-1.7,0-3,1.3-3,3v4.3
		C300,367.9,301.5,369.3,303.2,369.3z"/>
</g>
<g>
	<path class="st6" d="M270,358.7h-52.7l0,0c0-2.3,1.9-4.2,4.2-4.2H270V358.7z"/>
	<polygon class="st6" points="351.2,301.4 331.7,358.7 249.9,358.7 269.8,301.4 	"/>
	<polygon class="st6" points="351.2,301.4 331.9,358.2 331.7,358.7 251,358.7 271,301.4 	"/>
	<path class="st3" d="M308.6,329.4c-0.5,2.2-2.7,4-4.8,4s-3.5-1.8-3-4c0.5-2.2,2.7-4,4.8-4C307.7,325.6,309.1,327.3,308.6,329.4z"/>
</g>
<g>
	<polygon class="st1" points="366.1,301.4 385.7,358.7 467.5,358.7 447.4,301.4 	"/>
	<polygon class="st14" points="368.4,302.6 387.2,358.2 387.5,358.7 466.3,358.7 446.7,302.6 	"/>
	<path class="st1" d="M385.7,358.7l114.2-0.1l0,0c0-2.3-1.9-4.2-4.2-4.2H384.5L385.7,358.7z"/>
</g>
<g>
	<path class="st15" d="M537.9,261.3h-7.7c-2.9,0-5.3-2.4-5.3-5.3v-12.3c0-2.9,2.4-5.3,5.3-5.3h7.7c2.9,0,5.3,2.4,5.3,5.3v12.2
		C543.4,258.9,540.9,261.3,537.9,261.3z"/>
	<g>
		<g>
			<path class="st1" d="M488.9,523c0,0-1.2,18-4.6,18.2c-0.5,0-17.6,0-17.6,0l-21.9-0.1c0,0,0.1-5.3,6.5-6.4c6.4-1.1,17.2-5.6,21-14
				C476.3,511.8,488.9,523,488.9,523z"/>
			<path class="st1" d="M551.6,375.4c0.8,0.7,23.2,24.9,21.3,43.5c-0.5,5.4-5.2,9.5-10.8,9.5h-27.2c0,0-27.7,5-28.4,11
				c-0.6,6-6.3,38.3-17.5,84.2c0,0-8.3,2.9-13.3,0.8c-6.6-2.7-7.6-5.6-7.6-5.6s6.6-102.8,12-110.1s59.8-28.8,77.4-30.9
				C575.1,375.7,551.6,375.4,551.6,375.4z"/>
			<path class="st0" d="M393.9,349.7c0,0-15.7-3.6-19.8,0c-4,3.6-5.3,8.9-5.3,8.9h25.1V349.7z"/>
			<path class="st1" d="M450.4,523c0,0-1.2,18-4.6,18.2c-0.5,0-17.6,0-17.6,0l-21.9-0.1c0,0,0.1-5.3,6.5-6.4c6.4-1.1,17.2-5.6,21-14
				C438,511.8,450.4,523,450.4,523z"/>
			<path class="st6" d="M572.1,375.4c0.6,0.5,5.4,13.5,8.7,28.3c2.8,12.7-6.9,24.8-19.9,24.8h-63.2c0,0-27.7,5-28.4,11
				c-0.6,6-6.3,38.3-17.5,84.2c0,0-8.3,2.2-14.9-0.6c-3.5-1.4-6.2-5-6.2-5s6.8-101.9,12.1-109.1c5.3-7.2,59.8-28.8,77.4-30.9
				C537.9,375.7,572.1,375.4,572.1,375.4z"/>
			<path class="st0" d="M537.1,283.4l-9.8,9.4h-16.7c0-1.3,0-6.9,0.1-12c0-0.2,0-0.6,0-0.8c0-1.1,0-2.2,0-3.1c0-2.8,0.1-4.8,0.1-4.8
				l4.2-2.9l9.5-6.5l5.2-3.5c0,0.1,0.5,4.7,0.5,5.3C531.4,276.3,537.1,283.4,537.1,283.4z"/>
			<path class="st16" d="M512.9,281.7c0.4-0.1,18.4-8.2,20.4-7.5c2.1,0.7,4.7,7.1,4.7,7.1l-31.8,7.1
				C506.3,288.6,508.8,283.5,512.9,281.7z"/>
			<path class="st3" d="M590.8,335.7c-3.4-21.1-17.9-37-24.2-43c-4.1-6.3-28.6-11.5-28.6-11.5s-20.3,4.6-31.8,7.1
				c0,0-17.9,1.9-28,18.6c-6.3,10.3-24.2,34-35.9,34.7c-11.7,0.7-48.6,7.9-48.6,7.9v9.1l56.2,1.6c0.7,0,1.3,0,2.1-0.1
				c4.8-1,25.6-5.1,35.9-10.4c1.7,26.6,3.6,67.1,12.8,73.5c9.8,6.8,78.8,7.7,86-2.7c3.7-5.3-0.8-36.7-6.5-67.1
				C587.5,350.2,592.3,344.7,590.8,335.7z"/>
			<path class="st2" d="M527.2,268.1l-0.8,0.5c0,0-7.9,5.7-15.5,8.2c0-2.8,0.1-4.8,0.1-4.8l4.2-2.9L527.2,268.1z"/>
			<path class="st0" d="M505.1,272.2c0,0,25.6,3,27.3-12.9c1.7-15.9,6-26.3-10.3-29c-16.3-2.7-20.1,3.1-22,8.3
				C498.3,243.8,498.4,271,505.1,272.2z"/>
			<path class="st1" d="M500.8,236.9c0,0,4.8,17.4,8.3,15.9c3.5-1.4,6.6-2.7,7.1,2.8c0.5,5.4,2.5,11.7,13.9,10.6
				c11.4-1.2,16.2-32.4,12.1-37.3C530.4,214.7,484.3,220,500.8,236.9z"/>
		</g>
		<g>
			<path class="st12" d="M482.6,431.8h127.1c4.6,0,8.3-3.7,8.3-8.3v-6H482.6V431.8z"/>
			<path class="st4" d="M465.2,431.8h100.4c2.3,0,4.2-1.9,4.2-4.2v-6c0-2.3-1.9-4.2-4.2-4.2H465.2c-2.3,0-4.2,1.9-4.2,4.2v6
				C461,430,462.9,431.8,465.2,431.8z"/>
			<g>
				<polygon class="st4" points="547.3,535.8 555.4,535.8 557.7,431.8 545.3,431.8 				"/>
				<polygon class="st4" points="511.7,535.8 591.3,535.8 591.3,528.7 550.7,525.1 511.7,528.7 				"/>
				<path class="st4" d="M599.1,534.7c0-3.6-2.9-6.5-6.5-6.5s-6.5,2.9-6.5,6.5s2.9,6.5,6.5,6.5C596,541.2,599.1,538.3,599.1,534.7z"
					/>
				<path class="st4" d="M519.4,534.7c0-3.6-2.9-6.5-6.5-6.5c-3.6,0-6.5,2.9-6.5,6.5s2.9,6.5,6.5,6.5
					C516.5,541.2,519.4,538.3,519.4,534.7z"/>
				<path class="st4" d="M514.6,438.7h73.8c3.7,0,6.9-3,6.9-6.9l0,0h-87.5l0,0C507.7,435.5,510.9,438.7,514.6,438.7z"/>
			</g>
			<path class="st4" d="M605.6,431.8c3.4,0,6.3-2.8,6.3-6.3v-95.8c0-18-11.7-32.5-26.2-32.5h-59.3c-14.5,0-26.2,14.5-26.2,32.5
				v102.1H605.6z"/>
			<path class="st13" d="M606.8,431.8c6.3,0,11.4-5.1,11.4-11.4v-90.7c0-18-11.7-32.5-26.2-32.5h-59.3c-14.5,0-26.2,14.5-26.2,32.5
				v102.1H606.8z"/>
		</g>
	</g>
	<g>
		<g>
			<path class="st15" d="M495.9,272.4c14.6-4.6,18.2-18.5,18.2-18.6l-1.6-0.4l0.7,0.2l-0.7-0.2c0,0.1-3.4,13.2-17.2,17.4
				c-0.1,0-0.2,0-0.2,0.1l0.5,1.6C495.7,272.5,495.9,272.5,495.9,272.4z"/>
		</g>
		<path class="st15" d="M494.3,273.5l1.3-0.5c0.7-0.2,1.1-1,0.8-1.7l0,0c-0.2-0.7-1-1.1-1.7-0.8l-1.3,0.5c-0.7,0.2-1.1,1-0.8,1.7
			l0,0C492.9,273.4,493.6,273.7,494.3,273.5z"/>
	</g>
	<g>
		<path class="st15" d="M514.4,267.1l-1.1,0.1c-4.7,0.6-9.2-2.7-9.8-7.4l-0.7-5.6c-0.6-4.7,2.7-9.2,7.4-9.8l1.1-0.1
			c4.7-0.6,9.2,2.7,9.8,7.4l0.7,5.6C522.5,262,519.1,266.4,514.4,267.1z"/>
		<g>
			<path class="st15" d="M507.5,246.8c-0.6-1.2,1.6-10.4,4.8-17.5c1.6-3.5,5.6-8.1,8.3-9.3c1-0.5,2.4-0.2,3.5,0c0.8,0.2,3,1.4,3,1.4
				c-9.3,2.9-17.4,22.2-16.8,24.2c0-0.1,0-0.1-0.1-0.1L507.5,246.8z"/>
		</g>
		<path class="st16" d="M512.3,261.5l-0.5,0.1c-2.4,0.4-4.6-1.3-4.8-3.7l-0.4-2.8c-0.4-2.4,1.3-4.6,3.7-4.8l0.5-0.1
			c2.4-0.4,4.6,1.3,4.8,3.7l0.4,2.8C516.3,259,514.6,261.2,512.3,261.5z"/>
	</g>
</g>
<path class="st17" d="M682,541.7v0.4c0,0.6-0.3,1.2-0.7,1.2H65.7c-0.3,0-0.7-0.5-0.7-1.2v-0.4c0-0.6,0.3-1.2,0.7-1.2h615.6
	C681.7,540.5,682,541,682,541.7z"/>
</svg>
