<?xml version="1.0" encoding="utf-8"?>
<!-- Generator: Adobe Illustrator 25.2.1, SVG Export Plug-In . SVG Version: 6.00 Build 0)  -->
<svg version="1.1" id="Layer_1" xmlns="http://www.w3.org/2000/svg" xmlns:xlink="http://www.w3.org/1999/xlink" x="0px" y="0px"
	 viewBox="0 0 771.1 448.3" style="enable-background:new 0 0 771.1 448.3;" xml:space="preserve">
<style type="text/css">
	.st0{fill:#2A3342;}
	.st1{fill:#6CA3EA;}
	.st2{fill:#657283;}
	.st3{fill:#B5BFC7;}
	.st4{fill:#1976D2;}
	.st5{fill:#131F2D;}
	.st6{fill:#364154;}
	.st7{fill:#FD7955;}
	.st8{fill:#ED6343;}
	.st9{fill:#1A69AA;}
	.st10{fill:#4B9BA9;}
	.st11{fill:#B53C37;}
	.st12{fill:#99AEF9;}
	.st13{fill:#FFFFFF;}
	.st14{fill:#F3F3F3;}
	.st15{fill:#03A1FC;}
	.st16{fill:#026EB7;}
	.st17{fill:#454E5B;}
</style>
<g>
	<path class="st0" d="M60.1,445.3c0,0-106.8-196.1-22.4-301.9c128.5-161.3,265.1,31.3,346.6-65.6c111.5-132.8,357.6-89.5,314.3,93
		c-30.4,128,118.4,103.3,49.5,277.5L60.1,445.3z"/>
	<g>
		<g>
			<path class="st1" d="M380.1,354.3H274.3c-3.9,0-7-3.1-7-7v-5h112.8L380.1,354.3L380.1,354.3z"/>
			<g>
				<polygon class="st2" points="326.3,440.9 319.5,440.9 317.5,354.3 328,354.3 				"/>
				<polygon class="st2" points="355.9,440.9 289.6,440.9 289.6,435 323.4,431.9 355.9,435 				"/>
				<path class="st2" d="M283.2,440c0-3,2.4-5.4,5.4-5.4s5.4,2.4,5.4,5.4s-2.4,5.4-5.4,5.4S283.2,443,283.2,440z"/>
				<path class="st2" d="M349.4,440c0-3,2.4-5.4,5.4-5.4s5.4,2.4,5.4,5.4s-2.4,5.4-5.4,5.4C351.9,445.4,349.4,443,349.4,440z"/>
				<path class="st2" d="M347.3,360h-49.1c-1.8,0-3.3-1.5-3.3-3.3v-2.4h55.7v2.4C350.6,358.5,349.1,360,347.3,360z"/>
			</g>
			<path class="st3" d="M276.7,354.3c-5.2,0-9.5-4.2-9.5-9.5v-75.5c0-14.9,9.8-27.1,21.8-27.1h49.4c12.1,0,21.8,12.1,21.8,27.1v85
				H276.7z"/>
			<path class="st2" d="M277.7,354.3c-2.9,0-5.2-2.3-5.2-5.2v-79.8c0-14.9,9.8-27.1,21.8-27.1h49.4c12.1,0,21.8,12.1,21.8,27.1v20.5
				v64.5H277.7z"/>
			<path class="st3" d="M392.1,354.3H271.4c-3.3,0-6-2.7-6-6l0,0c0-3.3,2.7-6,6-6h120.8c3.3,0,6,2.7,6,6l0,0
				C398.1,351.6,395.4,354.3,392.1,354.3z"/>
		</g>
	</g>
	<g>
		<path class="st4" d="M461.6,447.6h-45c-2.2-2.6-3.4-15.1-3-18.2c0.1-0.6,0.9-3.6,0.9-3.6s16.6-7,18.7,2.4c0.1,0.3,0.1,0.6,0.2,0.9
			c2.7,8.8,14.6,12.8,21.5,13.9C459.4,443.6,461,446,461.6,447.6z"/>
		<path class="st5" d="M339.1,307.2c1.6,0,61.6,8.4,74,22.4c6.2,7,22.5,98.7,22.5,98.7s-7.6,5.4-24.2,0.3c0,0-22-59.4-21.1-76.1
			c0.2-4.6-53.3-6.6-62.7-8.8c-9.5-2.2-21.2-7.7-16.1-16.8C316.5,317.9,339.1,307.2,339.1,307.2z"/>
		<path class="st4" d="M431.7,447.6h-45c-2.2-2.6-1.4-12.4-1-15.6c0.1-0.6,0.1-1,0.1-1s15.4-12.3,17.5-2.9c0.1,0.3,0.1,0.6,0.2,0.9
			c2.7,8.8,14.6,12.8,21.5,13.9C429.4,443.6,431.1,446,431.7,447.6z"/>
		<path class="st6" d="M315.2,312.1c1.6,0,73.2,3.6,85.7,19c6.2,7.7,7.2,96.8,7.2,96.8s-7.7,9.6-24.4,4c0,0-15.3-47.3-14.2-79.4
			c0.2-5.1-44.5-5.7-56.8-6.7c-15.6-1.2-19.5-27.4-14.4-37.4C303.3,298.3,315.2,312.1,315.2,312.1z"/>
		<g>
			<path class="st4" d="M330.4,211.4l-0.9,0.2c-4,0.8-7.9-1.8-8.7-5.8l-0.9-4.7c-0.8-4,1.8-7.9,5.8-8.7l0.9-0.2
				c4-0.8,7.9,1.8,8.7,5.8l0.9,4.7C337,206.6,334.4,210.6,330.4,211.4z"/>
			<path class="st4" d="M362.5,311.2c-9,14.3-65,18.6-65,18.6c-0.9-2.3-5.2-39.2-5.9-41.8c-1.8-6.4-3-13.4-3.8-20.3
				c0-0.1,0-0.2,0-0.3c-1.3-11.9-1.3-23.4-1.1-30.3c0.1-4,0.3-6.4,0.3-6.6l0,0c0.1-0.1,0.3-0.1,0.4-0.2c3.4-1.4,6.6-2.6,9.8-3.7l0,0
				c2.6-0.9,5.1-1.7,7.6-2.3c4.3-1.2,8.2-2,11.9-2.6c4.3-0.7,8.2-1,11.8-1.1c0.2,0,0.3,0,0.5,0c0.9,0,1.8,0,2.7,0
				c8.8,0.2,14.6,1.9,17.5,3.1c0.4,0.2,0.8,0.3,1.1,0.4h0.1c0.3,0.1,0.6,0.3,0.8,0.4c0,0,0,0,0.1,0s0.2,0.1,0.3,0.1l4.6,48.5
				L362.5,311.2z"/>
			<path class="st4" d="M421.8,284.8c-6.4,3-44.5,5.5-48.2,4.4c-1.9-0.5-9.7-7.5-17.6-16l0,0c-7.5-8.1-15-17.5-17.6-24.3
				c-5.2-14-0.7-26.5-0.7-26.5s9.7,0,13.7,2.4s26.6,44.1,29.7,45.2c3,1.1,38.9,3.2,43,5.1C424,275.2,428.2,281.9,421.8,284.8z"/>
			<path class="st7" d="M328.9,222.4v2.4c0,0,0.7,7.4-8.4,8.5s-16-2.9-15.7-8.5c0.8-4.4,1.7-7.4,1.8-11.1c0-1.4-0.1-2.8-0.3-4.4
				l17.6-0.4l5.2,0.8L328.9,222.4z"/>
			<path class="st8" d="M328.9,209.6v12.8c-1.9,0.9-4,1.4-6.3,1.4c-8.1,0-16.1-13-16.4-14.6L328.9,209.6z"/>
			<path class="st7" d="M329.9,215.8c0,0-22.5,4.6-25.2-9.5c-2.6-14.1-7.3-23,7-26.5s18.1,1.3,20.1,5.8S335.7,214.3,329.9,215.8z"/>
			<path class="st5" d="M336.2,175.2c0,0-6.3-0.5-13.7-3.7c-6-2.6-13.6,0.3-16.1,1.6c0.1-0.4,0.2-0.9,0.6-1.5c0,0-1.1,0.8-1.3,1.9
				c-0.1,0.1-0.2,0.1-0.1,0.2c0,0-1.3-0.2-2.1,0.1c0,0,0.6-0.1,0.8,0.3l0.1,0.1c-9.4,4.6-10.2,19.4-7.2,22.8c3.6,4.1,8,13.4,8,13.4
				s1.6-2.2,0.9-5.8s2.5-3.6,6.4-5.3c4-1.7,0.7-6.3,4.1-9.1c3.5-2.8,16.2-1.2,16-3.3C337.4,185.1,336.2,175.6,336.2,175.2z"/>
			<path class="st9" d="M295.4,316.2c-1.1-7.3-3.7-16.6-4.9-24.4c-1-6.6-2-17.1-2.7-24c0-0.1,0-0.2,0-0.3c0,0,0.1,0.2,0.2,0.1
				c2.5-3,9.3-6.3,17.5,5.7c1.6,2.4,8.4,17.2,8.1,20.2C312.5,307.2,295.4,316.2,295.4,316.2z"/>
			<path class="st7" d="M300.8,295.3c-0.2-1.1,0-2.5,0.9-4.2c0,0,1.1-0.7,2.5-1.5c2.1-1.2,4.9-2.6,6.2-2.4c0.2,0,0.5,0.1,0.9,0.2
				c3.1,0.7,10.2,2.9,11.3,4.2c0.9,1.1,2.1,2.4,2.9,3.6L300.8,295.3L300.8,295.3z"/>
			<path class="st4" d="M305.5,295.3h-60.2c-0.2-0.8-0.2-1.5,0-2c1.8-4.5,5.3-12,9.3-20c3-5.9,6.2-12.1,9.3-17.6
				c4.3-7.7,8.2-14.1,10.5-16.8c1.8-2.1,4.1-3.8,6.5-5.3c2-1.2,4.1-2.2,6-3l0,0c0.1-0.1,0.3-0.1,0.4-0.2c4.2-1.7,7.5-2.4,7.5-2.4
				s0,1.9,0,4.8c0,8.5-0.3,25.6-3,29.8c-0.8,1.2-2.2,2.9-3.9,5c-0.1,0.1-0.1,0.1-0.2,0.2c-1,1.1-2,2.3-3.1,3.6
				c-6.3,7-14.3,15.3-15.2,16.3c-0.1,0.1-0.1,0.1-0.1,0.1h0.1l16.9,0.2l5.2,0.1l10.7,0.1c0.7,0.3,1.3,0.8,1.8,1.5
				C305.2,291.2,305.5,293.4,305.5,295.3z"/>
			<path class="st9" d="M421.8,284.8c-6.4,3-44.5,5.5-48.2,4.4c-1.9-0.5-9.7-7.5-17.6-16c0.4,0.1,4-6,20.5,8.4c0,0,4.3,1.9,16.1,0.8
				C404.2,281.5,419.3,281.1,421.8,284.8z"/>
			<path class="st4" d="M311.3,211.4l-0.9,0.2c-4,0.8-7.9-1.8-8.7-5.8l-0.9-4.7c-0.8-4,1.8-7.9,5.8-8.7l0.9-0.2
				c4-0.8,7.9,1.8,8.7,5.8l0.9,4.7C317.9,206.6,315.3,210.6,311.3,211.4z"/>
			<g>
				<path class="st4" d="M304.3,194.5c-0.6-1.1-1.5-9.8,0.9-16.8c1.2-3.4,3-5.3,5.4-6.6c0.9-0.5,1.8-0.7,2.8-0.7h2.4
					c-7.8,3.3-9.6,20.9-9,22.8c0-0.1,0-0.1-0.1-0.1L304.3,194.5z"/>
			</g>
			<g>
				<path class="st4" d="M327.1,212.8c-13.1,0-19.6-10.3-19.6-10.5l1.2-0.7L308,202l0.6-0.4c0.1,0.1,6.2,9.8,18.5,9.8
					c0.1,0,0.2,0,0.2,0v1.4C327.2,212.8,327.1,212.8,327.1,212.8z"/>
			</g>
			<path class="st9" d="M310.6,206.5l-3.2,0.6c-1.2,0.2-2.4-0.6-2.7-1.8l-1-5.1c-0.2-1.2,0.6-2.4,1.8-2.7l3.2-0.6
				c1.2-0.2,2.4,0.6,2.7,1.8l1,5.1C312.6,205,311.8,206.3,310.6,206.5z"/>
			<path class="st4" d="M328.7,213.3h-1.2c-0.6,0-1.1-0.5-1.1-1.1l0,0c0-0.6,0.5-1.1,1.1-1.1h1.2c0.6,0,1.1,0.5,1.1,1.1l0,0
				C329.8,212.8,329.3,213.3,328.7,213.3z"/>
		</g>
	</g>
	<g>
		<g>
			<path class="st7" d="M171.2,441.9c0.3,3.6,5.4,3.7,11.2,3s4.3,0.8,12.4,0.9c8.1,0.1,10.9-2.6,11.3-3.7c0.4-1-3.6-1.9-7.7-2.9
				c-0.5-0.1-1.1-0.3-1.6-0.4c-4.7-1.2-7.8-4.7-11.9-7.8c-3.8-2.9-8.7-13.5-8.7-13.5L165,417c0,0,4.7,9.5,6.4,13.6
				c1,2.4,0.6,5.4,0.1,7.6C171.4,439.4,171.1,440.7,171.2,441.9z"/>
			<path class="st5" d="M182.4,444.9c5.8-0.7,4.3,0.8,12.4,0.9c8.1,0.1,10.9-2.6,11.3-3.7c0.4-1-3.6-1.9-7.7-2.9v0.1
				c0,0-5.2,2.8-11.9,2.1c-5.4-0.5-11-2.8-14.8-3.2c-0.2,1.2-0.5,2.5-0.4,3.8C171.5,445.6,176.6,445.6,182.4,444.9z"/>
		</g>
		<g>
			<path class="st7" d="M94.6,442.7c0.3,3.6,5.4,3.7,11.2,3c5.8-0.7,4.3,0.8,12.4,0.9s10.9-2.6,11.3-3.7c0.4-1-3.6-1.9-7.7-2.9
				c-0.5-0.1-1.1-0.3-1.6-0.4c-4.7-1.2-7.8-4.7-11.9-7.8c-3.8-2.9,0-20.2,0-20.2l-12.2-1.2c0,0,0.6,14.6,0.6,21.2
				c0,2.6-1.2,5.1-1.7,7.4C94.8,440.2,94.6,441.4,94.6,442.7z"/>
			<path class="st5" d="M105.8,445.7c5.8-0.7,4.3,0.8,12.4,0.9s10.9-2.6,11.3-3.7c0.4-1-3.6-1.9-7.7-2.9v0.1c0,0-5.2,2.8-11.9,2.1
				c-5.4-0.6-11-2.8-14.8-3.2c-0.2,1.2-0.5,2.5-0.4,3.8C94.9,446.3,100,446.4,105.8,445.7z"/>
		</g>
		<path class="st5" d="M130.2,143.7c2.1-8.6-0.9-12.7-3.7-14.8c-1.3-3.2-2.8-5.5-4.3-6.3c-2.8-1.6-6.1-1.7-8.4-1.6
			c0.6-0.6,1.8-0.8,1.8-0.8c-1.4-0.2-4.7,1.2-4.7,1.2c-20-7.7-23.2,21.8-22.8,28.6c0.4,6.9,0.4,14.9-10.1,20.3
			c-19.9,10.3,6.6,49.1,6.6,49.1c-0.5-5.5,25-34.8,38.4-43.5c3.2-4.8,4.4-13.2,4.5-13.9c-0.6,6.7-1.7,10.4-2.7,12.6
			C130.9,169,131.8,155.5,130.2,143.7z"/>
		<path class="st7" d="M122.3,176.3c0.1,0-6.4,3.4-11.3,2.1c-4.6-1.3-7.6-7.2-7.5-7.2c1.9-0.4,2.5-3.1,2.5-14.6l0.9,0.2l14.8,2.9
			c0,0-0.3,4.7-0.3,9.1C121.2,172.4,121.5,175.9,122.3,176.3z"/>
		<path class="st8" d="M121.6,159.7c0,0-0.3,4.7-0.3,9.1c-8.3-0.2-12.7-7.8-14.5-12L121.6,159.7z"/>
		<path class="st4" d="M181.9,423.4c0.7,2.3-0.9,4.6-3.3,4.7l-5.8,0.3l-6.1,0.2c-1.5,0-3-0.6-4-1.8c-4.9-6-19.9-26-29.1-55
			c-0.3-0.8-0.5-1.6-0.8-2.5c-6-17.6-18.5-39.6-25.1-59.6c-1-3.2-2-6.2-2.8-9c-0.3-0.9-0.5-1.8-0.8-2.7c-4.9-16.9-6.3-27.9-7.6-39.8
			l47.5,0.4C144.1,258.6,154.1,336.4,181.9,423.4z"/>
		<path class="st3" d="M137.5,231.3c-0.1,22.6,3.3,32.3,3.3,32.3s-20.4,10.3-44.6,2.7c-0.3-0.1-6.6-37.4-6-40.8
			c1.1-6.3,1.1-12.8,0.6-19c-1.5-16.3-5.9-29.8-5.9-29.8c6.6-1.5,12.8-4.1,19.6-6.7c1.6,2,6.4,4,10.6,3.9c4.8-0.1,6.4-2.2,6.1-4.4
			c5.1,2.9,9.2,5.6,9.2,5.6c4.4,7.6,13.2,14.9,13.9,26.6C144.5,204.7,137.5,230.7,137.5,231.3z"/>
		<path class="st10" d="M96.6,233.8c-2.1,2.9-6.1,20.8-16,23.1c5.1-12.7,9-18.3,9.6-22.2c1.1-7.3,1.1-14.9,0.6-22
			c3.3-5.8,5.8-9.8,5.8-9.8c0.3-0.9,5.3-16.4,6.9-2.6C105,214.1,98.9,230.5,96.6,233.8z"/>
		<path class="st6" d="M130.3,173.6c0,0,7.1,3.8,10,7.6c3,3.8,20.4,35.1,20.4,38.2c0,3.1-17.7,1.1-17.7,1.1L130.3,173.6z"/>
		<path class="st7" d="M124.4,163.8c0,0-19.6,0.3-19.6-11.9s-2.6-20.4,10-21.1c12.5-0.7,15,3.9,16,8
			C131.7,142.9,129.5,163.4,124.4,163.8z"/>
		<path class="st5" d="M123.6,130.5c0,0-5.4,14.3-13.6,16.5c-8.2,2.1-11.8-0.1-11.8-0.1s6.3-5,7.6-13.8
			C105.9,133.1,119.6,123.7,123.6,130.5z"/>
		<path class="st5" d="M122.3,131.7c0,0,4,3.2,5,6.3s1.4,9.5,3.3,9.3c0,0,4-9.7-0.5-15.3C125.3,126.2,122.3,131.7,122.3,131.7z"/>
		<path class="st6" d="M121.2,169.7c0,0,11.3,28,11.7,33.7c0.3,5.7,1.3,92.8,1.3,92.8s-0.7,4,7,2.3s9.7-3.3,9.7-3.3
			s-7.3-53.7-5.3-72.4s-15.4-49.2-15.4-49.2L121.2,169.7z"/>
		<path class="st9" d="M172.8,428.4l-6.6,0.2c-1.2,0-2.3-0.5-3.1-1.4c-4.5-5.4-20.1-25.7-29.4-55.5c-0.3-0.8-0.5-1.6-0.8-2.5
			c-6-17.6-18.5-39.6-25.1-59.6c-1-3.2-2-6.2-2.8-9c-0.3-0.9-0.5-1.8-0.8-2.7l7-5.3c0,0,21,34,27.5,66.1
			C144.3,386.6,166.9,420.1,172.8,428.4z"/>
		<path class="st4" d="M111.8,361.7c0.1,14.7-0.6,47.6-2.4,63.6c-0.2,1.5-1.4,2.6-2.9,2.6h-5c-2.1,0-3.7,0-4.7,0
			c-0.9,0-1.7-0.7-1.8-1.5c-4.9-25.1-8.5-46-11-64c-2.2-15.1-4.1-28-5.6-39.1c-1.5-11.2-2.5-20.6-2.9-28.5c-0.1-1.2-0.1-2.5-0.1-3.6
			c0-1.2,0-2.3,0-3.5l41.1-4C116,310.9,111.8,352.7,111.8,361.7z"/>
		<path class="st9" d="M101.6,428c-1.9,0-3.3,0-4.4,0s-2-0.8-2.2-1.9c-4.9-25-8.4-45.7-11-63.7c-2.2-15.1-4.1-28-5.6-39.1
			c-1.5-11.2-2.5-20.6-2.9-28.5l15.1,8.9c0,0-9.6,3.4-6,29.1C88.4,358.4,96.5,424.3,101.6,428z"/>
		<path class="st6" d="M103.6,294.5c0,0-2.9,10.5-12.9,9.1c-10-1.3-24.2-7.3-24.2-7.3s4.3-13.5,9.6-31.3
			c6.4-21.5,14.4-49.2,18.2-66.7c1.1-4.9,1.8-9,2-11.9l8.3-16.1c0,0,12.4,27.8,13.1,34.8C118.2,212.1,103.6,294.5,103.6,294.5z"/>
		<path class="st5" d="M103.1,219.7c-0.4,11.3-3.1,33.4-26.9,45.2c-0.1,0-0.1,0.1-0.2,0.1c6.4-21.5,14.4-49.2,18.2-66.7
			C98.5,204.8,103.4,213.5,103.1,219.7z"/>
		<path class="st7" d="M93.6,204l11-33.8c0,0-13.8,4.1-20.8,7.6c0,0-4.3,5.6-7,18.5c0,0-2.8,31,3.5,42.4c0,0,20,4,52.1-7v-7.3
			c0,0-35,1.8-42.2,2.7L93.6,204z"/>
		<path class="st6" d="M104.5,170.3c0,0-20.3,1.4-25.2,12.3c-4.9,10.9-6.5,47.2-0.2,57.8c0,0,8.6,2.4,23.7-0.4
			c0.2,0,0.4-0.1,0.6-0.1c0,0,4.8-11.8,0.5-14.2c0,0-12.8,0.7-11.5-3.6C93.8,218,104.5,170.3,104.5,170.3z"/>
		<g>
			<path class="st11" d="M155.5,229l-0.6,1.9l-33.3-10.4c0,0-0.4-0.5-0.2-1.2c0.2-0.7,0.8-0.7,0.8-0.7L155.5,229z"/>
			<polygon class="st11" points="157.9,230.8 155.5,229 154.9,230.9 			"/>
		</g>
		<path class="st7" d="M132.3,224.4c0,0,7.6-4.7,10.7-3.9c3.2,0.7,11.3,6.6,7.4,7.8c-3.9,1.3-7-0.1-8.5,0.9
			c-1.5,0.9-2.6,2.6-9.6,2.6C125.3,231.7,132.3,224.4,132.3,224.4z"/>
		<g>
			<polygon class="st5" points="129.5,265.6 164.1,265.7 177.5,215.3 142.8,215.3 			"/>
			<path class="st12" d="M144.3,211.8c0,0-2.7,0.4-1.5,3.5h11.8l-3.8-3.5H144.3z"/>
			<path class="st13" d="M144.3,211.8c0,0,5.2,0,7,4.2c2.2,5.1,1.3,19.5,1.3,19.5h27.8c0,0,4.4-16.9-4.8-23.7H144.3z"/>
		</g>
		<path class="st7" d="M170.7,240.4c0,0-4.2-3.1-5.5-1.3s1,11,3.7,10.3C171.7,248.7,171.7,242.2,170.7,240.4z"/>
	</g>
	<path class="st3" d="M357.4,166.2c-0.7-17,13.5-24.5,28.1-24.5s30.4,3.8,31.8,26.4c0.9,14.5-6.9,23.5-29.2,23.5
		c-7.5,0-13.4-1.2-17.8-3.3l-11.1,9.9l5.5-13.7C359.8,179.9,357.7,173.6,357.4,166.2z"/>
	<path class="st3" d="M556.3,147.5c1.3-31-24.7-44.8-51.3-44.8c-26.6,0-55.5,6.9-58,48.1c-1.6,26.5,12.5,42.8,53.2,42.8
		c13.7,0,24.4-2.2,32.6-6l20.3,18.1l-10-25C552,172.5,555.8,160.9,556.3,147.5z"/>
	<g>
		<g>
			<g>
				<path class="st5" d="M225.6,448L225.6,448c-0.5,0-0.9-1-0.9-2.2l1.2-144.4l3.6-1.1l-3.1,145.6C226.4,447,226,448,225.6,448z"/>
			</g>
			<path class="st5" d="M218.8,304h212.1c1.4,0,2.5-1.1,2.5-2.5v-3.6c0-1.4-1.1-2.5-2.5-2.5H218.8c-1.4,0-2.5,1.1-2.5,2.5v3.6
				C216.3,302.8,217.4,304,218.8,304z"/>
		</g>
		<g>
			<path class="st5" d="M693.3,448L693.3,448c0.5,0,0.9-1,0.9-2.2L693,301.4l-3.6-1.1l3.1,145.6C692.4,447,692.8,448,693.3,448z"/>
		</g>
		<path class="st5" d="M414.9,304h283.7c1.4,0,2.5-1.1,2.5-2.5v-3.6c0-1.4-1.1-2.5-2.5-2.5H414.9c-1.4,0-2.5,1.1-2.5,2.5v3.6
			C412.3,302.8,413.5,304,414.9,304z"/>
	</g>
	<g>
		<path class="st6" d="M387.5,295.2h-43.6l0,0c0-1.9,1.6-3.5,3.5-3.5h40.1V295.2z"/>
		<polygon class="st6" points="454.7,247.8 438.5,295.2 370.8,295.2 387.3,247.8 		"/>
		<polygon class="st6" points="454.7,247.8 438.7,294.8 438.5,295.2 371.7,295.2 388.3,247.8 		"/>
		<path class="st4" d="M419.4,271c-0.4,1.8-2.2,3.3-4,3.3s-2.9-1.5-2.5-3.3s2.2-3.3,4-3.3C418.7,267.8,419.8,269.2,419.4,271z"/>
	</g>
	<g>
		<polygon class="st5" points="467,247.8 483.2,295.2 550.9,295.2 534.3,247.8 		"/>
		<polygon class="st14" points="468.9,248.8 484.5,294.8 484.7,295.2 549.9,295.2 533.7,248.8 		"/>
		<path class="st5" d="M483.2,295.2l94.5-0.1l0,0c0-1.9-1.6-3.5-3.5-3.5h-92L483.2,295.2z"/>
	</g>
	<g>
		<path class="st15" d="M609.2,214.6h-6.4c-2.4,0-4.4-2-4.4-4.4V200c0-2.4,2-4.4,4.4-4.4h6.4c2.4,0,4.4,2,4.4,4.4v10.1
			C613.7,212.6,611.7,214.6,609.2,214.6z"/>
		<g>
			<g>
				<path class="st5" d="M568.6,431.2c0,0-1,14.9-3.8,15.1c-0.4,0-14.6,0-14.6,0l-18.1-0.1c0,0,0.1-4.4,5.4-5.3
					c5.3-0.9,14.2-4.6,17.4-11.6C558.2,421.9,568.6,431.2,568.6,431.2z"/>
				<path class="st5" d="M620.5,309c0.7,0.6,19.2,20.6,17.6,36c-0.4,4.5-4.3,7.9-8.9,7.9h-22.5c0,0-22.9,4.1-23.5,9.1
					c-0.5,5-5.2,31.7-14.5,69.7c0,0-6.9,2.4-11,0.7c-5.5-2.2-6.3-4.6-6.3-4.6s5.5-85.1,9.9-91.1s49.5-23.8,64.1-25.6
					C640,309.3,620.5,309,620.5,309z"/>
				<path class="st7" d="M490,287.8c0,0-13-3-16.4,0c-3.3,3-4.4,7.4-4.4,7.4H490V287.8z"/>
				<path class="st5" d="M536.8,431.2c0,0-1,14.9-3.8,15.1c-0.4,0-14.6,0-14.6,0l-18.1-0.1c0,0,0.1-4.4,5.4-5.3s14.2-4.6,17.4-11.6
					C526.5,421.9,536.8,431.2,536.8,431.2z"/>
				<path class="st6" d="M637.5,309c0.5,0.4,4.5,11.2,7.2,23.4c2.3,10.5-5.7,20.5-16.5,20.5h-52.3c0,0-22.9,4.1-23.5,9.1
					c-0.5,5-5.2,31.7-14.5,69.7c0,0-6.9,1.8-12.3-0.5c-2.9-1.2-5.1-4.1-5.1-4.1s5.6-84.3,10-90.3s49.5-23.8,64.1-25.6
					C609.2,309.3,637.5,309,637.5,309z"/>
				<path class="st7" d="M608.5,232.9l-8.1,7.8h-13.8c0-1.1,0-5.7,0.1-9.9c0-0.2,0-0.5,0-0.7c0-0.9,0-1.8,0-2.6c0-2.3,0.1-4,0.1-4
					l3.5-2.4l7.9-5.4l4.3-2.9c0,0.1,0.4,3.9,0.4,4.4C603.8,227,608.5,232.9,608.5,232.9z"/>
				<path class="st16" d="M588.5,231.5c0.3-0.1,15.2-6.8,16.9-6.2s3.9,5.9,3.9,5.9l-26.3,5.9C583,237.2,585.1,233,588.5,231.5z"/>
				<path class="st4" d="M653,276.2c-2.8-17.5-14.8-30.6-20-35.6c-3.4-5.2-23.7-9.5-23.7-9.5s-16.8,3.8-26.3,5.9
					c0,0-14.8,1.6-23.2,15.4c-5.2,8.5-20,28.1-29.7,28.7s-40.2,6.5-40.2,6.5v7.5l46.5,1.3c0.6,0,1.1,0,1.7-0.1
					c4-0.8,21.2-4.2,29.7-8.6c1.4,22,3,55.5,10.6,60.8c8.1,5.6,65.2,6.4,71.2-2.2c3.1-4.4-0.7-30.4-5.4-55.5
					C650.2,288.2,654.2,283.6,653,276.2z"/>
				<path class="st8" d="M600.3,220.2l-0.7,0.4c0,0-6.5,4.7-12.8,6.8c0-2.3,0.1-4,0.1-4l3.5-2.4L600.3,220.2z"/>
				<path class="st7" d="M582,223.6c0,0,21.2,2.5,22.6-10.7c1.4-13.2,5-21.8-8.5-24s-16.6,2.6-18.2,6.9
					C576.4,200.1,576.5,222.6,582,223.6z"/>
				<path class="st5" d="M578.5,194.4c0,0,4,14.4,6.9,13.2s5.5-2.2,5.9,2.3s2.1,9.7,11.5,8.8c9.4-1,13.4-26.8,10-30.9
					C603,176,564.8,180.4,578.5,194.4z"/>
			</g>
			<g>
				<path class="st1" d="M563.4,355.7h105.2c3.8,0,6.9-3.1,6.9-6.9v-5H563.4V355.7z"/>
				<path class="st3" d="M549,355.7h83.1c1.9,0,3.5-1.6,3.5-3.5v-5c0-1.9-1.6-3.5-3.5-3.5H549c-1.9,0-3.5,1.6-3.5,3.5v5
					C545.5,354.2,547.1,355.7,549,355.7z"/>
				<g>
					<polygon class="st3" points="617,441.8 623.7,441.8 625.6,355.7 615.3,355.7 					"/>
					<polygon class="st3" points="587.5,441.8 653.4,441.8 653.4,435.9 619.8,432.9 587.5,435.9 					"/>
					<path class="st3" d="M659.8,440.9c0-3-2.4-5.4-5.4-5.4s-5.4,2.4-5.4,5.4s2.4,5.4,5.4,5.4C657.3,446.3,659.8,443.9,659.8,440.9z
						"/>
					<path class="st3" d="M593.9,440.9c0-3-2.4-5.4-5.4-5.4s-5.4,2.4-5.4,5.4s2.4,5.4,5.4,5.4S593.9,443.9,593.9,440.9z"/>
					<path class="st3" d="M589.9,361.4H651c3.1,0,5.7-2.5,5.7-5.7l0,0h-72.4l0,0C584.2,358.8,586.8,361.4,589.9,361.4z"/>
				</g>
				<path class="st3" d="M665.2,355.7c2.8,0,5.2-2.3,5.2-5.2v-79.3c0-14.9-9.7-26.9-21.7-26.9h-49.1c-12,0-21.7,12-21.7,26.9v84.5
					H665.2z"/>
				<path class="st2" d="M666.2,355.7c5.2,0,9.4-4.2,9.4-9.4v-75.1c0-14.9-9.7-26.9-21.7-26.9h-49.1c-12,0-21.7,12-21.7,26.9v84.5
					H666.2z"/>
			</g>
		</g>
		<g>
			<g>
				<path class="st15" d="M574.4,223.8c12.1-3.8,15.1-15.3,15.1-15.4l-1.3-0.3l0.6,0.2l-0.6-0.2c0,0.1-2.8,10.9-14.2,14.4
					c-0.1,0-0.2,0-0.2,0.1l0.4,1.3C574.3,223.9,574.4,223.9,574.4,223.8z"/>
			</g>
			<path class="st15" d="M573.1,224.7l1.1-0.4c0.6-0.2,0.9-0.8,0.7-1.4l0,0c-0.2-0.6-0.8-0.9-1.4-0.7l-1.1,0.4
				c-0.6,0.2-0.9,0.8-0.7,1.4l0,0C571.9,224.6,572.5,224.9,573.1,224.7z"/>
		</g>
		<g>
			<path class="st15" d="M589.7,219.4l-0.9,0.1c-3.9,0.5-7.6-2.2-8.1-6.1l-0.6-4.6c-0.5-3.9,2.2-7.6,6.1-8.1l0.9-0.1
				c3.9-0.5,7.6,2.2,8.1,6.1l0.6,4.6C596.4,215.2,593.6,218.8,589.7,219.4z"/>
			<g>
				<path class="st15" d="M584,202.6c-0.5-1,1.3-8.6,4-14.5c1.3-2.9,4.6-6.7,6.9-7.7c0.8-0.4,2-0.2,2.9,0c0.7,0.2,2.5,1.2,2.5,1.2
					c-7.7,2.4-14.4,18.4-13.9,20c0-0.1,0-0.1-0.1-0.1L584,202.6z"/>
			</g>
			<path class="st16" d="M588,214.8l-0.4,0.1c-2,0.3-3.8-1.1-4-3.1l-0.3-2.3c-0.3-2,1.1-3.8,3.1-4l0.4-0.1c2-0.3,3.8,1.1,4,3.1
				l0.3,2.3C591.3,212.7,589.9,214.5,588,214.8z"/>
		</g>
	</g>
	<path class="st17" d="M765.5,446.4v0.4c0,0.6-0.4,1.2-0.8,1.2H42.8c-0.4,0-0.8-0.5-0.8-1.2v-0.4c0-0.6,0.4-1.2,0.8-1.2h721.9
		C765.1,445.3,765.5,445.8,765.5,446.4z"/>
</g>
<rect x="-89" y="-53" class="st0" width="72.5" height="72.5"/>
</svg>
